<?xml version="1.0" standalone="no"?>
<!DOCTYPE svg PUBLIC "-//W3C//DTD SVG 20010904//EN"
 "http://www.w3.org/TR/2001/REC-SVG-20010904/DTD/svg10.dtd">
<svg version="1.0" xmlns="http://www.w3.org/2000/svg"
 width="1680.000000pt" height="1680.000000pt" viewBox="0 0 1680.000000 1680.000000"
 preserveAspectRatio="xMidYMid meet">
<metadata>
Created by potrace 1.11, written by Peter Selinger 2001-2013
</metadata>
<g transform="translate(0.000000,1680.000000) scale(0.100000,-0.100000)"
fill="#000000" stroke="none">
<path d="M4857 13355 c-1 -2 -69 -5 -152 -9 -159 -7 -222 -11 -295 -22 -25 -3
-63 -8 -85 -10 -52 -4 -113 -13 -145 -21 -14 -3 -43 -7 -65 -9 -22 -2 -103
-17 -180 -34 -77 -17 -153 -33 -170 -35 -16 -3 -39 -8 -50 -12 -24 -8 -32 -10
-66 -17 -14 -3 -45 -12 -68 -21 -23 -8 -43 -14 -46 -15 -3 0 -6 0 -7 -1 -2 0
-10 -2 -18 -4 -32 -7 -186 -57 -205 -66 -12 -6 -27 -11 -35 -13 -18 -4 -27 -7
-160 -59 -58 -23 -107 -42 -110 -43 -3 0 -32 -14 -65 -29 -33 -16 -62 -29 -65
-30 -20 -5 -55 -19 -64 -26 -6 -5 -67 -37 -136 -73 -136 -69 -177 -91 -271
-148 -34 -21 -65 -38 -69 -38 -4 0 -15 -9 -25 -20 -10 -11 -24 -20 -32 -20 -7
0 -13 -5 -13 -10 0 -6 -3 -9 -7 -8 -5 2 -19 -5 -33 -15 -14 -10 -70 -50 -125
-89 -88 -62 -273 -208 -374 -294 -56 -48 -383 -377 -426 -430 -22 -26 -51 -61
-65 -76 -14 -15 -35 -40 -47 -55 -82 -108 -110 -144 -123 -163 -8 -12 -19 -28
-25 -34 -15 -18 -103 -146 -182 -267 -13 -19 -23 -40 -23 -47 0 -6 -6 -15 -12
-19 -12 -7 -28 -35 -90 -153 -12 -25 -26 -47 -29 -50 -3 -3 -36 -68 -73 -145
-37 -77 -72 -148 -77 -157 -5 -10 -9 -25 -9 -33 0 -8 -4 -15 -10 -15 -5 0 -10
-6 -10 -12 0 -7 -6 -24 -13 -38 -7 -14 -21 -51 -32 -82 -10 -32 -23 -58 -28
-58 -4 0 -6 -4 -3 -8 2 -4 -8 -38 -24 -75 -15 -37 -27 -67 -25 -67 2 0 -6 -24
-16 -52 -11 -29 -22 -60 -24 -68 -2 -8 -24 -87 -50 -175 -25 -88 -48 -178 -52
-200 -3 -22 -9 -48 -14 -57 -5 -10 -10 -36 -12 -58 -1 -22 -6 -40 -11 -40 -4
0 -6 -6 -3 -14 3 -8 3 -17 -1 -20 -3 -4 -7 -17 -9 -29 -2 -12 -7 -47 -12 -77
-5 -30 -7 -58 -4 -62 2 -5 1 -8 -4 -8 -7 0 -12 -28 -16 -102 -1 -16 -4 -28 -7
-28 -3 0 -5 -17 -6 -38 0 -20 -4 -57 -8 -82 -8 -56 -19 -188 -20 -257 0 -29
-3 -53 -6 -53 -8 0 -4 -576 5 -685 11 -142 13 -167 20 -225 3 -30 8 -71 10
-90 2 -19 4 -35 5 -35 1 0 3 -16 5 -35 4 -43 18 -129 31 -200 3 -14 9 -47 14
-75 4 -27 14 -70 20 -95 6 -25 13 -61 16 -80 3 -19 8 -42 10 -50 3 -8 15 -49
25 -90 26 -101 69 -250 79 -275 5 -11 14 -38 20 -60 6 -22 15 -49 20 -60 16
-39 24 -60 25 -70 1 -5 7 -21 13 -35 11 -27 24 -65 22 -65 -1 0 10 -23 24 -51
14 -29 26 -55 26 -60 0 -33 213 -454 313 -619 46 -77 211 -321 218 -323 5 -2
9 -10 9 -18 0 -8 4 -14 8 -14 4 0 19 -18 32 -40 14 -22 28 -40 32 -40 3 0 15
-15 27 -32 11 -18 28 -42 38 -53 10 -11 43 -49 73 -84 134 -157 353 -378 466
-471 11 -9 44 -37 74 -63 30 -26 60 -51 65 -55 27 -20 141 -108 145 -112 3 -3
41 -30 85 -60 44 -29 82 -57 85 -60 3 -3 41 -28 85 -55 44 -27 82 -53 83 -57
2 -4 11 -8 19 -8 9 0 23 -8 32 -17 9 -10 21 -19 26 -20 6 -1 54 -26 106 -55
172 -97 452 -226 589 -273 3 -1 19 -7 35 -14 17 -6 44 -16 60 -22 17 -6 39
-15 50 -19 11 -4 61 -20 110 -35 50 -15 97 -29 105 -32 8 -4 20 -7 27 -9 6 -1
27 -7 45 -13 18 -6 44 -13 58 -16 14 -3 90 -21 170 -40 80 -19 163 -37 185
-40 22 -3 47 -8 55 -10 8 -2 33 -7 55 -10 22 -4 51 -8 65 -11 14 -2 45 -6 69
-9 24 -2 62 -7 85 -11 56 -9 102 -14 161 -18 28 -2 91 -7 140 -11 50 -4 140
-8 200 -9 61 0 113 -5 117 -11 5 -7 8 -7 8 0 0 10 101 11 126 1 7 -3 15 -2 19
2 3 4 50 8 103 9 96 2 257 10 257 13 0 1 27 4 60 6 61 4 120 11 120 14 0 1 20
3 45 5 25 1 64 6 86 9 73 12 119 18 132 19 6 0 12 3 12 7 0 4 10 6 22 5 12 -1
50 4 84 11 33 7 72 15 85 18 13 2 56 12 94 20 39 9 81 19 94 22 14 3 28 7 33
10 4 3 16 7 25 9 10 3 36 9 58 15 22 6 49 13 60 15 23 5 232 72 255 82 8 3 18
7 23 8 4 2 9 4 12 5 3 1 8 3 13 5 13 3 46 16 72 28 14 6 27 11 30 12 63 14
475 207 602 282 35 21 66 38 70 38 4 0 13 6 19 13 7 6 19 12 26 12 8 0 16 7
19 15 4 8 10 12 15 9 5 -3 9 0 9 5 0 6 4 11 10 11 16 0 352 226 370 250 3 3
21 17 40 30 60 42 308 257 373 323 44 44 38 46 124 -38 28 -28 73 -70 100 -92
26 -23 66 -58 88 -78 22 -19 65 -54 95 -77 30 -23 61 -49 68 -57 6 -8 12 -12
12 -8 0 4 10 -2 23 -14 12 -11 49 -39 82 -62 33 -22 62 -43 65 -46 3 -3 12
-10 21 -16 91 -58 148 -96 171 -114 14 -12 33 -21 41 -21 9 0 17 -4 19 -9 2
-4 30 -23 63 -41 33 -19 87 -48 120 -67 69 -38 322 -163 330 -163 5 0 51 -20
141 -62 23 -10 51 -20 62 -23 11 -2 33 -10 50 -19 16 -8 32 -12 36 -9 3 4 6 1
6 -6 0 -7 4 -10 8 -7 5 3 21 -1 35 -9 15 -8 30 -14 32 -15 3 0 6 0 8 -1 1 0 9
-2 17 -4 8 -1 42 -12 75 -23 77 -26 151 -49 245 -74 41 -10 91 -24 110 -29 35
-10 53 -14 100 -23 14 -2 36 -7 50 -10 22 -5 143 -29 219 -43 14 -2 29 -7 34
-10 6 -4 7 -1 2 6 -6 10 -3 11 14 2 19 -11 112 -24 169 -25 12 0 22 -3 22 -6
0 -3 15 -6 33 -7 29 -1 84 -5 247 -19 30 -3 117 -6 193 -8 75 -1 140 -6 144
-9 3 -4 12 -2 20 4 10 9 13 8 13 0 0 -7 5 -9 11 -5 6 3 76 8 157 10 186 4 347
16 522 40 30 4 66 8 80 10 14 1 25 3 25 4 0 1 18 3 40 6 22 3 76 12 120 20 44
9 94 18 110 20 17 3 44 9 60 14 17 5 46 11 65 14 19 3 60 13 90 21 30 9 62 17
70 19 43 11 150 41 170 49 22 8 119 38 133 41 7 2 25 8 40 14 16 7 30 12 32
12 2 0 16 5 32 12 15 6 37 13 47 15 11 2 25 8 33 14 7 6 13 9 13 5 0 -4 15 1
33 11 17 9 35 18 40 19 4 1 8 2 10 4 1 1 11 3 21 5 10 2 22 7 25 12 3 4 13 9
21 11 8 2 35 13 60 24 91 41 235 109 250 118 15 9 71 39 150 80 25 13 52 29
60 36 8 7 22 14 30 16 8 2 19 7 25 11 30 24 148 97 156 97 5 0 9 5 9 10 0 6 5
10 11 10 6 0 28 13 49 30 21 16 42 30 48 30 6 0 12 3 14 8 2 4 35 30 73 57 65
46 91 65 119 90 6 6 29 23 51 40 51 38 68 52 115 95 21 19 57 51 80 70 113 94
353 345 495 519 11 13 28 32 38 43 9 10 14 18 11 18 -3 0 1 6 8 13 7 8 24 29
38 47 14 18 30 38 35 44 6 6 21 28 34 49 13 21 28 43 35 50 6 6 34 46 61 87
28 41 54 78 58 81 5 3 7 8 6 10 -2 2 13 29 32 59 96 149 289 520 289 555 0 8
5 15 10 15 6 0 10 6 10 13 0 7 11 37 25 65 14 29 25 54 25 56 0 3 5 17 12 33
6 15 12 33 13 38 2 6 16 44 32 85 16 41 45 122 63 180 18 58 35 112 38 120 3
8 6 18 7 23 2 4 4 10 5 15 1 4 2 10 2 13 -1 3 10 41 23 84 14 43 22 82 19 86
-3 5 -1 9 3 9 5 0 9 8 10 18 1 9 11 60 23 112 12 52 23 109 26 125 3 17 7 41
10 55 9 48 15 85 19 120 2 19 4 35 5 35 3 0 9 40 15 100 7 65 10 91 20 176 28
249 32 633 10 944 -3 44 -8 105 -10 135 -2 30 -5 55 -6 55 -1 0 -3 16 -5 35
-5 48 -12 98 -31 210 -9 52 -17 111 -19 130 -2 19 -12 71 -23 115 -11 44 -18
82 -16 84 3 2 0 12 -5 22 -6 9 -12 35 -15 56 -3 21 -10 49 -15 63 -6 14 -12
36 -14 50 -3 14 -5 26 -7 28 -1 1 -3 7 -4 12 -1 6 -3 11 -4 13 -2 1 -4 13 -7
27 -4 24 -29 108 -41 140 -3 8 -7 20 -9 25 -9 38 -72 216 -94 270 -11 26 -20
58 -19 69 0 5 -4 12 -11 16 -6 4 -13 13 -14 21 -3 13 -10 30 -53 127 -9 20
-17 39 -17 42 -5 17 -41 86 -49 91 -5 3 -8 9 -7 13 2 8 -60 138 -69 146 -3 3
-26 43 -50 90 -24 47 -49 92 -56 100 -7 8 -23 35 -36 60 -13 25 -28 49 -32 55
-4 5 -37 55 -74 110 -36 55 -70 102 -74 103 -5 2 -9 8 -9 13 0 8 -51 80 -70
99 -3 3 -25 32 -50 65 -25 33 -49 65 -55 71 -5 6 -30 35 -55 64 -95 112 -129
148 -255 275 -123 123 -285 269 -385 345 -25 19 -50 39 -56 45 -6 5 -22 18
-35 27 -13 10 -55 40 -92 68 -37 27 -72 50 -77 50 -6 0 -10 5 -10 10 0 6 -7
10 -15 10 -8 0 -15 4 -15 8 0 5 -19 19 -42 32 -45 25 -106 64 -123 78 -6 5
-15 11 -21 13 -19 8 -169 93 -174 98 -7 8 -322 165 -335 167 -5 1 -31 11 -57
23 -27 11 -68 30 -93 41 -25 11 -49 20 -55 20 -6 0 -18 4 -28 9 -37 19 -93 41
-103 41 -6 0 -25 6 -42 14 -18 7 -52 19 -77 26 -25 8 -49 16 -55 19 -5 3 -16
6 -23 7 -8 2 -21 6 -30 10 -9 4 -24 8 -32 8 -8 1 -21 5 -27 9 -7 5 -17 5 -23
2 -5 -3 -10 -2 -10 3 0 5 -12 12 -27 15 -16 3 -39 8 -53 11 -14 3 -35 8 -48
10 -12 3 -26 7 -30 10 -8 5 -55 15 -97 21 -11 2 -21 4 -22 5 -3 3 -3 3 -58 14
-65 14 -68 15 -115 22 -25 3 -46 10 -48 15 -2 4 -9 6 -17 3 -7 -3 -37 0 -66 6
-30 6 -61 11 -69 12 -8 0 -66 7 -128 14 -61 8 -140 17 -175 19 -34 2 -111 7
-172 11 -146 10 -426 10 -600 0 -205 -11 -238 -14 -360 -32 -16 -2 -50 -6 -75
-9 -25 -2 -63 -7 -85 -12 -22 -4 -55 -7 -72 -8 -18 0 -33 -2 -33 -5 0 -3 -10
-7 -22 -8 -34 -3 -52 -7 -63 -13 -5 -3 -22 -5 -37 -4 -16 0 -28 -3 -28 -7 0
-4 -3 -7 -7 -6 -7 2 -39 -4 -103 -18 -121 -26 -126 -27 -150 -37 -8 -3 -44
-13 -80 -22 -67 -17 -269 -80 -305 -94 -11 -5 -65 -26 -120 -46 -55 -21 -118
-45 -140 -55 -22 -10 -80 -35 -130 -56 -49 -21 -92 -41 -95 -44 -3 -3 -44 -24
-92 -47 -99 -48 -366 -199 -386 -220 -8 -7 -17 -11 -22 -8 -5 3 -10 2 -12 -3
-4 -11 -106 -82 -117 -82 -5 0 -11 -3 -13 -8 -1 -4 -34 -30 -73 -57 -78 -55
-99 -71 -235 -182 -120 -97 -146 -121 -277 -245 l-39 -38 -81 78 c-125 118
-163 152 -174 152 -5 0 -9 4 -9 8 0 11 -206 175 -305 242 -44 30 -85 60 -92
67 -7 6 -41 28 -75 49 -35 21 -64 42 -66 46 -2 4 -8 8 -14 8 -6 0 -26 11 -44
25 -18 14 -36 25 -39 25 -4 0 -48 24 -99 53 -87 50 -378 197 -390 197 -3 0
-29 11 -58 24 -76 33 -92 39 -101 37 -4 0 -10 6 -13 14 -3 8 -9 13 -14 10 -4
-2 -29 4 -56 14 -112 42 -277 99 -309 106 -5 1 -17 5 -25 8 -12 5 -154 43
-194 52 -6 1 -18 5 -26 8 -8 3 -26 8 -40 10 -14 3 -36 8 -50 12 -14 3 -36 8
-50 10 -14 2 -56 10 -94 19 -38 9 -85 18 -105 20 -39 6 -84 14 -116 21 -11 2
-49 7 -85 10 -36 4 -76 9 -90 11 -45 8 -104 15 -170 19 -36 2 -105 7 -155 10
-85 7 -452 14 -458 10z"/>
</g>
</svg>
