<?xml version="1.0" encoding="UTF-8"?>
<svg width="78px" height="79px" viewBox="0 0 78 79" version="1.1" xmlns="http://www.w3.org/2000/svg" xmlns:xlink="http://www.w3.org/1999/xlink">
    <!-- Generator: Sketch 55.1 (78136) - https://sketchapp.com -->
    <title>021-facebook</title>
    <desc>Created with Sketch.</desc>
    <g id="TGP-DESKTOP-" stroke="none" stroke-width="1" fill="none" fill-rule="evenodd">
        <g id="Contact-Us" transform="translate(-470.000000, -801.000000)" fill="#F8FAFD" fill-rule="nonzero">
            <g id="021-facebook" transform="translate(470.000000, 801.000000)">
                <path d="M11.4257812,79 L36.8671875,79 L36.8671875,50.9179688 L27.7265625,50.9179688 L27.7265625,41.6601562 L36.8671875,41.6601562 L36.8671875,30.0878906 C36.8671875,23.706871 41.9927215,18.515625 48.2929687,18.515625 L59.71875,18.515625 L59.71875,27.7734375 L50.578125,27.7734375 C48.0579071,27.7734375 46.0078125,29.8498153 46.0078125,32.4023438 L46.0078125,41.6601562 L59.3063507,41.6601562 L57.7829132,50.9179688 L46.0078125,50.9179688 L46.0078125,79 L66.5742187,79 C72.874466,79 78,73.808754 78,67.4277344 L78,11.5722656 C78,5.19124599 72.874466,0 66.5742187,0 L11.4257812,0 C5.12553402,0 -5.68434189e-14,5.19124599 -5.68434189e-14,11.5722656 L-5.68434189e-14,67.4277344 C-5.68434189e-14,73.808754 5.12553402,79 11.4257812,79 Z M4.5703125,11.5722656 C4.5703125,7.74377441 7.64575195,4.62890625 11.4257812,4.62890625 L66.5742187,4.62890625 C70.354248,4.62890625 73.4296875,7.74377441 73.4296875,11.5722656 L73.4296875,67.4277344 C73.4296875,71.2562256 70.354248,74.3710938 66.5742187,74.3710938 L50.578125,74.3710938 L50.578125,55.546875 L61.6545868,55.546875 L64.7014618,37.03125 L50.578125,37.03125 L50.578125,32.4023438 L64.2890625,32.4023438 L64.2890625,13.8867188 L48.2929687,13.8867188 C39.4725036,13.8867188 32.296875,21.1543426 32.296875,30.0878906 L32.296875,37.03125 L23.15625,37.03125 L23.15625,55.546875 L32.296875,55.546875 L32.296875,74.3710938 L11.4257812,74.3710938 C7.64575195,74.3710938 4.5703125,71.2562256 4.5703125,67.4277344 L4.5703125,11.5722656 Z" id="Shape"></path>
            </g>
        </g>
    </g>
</svg>