<?xml version="1.0" encoding="UTF-8"?>
<svg width="78px" height="78px" viewBox="0 0 78 78" version="1.1" xmlns="http://www.w3.org/2000/svg" xmlns:xlink="http://www.w3.org/1999/xlink">
    <!-- Generator: Sketch 55.1 (78136) - https://sketchapp.com -->
    <title>038-github</title>
    <desc>Created with Sketch.</desc>
    <g id="TGP-DESKTOP-" stroke="none" stroke-width="1" fill="none" fill-rule="evenodd">
        <g id="Contact-Us" transform="translate(-793.000000, -800.000000)" fill="#F8FAFD" fill-rule="nonzero">
            <g id="038-github" transform="translate(793.000000, 800.000000)">
                <path d="M39,0 C17.5653534,0 0,17.7176971 0,39.1523438 C0,60.4626159 17.4052734,78 39,78 C60.5679474,78 78,60.4888001 78,39.1523438 C78,17.7176971 60.4346466,0 39,0 Z M45.8554687,72.7441406 C43.6619567,73.2011719 41.3309784,73.4296875 39,73.4296875 C36.6690216,73.4296875 34.3380433,73.2011719 32.1445312,72.7441406 L32.1445312,62.0497284 C32.1445312,59.4902344 32.8300781,58.5761719 33.7441406,57.3419495 C34.2095032,56.8099365 34.490387,56.3326722 36.5773773,53.1834411 L33.0585937,52.6347656 C24.0090179,51.309494 20.4444123,46.6017152 19.0274964,42.9454652 C17.1993714,38.0555877 18.159256,31.9308929 21.450119,28.0467223 C21.9529723,27.4522248 22.3641815,26.4465179 21.9987946,25.3955841 C21.3126527,23.2931214 21.4042969,19.9570312 21.8613281,18.6769867 C24.2845459,19.0233307 26.7761994,20.7592163 28.8542633,22.0136719 C29.8117676,22.572464 30.3140259,22.424881 30.7734375,22.4707031 C32.4432679,22.1231689 35.0479889,21.2823029 39.0458221,21.2823029 C41.5136719,21.2823029 44.118988,21.6476898 46.6784821,22.3790589 C47.1361084,22.3683472 47.8716431,22.7575378 49.1463317,22.0136719 C51.3184204,20.6901855 53.7255706,19.0138092 56.1386719,18.6769867 C56.5957031,19.9570312 56.6873473,23.2931214 56.0018005,25.3955841 C55.6358185,26.4465179 56.0470277,27.4522248 56.5504761,28.0467223 C59.840744,31.931488 60.8006286,38.0555877 58.9725036,42.9454652 C57.5555877,46.6017152 53.9909821,51.309494 44.9414062,52.6347656 L41.4226227,53.1834411 C43.579834,56.4385986 43.8071595,56.8289795 44.2564544,57.3419495 C45.1699219,58.5761719 45.8554687,59.4902344 45.8554687,62.0497284 L45.8554687,72.7441406 Z M50.4257813,71.418869 L50.4257813,62.0497284 C50.4257813,59.4444123 49.8771058,57.7079315 49.1457367,56.427887 C56.0928498,54.5545348 61.0291442,50.4406585 63.2226563,44.5450745 C65.5536346,38.3299255 64.5027008,30.9257813 60.6173402,25.8067933 C61.3034821,22.7450409 61.3034821,17.8545685 59.6580505,15.5694123 C58.9266815,14.5643005 57.9209748,14.015625 56.6415252,14.015625 C56.5957031,14.015625 56.5957031,14.015625 56.5957031,14.015625 C53.0519256,14.2072448 50.2627259,15.9919281 47.2723846,17.8087464 C44.5301971,17.0773773 41.7421875,16.7119904 38.9541779,16.7119904 C36.1209411,16.7119904 33.2871094,17.1231995 30.7740326,17.8087464 C27.6259919,15.9104004 24.8635711,14.2024841 21.2216034,14.015625 C20.0790252,14.015625 19.0733185,14.5643005 18.3419495,15.5694123 C16.697113,17.8545685 16.697113,22.7450409 17.3826598,25.8067933 C13.4972992,30.9257813 12.4463654,38.3751527 14.7773438,44.5450745 C16.9708558,50.4406585 21.9071502,54.5545348 28.8542633,56.427887 C28.28714,57.4199066 27.8384399,58.6999512 27.6616974,60.4322663 C26.2584686,60.9160767 25.0415039,61.0737762 23.9096374,60.7411195 C22.7158813,60.3882293 21.7857513,59.5914001 20.9776154,58.2322083 C19.1625824,55.1829528 16.0710755,52.6936798 12.5511017,53.0174103 L12.9527894,57.56987 C14.5827484,57.4205016 16.2049714,59.1450806 17.0476227,60.5667572 C18.4377594,62.9078522 20.3105163,64.4431916 22.6153107,65.1239777 C24.3262025,65.6280212 25.8901061,65.6161195 27.5742188,65.2566833 L27.5742188,71.418869 C14.2744904,66.7569123 4.5703125,54.0516815 4.5703125,39.1523438 C4.5703125,20.231369 20.0790252,4.5703125 39,4.5703125 C57.9209748,4.5703125 73.4296875,20.231369 73.4296875,39.1523438 C73.4296875,54.0516815 63.7255096,66.7569123 50.4257813,71.418869 Z" id="Shape"></path>
            </g>
        </g>
    </g>
</svg>