<?xml version="1.0" encoding="UTF-8"?>
<svg width="79px" height="79px" viewBox="0 0 79 79" version="1.1" xmlns="http://www.w3.org/2000/svg" xmlns:xlink="http://www.w3.org/1999/xlink">
    <!-- Generator: Sketch 55.1 (78136) - https://sketchapp.com -->
    <title>025-instagram</title>
    <desc>Created with Sketch.</desc>
    <g id="TGP-DESKTOP-" stroke="none" stroke-width="1" fill="none" fill-rule="evenodd">
        <g id="Contact-Us" transform="translate(-639.000000, -800.000000)" fill="#F8FAFD" fill-rule="nonzero">
            <g id="025-instagram" transform="translate(639.000000, 800.000000)">
                <path d="M11.5722656,79 L67.4277344,79 C73.808754,79 79,73.808754 79,67.4277344 L79,11.5722656 C79,5.19124599 73.808754,0 67.4277344,0 L11.5722656,0 C5.19124599,0 0,5.19124599 0,11.5722656 L0,67.4277344 C0,73.808754 5.19124599,79 11.5722656,79 Z M4.62890625,11.5722656 C4.62890625,7.74377441 7.74377441,4.62890625 11.5722656,4.62890625 L67.4277344,4.62890625 C71.2562256,4.62890625 74.3710938,7.74377441 74.3710938,11.5722656 L74.3710938,67.4277344 C74.3710938,71.2562256 71.2562256,74.3710938 67.4277344,74.3710938 L11.5722656,74.3710938 C7.74377441,74.3710938 4.62890625,71.2562256 4.62890625,67.4277344 L4.62890625,11.5722656 Z" id="Shape"></path>
                <path d="M39,60 C50.5791667,60 60,50.8034722 60,39.5 C60,28.1965278 50.5791667,19 39,19 C27.4208333,19 18,28.1965278 18,39.5 C18,50.8034722 27.4208333,60 39,60 Z M39,23.5555556 C48.0064237,23.5555556 55.3333333,30.708015 55.3333333,39.5 C55.3333333,48.291985 48.0064237,55.4444444 39,55.4444444 C29.9935763,55.4444444 22.6666667,48.291985 22.6666667,39.5 C22.6666667,30.708015 29.9935763,23.5555556 39,23.5555556 Z" id="Shape"></path>
                <path d="M62,23 C65.8597222,23 69,20.0840278 69,16.5 C69,12.9159722 65.8597222,10 62,10 C58.1402778,10 55,12.9159722 55,16.5 C55,20.0840278 58.1402778,23 62,23 Z M62,14.3333333 C63.2863715,14.3333333 64.3333333,15.3055122 64.3333333,16.5 C64.3333333,17.6944878 63.2863715,18.6666667 62,18.6666667 C60.7136285,18.6666667 59.6666667,17.6944878 59.6666667,16.5 C59.6666667,15.3055122 60.7136285,14.3333333 62,14.3333333 Z" id="Shape"></path>
            </g>
        </g>
    </g>
</svg>