<?xml version="1.0" encoding="UTF-8"?>
<svg width="65px" height="79px" viewBox="0 0 65 79" version="1.1" xmlns="http://www.w3.org/2000/svg" xmlns:xlink="http://www.w3.org/1999/xlink">
    <!-- Generator: Sketch 55.1 (78136) - https://sketchapp.com -->
    <title>041-pinterest</title>
    <desc>Created with Sketch.</desc>
    <g id="TGP-DESKTOP-" stroke="none" stroke-width="1" fill="none" fill-rule="evenodd">
        <g id="Contact-Us" transform="translate(-945.000000, -801.000000)" fill="#FFFFFF" fill-rule="nonzero">
            <g id="041-pinterest" transform="translate(945.000000, 801.000000)">
                <path d="M8.35992259,46.028659 L11.0461802,47.7825821 L12.0622918,43.9800047 C13.8605853,37.2958103 13.6701779,37.5911443 13.8503094,36.8491927 C13.7771688,36.4327115 11.8839736,31.4108262 13.2023192,25.3094645 L13.2283114,25.1690302 C15.0302318,13.3062425 34.9402138,10.0774572 44.1855586,17.7965265 C48.1738415,21.1265692 49.6747367,26.1237429 48.5244332,32.2480079 C47.6987294,36.6460752 46.257072,39.9254892 43.988502,42.5684282 C40.856751,46.2173112 36.9180345,46.5138508 34.5847863,45.2451196 C33.716165,44.7731877 31.7915375,43.3531731 32.6837331,40.3763259 C33.9597659,36.1156793 36.2652086,29.6984909 36.5378239,25.0448692 C36.7808202,20.8993428 34.273485,17.5253012 30.2985005,16.6489425 C25.8677467,15.671929 20.7624062,18.0563 18.5548874,23.617622 C16.9663443,27.6178924 16.9705756,31.7754733 18.5681858,36.3224132 C18.62017,37.44408 17.4753068,41.6739878 16.551679,45.0866035 C13.7596392,55.4040102 9.9351673,69.533035 13.659902,76.7277356 L14.8368019,79 L16.9862917,77.6059025 C23.1295047,73.6237138 26.7182338,62.0399867 28.6851742,54.8235883 C33.8630509,58.6466582 41.200089,58.9691149 48.4573372,55.4353518 C60.1078622,49.7619232 67.879513,36.2235666 63.9855273,21.1506781 C59.6454437,4.35098916 42.8013259,-2.16082657 25.8357099,0.621341279 C11.8501234,2.91409832 2.95537005,11.947103 0.59431636,23.0805962 C-1.39740723,32.474029 1.72346343,41.6962885 8.35992259,46.028659 Z M5.13447894,24.0377196 C7.24346932,14.0909875 15.2635567,7.04395405 26.5882731,5.18696554 C40.1888134,2.95689151 55.637818,7.38509501 59.4919088,22.3048921 C63.0564592,36.1024194 55.2152945,46.9954262 46.420883,51.2777707 C41.0260021,53.9044362 33.6944043,54.6831539 29.2956873,48.9904382 L26.4256711,45.2764612 L25.2155253,49.8065247 C23.6173107,55.7831227 21.0326036,65.9293561 16.8805099,71.3520521 C16.0650818,64.6443515 19.0964911,53.4415452 21.0313946,46.2926517 C22.8786502,39.4680228 23.6034079,36.6298018 22.9856411,34.901193 C21.7362049,31.4047989 21.6981234,28.2712437 22.8689787,25.3203135 C24.1806753,22.0167905 26.9781553,20.6552402 29.2962917,21.166349 C30.1334806,21.3513847 32.0635484,22.072241 31.9051777,24.7748495 C31.6706438,28.7727089 29.4316926,35.0645309 28.237263,39.0521441 C26.9829911,43.238053 28.6023621,47.2636378 32.3633647,49.3080731 C36.5898081,51.6050492 42.9349134,50.9113154 47.513762,45.5772198 C50.3330028,42.2923812 52.1034909,38.3276715 53.0851476,33.099655 C53.84436,29.0577969 53.6642285,25.3414088 52.5501931,22.0523512 C51.5141343,18.992931 49.7019378,16.367471 47.1643791,14.2482981 C35.1898592,4.25093712 11.0878887,8.8424785 8.65127631,24.404175 C7.78386404,28.4725531 7.92591417,32.7072825 9.07259078,37.001079 C8.88822794,37.8063165 8.62649314,38.8375748 8.34904208,39.897764 C5.11936711,36.1108575 3.83668513,30.1601766 5.13447894,24.0377196 Z" id="Shape"></path>
            </g>
        </g>
    </g>
</svg>