<?xml version="1.0" encoding="UTF-8"?>
<svg width="69px" height="72px" viewBox="0 0 69 72" version="1.1" xmlns="http://www.w3.org/2000/svg" xmlns:xlink="http://www.w3.org/1999/xlink">
    <!-- Generator: Sketch 54.1 (76490) - https://sketchapp.com -->
    <title>Back-End Solutions</title>
    <desc>Created with Sketch.</desc>
    <g id="TGP-DESKTOP-VERSION" stroke="none" stroke-width="1" fill="none" fill-rule="evenodd">
        <g id="Services" transform="translate(-457.000000, -560.000000)">
            <g id="Back-End-Solutions" transform="translate(457.000000, 560.000000)">
                <g id="Group">
                    <g fill-rule="nonzero">
                        <path d="M17.25,42 C19.7905098,42 21.85,39.8509668 21.85,37.2 C21.85,34.5490332 19.7905098,32.4 17.25,32.4 C14.7094902,32.4 12.65,34.5490332 12.65,37.2 C12.65,39.8509668 14.7094902,42 17.25,42 Z M17.25,34.8 C18.5202549,34.8 19.55,35.8745166 19.55,37.2 C19.55,38.5254834 18.5202549,39.6 17.25,39.6 C15.9797451,39.6 14.95,38.5254834 14.95,37.2 C14.95,35.8745166 15.9797451,34.8 17.25,34.8 Z" id="Shape" fill="#F8FAFD"></path>
                        <path d="M64.4,4.8 L42.55,4.8 L42.55,1.2 C42.55,0.5372583 42.0351275,-5.7869291e-18 41.4,-5.7869291e-18 L1.15,-5.7869291e-18 L1.15,-5.7869291e-18 C0.843964456,-0.00357202508 0.549464303,0.121708813 0.333050958,0.347531434 C0.116637612,0.573354056 -0.0034231907,0.880658563 1.21972744e-19,1.2 L1.21972744e-19,62.4 C0.000375675831,62.9162872 0.317177306,63.3744534 0.7866,63.5376 L24.9366,71.9376 C25.0536501,71.9789884 25.1764122,72.0000681 25.3,72 C25.9351275,72 26.45,71.4627417 26.45,70.8 L26.45,63.6 L30.5394,63.6 C31.3547225,65.0800227 32.8640125,65.9946053 34.5,66 L64.4,66 C66.9405098,66 69,63.8509668 69,61.2 L69,49.2 C69,46.5490332 66.9405098,44.4 64.4,44.4 L45.195,44.4 L42.55,42.558 L42.55,33.042 L45.195,31.2 L64.4,31.2 C66.9405098,31.2 69,29.0509668 69,26.4 L69,9.6 C69,6.9490332 66.9405098,4.8 64.4,4.8 Z M66.7,9.6 L66.7,14.4 L32.2,14.4 L32.2,9.6 C32.2,8.2745166 33.2297451,7.2 34.5,7.2 L64.4,7.2 C65.6702549,7.2 66.7,8.2745166 66.7,9.6 Z M24.15,69.1344 L2.3,61.5348 L2.3,2.8656 L24.15,10.4652 L24.15,69.1344 Z M44.85,46.8 L64.4,46.8 C65.6702549,46.8 66.7,47.8745166 66.7,49.2 L66.7,61.2 C66.7,62.5254834 65.6702549,63.6 64.4,63.6 L34.5,63.6 C33.2297451,63.6 32.2,62.5254834 32.2,61.2 L32.2,49.2 C32.2,47.8745166 33.2297451,46.8 34.5,46.8 L37.95,46.8 C38.5851275,46.8 39.1,46.2627417 39.1,45.6 L39.1,43.0416 L44.21175,46.5984 C44.4009258,46.7295119 44.6228987,46.7996251 44.85,46.8 L44.85,46.8 Z M40.25,40.9584 L38.58825,39.8016 C38.2353625,39.5559213 37.7815152,39.5329177 37.4074702,39.7417512 C37.0334252,39.9505847 36.7999365,40.3573358 36.8,40.8 L36.8,44.4 L34.5,44.4 C31.9594902,44.4 29.9,46.5490332 29.9,49.2 L29.9,61.2 L26.45,61.2 L26.45,9.6 C26.4496243,9.08371284 26.1328227,8.62554664 25.6634,8.4624 L8.23515,2.4 L40.25,2.4 L40.25,4.8 L34.5,4.8 C31.9594902,4.8 29.9,6.9490332 29.9,9.6 L29.9,26.4 C29.9,29.0509668 31.9594902,31.2 34.5,31.2 L36.8,31.2 L36.8,34.8 C36.7999365,35.2426642 37.0334252,35.6494153 37.4074702,35.8582488 C37.7815152,36.0670823 38.2353625,36.0440787 38.58825,35.7984 L40.25,34.6416 L40.25,40.9584 Z M64.4,28.8 L44.85,28.8 C44.6228987,28.8003749 44.4009258,28.8704881 44.21175,29.0016 L39.1,32.5584 L39.1,30 C39.1,29.3372583 38.5851275,28.8 37.95,28.8 L34.5,28.8 C33.2297451,28.8 32.2,27.7254834 32.2,26.4 L32.2,16.8 L66.7,16.8 L66.7,26.4 C66.7,27.7254834 65.6702549,28.8 64.4,28.8 Z" id="Shape" fill="#C8DEFF"></path>
                        <rect id="Rectangle" fill="#F03FA8" x="35.65" y="24" width="27.6" height="2.4"></rect>
                        <rect id="Rectangle" fill="#F03FA8" x="37.95" y="19.2" width="2.3" height="2.4"></rect>
                        <rect id="Rectangle" fill="#F03FA8" x="42.55" y="19.2" width="20.7" height="2.4"></rect>
                        <rect id="Rectangle" fill="#F03FA8" x="34.5" y="9.6" width="2.3" height="2.4"></rect>
                        <rect id="Rectangle" fill="#F03FA8" x="39.1" y="9.6" width="2.3" height="2.4"></rect>
                        <rect id="Rectangle" fill="#F03FA8" x="43.7" y="9.6" width="2.3" height="2.4"></rect>
                        <path d="M38.28695,49.5516 L35.98695,51.9516 C35.5380108,52.4201998 35.5380108,53.1798002 35.98695,53.6484 L38.28695,56.0484 L39.91305,54.3516 L38.4261,52.8 L39.91305,51.2484 L38.28695,49.5516 Z" id="Path" fill="#F03FA8"></path>
                        <path d="M46.81305,56.0484 L49.11305,53.6484 C49.5619892,53.1798002 49.5619892,52.4201998 49.11305,51.9516 L46.81305,49.5516 L45.18695,51.2484 L46.6739,52.8 L45.18695,54.3516 L46.81305,56.0484 Z" id="Path" fill="#F03FA8"></path>
                        <polygon id="Rectangle" fill="#F03FA8" transform="translate(42.550022, 52.800236) rotate(-71.556000) translate(-42.550022, -52.800236) " points="38.7858556 51.6926888 46.3442006 51.5977738 46.3141879 53.9077833 38.7558429 54.0026982"></polygon>
                        <rect id="Rectangle" fill="#F03FA8" x="51.75" y="51.6" width="2.3" height="2.4"></rect>
                        <rect id="Rectangle" fill="#F03FA8" x="35.65" y="58.8" width="2.3" height="2.4"></rect>
                        <rect id="Rectangle" fill="#F03FA8" x="40.25" y="58.8" width="23" height="2.4"></rect>
                        <rect id="Rectangle" fill="#F03FA8" x="56.35" y="51.6" width="2.3" height="2.4"></rect>
                        <rect id="Rectangle" fill="#F03FA8" x="60.95" y="51.6" width="2.3" height="2.4"></rect>
                    </g>
                </g>
            </g>
        </g>
    </g>
</svg>