<?xml version="1.0" encoding="UTF-8"?>
<svg width="79px" height="84px" viewBox="0 0 79 84" version="1.1" xmlns="http://www.w3.org/2000/svg" xmlns:xlink="http://www.w3.org/1999/xlink">
    <!-- Generator: Sketch 55.1 (78136) - https://sketchapp.com -->
    <title>Branding black </title>
    <desc>Created with Sketch.</desc>
    <g id="TGP-DESKTOP-" stroke="none" stroke-width="1" fill="none" fill-rule="evenodd">
        <g id="VSA" transform="translate(-702.000000, -1032.000000)">
            <g id="Branding-black-" transform="translate(702.000000, 1032.000000)">
                <g id="Branding">
                    <g id="Group" fill-rule="nonzero">
                        <path d="M58.6129032,54.0745086 C60.8588156,53.4819263 62.4323042,51.3836549 62.4354839,48.9770383 C62.572486,46.3887896 63.3788946,43.8867847 64.7698065,41.7344486 C65.0554801,41.2897607 65.0554801,40.7102393 64.7698065,40.2655514 C63.3788946,38.1132153 62.572486,35.6112104 62.4354839,33.0229617 C62.4321085,30.6178405 60.8580883,28.5215847 58.6129032,27.932108 L58.6129032,25.12003 C58.6129032,24.3891746 58.0424273,23.7966992 57.3387097,23.7966992 L54.6629032,23.7966992 C54.0537342,20.7177991 51.4458686,18.5068327 48.4193548,18.5033758 C44.5241452,18.5033758 41.6164355,17.2925281 40.6467742,15.2651853 C40.4072666,14.847978 39.9740669,14.5924164 39.506371,14.5924164 C39.0386751,14.5924164 38.6054754,14.847978 38.3659677,15.2651853 C37.3835645,17.2925281 34.4758548,18.5033758 30.5806452,18.5033758 C27.5541314,18.5068327 24.9462658,20.7177991 24.3370968,23.7966992 L21.6612903,23.7966992 C20.9575727,23.7966992 20.3870968,24.3891746 20.3870968,25.12003 L20.3870968,27.9254914 C18.1411844,28.5180737 16.5676958,30.6163451 16.5645161,33.0229617 C16.427514,35.6112104 15.6211054,38.1132153 14.2301935,40.2655514 C13.9445199,40.7102393 13.9445199,41.2897607 14.2301935,41.7344486 C15.6211054,43.8867847 16.427514,46.3887896 16.5645161,48.9770383 C16.5678915,51.3821595 18.1419117,53.4784153 20.3870968,54.067892 L20.3870968,56.87997 C20.3870968,57.6108254 20.9575727,58.2033008 21.6612903,58.2033008 L24.3370968,58.2033008 C24.9462658,61.2822009 27.5541314,63.4931673 30.5806452,63.4966242 C35.0008226,63.4966242 37.3504355,63.6289572 38.2907903,66.5614584 C38.4626581,67.1045196 38.9508567,67.4715793 39.5012742,67.4715793 C40.0516917,67.4715793 40.5398903,67.1045196 40.7117581,66.5614584 C41.6495645,63.6289572 43.9991774,63.4966242 48.4193548,63.4966242 C51.4458686,63.4931673 54.0537342,61.2822009 54.6629032,58.2033008 L57.3387097,58.2033008 C58.0424273,58.2033008 58.6129032,57.6108254 58.6129032,56.87997 L58.6129032,54.0745086 Z M57.3387097,51.5866467 C56.634992,51.5866467 56.0645161,52.1791221 56.0645161,52.9099775 L56.0645161,55.5566392 L53.516129,55.5566392 C52.8124114,55.5566392 52.2419355,56.1491146 52.2419355,56.87997 C52.2419355,59.0725363 50.5305078,60.8499625 48.4193548,60.8499625 C45.0287258,60.8499625 41.5387097,60.8499625 39.5,63.396051 C37.4612903,60.8499625 33.9712742,60.8499625 30.5806452,60.8499625 C28.4694922,60.8499625 26.7580645,59.0725363 26.7580645,56.87997 C26.7580645,56.1491146 26.1875886,55.5566392 25.483871,55.5566392 L22.9354839,55.5566392 L22.9354839,52.9099775 C22.9181573,52.1722561 22.3361491,51.5842674 21.6256129,51.5866467 C20.2387545,51.5844605 19.1150083,50.4173787 19.1129032,48.9770383 C18.9969755,46.1581807 18.1999167,43.41494 16.7951452,41 C18.1999167,38.58506 18.9969755,35.8418193 19.1129032,33.0229617 C19.1159238,32.3253802 19.3865283,31.6578168 19.8648183,31.1680365 C20.3431083,30.6782563 20.9896352,30.4066556 21.6612903,30.4133533 C22.365008,30.4133533 22.9354839,29.8208779 22.9354839,29.0900225 L22.9354839,26.4433608 L25.483871,26.4433608 C26.1875886,26.4433608 26.7580645,25.8508854 26.7580645,25.12003 C26.7580645,22.9274637 28.4694922,21.1500375 30.5806452,21.1500375 C34.5306452,21.1500375 37.6638871,20.0596129 39.5,18.1063766 C41.3361129,20.0635829 44.4693548,21.1500375 48.4193548,21.1500375 C50.5305078,21.1500375 52.2419355,22.9274637 52.2419355,25.12003 C52.2419355,25.8508854 52.8124114,26.4433608 53.516129,26.4433608 L56.0645161,26.4433608 L56.0645161,29.0900225 C56.0818427,29.8277439 56.6638509,30.4157326 57.3743871,30.4133533 C58.7612455,30.4155395 59.8849917,31.5826213 59.8870968,33.0229617 C60.0030245,35.8418193 60.8000833,38.58506 62.2048548,41 C60.8000833,43.41494 60.0030245,46.1581807 59.8870968,48.9770383 C59.8840762,49.6746198 59.6134717,50.3421832 59.1351817,50.8319635 C58.6568917,51.3217437 58.0103648,51.5933444 57.3387097,51.5866467 Z" id="Shape" fill="#6E7A8B"></path>
                        <rect id="Rectangle" fill="#FA938E" x="38.2258065" y="7.91672918" width="2.5483871" height="3.9699925"></rect>
                        <polygon id="Rectangle" fill="#FA938E" transform="translate(73.903465, 5.269909) rotate(-45.000000) translate(-73.903465, -5.269909) " points="70.2544846 4.04063928 77.6015823 3.90165447 77.552445 6.49917885 70.2053473 6.63816366"></polygon>
                        <rect id="Rectangle" fill="#FA938E" x="72.6290323" y="39.6766692" width="5.09677419" height="2.64666167"></rect>
                        <rect id="Rectangle" fill="#FA938E" x="38.2258065" y="1.30007502" width="2.5483871" height="3.9699925"></rect>
                        <rect id="Rectangle" fill="#FA938E" x="67.5322581" y="39.6766692" width="2.5483871" height="2.64666167"></rect>
                        <polygon id="Rectangle" fill="#FA938E" transform="translate(66.575719, 29.352755) rotate(-22.508000) translate(-66.575719, -29.352755) " points="65.3117018 28.0540025 67.8744905 28.0192475 67.8397355 30.6515074 65.2769468 30.6862625"></polygon>
                        <polygon id="Rectangle" fill="#FA938E" transform="translate(64.727547, 14.799354) rotate(-45.000000) translate(-64.727547, -14.799354) " points="62.1545908 13.549729 67.3496396 13.4514544 67.3005023 16.0489788 62.1054535 16.1472534"></polygon>
                        <polygon id="Rectangle" fill="#FA938E" transform="translate(60.223272, 19.479524) rotate(-45.000000) translate(-60.223272, -19.479524) " points="58.9490788 18.2053304 61.5466032 18.1561932 61.4974659 20.7537175 58.8999415 20.8028548"></polygon>
                        <polygon id="Rectangle" fill="#FA938E" transform="translate(50.716174, 12.880099) rotate(-67.492000) translate(-50.716174, -12.880099) " points="49.4174215 11.6160819 52.0496815 11.5813269 52.0149265 14.1441157 49.3826665 14.1788707"></polygon>
                        <polygon id="Rectangle" fill="#FA938E" transform="translate(74.227818, 26.060669) rotate(-22.508000) translate(-74.227818, -26.060669) " points="69.7603151 24.8053605 78.7300758 24.683718 78.6953208 27.3159779 69.7255601 27.4376205"></polygon>
                        <polygon id="Rectangle" fill="#FA938E" transform="translate(53.884429, 4.934365) rotate(-67.492000) translate(-53.884429, -4.934365) " points="49.2953518 3.713792 58.5082618 3.59214947 58.4735067 6.15493825 49.2605968 6.27658078"></polygon>
                        <polygon id="Rectangle" fill="#FA938E" transform="translate(5.097311, 5.270535) rotate(-45.000000) translate(-5.097311, -5.270535) " points="3.86804131 1.62155517 6.46556569 1.57241789 6.32658088 8.9195156 3.7290565 8.96865288"></polygon>
                        <rect id="Rectangle" fill="#FA938E" x="1.27419355" y="39.6766692" width="5.09677419" height="2.64666167"></rect>
                        <rect id="Rectangle" fill="#FA938E" x="8.91935484" y="39.6766692" width="2.5483871" height="2.64666167"></rect>
                        <polygon id="Rectangle" fill="#FA938E" transform="translate(12.423951, 29.352305) rotate(-67.497000) translate(-12.423951, -29.352305) " points="11.125192 28.0882885 13.757458 28.0535395 13.7227091 30.6163223 11.090443 30.6510712"></polygon>
                        <polygon id="Rectangle" fill="#FA938E" transform="translate(14.272012, 14.799373) rotate(-45.000000) translate(-14.272012, -14.799373) " points="13.0223873 12.2264171 15.6199116 12.1772798 15.5216371 17.3723286 12.9241127 17.4214659"></polygon>
                        <polygon id="Rectangle" fill="#FA938E" transform="translate(18.777499, 19.477735) rotate(-45.000000) translate(-18.777499, -19.477735) " points="17.5033059 18.2035414 20.1008303 18.1544041 20.051693 20.7519285 17.4541686 20.8010658"></polygon>
                        <polygon id="Rectangle" fill="#FA938E" transform="translate(28.285229, 12.879976) rotate(-22.508000) translate(-28.285229, -12.879976) " points="27.021212 11.5812238 29.5840008 11.5464688 29.5492458 14.1787288 26.986457 14.2134838"></polygon>
                        <polygon id="Rectangle" fill="#FA938E" transform="translate(4.772648, 26.060111) rotate(-67.499000) translate(-4.772648, -26.060111) " points="3.51732053 21.5926187 6.14958901 21.5578722 6.02797619 30.5276032 3.39570771 30.5623497"></polygon>
                        <polygon id="Rectangle" fill="#FA938E" transform="translate(25.115148, 4.933425) rotate(-22.501000) translate(-25.115148, -4.933425) " points="23.8945646 0.344328862 26.4573449 0.309582342 26.3357321 9.52252201 23.7729518 9.55726853"></polygon>
                        <rect id="Rectangle" fill="#FA938E" x="38.2258065" y="70.1132783" width="2.5483871" height="3.9699925"></rect>
                        <polygon id="Rectangle" fill="#FA938E" transform="translate(73.903167, 76.730400) rotate(-45.000000) translate(-73.903167, -76.730400) " points="72.6738971 73.0814201 75.2714214 73.0322829 75.1324366 80.3793806 72.5349123 80.4285178"></polygon>
                        <rect id="Rectangle" fill="#FA938E" x="38.2258065" y="76.7299325" width="2.5483871" height="3.9699925"></rect>
                        <polygon id="Rectangle" fill="#FA938E" transform="translate(66.575850, 52.648790) rotate(-67.497000) translate(-66.575850, -52.648790) " points="65.2770911 51.3847734 67.9093572 51.3500245 67.8746082 53.9128072 65.2423422 53.9475561"></polygon>
                        <polygon id="Rectangle" fill="#FA938E" transform="translate(64.727565, 67.200627) rotate(-45.000000) translate(-64.727565, -67.200627) " points="63.4779399 64.6276714 66.0754643 64.5785341 65.9771897 69.7735829 63.3796653 69.8227202"></polygon>
                        <polygon id="Rectangle" fill="#FA938E" transform="translate(60.223352, 62.520394) rotate(-45.000000) translate(-60.223352, -62.520394) " points="58.9491581 61.2462 61.5466825 61.1970628 61.4975452 63.7945871 58.9000209 63.8437244"></polygon>
                        <polygon id="Rectangle" fill="#FA938E" transform="translate(50.715873, 69.119858) rotate(-22.508000) translate(-50.715873, -69.119858) " points="49.4518566 67.8211052 52.0146453 67.7863502 51.9798903 70.4186102 49.4171016 70.4533652"></polygon>
                        <polygon id="Rectangle" fill="#FA938E" transform="translate(74.226886, 55.939769) rotate(-67.499000) translate(-74.226886, -55.939769) " points="72.9715578 51.4722764 75.6038263 51.4375299 75.4822134 60.4072609 72.849945 60.4420074"></polygon>
                        <polygon id="Rectangle" fill="#FA938E" transform="translate(53.884873, 79.066594) rotate(-22.501000) translate(-53.884873, -79.066594) " points="52.6642895 74.4774976 55.2270698 74.4427511 55.105457 83.6556908 52.5426767 83.6904373"></polygon>
                        <polygon id="Rectangle" fill="#FA938E" transform="translate(5.097013, 76.729155) rotate(-45.000000) translate(-5.097013, -76.729155) " points="1.44803295 75.4998854 8.79513067 75.3609006 8.74599338 77.958425 1.39889567 78.0974098"></polygon>
                        <polygon id="Rectangle" fill="#FA938E" transform="translate(12.425384, 52.648402) rotate(-22.508000) translate(-12.425384, -52.648402) " points="11.1613668 51.3496498 13.7241556 51.3148948 13.6894006 53.9471548 11.1266118 53.9819098"></polygon>
                        <polygon id="Rectangle" fill="#FA938E" transform="translate(14.272030, 67.200646) rotate(-45.000000) translate(-14.272030, -67.200646) " points="11.6990747 65.9510212 16.8941234 65.8527466 16.8449862 68.450271 11.6499374 68.5485456"></polygon>
                        <polygon id="Rectangle" fill="#FA938E" transform="translate(18.777579, 62.522347) rotate(-45.000000) translate(-18.777579, -62.522347) " points="17.5033853 61.2481539 20.1009096 61.1990166 20.0517723 63.796541 17.454248 63.8456783"></polygon>
                        <polygon id="Rectangle" fill="#FA938E" transform="translate(28.284928, 69.120067) rotate(-67.492000) translate(-28.284928, -69.120067) " points="26.9861758 67.8560504 29.6184358 67.8212954 29.5836808 70.3840841 26.9514208 70.4188391"></polygon>
                        <polygon id="Rectangle" fill="#FA938E" transform="translate(4.773187, 56.938658) rotate(-22.508000) translate(-4.773187, -56.938658) " points="0.305684482 55.6833494 9.27544521 55.5617069 9.2406902 58.1939669 0.270929473 58.3156094"></polygon>
                        <polygon id="Rectangle" fill="#FA938E" transform="translate(25.115399, 77.065801) rotate(-67.492000) translate(-25.115399, -77.065801) " points="20.5263214 75.8452278 29.7392313 75.7235853 29.7044763 78.2863741 20.4915664 78.4080166"></polygon>
                        <path d="M51.9654355,33.5258275 C51.7113239,33.0736327 51.2257927,32.8178812 50.724371,32.872102 L43.5685,33.6806572 L40.6658871,26.8403601 C40.4621817,26.3605574 40.0049037,26.0509322 39.5,26.0509322 C38.9950963,26.0509322 38.5378183,26.3605574 38.3341129,26.8403601 L35.4315,33.6793338 L28.275629,32.8707787 C27.7736059,32.8140124 27.2866744,33.0705125 27.0342003,33.5247241 C26.7817261,33.9789356 26.8113561,34.5451398 27.1097419,34.9682581 L31.3617258,41 L27.1097419,47.0304186 C26.8113561,47.4535369 26.7817261,48.0197411 27.0342003,48.4739526 C27.2866744,48.9281642 27.7736059,49.1846643 28.275629,49.127898 L35.4315,48.3193428 L38.3341129,55.1596399 C38.5378183,55.6394426 38.9950963,55.9490678 39.5,55.9490678 C40.0049037,55.9490678 40.4621817,55.6394426 40.6658871,55.1596399 L43.5685,48.3206662 L50.724371,49.1292213 C51.2263941,49.1859876 51.7133256,48.9294875 51.9657997,48.4752759 C52.2182739,48.0210644 52.1886439,47.4548602 51.8902581,47.0317419 L47.6382742,41 L51.8902581,34.9695814 C52.1886197,34.5463379 52.2181084,33.9800194 51.9654355,33.5258275 L51.9654355,33.5258275 Z M45.0312742,40.2179115 C44.7028237,40.6835106 44.7028237,41.3164894 45.0312742,41.7820885 L48.1262903,46.1729002 L42.9173871,45.584018 C42.3651984,45.5217918 41.8378168,45.8382161 41.6138871,46.3661065 L39.5,51.3444771 L37.3861129,46.3661065 C37.1621832,45.8382161 36.6348016,45.5217918 36.0826129,45.584018 L30.8737097,46.1729002 L33.9687258,41.7820885 C34.2971763,41.3164894 34.2971763,40.6835106 33.9687258,40.2179115 L30.8737097,35.8270998 L36.0826129,36.415982 C36.6340985,36.474771 37.1596674,36.1594343 37.3861129,35.6338935 L39.5,30.6555229 L41.6138871,35.6338935 C41.8378168,36.1617839 42.3651984,36.4782082 42.9173871,36.415982 L48.1262903,35.8270998 L45.0312742,40.2179115 Z" id="Shape" fill="#DDD045"></path>
                    </g>
                </g>
            </g>
        </g>
    </g>
</svg>