<?xml version="1.0" encoding="UTF-8"?>
<svg width="62px" height="62px" viewBox="0 0 62 62" version="1.1" xmlns="http://www.w3.org/2000/svg" xmlns:xlink="http://www.w3.org/1999/xlink">
    <!-- Generator: Sketch 54.1 (76490) - https://sketchapp.com -->
    <title>Front-End Solutions</title>
    <desc>Created with Sketch.</desc>
    <g id="TGP-DESKTOP-VERSION" stroke="none" stroke-width="1" fill="none" fill-rule="evenodd">
        <g id="Services" transform="translate(-1003.000000, -119.000000)">
            <g id="Front-End-Solutions" transform="translate(1003.000000, 119.000000)">
                <g id="Group">
                    <g fill-rule="nonzero">
                        <path d="M55.5416667,1.62101813e-16 L6.45833333,1.62101813e-16 C2.89326468,0.00427040027 0.00427040027,2.89326468 0,6.45833333 L0,55.5416667 C0.00427040027,59.1067353 2.89326468,61.9957296 6.45833333,62 L55.5416667,62 C59.1067353,61.9957296 61.9957296,59.1067353 62,55.5416667 L62,6.45833333 C61.9957296,2.89326468 59.1067353,0.00427040027 55.5416667,1.62101813e-16 Z M59.4166667,55.5416667 C59.4166667,57.6817701 57.6817701,59.4166667 55.5416667,59.4166667 L6.45833333,59.4166667 C4.31822993,59.4166667 2.58333333,57.6817701 2.58333333,55.5416667 L2.58333333,6.45833333 C2.58333333,4.31822993 4.31822993,2.58333333 6.45833333,2.58333333 L55.5416667,2.58333333 C57.6817701,2.58333333 59.4166667,4.31822993 59.4166667,6.45833333 L59.4166667,55.5416667 Z" id="Shape" fill="#F8FAFD"></path>
                        <rect id="Rectangle" fill="#F8FAFD" x="5.16666667" y="10.3333333" width="51.6666667" height="2.58333333"></rect>
                        <rect id="Rectangle" fill="#F8FAFD" x="6.45833333" y="5.16666667" width="2.58333333" height="2.58333333"></rect>
                        <rect id="Rectangle" fill="#F8FAFD" x="11.625" y="5.16666667" width="2.58333333" height="2.58333333"></rect>
                        <rect id="Rectangle" fill="#F8FAFD" x="52.9583333" y="5.16666667" width="2.58333333" height="2.58333333"></rect>
                        <path d="M50.7534583,39.1284583 L43.9166667,45.96525 L40.954875,43.0034583 C40.7126969,42.7612071 40.38421,42.6250732 40.0416667,42.625 L31.53475,42.625 L22.8715417,33.9617917 C22.367146,33.4575483 21.5495206,33.4575483 21.045125,33.9617917 L5.545125,49.4617917 L7.37154167,51.2882083 L21.9583333,36.7014167 L30.0867917,44.829875 C30.3289698,45.0721263 30.6574567,45.2082602 31,45.2083333 L39.5069167,45.2083333 L43.0034583,48.704875 C43.507854,49.2091183 44.3254794,49.2091183 44.829875,48.704875 L51.6666667,41.8680833 L54.6284583,44.829875 L56.454875,43.0034583 L52.579875,39.1284583 C52.0754794,38.624215 51.257854,38.624215 50.7534583,39.1284583 Z" id="Path" fill="#C96C6C"></path>
                        <path d="M38.75,34.875 C43.0302068,34.875 46.5,31.4052068 46.5,27.125 C46.5,22.8447932 43.0302068,19.375 38.75,19.375 C34.4697932,19.375 31,22.8447932 31,27.125 C31.004272,31.403436 34.471564,34.870728 38.75,34.875 Z M38.75,21.9583333 C41.6034712,21.9583333 43.9166667,24.2715288 43.9166667,27.125 C43.9166667,29.9784712 41.6034712,32.2916667 38.75,32.2916667 C35.8965288,32.2916667 33.5833333,29.9784712 33.5833333,27.125 C33.5833333,24.2715288 35.8965288,21.9583333 38.75,21.9583333 Z" id="Shape" fill="#F99533"></path>
                        <path d="M7.75,18.0833333 L11.625,18.0833333 L11.625,15.5 L6.45833333,15.5 C5.74496553,15.5 5.16666667,16.0782989 5.16666667,16.7916667 L5.16666667,21.9583333 L7.75,21.9583333 L7.75,18.0833333 Z" id="Path" fill="#F8FAFD"></path>
                    </g>
                </g>
            </g>
        </g>
    </g>
</svg>