<?xml version="1.0" encoding="UTF-8"?>
<svg width="82px" height="82px" viewBox="0 0 82 82" version="1.1" xmlns="http://www.w3.org/2000/svg" xmlns:xlink="http://www.w3.org/1999/xlink">
    <!-- Generator: Sketch 55.1 (78136) - https://sketchapp.com -->
    <title>Front-End Solutions</title>
    <desc>Created with Sketch.</desc>
    <g id="TGP-DESKTOP-" stroke="none" stroke-width="1" fill="none" fill-rule="evenodd">
        <g id="VSA" transform="translate(-172.000000, -1034.000000)">
            <g id="Front-End-Solutions" transform="translate(172.000000, 1034.000000)">
                <g id="Front-End-Solutions-Color">
                    <g id="Group" fill-rule="nonzero">
                        <path d="M73.4583333,-5.55777646e-16 L8.54166667,-5.55777646e-16 C3.82657587,0.00564794874 0.00564794874,3.82657587 0,8.54166667 L0,73.4583333 C0.00564794874,78.1734241 3.82657587,81.9943521 8.54166667,82 L73.4583333,82 C78.1734241,81.9943521 81.9943521,78.1734241 82,73.4583333 L82,8.54166667 C81.9943521,3.82657587 78.1734241,0.00564794874 73.4583333,-5.55777646e-16 Z M78.5833333,73.4583333 C78.5833333,76.2887927 76.2887927,78.5833333 73.4583333,78.5833333 L8.54166667,78.5833333 C5.71120732,78.5833333 3.41666667,76.2887927 3.41666667,73.4583333 L3.41666667,8.54166667 C3.41666667,5.71120732 5.71120732,3.41666667 8.54166667,3.41666667 L73.4583333,3.41666667 C76.2887927,3.41666667 78.5833333,5.71120732 78.5833333,8.54166667 L78.5833333,73.4583333 Z" id="Shape" fill="#6D819F"></path>
                        <rect id="Rectangle" fill="#5B2935" x="6.83333333" y="13.6666667" width="68.3333333" height="3.41666667"></rect>
                        <rect id="Rectangle" fill="#5B2935" x="8.54166667" y="6.83333333" width="3.41666667" height="3.41666667"></rect>
                        <rect id="Rectangle" fill="#5B2935" x="15.375" y="6.83333333" width="3.41666667" height="3.41666667"></rect>
                        <rect id="Rectangle" fill="#5B2935" x="70.0416667" y="6.83333333" width="3.41666667" height="3.41666667"></rect>
                        <path d="M67.1255417,51.7505417 L58.0833333,60.79275 L54.166125,56.8755417 C53.8458249,56.5551448 53.4113745,56.3750968 52.9583333,56.375 L41.70725,56.375 L30.2494583,44.9172083 C29.5823544,44.2503059 28.5009789,44.2503059 27.833875,44.9172083 L7.333875,65.4172083 L9.74945833,67.8327917 L29.0416667,48.5405833 L39.7922083,59.291125 C40.1125084,59.6115218 40.5469589,59.7915699 41,59.7916667 L52.2510833,59.7916667 L56.8755417,64.416125 C57.5426456,65.0830275 58.6240211,65.0830275 59.291125,64.416125 L68.3333333,55.3739167 L72.2505417,59.291125 L74.666125,56.8755417 L69.541125,51.7505417 C68.8740211,51.0836392 67.7926456,51.0836392 67.1255417,51.7505417 Z" id="Path" fill="#C96C6C"></path>
                        <path d="M51.25,46.125 C56.9109187,46.125 61.5,41.5359187 61.5,35.875 C61.5,30.2140813 56.9109187,25.625 51.25,25.625 C45.5890813,25.625 41,30.2140813 41,35.875 C41.0056501,41.5335767 45.5914233,46.1193499 51.25,46.125 Z M51.25,29.0416667 C55.0239458,29.0416667 58.0833333,32.1010542 58.0833333,35.875 C58.0833333,39.6489458 55.0239458,42.7083333 51.25,42.7083333 C47.4760542,42.7083333 44.4166667,39.6489458 44.4166667,35.875 C44.4166667,32.1010542 47.4760542,29.0416667 51.25,29.0416667 Z" id="Shape" fill="#F99533"></path>
                        <path d="M10.25,23.9166667 L15.375,23.9166667 L15.375,20.5 L8.54166667,20.5 C7.59818022,20.5 6.83333333,21.2648469 6.83333333,22.2083333 L6.83333333,29.0416667 L10.25,29.0416667 L10.25,23.9166667 Z" id="Path" fill="#5A413F"></path>
                    </g>
                </g>
            </g>
        </g>
    </g>
</svg>