<?xml version="1.0" encoding="UTF-8"?>
<svg width="78px" height="90px" viewBox="0 0 78 90" version="1.1" xmlns="http://www.w3.org/2000/svg" xmlns:xlink="http://www.w3.org/1999/xlink">
    <!-- Generator: Sketch 55.1 (78136) - https://sketchapp.com -->
    <title>noun_wave_1667781</title>
    <desc>Created with Sketch.</desc>
    <g id="TGP-DESKTOP-" stroke="none" stroke-width="1" fill="none" fill-rule="evenodd" stroke-linecap="round" stroke-linejoin="round">
        <g id="Contact-Us" transform="translate(-556.000000, -312.000000)">
            <g id="noun_wave_1667781" transform="translate(557.000000, 312.000000)">
                <path d="M76.09,70.21 C53.34,67.26 41.09,54.73 38.64,31.88 L38.58,31.34 L38.95,30.94 L48.95,20.24 C48.4327599,19.6814819 47.7110522,19.3567134 46.95,19.34 L46.84,19.34 C45.17,19.34 42.99,20.58 40.36,23.03 L39.85,23.51 C39.85,23.51 37.17,21.33 32.62,24.28 C30.8896903,25.5756625 29.2888891,27.0358076 27.84,28.64" id="Path" stroke="#F8FAFD"></path>
                <path d="M28.7299995,5.64 L28.7299995,3.06 C28.7291432,1.7822345 29.733477,0.729805412 31.0098859,0.670935399 C32.2862948,0.612065386 33.3832382,1.56758023 33.5,2.84 C33.5,2.91333333 33.5,2.98666667 33.5,3.06 L33.5,16.95" id="Path" stroke="#F8FAFD"></path>
                <path d="M23.94,19.79 L23.94,5.85 C23.94,4.53003945 25.0100394,3.46 26.33,3.46 C27.6499606,3.46 28.72,4.53003945 28.72,5.85 L28.81,18" id="Path" stroke="#F8FAFD"></path>
                <path d="M23.94,12.34 C23.94,11.7724367 23.7145364,11.2281193 23.3132085,10.8267915 C22.9118807,10.4254636 22.3675633,10.2 21.8,10.2 C20.62,10.2 19.92,10.78 19.69,12.46 C16.75,34 21,53.78 31.57,67.11 C41.33,79.47 56.32,86.86 76.12,89.11" id="Path" stroke="#F8FAFD"></path>
                <path d="M33.51,5.79 C33.51,4.53079077 34.5307908,3.51 35.79,3.51 C37.0492092,3.51 38.07,4.53079077 38.07,5.79 L38.07,22.62" id="Path" stroke="#F8FAFD"></path>
                <path d="M12.18,39 C10.9217845,30.9309462 10.7838148,22.726798 11.77,14.62" id="Path" stroke="#FFFFFF"></path>
                <path d="M6.27,14.58 C5.28341958,22.700431 5.42475881,30.9182981 6.69,39" id="Path" stroke="#FFFFFF"></path>
                <path d="M1.2,39 C-0.058215486,30.9309462 -0.196185165,22.726798 0.79,14.62" id="Path" stroke="#FFFFFF"></path>
            </g>
        </g>
    </g>
</svg>