
<svg width="644px" height="585px" viewBox="0 0 644 585" version="1.1" xmlns="http://www.w3.org/2000/svg" xmlns:xlink="http://www.w3.org/1999/xlink">
    <defs>
        <path d="M70.79,4.3 C71.8633387,4.3 72.4,4.7433289 72.4,5.63 L72.4,5.91 C72.4,6.5166697 71.8166725,7.3333282 70.65,8.36 C69.4833275,9.3866718 68.666669,10.5766599 68.2,11.93 L54.97,50.5 C54.1766627,52.833345 52.613345,54 50.28,54 C47.8999881,54 46.3600035,52.9266774 45.66,50.78 L37.75,26.49 L29.77,50.5 C29.0233296,52.833345 27.6233436,54 25.57,54 C24.3099937,54 23.3533366,53.7550025 22.7,53.265 C22.0466634,52.7749975 21.486669,51.9466725 21.02,50.78 L4.64,12 C4.0799972,10.7399937 3.18167285,9.56167215 1.945,8.465 C0.70832715,7.36832785 0.09,6.4933366 0.09,5.84 L0.09,5.63 C0.09,4.7433289 0.6499944,4.3 1.77,4.3 L18.99,4.3 C20.0633387,4.3 20.6,4.7433289 20.6,5.63 L20.6,5.91 C20.6,6.4233359 20.2966697,6.97166375 19.69,7.555 C19.0833303,8.13833625 18.5700021,8.79166305 18.15,9.515 C17.7299979,10.2383369 17.6833317,11.066662 18.01,12 L27.74,38.46 L34.67,17.18 L32.99,11.93 C32.6633317,10.9033282 31.8233401,9.79500595 30.47,8.605 C29.1166599,7.41499405 28.44,6.4933366 28.44,5.84 L28.44,5.63 C28.44,4.7433289 28.9766613,4.3 30.05,4.3 L46.99,4.3 C48.1100056,4.3 48.67,4.7433289 48.67,5.63 L48.67,5.84 C48.67,6.2600021 48.4600021,6.69166445 48.04,7.135 C47.6199979,7.57833555 47.176669,7.95166515 46.71,8.255 C46.243331,8.55833485 45.8700014,9.0366634 45.59,9.69 C45.3099986,10.3433366 45.2866655,11.0899958 45.52,11.93 L53.08,38.25 L61.41,11.93 C61.6900014,10.996662 61.596669,10.1800035 61.13,9.48 C60.663331,8.7799965 60.1150032,8.13833625 59.485,7.555 C58.8549969,6.97166375 58.54,6.4233359 58.54,5.91 L58.54,5.63 C58.54,4.7433289 59.0999944,4.3 60.22,4.3 L70.79,4.3 Z M97.6,42.94 C98.1133359,42.4266641 98.6849969,42.2749989 99.315,42.485 C99.9450032,42.6950011 100.236667,43.1733296 100.19,43.92 C100.096666,46.253345 98.7433464,48.6333212 96.13,51.06 C93.5166536,53.4866788 90.1333541,54.7 85.98,54.7 C80.8933079,54.7 76.7400161,53.066683 73.52,49.8 C70.2999839,46.533317 68.69,42.2633597 68.69,36.99 C68.69,31.9499748 70.3816498,27.8083496 73.765,24.565 C77.1483502,21.3216504 81.1966431,19.7 85.91,19.7 C90.1566879,19.7 93.446655,20.6799902 95.78,22.64 C98.113345,24.6000098 99.28,26.8166543 99.28,29.29 C99.28,31.2500098 98.3700091,32.696662 96.55,33.63 L82.62,41.47 C84.5333429,44.5033485 87.1933163,46.02 90.6,46.02 C92.0466739,46.02 93.4116603,45.7283362 94.695,45.145 C95.9783398,44.5616637 96.9466634,43.8266711 97.6,42.94 Z M84.65,23.13 C83.249993,23.13 82.1183377,23.829993 81.255,25.23 C80.3916624,26.63 79.96,28.3799895 79.96,30.48 C79.96,33.280014 80.3099965,35.7299895 81.01,37.83 L87.52,33.91 C88.7333394,33.0699958 89.34,31.8800077 89.34,30.34 C89.34,28.7999923 88.9550039,27.2133415 88.185,25.58 C87.4149962,23.9466585 86.2366746,23.13 84.65,23.13 Z M106.07,23.97 C105.276663,24.436669 104.54167,24.3200035 103.865,23.62 C103.18833,22.9199965 103.176663,22.2433366 103.83,21.59 C105.323341,20.0966592 106.349997,18.9650038 106.91,18.195 C107.470003,17.4249961 107.796666,16.5500049 107.89,15.57 C107.983334,14.5433282 107.680003,14.03 106.98,14.03 C105.579993,14.03 104.390005,13.4116729 103.41,12.175 C102.429995,10.9383271 101.94,9.386676 101.94,7.52 C101.94,5.2799888 102.58166,3.47167355 103.865,2.095 C105.14834,0.71832645 106.863323,0.03 109.01,0.03 C111.063344,0.03 112.824993,0.7999923 114.295,2.34 C115.765007,3.8800077 116.5,5.9566536 116.5,8.57 C116.5,14.636697 113.023368,19.769979 106.07,23.97 Z M139.25,19.7 C141.256677,19.7 142.854994,20.3533268 144.045,21.66 C145.235006,22.9666732 145.83,24.6233233 145.83,26.63 C145.83,31.0166886 144.033351,33.21 140.44,33.21 C138.993326,33.21 137.89667,32.87167 137.15,32.195 C136.40333,31.5183299 135.971667,30.7600042 135.855,29.92 C135.738333,29.0799958 135.493335,28.32167 135.12,27.645 C134.746665,26.9683299 134.18667,26.63 133.44,26.63 C131.713325,26.63 130.85,28.8699776 130.85,33.35 L130.85,46.37 C130.85,47.5366725 131.468327,48.6916609 132.705,49.835 C133.941673,50.9783391 134.56,51.8299972 134.56,52.39 L134.56,52.67 C134.56,53.5566711 134.000006,54 132.88,54 L117.83,54 C116.709994,54 116.15,53.5566711 116.15,52.67 L116.15,52.39 C116.15,51.8299972 116.616662,50.9783391 117.55,49.835 C118.483338,48.6916609 118.95,47.5366725 118.95,46.37 L118.95,32.44 C118.95,31.506662 118.670003,30.7133366 118.11,30.06 C117.549997,29.4066634 116.990003,28.846669 116.43,28.38 C115.869997,27.913331 115.59,27.4000028 115.59,26.84 L115.59,26.63 C115.59,25.8366627 116.126661,25.1600028 117.2,24.6 L127.07,19.98 C128.003338,19.6533317 128.656665,19.6299986 129.03,19.91 C129.403335,20.1900014 129.59,20.7266627 129.59,21.52 L129.59,26.63 C131.176675,22.0099769 134.396642,19.7 139.25,19.7 Z M175.86,42.94 C176.373336,42.4266641 176.944997,42.2749989 177.575,42.485 C178.205003,42.6950011 178.496667,43.1733296 178.45,43.92 C178.356666,46.253345 177.003346,48.6333212 174.39,51.06 C171.776654,53.4866788 168.393354,54.7 164.24,54.7 C159.153308,54.7 155.000016,53.066683 151.78,49.8 C148.559984,46.533317 146.95,42.2633597 146.95,36.99 C146.95,31.9499748 148.64165,27.8083496 152.025,24.565 C155.40835,21.3216504 159.456643,19.7 164.17,19.7 C168.416688,19.7 171.706655,20.6799902 174.04,22.64 C176.373345,24.6000098 177.54,26.8166543 177.54,29.29 C177.54,31.2500098 176.630009,32.696662 174.81,33.63 L160.88,41.47 C162.793343,44.5033485 165.453316,46.02 168.86,46.02 C170.306674,46.02 171.67166,45.7283362 172.955,45.145 C174.23834,44.5616637 175.206663,43.8266711 175.86,42.94 Z M162.91,23.13 C161.509993,23.13 160.378338,23.829993 159.515,25.23 C158.651662,26.63 158.22,28.3799895 158.22,30.48 C158.22,33.280014 158.569997,35.7299895 159.27,37.83 L165.78,33.91 C166.993339,33.0699958 167.6,31.8800077 167.6,30.34 C167.6,28.7999923 167.215004,27.2133415 166.445,25.58 C165.674996,23.9466585 164.496675,23.13 162.91,23.13 Z M220.52,54.7 C215.666642,54.7 211.268353,53.4866788 207.325,51.06 C203.381647,48.6333212 200.360011,45.4833527 198.26,41.61 C196.15999,37.7366473 195.11,33.6066886 195.11,29.22 C195.11,25.3466473 195.774993,21.776683 197.105,18.51 C198.435007,15.243317 200.208322,12.548344 202.425,10.425 C204.641678,8.30165605 207.161653,6.64500595 209.985,5.455 C212.808347,4.26499405 215.736652,3.67 218.77,3.67 C224.650029,3.67 229.54998,4.9299874 233.47,7.45 C237.39002,9.9700126 239.35,13.0266487 239.35,16.62 C239.35,18.3466753 238.836672,19.7233282 237.81,20.75 C236.783328,21.7766718 235.430008,22.29 233.75,22.29 C232.069992,22.29 230.55334,21.823338 229.2,20.89 C227.84666,19.956662 226.680005,18.8250066 225.7,17.495 C224.719995,16.1649933 223.775005,14.8233401 222.865,13.47 C221.954995,12.1166599 220.881673,10.973338 219.645,10.04 C218.408327,9.106662 217.066674,8.64 215.62,8.64 C213.146654,8.64 211.163341,9.7833219 209.67,12.07 C208.176659,14.3566781 207.43,17.2966487 207.43,20.89 C207.43,27.7967012 208.993318,33.7233086 212.12,38.67 C215.246682,43.6166914 218.979978,46.09 223.32,46.09 C224.906675,46.09 226.236661,45.856669 227.31,45.39 L227.31,36.22 C227.31,35.0066606 226.656673,33.8400056 225.35,32.72 C224.043327,31.5999944 223.39,30.7600028 223.39,30.2 L223.39,29.92 C223.39,29.4999979 223.564998,29.161668 223.915,28.905 C224.265002,28.6483321 224.696664,28.52 225.21,28.52 L240.82,28.59 C241.940006,28.59 242.5,29.056662 242.5,29.99 L242.5,30.27 C242.5,30.8300028 241.940006,31.67 240.82,32.79 C239.699994,33.9100056 239.14,35.0766606 239.14,36.29 L239.14,44.41 C239.14,46.3700098 238.16001,48.1199923 236.2,49.66 C231.953312,53.0200168 226.726698,54.7 220.52,54.7 Z M263.99,54.7 C258.57664,54.7 253.991685,53.0316833 250.235,49.695 C246.478315,46.3583167 244.6,42.1700252 244.6,37.13 C244.6,32.0899748 246.466648,27.9250165 250.2,24.635 C253.933352,21.3449835 258.366641,19.7 263.5,19.7 C268.820027,19.7 273.346648,21.3566501 277.08,24.67 C280.813352,27.9833499 282.68,32.1833079 282.68,37.27 C282.68,42.3100252 280.860018,46.4749836 277.22,49.765 C273.579982,53.0550164 269.170026,54.7 263.99,54.7 Z M265.46,51.27 C268.446682,51.27 269.94,48.4000287 269.94,42.66 C269.94,40.5599895 269.648336,38.0633478 269.065,35.17 C268.481664,32.2766522 267.501674,29.5466795 266.125,26.98 C264.748326,24.4133205 263.220008,23.13 261.54,23.13 C259.906659,23.13 258.740004,23.8533261 258.04,25.3 C257.339997,26.7466739 256.99,28.9399853 256.99,31.88 C256.99,33.4200077 257.176665,35.2399895 257.55,37.34 C257.923335,39.4400105 258.436663,41.551656 259.09,43.675 C259.743337,45.798344 260.641661,47.5949927 261.785,49.065 C262.928339,50.5350074 264.153327,51.27 265.46,51.27 Z M305.08,54.7 C299.66664,54.7 295.081685,53.0316833 291.325,49.695 C287.568315,46.3583167 285.69,42.1700252 285.69,37.13 C285.69,32.0899748 287.556648,27.9250165 291.29,24.635 C295.023352,21.3449835 299.456641,19.7 304.59,19.7 C309.910027,19.7 314.436648,21.3566501 318.17,24.67 C321.903352,27.9833499 323.77,32.1833079 323.77,37.27 C323.77,42.3100252 321.950018,46.4749836 318.31,49.765 C314.669982,53.0550164 310.260026,54.7 305.08,54.7 Z M306.55,51.27 C309.536682,51.27 311.03,48.4000287 311.03,42.66 C311.03,40.5599895 310.738336,38.0633478 310.155,35.17 C309.571664,32.2766522 308.591674,29.5466795 307.215,26.98 C305.838326,24.4133205 304.310008,23.13 302.63,23.13 C300.996658,23.13 299.830003,23.8533261 299.13,25.3 C298.429997,26.7466739 298.08,28.9399853 298.08,31.88 C298.08,33.4200077 298.266665,35.2399895 298.64,37.34 C299.013335,39.4400105 299.526663,41.551656 300.18,43.675 C300.833337,45.798344 301.731661,47.5949927 302.875,49.065 C304.018339,50.5350074 305.243327,51.27 306.55,51.27 Z M362.55,46.37 C362.55,47.5366725 363.016662,48.6916609 363.95,49.835 C364.883338,50.9783391 365.35,51.8299972 365.35,52.39 L365.35,52.67 C365.35,53.5566711 364.813339,54 363.74,54 L353.73,54 C352.516661,54 351.91,53.4166725 351.91,52.25 L351.91,51.62 C349.716656,53.6733436 346.870018,54.7 343.37,54.7 C338.843311,54.7 334.95835,53.1483488 331.715,50.045 C328.47165,46.9416511 326.85,42.6600273 326.85,37.2 C326.85,32.1133079 328.483317,27.9250164 331.75,24.635 C335.016683,21.3449835 338.913311,19.7 343.44,19.7 C346.286681,19.7 348.68999,20.3533268 350.65,21.66 L350.65,12.35 C350.65,11.416662 350.34667,10.6116701 349.74,9.935 C349.13333,9.25832995 348.515003,8.67500245 347.885,8.185 C347.254997,7.69499755 346.94,7.1700028 346.94,6.61 L346.94,6.4 C346.94,5.5133289 347.476661,4.9066683 348.55,4.58 L359.47,1.29 C361.523344,0.6366634 362.55,1.1966578 362.55,2.97 L362.55,46.37 Z M346.17,51.27 C347.430006,51.3166669 348.491662,50.8033387 349.355,49.73 C350.218338,48.6566613 350.65,47.2100091 350.65,45.39 L350.65,31.88 C350.65,29.6399888 350.00834,27.6216756 348.725,25.825 C347.44166,24.0283243 345.983342,23.13 344.35,23.13 C340.896649,23.13 339.053335,25.9999713 338.82,31.74 C338.726666,33.9333443 338.924998,36.4766522 339.415,39.37 C339.905002,42.2633478 340.744994,44.9583208 341.935,47.455 C343.125006,49.9516792 344.536659,51.2233331 346.17,51.27 Z" id="path-1"></path>
        <path d="M10.447,125.423 C8.15965523,123.574324 6.24050775,120.840518 4.6895,117.2215 C3.13849224,113.602482 2.363,109.349024 2.363,104.461 C2.363,99.5729756 3.13849224,95.3195181 4.6895,91.7005 C6.24050775,88.0814819 8.15965523,85.3476759 10.447,83.499 C11.1050033,82.9663307 11.7551635,82.8801649 12.3975,83.2405 C13.0398365,83.6008351 13.1573354,84.1883293 12.75,85.003 C11.7473283,86.8830094 10.9326698,89.5933156 10.306,93.134 C9.6793302,96.6746844 9.366,100.450313 9.366,104.461 C9.366,108.471687 9.6793302,112.247316 10.306,115.788 C10.9326698,119.328684 11.7473283,122.038991 12.75,123.919 C13.1573354,124.733671 13.0398365,125.321165 12.3975,125.6815 C11.7551635,126.041835 11.1050033,125.955669 10.447,125.423 Z M16.275,120.3 C15.5543297,120.3 15.194,120.002336 15.194,119.407 L15.194,119.219 C15.194,118.842998 15.4994969,118.271171 16.1105,117.5035 C16.7215031,116.735829 17.027,115.960337 17.027,115.177 L17.027,93.698 C17.027,92.8833293 16.7215031,92.0921705 16.1105,91.3245 C15.4994969,90.5568295 15.194,90.0163349 15.194,89.703 L15.194,89.515 C15.194,89.1703316 15.5386632,88.8100019 16.228,88.434 L23.325,84.956 C23.9830033,84.6739986 24.5078314,84.6504988 24.8995,84.8855 C25.2911686,85.1205012 25.487,85.4729977 25.487,85.943 L25.487,115.177 C25.487,115.960337 25.8316632,116.735829 26.521,117.5035 C27.2103368,118.271171 27.555,118.842998 27.555,119.219 L27.555,119.407 C27.555,120.002336 27.1790038,120.3 26.427,120.3 L16.275,120.3 Z M35.921,94.967 C34.322992,94.967 33.0226717,94.5205045 32.02,93.6275 C31.0173283,92.7344955 30.516,91.6143401 30.516,90.267 C30.516,88.9196599 31.0173283,87.7995045 32.02,86.9065 C33.0226717,86.0134955 34.322992,85.567 35.921,85.567 C37.4876745,85.567 38.7723283,86.0134955 39.775,86.9065 C40.7776717,87.7995045 41.279,88.9196599 41.279,90.267 C41.279,91.6143401 40.7776717,92.7344955 39.775,93.6275 C38.7723283,94.5205045 37.4876745,94.967 35.921,94.967 Z M30.892,120.3 C30.1399962,120.3 29.764,120.002336 29.764,119.407 L29.764,119.219 C29.764,118.842998 30.0773302,118.263337 30.704,117.48 C31.3306698,116.696663 31.644,115.913337 31.644,115.13 L31.644,106.2 C31.644,105.385329 31.3306698,104.594171 30.704,103.8265 C30.0773302,103.058829 29.764,102.534001 29.764,102.252 L29.764,102.064 C29.764,101.687998 30.1243297,101.327668 30.845,100.983 L37.942,97.505 C38.6000033,97.2229986 39.1169981,97.1916656 39.493,97.411 C39.8690019,97.6303344 40.057,97.9906642 40.057,98.492 L40.057,115.13 C40.057,115.913337 40.4094965,116.696663 41.1145,117.48 C41.8195035,118.263337 42.172,118.842998 42.172,119.219 L42.172,119.407 C42.172,120.002336 41.7803373,120.3 40.997,120.3 L30.892,120.3 Z M69.15,116.352 C69.3066675,116.571334 69.784496,116.978664 70.5835,117.574 C71.382504,118.169336 71.782,118.717664 71.782,119.219 L71.782,119.407 C71.782,120.002336 71.4216703,120.3 70.701,120.3 L60.831,120.3 C60.1103297,120.3 59.75,119.98667 59.75,119.36 L59.75,119.219 C59.75,118.842998 59.9849977,118.380836 60.455,117.8325 C60.9250024,117.284164 61.0190014,116.790669 60.737,116.352 L56.601,110.195 L54.251,112.357 L54.251,115.177 C54.251,115.960337 54.6034965,116.735829 55.3085,117.5035 C56.0135035,118.271171 56.366,118.842998 56.366,119.219 L56.366,119.407 C56.366,120.002336 55.9900038,120.3 55.238,120.3 L45.086,120.3 C44.3339962,120.3 43.958,120.002336 43.958,119.407 L43.958,119.219 C43.958,118.842998 44.2713302,118.271171 44.898,117.5035 C45.5246698,116.735829 45.838,115.960337 45.838,115.177 L45.838,93.698 C45.838,92.8833293 45.4620038,92.0921705 44.71,91.3245 C43.9579962,90.5568295 43.582,90.0163349 43.582,89.703 L43.582,89.515 C43.582,89.1703316 43.9266632,88.8100019 44.616,88.434 L52.136,84.956 C52.7940033,84.7053321 53.3109981,84.6896656 53.687,84.909 C54.0630019,85.1283344 54.251,85.4729977 54.251,85.943 L54.251,108.268 L60.596,102.816 C60.9720019,102.565332 61.1208337,102.252002 61.0425,101.876 C60.9641663,101.499998 60.8075012,101.163168 60.5725,100.8655 C60.3374988,100.567832 60.0868347,100.231002 59.8205,99.855 C59.5541653,99.4789981 59.421,99.1500014 59.421,98.868 L59.421,98.68 C59.421,98.0533302 59.7813297,97.74 60.502,97.74 L67.928,97.74 C68.6486703,97.74 69.009,98.0376637 69.009,98.633 L69.009,98.821 C69.009,99.1970019 68.7896689,99.5808314 68.351,99.9725 C67.9123311,100.364169 67.293504,100.818497 66.4945,101.3355 C65.695496,101.852503 65.0610024,102.330331 64.591,102.769 L61.583,105.542 L69.15,116.352 Z M90.065,112.874 C90.4096684,112.529332 90.7934979,112.427499 91.2165,112.5685 C91.6395021,112.709501 91.8353335,113.030664 91.804,113.532 C91.741333,115.098675 90.8326754,116.696659 89.078,118.326 C87.3233246,119.955341 85.0516806,120.77 82.263,120.77 C78.8476496,120.77 76.0590108,119.673344 73.897,117.48 C71.7349892,115.286656 70.654,112.419684 70.654,108.879 C70.654,105.494983 71.789822,102.714178 74.0615,100.5365 C76.333178,98.3588224 79.0513175,97.27 82.216,97.27 C85.0673476,97.27 87.2763255,97.9279934 88.843,99.244 C90.4096745,100.560007 91.193,102.048325 91.193,103.709 C91.193,105.025007 90.5820061,105.99633 89.36,106.623 L80.007,111.887 C81.2916731,113.923677 83.0776552,114.942 85.365,114.942 C86.3363382,114.942 87.252829,114.746169 88.1145,114.3545 C88.976171,113.962831 89.6263311,113.469336 90.065,112.874 Z M81.37,99.573 C80.4299953,99.573 79.6701696,100.042995 79.0905,100.983 C78.5108304,101.923005 78.221,103.097993 78.221,104.508 C78.221,106.388009 78.4559977,108.032993 78.926,109.443 L83.297,106.811 C84.1116707,106.246997 84.519,105.448005 84.519,104.414 C84.519,103.379995 84.2605026,102.314672 83.7435,101.218 C83.2264974,100.121328 82.4353387,99.573 81.37,99.573 Z M118.735,97.27 C120.08234,97.27 121.155496,97.7086623 121.9545,98.586 C122.753504,99.4633377 123.153,100.57566 123.153,101.923 C123.153,104.868348 121.946679,106.341 119.534,106.341 C118.562662,106.341 117.826336,106.113836 117.325,105.6595 C116.823664,105.205164 116.533834,104.696003 116.4555,104.132 C116.377166,103.567997 116.212668,103.058836 115.962,102.6045 C115.711332,102.150164 115.335336,101.923 114.834,101.923 C113.674661,101.923 113.095,103.426985 113.095,106.435 L113.095,115.177 C113.095,115.960337 113.510163,116.735829 114.3405,117.5035 C115.170837,118.271171 115.586,118.842998 115.586,119.219 L115.586,119.407 C115.586,120.002336 115.210004,120.3 114.458,120.3 L104.353,120.3 C103.600996,120.3 103.225,120.002336 103.225,119.407 L103.225,119.219 C103.225,118.842998 103.53833,118.271171 104.165,117.5035 C104.79167,116.735829 105.105,115.960337 105.105,115.177 L105.105,105.824 C105.105,105.19733 104.917002,104.664669 104.541,104.226 C104.164998,103.787331 103.789002,103.411335 103.413,103.098 C103.036998,102.784665 102.849,102.440002 102.849,102.064 L102.849,101.923 C102.849,101.390331 103.20933,100.936002 103.93,100.56 L110.557,97.458 C111.18367,97.2386656 111.622332,97.2229991 111.873,97.411 C112.123668,97.5990009 112.249,97.9593307 112.249,98.492 L112.249,101.923 C113.314339,98.8209845 115.476317,97.27 118.735,97.27 Z M143.316,112.874 C143.660668,112.529332 144.044498,112.427499 144.4675,112.5685 C144.890502,112.709501 145.086333,113.030664 145.055,113.532 C144.992333,115.098675 144.083675,116.696659 142.329,118.326 C140.574325,119.955341 138.302681,120.77 135.514,120.77 C132.09865,120.77 129.310011,119.673344 127.148,117.48 C124.985989,115.286656 123.905,112.419684 123.905,108.879 C123.905,105.494983 125.040822,102.714178 127.3125,100.5365 C129.584178,98.3588224 132.302318,97.27 135.467,97.27 C138.318348,97.27 140.527326,97.9279934 142.094,99.244 C143.660675,100.560007 144.444,102.048325 144.444,103.709 C144.444,105.025007 143.833006,105.99633 142.611,106.623 L133.258,111.887 C134.542673,113.923677 136.328655,114.942 138.616,114.942 C139.587338,114.942 140.503829,114.746169 141.3655,114.3545 C142.227171,113.962831 142.877331,113.469336 143.316,112.874 Z M134.621,99.573 C133.680995,99.573 132.92117,100.042995 132.3415,100.983 C131.76183,101.923005 131.472,103.097993 131.472,104.508 C131.472,106.388009 131.706998,108.032993 132.177,109.443 L136.548,106.811 C137.362671,106.246997 137.77,105.448005 137.77,104.414 C137.77,103.379995 137.511503,102.314672 136.9945,101.218 C136.477497,100.121328 135.686339,99.573 134.621,99.573 Z M169.354,115.177 C169.448,115.929004 169.628165,116.532164 169.8945,116.9865 C170.160835,117.440836 170.427165,117.730666 170.6935,117.856 C170.959835,117.981334 171.202666,118.137999 171.422,118.326 C171.641334,118.514001 171.751,118.748999 171.751,119.031 C171.751,120.065005 169.980684,120.582 166.44,120.582 C164.998659,120.582 163.925504,120.409668 163.2205,120.065 C162.515496,119.720332 162.069001,119.140671 161.881,118.326 C160.690327,119.955341 158.700681,120.77 155.912,120.77 C153.279987,120.77 151.141508,120.159006 149.4965,118.937 C147.851492,117.714994 147.029,115.944678 147.029,113.626 C147.029,111.369989 147.843659,109.607506 149.473,108.3385 C151.102341,107.069494 153.107655,106.435 155.489,106.435 C157.337676,106.435 158.919993,106.826663 160.236,107.61 L160.236,107.469 C159.922665,104.366984 159.570169,102.267672 159.1785,101.171 C158.786831,100.074328 158.027006,99.526 156.899,99.526 C156.17833,99.526 155.598669,99.8549967 155.16,100.513 C154.721331,101.171003 154.400168,101.891663 154.1965,102.675 C153.992832,103.458337 153.609003,104.178997 153.045,104.837 C152.480997,105.495003 151.729005,105.824 150.789,105.824 C149.817662,105.824 149.026503,105.542003 148.4155,104.978 C147.804497,104.413997 147.499,103.677671 147.499,102.769 C147.499,100.951658 148.407658,99.580838 150.225,98.6565 C152.042342,97.732162 154.266987,97.27 156.899,97.27 C160.032349,97.27 162.625156,98.1238248 164.6775,99.8315 C166.729844,101.539175 167.943998,103.849985 168.32,106.764 L169.354,115.177 Z M158.497,118.373 C159.21767,118.373 159.805164,118.028337 160.2595,117.339 C160.713836,116.649663 160.941,115.866338 160.941,114.989 L160.753,112.827 C160.439665,110.22632 159.468341,108.926 157.839,108.926 C157.11833,108.926 156.538669,109.21583 156.1,109.7955 C155.661331,110.37517 155.442,111.150662 155.442,112.122 C155.442,113.876675 155.716164,115.357161 156.2645,116.5635 C156.812836,117.769839 157.556995,118.373 158.497,118.373 Z M173.819,120.3 C173.09833,120.3 172.738,120.002336 172.738,119.407 L172.738,119.219 C172.738,118.842998 173.043497,118.271171 173.6545,117.5035 C174.265503,116.735829 174.571,115.960337 174.571,115.177 L174.571,93.698 C174.571,92.8833293 174.265503,92.0921705 173.6545,91.3245 C173.043497,90.5568295 172.738,90.0163349 172.738,89.703 L172.738,89.515 C172.738,89.1703316 173.082663,88.8100019 173.772,88.434 L180.869,84.956 C181.527003,84.6739986 182.051831,84.6504988 182.4435,84.8855 C182.835169,85.1205012 183.031,85.4729977 183.031,85.943 L183.031,115.177 C183.031,115.960337 183.375663,116.735829 184.065,117.5035 C184.754337,118.271171 185.099,118.842998 185.099,119.219 L185.099,119.407 C185.099,120.002336 184.723004,120.3 183.971,120.3 L173.819,120.3 Z M217.012,97.74 C218.484674,97.74 219.440331,97.8574988 219.879,98.0925 C220.317669,98.3275012 220.505667,98.7269972 220.443,99.291 C220.411667,99.7296689 220.262835,100.082165 219.9965,100.3485 C219.730165,100.614835 219.463835,100.787166 219.1975,100.8655 C218.931165,100.943834 218.539503,101.037833 218.0225,101.1475 C217.505497,101.257167 217.137334,101.343333 216.918,101.406 C218.453341,103.160675 219.221,105.103323 219.221,107.234 C219.221,110.900018 217.529017,113.594658 214.145,115.318 C216.150343,115.756669 217.575996,116.391163 218.422,117.2215 C219.268004,118.051837 219.691,119.09366 219.691,120.347 C219.691,122.195676 218.516012,123.707494 216.166,124.8825 C213.815988,126.057506 210.902017,126.645 207.424,126.645 C204.00865,126.645 201.306177,126.112339 199.3165,125.047 C197.326823,123.981661 196.332,122.46201 196.332,120.488 C196.332,119.673329 196.613997,118.95267 197.178,118.326 C197.742003,117.69933 198.540995,117.386 199.575,117.386 C200.515005,117.386 201.32183,117.74633 201.9955,118.467 C202.66917,119.18767 203.170498,119.986662 203.4995,120.864 C203.828502,121.741338 204.32983,122.548163 205.0035,123.2845 C205.67717,124.020837 206.499662,124.389 207.471,124.389 C208.693006,124.420333 209.648663,124.067837 210.338,123.3315 C211.027337,122.595163 211.372,121.631673 211.372,120.441 C211.372,118.278989 210.714007,117.010002 209.398,116.634 C208.708663,116.696667 208.144669,116.728 207.706,116.728 C204.38465,116.728 201.650844,115.850675 199.5045,114.096 C197.358156,112.341325 196.285,110.069681 196.285,107.281 C196.285,104.304318 197.358156,101.891676 199.5045,100.043 C201.650844,98.1943241 204.415983,97.27 207.8,97.27 C208.677338,97.27 210.055991,97.3483326 211.936,97.505 C213.816009,97.6616675 215.507992,97.74 217.012,97.74 Z M204.134,103.521 C204.134,105.996346 204.619662,108.424655 205.591,110.806 C206.562338,113.187345 207.658994,114.378 208.881,114.378 C209.664337,114.378 210.283164,114.025504 210.7375,113.3205 C211.191836,112.615496 211.419,111.652006 211.419,110.43 C211.419,108.205322 210.933338,105.839679 209.962,103.333 C208.990662,100.826321 207.862673,99.573 206.578,99.573 C205.825996,99.573 205.230669,99.9176632 204.792,100.607 C204.353331,101.296337 204.134,102.26766 204.134,103.521 Z M235.295,120.77 C231.660315,120.77 228.581846,119.649845 226.0595,117.4095 C223.537154,115.169155 222.276,112.357017 222.276,108.973 C222.276,105.588983 223.529321,102.792511 226.036,100.5835 C228.542679,98.374489 231.519316,97.27 234.966,97.27 C238.538018,97.27 241.577321,98.3823222 244.084,100.607 C246.590679,102.831678 247.844,105.65165 247.844,109.067 C247.844,112.451017 246.622012,115.247489 244.178,117.4565 C241.733988,119.665511 238.773017,120.77 235.295,120.77 Z M236.282,118.467 C238.287343,118.467 239.29,116.540019 239.29,112.686 C239.29,111.275993 239.094169,109.599676 238.7025,107.657 C238.310831,105.714324 237.652838,103.881342 236.7285,102.158 C235.804162,100.434658 234.778006,99.573 233.65,99.573 C232.553328,99.573 231.770002,100.058662 231.3,101.03 C230.829998,102.001338 230.595,103.47399 230.595,105.448 C230.595,106.482005 230.720332,107.703993 230.971,109.114 C231.221668,110.524007 231.566331,111.941826 232.005,113.3675 C232.443669,114.793174 233.046829,115.999495 233.8145,116.9865 C234.582171,117.973505 235.404662,118.467 236.282,118.467 Z M262.884,120.77 C259.249315,120.77 256.170846,119.649845 253.6485,117.4095 C251.126154,115.169155 249.865,112.357017 249.865,108.973 C249.865,105.588983 251.118321,102.792511 253.625,100.5835 C256.131679,98.374489 259.108316,97.27 262.555,97.27 C266.127018,97.27 269.166321,98.3823222 271.673,100.607 C274.179679,102.831678 275.433,105.65165 275.433,109.067 C275.433,112.451017 274.211012,115.247489 271.767,117.4565 C269.322988,119.665511 266.362017,120.77 262.884,120.77 Z M263.871,118.467 C265.876343,118.467 266.879,116.540019 266.879,112.686 C266.879,111.275993 266.683169,109.599676 266.2915,107.657 C265.899831,105.714324 265.241838,103.881342 264.3175,102.158 C263.393162,100.434658 262.367006,99.573 261.239,99.573 C260.142328,99.573 259.359002,100.058662 258.889,101.03 C258.418998,102.001338 258.184,103.47399 258.184,105.448 C258.184,106.482005 258.309332,107.703993 258.56,109.114 C258.810668,110.524007 259.155331,111.941826 259.594,113.3675 C260.032669,114.793174 260.635829,115.999495 261.4035,116.9865 C262.171171,117.973505 262.993662,118.467 263.871,118.467 Z M301.471,115.177 C301.471,115.960337 301.78433,116.735829 302.411,117.5035 C303.03767,118.271171 303.351,118.842998 303.351,119.219 L303.351,119.407 C303.351,120.002336 302.99067,120.3 302.27,120.3 L295.549,120.3 C294.734329,120.3 294.327,119.908337 294.327,119.125 L294.327,118.702 C292.854326,120.080674 290.943012,120.77 288.593,120.77 C285.553651,120.77 282.945178,119.728177 280.7675,117.6445 C278.589822,115.560823 277.501,112.686018 277.501,109.02 C277.501,105.60465 278.597656,102.792511 280.791,100.5835 C282.984344,98.374489 285.600651,97.27 288.64,97.27 C290.551343,97.27 292.164993,97.7086623 293.481,98.586 L293.481,92.335 C293.481,91.7083302 293.277335,91.1678356 292.87,90.7135 C292.462665,90.2591644 292.047502,89.8675016 291.6245,89.5385 C291.201498,89.2094984 290.99,88.8570019 290.99,88.481 L290.99,88.34 C290.99,87.7446637 291.35033,87.3373344 292.071,87.118 L299.403,84.909 C300.781674,84.4703311 301.471,84.8463274 301.471,86.037 L301.471,115.177 Z M290.473,118.467 C291.319004,118.498333 292.03183,118.15367 292.6115,117.433 C293.19117,116.71233 293.481,115.741006 293.481,114.519 L293.481,105.448 C293.481,103.943992 293.050171,102.588839 292.1885,101.3825 C291.326829,100.176161 290.347672,99.573 289.251,99.573 C286.932322,99.573 285.694667,101.499981 285.538,105.354 C285.475333,106.826674 285.608498,108.534324 285.9375,110.477 C286.266502,112.419676 286.830496,114.229158 287.6295,115.9055 C288.428504,117.581842 289.376328,118.435667 290.473,118.467 Z M307.957,125.423 C307.298997,125.987003 306.648837,126.081002 306.0065,125.705 C305.364163,125.328998 305.246665,124.733671 305.654,123.919 C306.656672,122.038991 307.47133,119.328684 308.098,115.788 C308.72467,112.247316 309.038,108.471687 309.038,104.461 C309.038,100.450313 308.72467,96.6746844 308.098,93.134 C307.47133,89.5933156 306.656672,86.8830094 305.654,85.003 C305.246665,84.1883293 305.364163,83.6008351 306.0065,83.2405 C306.648837,82.8801649 307.298997,82.9663307 307.957,83.499 C310.275678,85.3476759 312.202659,88.0736487 313.738,91.677 C315.273341,95.2803514 316.041,99.5416421 316.041,104.461 C316.041,109.317691 315.257675,113.547649 313.691,117.151 C312.124326,120.754351 310.213011,123.511657 307.957,125.423 Z" id="path-2"></path>
        <path d="M362.9,112.67 C363.040001,113.790006 363.308331,114.68833 363.705,115.365 C364.101669,116.04167 364.498331,116.473332 364.895,116.66 C365.291669,116.846668 365.653332,117.079999 365.98,117.36 C366.306668,117.640001 366.47,117.989998 366.47,118.41 C366.47,119.950008 363.83336,120.72 358.56,120.72 C356.413323,120.72 354.815005,120.463336 353.765,119.95 C352.714995,119.436664 352.050001,118.573339 351.77,117.36 C349.996658,119.786679 347.033354,121 342.88,121 C338.95998,121 335.775012,120.090009 333.325,118.27 C330.874988,116.449991 329.65,113.813351 329.65,110.36 C329.65,106.999983 330.863321,104.375009 333.29,102.485 C335.716679,100.594991 338.703316,99.65 342.25,99.65 C345.003347,99.65 347.35999,100.233327 349.32,101.4 L349.32,101.19 C348.853331,96.5699769 348.328336,93.4433415 347.745,91.81 C347.161664,90.1766585 346.030008,89.36 344.35,89.36 C343.276661,89.36 342.413337,89.8499951 341.76,90.83 C341.106663,91.8100049 340.628335,92.8833275 340.325,94.05 C340.021665,95.2166725 339.450004,96.2899951 338.61,97.27 C337.769996,98.2500049 336.65,98.74 335.25,98.74 C333.803326,98.74 332.625005,98.3200042 331.715,97.48 C330.804995,96.6399958 330.35,95.5433401 330.35,94.19 C330.35,91.4833198 331.70332,89.4416735 334.41,88.065 C337.11668,86.6883264 340.42998,86 344.35,86 C349.01669,86 352.878318,87.2716539 355.935,89.815 C358.991682,92.358346 360.799997,95.7999783 361.36,100.14 L362.9,112.67 Z M346.73,117.43 C347.803339,117.43 348.67833,116.916672 349.355,115.89 C350.03167,114.863328 350.37,113.696673 350.37,112.39 L350.09,109.17 C349.623331,105.296647 348.176679,103.36 345.75,103.36 C344.676661,103.36 343.813337,103.791662 343.16,104.655 C342.506663,105.518338 342.18,106.673326 342.18,108.12 C342.18,110.733346 342.588329,112.938324 343.405,114.735 C344.221671,116.531676 345.329993,117.43 346.73,117.43 Z M382.29,121 C378.743316,121 375.95501,119.880011 373.925,117.64 C371.89499,115.399989 370.88,112.203354 370.88,108.05 L370.88,91.46 L368.22,91.46 C367.753331,91.46 367.368335,91.3083348 367.065,91.005 C366.761665,90.7016651 366.61,90.316669 366.61,89.85 L366.61,88.31 C366.61,87.2366613 367.146661,86.7 368.22,86.7 L369.55,86.7 C371.696677,86.7 373.539992,86.0583397 375.08,84.775 C376.620008,83.4916602 377.623331,81.7766774 378.09,79.63 C378.323334,78.4166606 378.953328,77.81 379.98,77.81 L381.59,77.81 C382.850006,77.81 383.48,78.4166606 383.48,79.63 L383.48,86.7 L390.69,86.7 C391.156669,86.7 391.541665,86.8516651 391.845,87.155 C392.148335,87.4583348 392.3,87.843331 392.3,88.31 L392.3,89.85 C392.3,90.316669 392.148335,90.7016651 391.845,91.005 C391.541665,91.3083348 391.156669,91.46 390.69,91.46 L383.48,91.46 L383.48,108.26 C383.48,109.426672 383.78333,110.34833 384.39,111.025 C384.99667,111.70167 385.743329,112.04 386.63,112.04 C388.636677,112.04 390.176661,111.176675 391.25,109.45 C391.576668,109.029998 391.949998,108.785 392.37,108.715 C392.790002,108.645 393.151665,108.726665 393.455,108.96 C393.758335,109.193334 393.91,109.519998 393.91,109.94 C393.91,112.880015 392.871677,115.458322 390.795,117.675 C388.718323,119.891678 385.883351,121 382.29,121 Z" id="path-3"></path>
        <path d="M35.16,159.86 C39.1733534,160.420003 42.346655,161.843322 44.68,164.13 C47.013345,166.416678 48.18,169.239983 48.18,172.6 C48.18,176.893355 46.2200196,180.299987 42.3,182.82 C38.3799804,185.340013 32.5233723,186.6 24.73,186.6 L5.55,186.6 C4.4299944,186.6 3.87,186.156671 3.87,185.27 L3.87,184.99 C3.87,184.429997 4.336662,183.578339 5.27,182.435 C6.203338,181.291661 6.67,180.136673 6.67,178.97 L6.67,144.53 C6.67,143.363327 6.203338,142.208339 5.27,141.065 C4.336662,139.921661 3.87,139.070003 3.87,138.51 L3.87,138.23 C3.87,137.343329 4.4299944,136.9 5.55,136.9 L24.94,136.9 C30.9600301,136.9 35.5216512,138.066655 38.625,140.4 C41.7283489,142.733345 43.28,145.766648 43.28,149.5 C43.28,152.113346 42.5450074,154.329991 41.075,156.15 C39.6049927,157.970009 37.6333457,159.206663 35.16,159.86 Z M19.27,145.44 L19.27,154.26 C19.27,155.380006 19.6199965,156.266663 20.32,156.92 C21.0200035,157.573337 21.9299944,157.9 23.05,157.9 L26.55,157.9 C28.3233422,157.9 29.7466613,157.305006 30.82,156.115 C31.8933387,154.924994 32.43,153.326677 32.43,151.32 C32.43,148.333318 31.7183405,146.000008 30.295,144.32 C28.8716596,142.639992 26.9466788,141.8 24.52,141.8 L22.56,141.8 C20.3666557,141.8 19.27,143.013321 19.27,145.44 Z M27.88,181.7 C30.0733443,181.7 31.7883272,181.035007 33.025,179.705 C34.2616729,178.374993 34.88,176.613344 34.88,174.42 C34.88,171.526652 33.7483447,168.866679 31.485,166.44 C29.2216554,164.013321 26.1300196,162.8 22.21,162.8 L19.27,162.8 L19.27,175.75 C19.27,177.476675 19.7483286,178.899994 20.705,180.02 C21.6616715,181.140006 22.9333254,181.7 24.52,181.7 L27.88,181.7 Z M74.22,152.3 C76.2266767,152.3 77.824994,152.953327 79.015,154.26 C80.205006,155.566673 80.8,157.223323 80.8,159.23 C80.8,163.616689 79.0033513,165.81 75.41,165.81 C73.9633261,165.81 72.8666704,165.47167 72.12,164.795 C71.3733296,164.11833 70.9416672,163.360004 70.825,162.52 C70.7083328,161.679996 70.4633352,160.92167 70.09,160.245 C69.7166648,159.56833 69.1566704,159.23 68.41,159.23 C66.6833247,159.23 65.82,161.469978 65.82,165.95 L65.82,178.97 C65.82,180.136673 66.4383272,181.291661 67.675,182.435 C68.9116729,183.578339 69.53,184.429997 69.53,184.99 L69.53,185.27 C69.53,186.156671 68.9700056,186.6 67.85,186.6 L52.8,186.6 C51.6799944,186.6 51.12,186.156671 51.12,185.27 L51.12,184.99 C51.12,184.429997 51.586662,183.578339 52.52,182.435 C53.453338,181.291661 53.92,180.136673 53.92,178.97 L53.92,165.04 C53.92,164.106662 53.6400028,163.313337 53.08,162.66 C52.5199972,162.006663 51.9600028,161.446669 51.4,160.98 C50.8399972,160.513331 50.56,160.000003 50.56,159.44 L50.56,159.23 C50.56,158.436663 51.0966613,157.760003 52.17,157.2 L62.04,152.58 C62.973338,152.253332 63.6266648,152.229999 64,152.51 C64.3733352,152.790001 64.56,153.326663 64.56,154.12 L64.56,159.23 C66.1466746,154.609977 69.3666424,152.3 74.22,152.3 Z M115.38,178.97 C115.520001,180.090006 115.788331,180.98833 116.185,181.665 C116.581669,182.34167 116.978331,182.773332 117.375,182.96 C117.771669,183.146668 118.133332,183.379999 118.46,183.66 C118.786668,183.940001 118.95,184.289998 118.95,184.71 C118.95,186.250008 116.31336,187.02 111.04,187.02 C108.893323,187.02 107.295005,186.763336 106.245,186.25 C105.194995,185.736664 104.530001,184.873339 104.25,183.66 C102.476658,186.086679 99.5133541,187.3 95.36,187.3 C91.4399804,187.3 88.2550123,186.390009 85.805,184.57 C83.3549878,182.749991 82.13,180.113351 82.13,176.66 C82.13,173.299983 83.3433212,170.675009 85.77,168.785 C88.1966788,166.894991 91.1833156,165.95 94.73,165.95 C97.4833471,165.95 99.8399902,166.533327 101.8,167.7 L101.8,167.49 C101.333331,162.869977 100.808336,159.743341 100.225,158.11 C99.6416638,156.476659 98.5100084,155.66 96.83,155.66 C95.7566613,155.66 94.8933366,156.149995 94.24,157.13 C93.5866634,158.110005 93.1083349,159.183327 92.805,160.35 C92.5016652,161.516672 91.9300042,162.589995 91.09,163.57 C90.2499958,164.550005 89.13,165.04 87.73,165.04 C86.2833261,165.04 85.1050046,164.620004 84.195,163.78 C83.2849955,162.939996 82.83,161.84334 82.83,160.49 C82.83,157.78332 84.1833198,155.741674 86.89,154.365 C89.5966802,152.988326 92.9099804,152.3 96.83,152.3 C101.49669,152.3 105.358318,153.571654 108.415,156.115 C111.471682,158.658346 113.279997,162.099978 113.84,166.44 L115.38,178.97 Z M99.21,183.73 C100.283339,183.73 101.15833,183.216672 101.835,182.19 C102.51167,181.163328 102.85,179.996673 102.85,178.69 L102.57,175.47 C102.103331,171.596647 100.656679,169.66 98.23,169.66 C97.1566613,169.66 96.2933366,170.091662 95.64,170.955 C94.9866634,171.818338 94.66,172.973326 94.66,174.42 C94.66,177.033346 95.0683293,179.238324 95.885,181.035 C96.7016708,182.831676 97.809993,183.73 99.21,183.73 Z M158.71,178.97 C158.803334,180.136673 159.246663,181.291661 160.04,182.435 C160.833337,183.578339 161.23,184.45333 161.23,185.06 L161.23,185.34 C161.23,186.226671 160.670006,186.67 159.55,186.67 L145.55,186.67 C144.429994,186.67 143.87,186.226671 143.87,185.34 L143.87,185.06 C143.87,184.499997 144.313329,183.636673 145.2,182.47 C146.086671,181.303327 146.483334,180.136673 146.39,178.97 L145.69,166.44 C145.503332,162.986649 145.048337,160.536674 144.325,159.09 C143.601663,157.643326 142.446675,156.92 140.86,156.92 C139.366659,156.92 138.235004,157.526661 137.465,158.74 C136.694996,159.953339 136.31,161.609989 136.31,163.71 L136.31,178.97 C136.31,180.136673 136.823328,181.303327 137.85,182.47 C138.876672,183.636673 139.39,184.499997 139.39,185.06 L139.39,185.34 C139.39,186.226671 138.830006,186.67 137.71,186.67 L122.59,186.67 C121.469994,186.67 120.91,186.226671 120.91,185.34 L120.91,185.06 C120.91,184.499997 121.423328,183.636673 122.45,182.47 C123.476672,181.303327 123.99,180.136673 123.99,178.97 L123.99,165.18 C123.99,164.199995 123.68667,163.37167 123.08,162.695 C122.47333,162.01833 121.855003,161.435002 121.225,160.945 C120.594997,160.454998 120.28,159.930003 120.28,159.37 L120.28,159.16 C120.28,158.55333 120.839994,157.970003 121.96,157.41 L131.76,152.58 C132.646671,152.206665 133.311664,152.194998 133.755,152.545 C134.198336,152.895002 134.42,153.466663 134.42,154.26 L134.42,157.55 C136.38001,154.049982 139.716643,152.3 144.43,152.3 C147.930018,152.3 150.939987,153.443322 153.46,155.73 C155.980013,158.016678 157.426665,161.726641 157.8,166.86 L158.71,178.97 Z M199.31,178.97 C199.31,180.136673 199.776662,181.291661 200.71,182.435 C201.643338,183.578339 202.11,184.429997 202.11,184.99 L202.11,185.27 C202.11,186.156671 201.573339,186.6 200.5,186.6 L190.49,186.6 C189.276661,186.6 188.67,186.016672 188.67,184.85 L188.67,184.22 C186.476656,186.273344 183.630018,187.3 180.13,187.3 C175.603311,187.3 171.71835,185.748349 168.475,182.645 C165.23165,179.541651 163.61,175.260027 163.61,169.8 C163.61,164.713308 165.243317,160.525016 168.51,157.235 C171.776683,153.944984 175.673311,152.3 180.2,152.3 C183.046681,152.3 185.44999,152.953327 187.41,154.26 L187.41,144.95 C187.41,144.016662 187.10667,143.21167 186.5,142.535 C185.89333,141.85833 185.275003,141.275002 184.645,140.785 C184.014997,140.294998 183.7,139.770003 183.7,139.21 L183.7,139 C183.7,138.113329 184.236661,137.506668 185.31,137.18 L196.23,133.89 C198.283344,133.236663 199.31,133.796658 199.31,135.57 L199.31,178.97 Z M182.93,183.87 C184.190006,183.916667 185.251662,183.403339 186.115,182.33 C186.978338,181.256661 187.41,179.810009 187.41,177.99 L187.41,164.48 C187.41,162.239989 186.76834,160.221676 185.485,158.425 C184.20166,156.628324 182.743342,155.73 181.11,155.73 C177.656649,155.73 175.813335,158.599971 175.58,164.34 C175.486666,166.533344 175.684998,169.076652 176.175,171.97 C176.665002,174.863348 177.504994,177.558321 178.695,180.055 C179.885006,182.551679 181.296659,183.823333 182.93,183.87 Z M214.5,148.87 C212.119988,148.87 210.183341,148.205007 208.69,146.875 C207.196659,145.544993 206.45,143.876677 206.45,141.87 C206.45,139.863323 207.196659,138.195007 208.69,136.865 C210.183341,135.534993 212.119988,134.87 214.5,134.87 C216.833345,134.87 218.746659,135.534993 220.24,136.865 C221.733341,138.195007 222.48,139.863323 222.48,141.87 C222.48,143.876677 221.733341,145.544993 220.24,146.875 C218.746659,148.205007 216.833345,148.87 214.5,148.87 Z M207.01,186.6 C205.889994,186.6 205.33,186.156671 205.33,185.27 L205.33,184.99 C205.33,184.429997 205.796662,183.566673 206.73,182.4 C207.663338,181.233328 208.13,180.066673 208.13,178.9 L208.13,165.6 C208.13,164.386661 207.663338,163.208339 206.73,162.065 C205.796662,160.921661 205.33,160.140002 205.33,159.72 L205.33,159.44 C205.33,158.879997 205.866661,158.343336 206.94,157.83 L217.51,152.65 C218.490005,152.229998 219.259997,152.183332 219.82,152.51 C220.380003,152.836668 220.66,153.37333 220.66,154.12 L220.66,178.9 C220.66,180.066673 221.184995,181.233328 222.235,182.4 C223.285005,183.566673 223.81,184.429997 223.81,184.99 L223.81,185.27 C223.81,186.156671 223.226673,186.6 222.06,186.6 L207.01,186.6 Z M264.83,178.97 C264.923334,180.136673 265.366663,181.291661 266.16,182.435 C266.953337,183.578339 267.35,184.45333 267.35,185.06 L267.35,185.34 C267.35,186.226671 266.790006,186.67 265.67,186.67 L251.67,186.67 C250.549994,186.67 249.99,186.226671 249.99,185.34 L249.99,185.06 C249.99,184.499997 250.433329,183.636673 251.32,182.47 C252.206671,181.303327 252.603334,180.136673 252.51,178.97 L251.81,166.44 C251.623332,162.986649 251.168337,160.536674 250.445,159.09 C249.721663,157.643326 248.566675,156.92 246.98,156.92 C245.486659,156.92 244.355004,157.526661 243.585,158.74 C242.814996,159.953339 242.43,161.609989 242.43,163.71 L242.43,178.97 C242.43,180.136673 242.943328,181.303327 243.97,182.47 C244.996672,183.636673 245.51,184.499997 245.51,185.06 L245.51,185.34 C245.51,186.226671 244.950006,186.67 243.83,186.67 L228.71,186.67 C227.589994,186.67 227.03,186.226671 227.03,185.34 L227.03,185.06 C227.03,184.499997 227.543328,183.636673 228.57,182.47 C229.596672,181.303327 230.11,180.136673 230.11,178.97 L230.11,165.18 C230.11,164.199995 229.80667,163.37167 229.2,162.695 C228.59333,162.01833 227.975003,161.435002 227.345,160.945 C226.714997,160.454998 226.4,159.930003 226.4,159.37 L226.4,159.16 C226.4,158.55333 226.959994,157.970003 228.08,157.41 L237.88,152.58 C238.766671,152.206665 239.431664,152.194998 239.875,152.545 C240.318336,152.895002 240.54,153.466663 240.54,154.26 L240.54,157.55 C242.50001,154.049982 245.836643,152.3 250.55,152.3 C254.050018,152.3 257.059987,153.443322 259.58,155.73 C262.100013,158.016678 263.546665,161.726641 263.92,166.86 L264.83,178.97 Z M300.67,153 C302.863344,153 304.286663,153.174998 304.94,153.525 C305.593337,153.875002 305.873334,154.469996 305.78,155.31 C305.733333,155.963337 305.511669,156.488331 305.115,156.885 C304.718331,157.281669 304.321669,157.538333 303.925,157.655 C303.528331,157.771667 302.945004,157.911666 302.175,158.075 C301.404996,158.238334 300.856668,158.366666 300.53,158.46 C302.816678,161.073346 303.96,163.966651 303.96,167.14 C303.96,172.600027 301.440025,176.61332 296.4,179.18 C299.386682,179.833337 301.509994,180.778327 302.77,182.015 C304.030006,183.251673 304.66,184.803324 304.66,186.67 C304.66,189.423347 302.910018,191.674991 299.41,193.425 C295.909983,195.175009 291.570026,196.05 286.39,196.05 C281.303308,196.05 277.278348,195.256675 274.315,193.67 C271.351652,192.083325 269.87,189.820015 269.87,186.88 C269.87,185.666661 270.289996,184.593338 271.13,183.66 C271.970004,182.726662 273.159992,182.26 274.7,182.26 C276.100007,182.26 277.301662,182.796661 278.305,183.87 C279.308338,184.943339 280.054998,186.133327 280.545,187.44 C281.035002,188.746673 281.781662,189.948328 282.785,191.045 C283.788338,192.141672 285.013326,192.69 286.46,192.69 C288.280009,192.736667 289.703328,192.211672 290.73,191.115 C291.756672,190.018328 292.27,188.583342 292.27,186.81 C292.27,183.589984 291.29001,181.700003 289.33,181.14 C288.303328,181.233334 287.463337,181.28 286.81,181.28 C281.863309,181.28 277.791683,179.973346 274.595,177.36 C271.398317,174.746654 269.8,171.363354 269.8,167.21 C269.8,162.776645 271.398317,159.183347 274.595,156.43 C277.791683,153.676653 281.909975,152.3 286.95,152.3 C288.256673,152.3 290.309986,152.416665 293.11,152.65 C295.910014,152.883334 298.429989,153 300.67,153 Z M281.49,161.61 C281.49,165.296685 282.213326,168.913316 283.66,172.46 C285.106674,176.006684 286.739991,177.78 288.56,177.78 C289.726673,177.78 290.64833,177.255005 291.325,176.205 C292.00167,175.154995 292.34,173.720009 292.34,171.9 C292.34,168.58665 291.616674,165.063352 290.17,161.33 C288.723326,157.596648 287.043343,155.73 285.13,155.73 C284.009994,155.73 283.123337,156.243328 282.47,157.27 C281.816663,158.296672 281.49,159.743324 281.49,161.61 Z" id="path-4"></path>
        <path d="M15.7,252.9 C14.6266613,252.9 14.09,252.456671 14.09,251.57 L14.09,251.29 C14.09,250.729997 14.5916616,249.878339 15.595,248.735 C16.5983383,247.591661 17.1,246.436672 17.1,245.27 L17.1,208.45 L13.39,208.45 C12.3166613,208.45 11.3483376,208.893329 10.485,209.78 C9.62166235,210.666671 8.94500245,211.634995 8.455,212.685 C7.96499755,213.735005 7.3700035,214.703329 6.67,215.59 C5.9699965,216.476671 5.2700035,216.92 4.57,216.92 L3.38,216.92 C2.0733268,216.92 1.4899993,216.24334 1.63,214.89 L3.03,205.37 C3.1700007,203.923326 3.9633261,203.2 5.41,203.2 L41.39,203.2 C42.790007,203.2 43.5833324,203.923326 43.77,205.37 L45.24,214.96 C45.3333338,215.56667 45.2166683,216.044998 44.89,216.395 C44.5633317,216.745002 44.0966697,216.92 43.49,216.92 L42.3,216.92 C41.5999965,216.92 40.9000035,216.476671 40.2,215.59 C39.4999965,214.703329 38.8933359,213.735005 38.38,212.685 C37.8666641,211.634995 37.1666711,210.666671 36.28,209.78 C35.3933289,208.893329 34.4133387,208.45 33.34,208.45 L29.7,208.45 L29.7,245.27 C29.7,246.436672 30.2016616,247.591661 31.205,248.735 C32.2083383,249.878339 32.71,250.729997 32.71,251.29 L32.71,251.57 C32.71,252.456671 32.1500056,252.9 31.03,252.9 L15.7,252.9 Z M68.62,241.84 C69.1333359,241.326664 69.7049968,241.174999 70.335,241.385 C70.9650032,241.595001 71.2566669,242.07333 71.21,242.82 C71.1166662,245.153345 69.7633464,247.533321 67.15,249.96 C64.5366536,252.386679 61.1533541,253.6 57,253.6 C51.9133079,253.6 47.7600161,251.966683 44.54,248.7 C41.3199839,245.433317 39.71,241.16336 39.71,235.89 C39.71,230.849975 41.4016497,226.70835 44.785,223.465 C48.1683502,220.22165 52.2166431,218.6 56.93,218.6 C61.1766879,218.6 64.466655,219.57999 66.8,221.54 C69.133345,223.50001 70.3,225.716654 70.3,228.19 C70.3,230.15001 69.3900091,231.596662 67.57,232.53 L53.64,240.37 C55.5533429,243.403348 58.2133163,244.92 61.62,244.92 C63.0666739,244.92 64.4316602,244.628336 65.715,244.045 C66.9983397,243.461664 67.9666634,242.726671 68.62,241.84 Z M55.67,222.03 C54.269993,222.03 53.1383376,222.729993 52.275,224.13 C51.4116623,225.53 50.98,227.279989 50.98,229.38 C50.98,232.180014 51.3299965,234.629989 52.03,236.73 L58.54,232.81 C59.7533394,231.969996 60.36,230.780008 60.36,229.24 C60.36,227.699992 59.9750038,226.113341 59.205,224.48 C58.4349961,222.846658 57.2566746,222.03 55.67,222.03 Z M91.93,253.6 C86.6099734,253.6 82.2466837,251.861684 78.84,248.385 C75.4333163,244.908316 73.73,240.790024 73.73,236.03 C73.73,230.75664 75.4566494,226.545016 78.91,223.395 C82.3633506,220.244984 86.5633086,218.646667 91.51,218.6 C95.6633541,218.553333 99.1866522,219.498324 102.08,221.435 C104.973348,223.371676 106.42,225.879985 106.42,228.96 C106.42,230.126672 106.011671,231.106663 105.195,231.9 C104.378329,232.693337 103.083342,233.066667 101.31,233.02 C99.7233254,232.926666 98.358339,232.296672 97.215,231.13 C96.0716609,229.963327 95.2433359,228.70334 94.73,227.35 C94.2166641,225.99666 93.5166711,224.771672 92.63,223.675 C91.7433289,222.578328 90.7400056,222.03 89.62,222.03 C88.1733261,222.076667 86.9950045,222.846659 86.085,224.34 C85.1749954,225.833341 84.72,227.676656 84.72,229.87 C84.72,234.443356 85.7583229,238.106653 87.835,240.86 C89.911677,243.613347 92.6766494,244.99 96.13,244.99 C99.2566823,244.99 101.846656,243.63668 103.9,240.93 C104.366669,240.369997 104.926663,240.171666 105.58,240.335 C106.233337,240.498334 106.56,240.95333 106.56,241.7 C106.466666,244.966683 105.136679,247.766655 102.57,250.1 C100.00332,252.433345 96.4566893,253.6 91.93,253.6 Z M147.02,245.2 C147.113334,246.366672 147.556663,247.521661 148.35,248.665 C149.143337,249.808339 149.54,250.68333 149.54,251.29 L149.54,251.57 C149.54,252.456671 148.980006,252.9 147.86,252.9 L133.93,252.9 C132.809994,252.9 132.25,252.456671 132.25,251.57 L132.25,251.29 C132.25,250.729997 132.681662,249.866672 133.545,248.7 C134.408338,247.533327 134.816667,246.366672 134.77,245.2 L134.07,232.18 C133.883332,228.959984 133.41667,226.661674 132.67,225.285 C131.92333,223.908326 130.756675,223.22 129.17,223.22 C127.676659,223.22 126.545004,223.826661 125.775,225.04 C125.004996,226.253339 124.62,227.909989 124.62,230.01 L124.62,245.27 C124.62,246.436672 125.144995,247.591661 126.195,248.735 C127.245005,249.878339 127.77,250.729997 127.77,251.29 L127.77,251.57 C127.77,252.456671 127.210006,252.9 126.09,252.9 L110.9,252.9 C109.826661,252.9 109.29,252.456671 109.29,251.57 L109.29,251.29 C109.29,250.729997 109.803328,249.878339 110.83,248.735 C111.856672,247.591661 112.37,246.436672 112.37,245.27 L112.37,212.79 C112.37,211.576661 111.798339,210.480005 110.655,209.5 C109.511661,208.519995 108.94,207.750003 108.94,207.19 L108.94,206.98 C108.94,206.139996 109.476661,205.486669 110.55,205.02 L121.61,200.12 C122.403337,199.746665 123.044998,199.699999 123.535,199.98 C124.025002,200.260001 124.27,200.796663 124.27,201.59 L124.27,221.89 C126.37001,219.696656 129.216649,218.6 132.81,218.6 C136.263351,218.6 139.249987,219.708322 141.77,221.925 C144.290013,224.141678 145.736665,227.699975 146.11,232.6 L147.02,245.2 Z" id="path-5"></path>
        <path d="M5.55,319.2 C4.4299944,319.2 3.87,318.756671 3.87,317.87 L3.87,317.59 C3.87,317.029997 4.336662,316.178339 5.27,315.035 C6.203338,313.891661 6.67,312.736672 6.67,311.57 L6.67,277.13 C6.67,275.963327 6.203338,274.808339 5.27,273.665 C4.336662,272.521661 3.87,271.670003 3.87,271.11 L3.87,270.83 C3.87,269.943329 4.4299944,269.5 5.55,269.5 L22.07,269.5 C31.8233821,269.5 39.4183062,271.809977 44.855,276.43 C50.2916939,281.050023 53.01,287.116629 53.01,294.63 C53.01,301.956703 50.5016918,307.883311 45.485,312.41 C40.4683083,316.936689 33.8300413,319.2 25.57,319.2 L5.55,319.2 Z M25.29,314.3 L28.09,314.3 C31.5433506,314.3 34.3433226,313.110012 36.49,310.73 C38.6366774,308.349988 39.71,304.943355 39.71,300.51 C39.71,295.983311 39.010007,291.72502 37.61,287.735 C36.209993,283.74498 34.2266795,280.525012 31.66,278.075 C29.0933205,275.624988 26.2466823,274.4 23.12,274.4 L22.35,274.4 C20.2499895,274.4 19.2,275.519989 19.2,277.76 L19.2,307.09 C19.2,309.376678 19.7366613,311.149994 20.81,312.41 C21.8833387,313.670006 23.3766571,314.3 25.29,314.3 Z M65.96,281.47 C63.5799881,281.47 61.6433408,280.805007 60.15,279.475 C58.6566592,278.144993 57.91,276.476677 57.91,274.47 C57.91,272.463323 58.6566592,270.795007 60.15,269.465 C61.6433408,268.134993 63.5799881,267.47 65.96,267.47 C68.293345,267.47 70.2066592,268.134993 71.7,269.465 C73.1933408,270.795007 73.94,272.463323 73.94,274.47 C73.94,276.476677 73.1933408,278.144993 71.7,279.475 C70.2066592,280.805007 68.293345,281.47 65.96,281.47 Z M58.47,319.2 C57.3499944,319.2 56.79,318.756671 56.79,317.87 L56.79,317.59 C56.79,317.029997 57.256662,316.166673 58.19,315 C59.123338,313.833327 59.59,312.666673 59.59,311.5 L59.59,298.2 C59.59,296.986661 59.123338,295.808339 58.19,294.665 C57.256662,293.521661 56.79,292.740002 56.79,292.32 L56.79,292.04 C56.79,291.479997 57.3266613,290.943336 58.4,290.43 L68.97,285.25 C69.9500049,284.829998 70.7199972,284.783332 71.28,285.11 C71.8400028,285.436668 72.12,285.97333 72.12,286.72 L72.12,311.5 C72.12,312.666673 72.6449948,313.833327 73.695,315 C74.7450053,316.166673 75.27,317.029997 75.27,317.59 L75.27,317.87 C75.27,318.756671 74.6866725,319.2 73.52,319.2 L58.47,319.2 Z M109.01,285.6 C111.203344,285.6 112.626663,285.774998 113.28,286.125 C113.933337,286.475002 114.213334,287.069996 114.12,287.91 C114.073333,288.563337 113.851669,289.088331 113.455,289.485 C113.058331,289.881669 112.661669,290.138333 112.265,290.255 C111.868331,290.371667 111.285004,290.511666 110.515,290.675 C109.744996,290.838334 109.196668,290.966666 108.87,291.06 C111.156678,293.673346 112.3,296.566651 112.3,299.74 C112.3,305.200027 109.780025,309.213321 104.74,311.78 C107.726682,312.433337 109.849994,313.378327 111.11,314.615 C112.370006,315.851673 113,317.403324 113,319.27 C113,322.023347 111.250017,324.274991 107.75,326.025 C104.249983,327.775009 99.9100259,328.65 94.73,328.65 C89.6433079,328.65 85.6183481,327.856675 82.655,326.27 C79.6916518,324.683325 78.21,322.420015 78.21,319.48 C78.21,318.266661 78.6299958,317.193338 79.47,316.26 C80.3100042,315.326662 81.4999923,314.86 83.04,314.86 C84.440007,314.86 85.6416617,315.396661 86.645,316.47 C87.6483384,317.543339 88.3949975,318.733327 88.885,320.04 C89.3750025,321.346673 90.1216617,322.548328 91.125,323.645 C92.1283384,324.741672 93.3533261,325.29 94.8,325.29 C96.6200091,325.336667 98.0433282,324.811672 99.07,323.715 C100.096672,322.618328 100.61,321.183342 100.61,319.41 C100.61,316.189984 99.6300098,314.300003 97.67,313.74 C96.6433282,313.833334 95.8033366,313.88 95.15,313.88 C90.2033086,313.88 86.1316827,312.573346 82.935,309.96 C79.7383174,307.346654 78.14,303.963354 78.14,299.81 C78.14,295.376644 79.7383174,291.783347 82.935,289.03 C86.1316827,286.276653 90.2499748,284.9 95.29,284.9 C96.5966732,284.9 98.649986,285.016665 101.45,285.25 C104.250014,285.483334 106.769989,285.6 109.01,285.6 Z M89.83,294.21 C89.83,297.896685 90.5533261,301.513316 92,305.06 C93.4466739,308.606684 95.0799909,310.38 96.9,310.38 C98.0666725,310.38 98.9883299,309.855005 99.665,308.805 C100.34167,307.754995 100.68,306.320009 100.68,304.5 C100.68,301.18665 99.9566739,297.663352 98.51,293.93 C97.0633261,290.196648 95.3833429,288.33 93.47,288.33 C92.3499944,288.33 91.4633366,288.843328 90.81,289.87 C90.1566634,290.896672 89.83,292.343324 89.83,294.21 Z M126.51,281.47 C124.129988,281.47 122.193341,280.805007 120.7,279.475 C119.206659,278.144993 118.46,276.476677 118.46,274.47 C118.46,272.463323 119.206659,270.795007 120.7,269.465 C122.193341,268.134993 124.129988,267.47 126.51,267.47 C128.843345,267.47 130.756659,268.134993 132.25,269.465 C133.743341,270.795007 134.49,272.463323 134.49,274.47 C134.49,276.476677 133.743341,278.144993 132.25,279.475 C130.756659,280.805007 128.843345,281.47 126.51,281.47 Z M119.02,319.2 C117.899994,319.2 117.34,318.756671 117.34,317.87 L117.34,317.59 C117.34,317.029997 117.806662,316.166673 118.74,315 C119.673338,313.833327 120.14,312.666673 120.14,311.5 L120.14,298.2 C120.14,296.986661 119.673338,295.808339 118.74,294.665 C117.806662,293.521661 117.34,292.740002 117.34,292.32 L117.34,292.04 C117.34,291.479997 117.876661,290.943336 118.95,290.43 L129.52,285.25 C130.500005,284.829998 131.269997,284.783332 131.83,285.11 C132.390003,285.436668 132.67,285.97333 132.67,286.72 L132.67,311.5 C132.67,312.666673 133.194995,313.833327 134.245,315 C135.295005,316.166673 135.82,317.029997 135.82,317.59 L135.82,317.87 C135.82,318.756671 135.236672,319.2 134.07,319.2 L119.02,319.2 Z M153.39,319.9 C149.843316,319.9 147.05501,318.780011 145.025,316.54 C142.99499,314.299989 141.98,311.103354 141.98,306.95 L141.98,290.36 L139.32,290.36 C138.853331,290.36 138.468335,290.208335 138.165,289.905 C137.861665,289.601665 137.71,289.216669 137.71,288.75 L137.71,287.21 C137.71,286.136661 138.246661,285.6 139.32,285.6 L140.65,285.6 C142.796677,285.6 144.639992,284.95834 146.18,283.675 C147.720008,282.39166 148.723331,280.676677 149.19,278.53 C149.423334,277.316661 150.053328,276.71 151.08,276.71 L152.69,276.71 C153.950006,276.71 154.58,277.316661 154.58,278.53 L154.58,285.6 L161.79,285.6 C162.256669,285.6 162.641665,285.751665 162.945,286.055 C163.248335,286.358335 163.4,286.743331 163.4,287.21 L163.4,288.75 C163.4,289.216669 163.248335,289.601665 162.945,289.905 C162.641665,290.208335 162.256669,290.36 161.79,290.36 L154.58,290.36 L154.58,307.16 C154.58,308.326672 154.88333,309.24833 155.49,309.925 C156.09667,310.60167 156.843329,310.94 157.73,310.94 C159.736677,310.94 161.276661,310.076675 162.35,308.35 C162.676668,307.929998 163.049998,307.685 163.47,307.615 C163.890002,307.545 164.251665,307.626666 164.555,307.86 C164.858335,308.093334 165.01,308.419998 165.01,308.84 C165.01,311.780015 163.971677,314.358322 161.895,316.575 C159.818323,318.791678 156.983351,319.9 153.39,319.9 Z M200.29,311.57 C200.430001,312.690006 200.698331,313.58833 201.095,314.265 C201.491669,314.94167 201.888331,315.373332 202.285,315.56 C202.681669,315.746668 203.043332,315.979999 203.37,316.26 C203.696668,316.540001 203.86,316.889998 203.86,317.31 C203.86,318.850008 201.22336,319.62 195.95,319.62 C193.803323,319.62 192.205005,319.363336 191.155,318.85 C190.104995,318.336664 189.440001,317.473339 189.16,316.26 C187.386658,318.686679 184.423354,319.9 180.27,319.9 C176.34998,319.9 173.165012,318.990009 170.715,317.17 C168.264988,315.349991 167.04,312.713351 167.04,309.26 C167.04,305.899983 168.253321,303.275009 170.68,301.385 C173.106679,299.494991 176.093316,298.55 179.64,298.55 C182.393347,298.55 184.74999,299.133327 186.71,300.3 L186.71,300.09 C186.243331,295.469977 185.718336,292.343341 185.135,290.71 C184.551664,289.076659 183.420008,288.26 181.74,288.26 C180.666661,288.26 179.803337,288.749995 179.15,289.73 C178.496663,290.710005 178.018335,291.783327 177.715,292.95 C177.411665,294.116672 176.840004,295.189995 176,296.17 C175.159996,297.150005 174.04,297.64 172.64,297.64 C171.193326,297.64 170.015005,297.220004 169.105,296.38 C168.194995,295.539996 167.74,294.44334 167.74,293.09 C167.74,290.38332 169.09332,288.341674 171.8,286.965 C174.50668,285.588326 177.81998,284.9 181.74,284.9 C186.40669,284.9 190.268318,286.171654 193.325,288.715 C196.381682,291.258346 198.189997,294.699978 198.75,299.04 L200.29,311.57 Z M184.12,316.33 C185.193339,316.33 186.06833,315.816672 186.745,314.79 C187.42167,313.763328 187.76,312.596673 187.76,311.29 L187.48,308.07 C187.013331,304.196647 185.566679,302.26 183.14,302.26 C182.066661,302.26 181.203337,302.691662 180.55,303.555 C179.896663,304.418338 179.57,305.573326 179.57,307.02 C179.57,309.633346 179.978329,311.838324 180.795,313.635 C181.611671,315.431676 182.719993,316.33 184.12,316.33 Z M206.94,319.2 C205.866661,319.2 205.33,318.756671 205.33,317.87 L205.33,317.59 C205.33,317.029997 205.784995,316.178339 206.695,315.035 C207.605005,313.891661 208.06,312.736672 208.06,311.57 L208.06,279.58 C208.06,278.366661 207.605005,277.188339 206.695,276.045 C205.784995,274.901661 205.33,274.096669 205.33,273.63 L205.33,273.35 C205.33,272.836664 205.843328,272.300003 206.87,271.74 L217.44,266.56 C218.420005,266.139998 219.201664,266.104998 219.785,266.455 C220.368336,266.805002 220.66,267.329996 220.66,268.03 L220.66,311.57 C220.66,312.736672 221.173328,313.891661 222.2,315.035 C223.226672,316.178339 223.74,317.029997 223.74,317.59 L223.74,317.87 C223.74,318.756671 223.180006,319.2 222.06,319.2 L206.94,319.2 Z" id="path-6"></path>
    </defs>
    <g id="Page-1" stroke="none" stroke-width="1" fill="none" fill-rule="evenodd">
        <g id="home_phone" fill-rule="nonzero">
            <g id="OvalsGradients">
                <ellipse id="Oval" stroke="#D9525C" fill="#CA5C5F" cx="93" cy="289.5" rx="92.5" ry="93"></ellipse>
                <ellipse id="Oval" stroke="#A34A90" fill="#BA5A6E" cx="551" cy="319.5" rx="92.5" ry="93"></ellipse>
                <ellipse id="Oval" stroke="#2F285C" fill="#2D2959" cx="393" cy="260.5" rx="92.5" ry="93"></ellipse>
                <ellipse id="Oval" stroke="#161136" fill="#151234" cx="537" cy="190.5" rx="92.5" ry="93"></ellipse>
                <ellipse id="Oval" stroke="#276678" fill="#386676" cx="136" cy="157.5" rx="92.5" ry="93"></ellipse>
                <ellipse id="Oval" stroke="#296173" fill="#376071" cx="235" cy="485.5" rx="92.5" ry="93"></ellipse>
                <ellipse id="Oval" stroke="#3E3564" fill="#3C3661" cx="241" cy="96.5" rx="92.5" ry="93"></ellipse>
                <ellipse id="Oval" stroke="#4C0E5A" fill="#C4A68C" cx="139" cy="417.5" rx="92.5" ry="93"></ellipse>
                <ellipse id="Oval" stroke="#FF8D00" fill="#FF9400" cx="169" cy="292.5" rx="92.5" ry="93"></ellipse>
                <ellipse id="Oval" stroke="#5B469E" fill="#574899" cx="275" cy="342.5" rx="92.5" ry="93"></ellipse>
                <ellipse id="Oval" stroke="#FECC03" fill="#FECC03" cx="465" cy="106.5" rx="92.5" ry="93"></ellipse>
                <ellipse id="Oval" stroke="#037071" fill="#037071" cx="497" cy="251.5" rx="92.5" ry="93"></ellipse>
                <ellipse id="Oval" stroke="#4B5C9D" fill="#6B8679" cx="366" cy="93.5" rx="92.5" ry="93"></ellipse>
                <ellipse id="Oval" stroke="#2E81A3" fill="#4581A0" cx="282" cy="238.5" rx="92.5" ry="93"></ellipse>
                <ellipse id="Oval" stroke="#FFB300" fill="#FAB60E" cx="514" cy="402.5" rx="92.5" ry="93"></ellipse>
                <ellipse id="Oval" stroke="#F6573A" fill="#9BA19B" cx="367" cy="353.5" rx="92.5" ry="93"></ellipse>
                <ellipse id="Oval" stroke="#2E4657" fill="#6B8679" cx="344" cy="491.5" rx="92.5" ry="93"></ellipse>
                <ellipse id="Oval" stroke="#77336F" fill="#77336F" cx="474.5" cy="473.5" rx="103" ry="93"></ellipse>
            </g>
            <g id="weregood" transform="translate(169.000000, 168.000000)">
                <g id="WereGood">
                    <use fill="#000000" xlink:href="#path-1"></use>
                    <use fill="#FEFCFC" xlink:href="#path-1"></use>
                </g>
                <g id="(likerealgood)">
                    <use fill="#000000" xlink:href="#path-2"></use>
                    <use fill="#FEFCFC" xlink:href="#path-2"></use>
                </g>
                <g id="at">
                    <use fill="#000000" xlink:href="#path-3"></use>
                    <use fill="#FEFCFC" xlink:href="#path-3"></use>
                </g>
                <g id="Branding">
                    <use fill="#000000" xlink:href="#path-4"></use>
                    <use fill="#FEFCFC" xlink:href="#path-4"></use>
                </g>
                <g id="Tech">
                    <use fill="#000000" xlink:href="#path-5"></use>
                    <use fill="#FEFCFC" xlink:href="#path-5"></use>
                </g>
                <g id="Digital">
                    <use fill="#000000" xlink:href="#path-6"></use>
                    <use fill="#FEFCFC" xlink:href="#path-6"></use>
                </g>
            </g>
        </g>
    </g>
</svg>