<?xml version="1.0" encoding="UTF-8"?>
<svg width="151px" height="109px" viewBox="0 0 151 109" version="1.1" xmlns="http://www.w3.org/2000/svg" xmlns:xlink="http://www.w3.org/1999/xlink">
    <!-- Generator: Sketch 54.1 (76490) - https://sketchapp.com -->
    <title>Ideate - Brains</title>
    <desc>Created with Sketch.</desc>
    <g id="TGP-DESKTOP-VERSION" stroke="none" stroke-width="1" fill="none" fill-rule="evenodd">
        <g id="Our-Process" transform="translate(-653.000000, -349.000000)">
            <g id="QUANTIFY" transform="translate(176.000000, 306.000000)">
                <g id="Group-3">
                    <g id="Group-4">
                        <g id="Ideate---Brains" transform="translate(477.000000, 12.000000)">
                            <g>
                                <rect id="Rectangle" x="1" y="0" width="150" height="151"></rect>
                                <path d="M65.195745,43.5972469 C61.6382313,35.9339076 53.9336636,31 45.4824571,31 C40.7391056,31 36.1106216,32.5613632 32.3504006,35.41064 C29.7692606,33.8256454 26.8232474,32.991793 23.779259,32.991793 C14.7266875,32.991793 7.36334376,40.3512994 7.36334376,49.3970781 C7.36334376,49.6013213 7.37010067,49.8038765 7.38023604,50.0047438 C2.74668432,53.4262391 0,58.8327755 0,64.6055994 C0,71.404703 3.87171,77.6737871 9.9225238,80.7610663 C10.6894332,85.5059224 14.7283767,89 19.5815281,89 C23.608647,89 27.235419,86.4714356 28.696601,82.7528593 L52.2613281,82.7528593 C64.246399,82.7528593 74,73.0082652 74,61.0304997 C73.9983108,54.1858211 70.7110736,47.6905503 65.195745,43.5972469 Z M52.2613281,80.3643957 L51.6785445,80.3643957 C51.5163787,80.2833736 51.340699,80.2276709 51.148127,80.2276709 C46.7544456,80.2276709 43.1800397,76.6559471 43.1800397,72.2655627 C43.1800397,67.886994 46.7341749,64.3220221 51.110964,64.3034545 C53.8390668,64.3118943 56.0553336,66.529874 56.0553336,69.2593056 C56.0553336,69.919298 56.5891296,70.4526935 57.2513069,70.4526935 C57.9101057,70.4526935 58.4455909,69.919298 58.4455909,69.2593056 C58.4455909,65.2301446 55.1870706,61.9555019 51.1667085,61.9149908 C51.1616408,61.9149908 51.1548839,61.9133029 51.1498162,61.9133029 C51.1396809,61.9133029 51.1295455,61.9133029 51.1210994,61.9133029 C51.1126532,61.9133029 51.1042071,61.9133029 51.0940717,61.9133029 C51.0873148,61.9133029 51.0839364,61.9149908 51.0754902,61.9149908 C49.7477572,61.9251186 48.4808364,62.1884404 47.3152692,62.6543174 C47.9706896,58.9002939 46.3574771,54.9437153 42.9266556,52.8000058 C38.4096606,49.9828003 32.4399297,51.3584878 29.6172301,55.8687174 C29.26756,56.4291202 29.438172,57.1650709 29.9973064,57.5161666 C30.55813,57.8655743 31.2963225,57.6950904 31.6459926,57.1363755 C33.7676627,53.7401996 38.2626977,52.7054801 41.661424,54.825558 C45.0466364,56.9422601 46.0855114,61.4086028 43.990869,64.7963389 C42.0195403,66.6817904 40.7880932,69.328512 40.7880932,72.2655627 C40.7880932,75.5452693 42.3252905,78.4671284 44.717237,80.3643957 L29.3604675,80.3643957 C29.5378364,78.2780769 28.5952473,76.3470504 27.0141302,75.1621024 C26.4364143,74.6101394 26.1002579,73.8691249 26.0749195,73.0707197 C26.0478919,72.2571229 26.3384391,71.4857251 26.8925058,70.8898751 C28.0259776,69.6796077 29.9246696,69.6070254 31.1527381,70.7126393 C31.1544274,70.7160152 31.1561166,70.7177032 31.1561166,70.7193912 C31.1611843,70.7227671 31.166252,70.7244551 31.1713197,70.7295189 C31.1763873,70.7345828 31.1848335,70.7396467 31.1932796,70.7463985 C31.2726733,70.8206688 31.3689593,70.8628678 31.4618668,70.9135066 C31.4905837,70.9253223 31.5142329,70.9506417 31.544639,70.9624574 C31.9939736,71.1531969 32.5294588,71.067111 32.8825074,70.6890079 C33.3352204,70.2045633 33.3065035,69.4500451 32.8250736,69.0010477 C32.813249,68.987544 32.7963567,68.9807922 32.7828429,68.9672885 C32.1933024,68.4136376 31.8520784,67.6624953 31.8250508,66.8556503 C31.7980231,66.0437415 32.0885703,65.2706557 32.6443262,64.6781817 C33.2000822,64.0823317 33.9517885,63.7430517 34.7643071,63.7143564 C35.586961,63.6772213 36.3504919,63.9793661 36.9451001,64.534705 C37.42653,64.9837025 38.183304,64.960071 38.6343278,64.4756264 C39.0853517,63.9945578 39.058324,63.2383516 38.5768941,62.7876662 C37.5160591,61.7951457 36.1224462,61.273566 34.6815349,61.3275807 C33.2321775,61.3765315 31.885863,61.9858852 30.8959755,63.0476121 C29.9027096,64.1076511 29.3841167,65.4850266 29.4314151,66.9383604 C29.4398612,67.1561072 29.4837811,67.3654143 29.5175657,67.5814732 C27.9313808,67.4650039 26.308033,68.0152789 25.1390874,69.2643695 C24.1508891,70.3227205 23.6289178,71.703472 23.6795946,73.1517418 C23.68973,73.4437589 23.7370283,73.7239603 23.7927728,74.0041617 C20.723446,73.8488694 18.0105463,76.0584092 17.6287808,79.1456884 C17.5460086,79.8023049 18.0122355,80.393091 18.6659666,80.4758011 C19.3129409,80.5686389 19.9176844,80.0943221 19.9987673,79.4377055 C20.2403269,77.5168068 21.9920561,76.154623 23.9245326,76.3841856 C25.848563,76.6238759 27.2185267,78.3844184 26.9786564,80.3036291 C26.9769672,80.3255726 26.9651426,80.3441402 26.9634533,80.3660836 L26.9398041,80.3660836 L26.6881092,81.2303193 C25.7725478,84.4003085 22.8484945,86.6115363 19.5764604,86.6115363 C15.7368457,86.6115363 12.5712329,83.7116207 12.2114274,79.8630715 L12.1472367,79.1794476 L11.5256009,78.8924944 C5.97310932,76.3116033 2.38518958,70.7041995 2.38518958,64.6089753 C2.38518958,59.3965542 4.96464035,54.5267891 9.28568494,51.5812986 L9.85664392,51.1913798 L9.85664392,51.1863159 C12.8229278,48.9869038 17.0307942,49.4477169 19.4109161,52.325689 C21.865364,55.2964989 21.443057,59.7105148 18.468327,62.1681849 C15.4952861,64.620791 11.0796448,64.198801 8.62181843,61.227991 C8.19951149,60.7182271 7.44611592,60.6456448 6.93765837,61.0676348 C6.42751158,61.4879369 6.35656402,62.2407671 6.77887096,62.7488432 C8.63364303,64.9921423 11.3195151,66.1534589 14.0239688,66.1534589 C15.3297418,66.1534589 16.6388933,65.8783214 17.8618942,65.3331102 C19.1541534,67.1122202 18.9649599,69.6154652 17.3162737,71.1565729 C16.4530783,71.9651058 15.3297418,72.3685283 14.1405255,72.3465848 C12.9580661,72.3060737 11.8617573,71.8115014 11.0559956,70.9455778 C10.6032826,70.4628212 9.849887,70.4375018 9.36507864,70.8881872 C8.8819595,71.3388726 8.85662109,72.0933908 9.3076449,72.5761474 C10.5526057,73.90626 12.238455,74.6742819 14.0594426,74.7350485 C14.1388363,74.7384244 14.2165407,74.7401123 14.2959344,74.7401123 C16.0307713,74.7401123 17.6760792,74.0936236 18.9497569,72.9036117 C21.443057,70.5725386 21.7707672,66.8100754 19.8974137,64.0823317 C19.9278198,64.0553244 19.9616043,64.0350688 19.9920104,64.0114374 C23.9836556,60.7182271 24.5512361,54.7951748 21.2555528,50.8099008 C18.4159609,47.3732138 13.6236218,46.4853468 9.8008994,48.4079334 C10.3161139,41.1463287 16.377063,35.3920724 23.7741913,35.3920724 C26.627297,35.3920724 29.3807382,36.2478682 31.7338325,37.8733739 L32.0649211,38.1029365 C34.0176684,39.9343733 34.3284863,42.9777655 32.6696647,45.1518582 C30.9010432,47.4711155 27.5698861,47.9201129 25.2505764,46.1494427 C24.7235373,45.7510841 23.9752094,45.8523617 23.5748625,46.3756293 C23.1745155,46.900585 23.2758692,47.6500393 23.7995298,48.0500859 C25.188075,49.1084369 26.8266259,49.6198888 28.451663,49.6198888 C30.7692834,49.6198888 33.0598763,48.5801054 34.5700459,46.6001281 C34.6832241,46.4532755 34.7828886,46.2979832 34.882553,46.1443788 C35.9045358,46.7874916 37.085306,47.1301476 38.3150638,47.1301476 C38.3877006,47.1301476 38.4637158,47.1301476 38.5380419,47.1267716 C40.2695003,47.069381 41.8759559,46.3401822 43.0617938,45.074212 C43.5111284,44.5931434 43.4857899,43.8369372 43.00436,43.3862519 C42.5229301,42.9389424 41.7678453,42.9608859 41.3151323,43.4436425 C40.5668044,44.2437356 39.5532677,44.7045488 38.4586482,44.7416839 C37.5397083,44.778819 36.6309037,44.4732982 35.8842651,43.9162714 C36.5211039,41.5092401 35.9552126,38.8912139 34.3048371,36.9601874 C37.5566005,34.6594977 41.468852,33.4002794 45.4790787,33.4002794 C52.9775607,33.4002794 59.8071085,37.7704083 62.9862351,44.5543203 C62.9997489,44.608335 62.9963704,44.6640377 63.0200196,44.7197404 C64.7497888,48.8653706 62.785217,53.6473618 58.6364736,55.3758331 C54.4877303,57.1009284 49.7021481,55.1378307 47.9740681,50.9938884 C47.7189947,50.3845348 47.0196544,50.0975816 46.4098432,50.3507756 C45.8017212,50.6056576 45.511174,51.3044731 45.7662474,51.9138267 C47.4537859,55.9531155 51.3812404,58.3922179 55.5114023,58.3922179 C56.8627845,58.3922179 58.2344374,58.1305841 59.558792,57.5803091 C63.712603,55.846774 66.1636725,51.7433427 66.0217773,47.4879951 C69.5590202,51.0816623 71.6046751,55.9497395 71.6046751,61.0406275 C71.6063643,71.6933442 62.9271121,80.3643957 52.2613281,80.3643957 Z" id="Shape" fill="#F8FAFD" fill-rule="nonzero"></path>
                                <path d="M77,61.0304997 C77,73.0082652 86.7504451,82.7528593 98.7374789,82.7528593 L122.301055,82.7528593 C123.76227,86.4714356 127.390814,89 131.416336,89 C136.269598,89 140.310323,85.5059224 141.07556,80.7610663 C147.128202,77.6737871 151,71.404703 151,64.6055994 C151,58.8327755 148.251564,53.4262391 143.619595,50.0047438 C143.63142,49.8038765 143.638177,49.5996333 143.638177,49.3970781 C143.638177,40.3529874 136.274666,32.991793 127.221887,32.991793 C124.174451,32.991793 121.231749,33.8256454 118.648861,35.41064 C114.886865,32.5613632 110.259964,31 105.516505,31 C97.063416,31 89.3620509,35.9339076 85.8027667,43.5972469 C80.285623,47.6888624 77,54.1841332 77,61.0304997 Z M79.3886226,61.0304997 C79.3886226,55.9396118 81.4343241,51.0715346 84.973337,47.4778673 C84.8314386,51.733215 87.2808748,55.8366462 91.4364699,57.5701813 C92.7591654,58.1204563 94.1342282,58.3804022 95.483952,58.3820902 C99.6142081,58.3820902 103.543442,55.9429877 105.229329,51.903699 C105.482719,51.2943453 105.195544,50.5955298 104.585719,50.3406478 C103.979272,50.0874538 103.279916,50.374407 103.021458,50.9837607 C101.296717,55.1277029 96.5076474,57.0908006 92.3604986,55.3657053 C88.2099712,53.6372341 86.2453545,48.8552429 87.9768525,44.7096126 C87.9988129,44.6555979 87.9954344,44.5998952 88.0072593,44.5441925 C91.1864585,37.7585926 98.0178514,33.3901516 105.514815,33.3901516 C109.525134,33.3901516 113.437474,34.6510579 116.685933,36.9500597 C115.03721,38.8810861 114.471305,41.4974244 115.108159,43.9061436 C114.359814,44.4631705 113.452678,44.7686912 112.533717,44.7315561 C111.440762,44.694421 110.425512,44.2336079 109.677168,43.4335147 C109.224444,42.9507581 108.469342,42.9288146 107.98959,43.3761241 C107.50646,43.8268095 107.481121,44.5830156 107.932155,45.0640843 C109.116331,46.3300544 110.724513,47.0592532 112.456011,47.1166439 C112.530338,47.1200198 112.604666,47.1200198 112.680683,47.1200198 C113.910469,47.1200198 115.089577,46.7773639 116.111583,46.134251 C116.214628,46.2878554 116.309227,46.4431478 116.425786,46.5900003 C117.935991,48.5699776 120.224946,49.6097611 122.54093,49.6097611 C124.167694,49.6097611 125.806282,49.0983091 127.194859,48.0399581 C127.720221,47.6415995 127.821577,46.8904572 127.419532,46.3655016 C127.024243,45.8422339 126.269141,45.7409563 125.747158,46.1393149 C123.424417,47.9082972 120.094873,47.4592998 118.326211,45.1417305 C116.667352,42.9676377 116.978177,39.9242455 118.930968,38.0928087 L119.262065,37.8632461 C121.613523,36.2394284 124.365338,35.3819446 127.221887,35.3819446 C134.617495,35.3819446 140.680272,41.1362009 141.195498,48.3978057 C137.36931,46.476907 132.578551,47.364774 129.738894,50.799773 C126.444825,54.785047 127.012418,60.7080993 131.004155,64.0013096 C131.034561,64.026629 131.064968,64.0468845 131.097064,64.072204 C129.227047,66.7999476 129.549696,70.5624109 132.043053,72.8934839 C133.31845,74.0851838 134.963795,74.7299846 136.700361,74.7299846 C136.776378,74.7299846 136.855773,74.7282966 136.933479,74.7249207 C138.756198,74.6624662 140.445464,73.8944443 141.688764,72.5660196 C142.138109,72.084951 142.11277,71.3304328 141.631329,70.8780594 C141.148199,70.4273741 140.394786,70.4526935 139.940373,70.9354501 C139.132904,71.8013737 138.03826,72.295946 136.854084,72.336457 C135.66653,72.3600885 134.544857,71.954978 133.678263,71.1464451 C132.029539,69.6053374 131.838652,67.1020925 133.134319,65.3229825 C134.355659,65.8681936 135.66653,66.1433311 136.970643,66.1433311 C139.676848,66.1433311 142.362781,64.9820145 144.217596,62.7387154 C144.636534,62.2306394 144.565585,61.4778091 144.057115,61.0575071 C143.546957,60.635517 142.796923,60.7080993 142.372917,61.2178633 C139.916724,64.1886732 135.499292,64.6089753 132.527873,62.1580571 C129.549696,59.702075 129.12738,55.2880591 131.581884,52.3155612 C133.96206,49.4375891 138.168333,48.976776 141.138063,51.1761881 L141.134685,51.181252 L141.707346,51.5711708 C146.031868,54.5183493 148.60631,59.3864265 148.60631,64.5988475 C148.60631,70.6940718 145.019997,76.3014755 139.469068,78.8823666 L138.845729,79.1693199 L138.783226,79.8529437 C138.423412,83.701493 135.259417,86.6014086 131.418025,86.6014086 C128.145916,86.6014086 125.221796,84.3884928 124.302835,81.2201915 L124.054513,80.3559559 L124.032553,80.3559559 C124.029174,80.3340124 124.01566,80.3154448 124.013971,80.2935014 C123.777473,78.3726027 125.147468,76.6120602 127.069853,76.3740578 C129.004063,76.1428073 130.754143,77.5066791 130.994019,79.4275778 C131.075104,80.0858823 131.679861,80.5585111 132.32685,80.4656733 C132.980596,80.3829632 133.446834,79.7921772 133.36406,79.1355607 C132.980596,76.0482815 130.271013,73.8387416 127.201616,73.9940339 C127.253983,73.7138325 127.304661,73.4319432 127.314797,73.141614 C127.362097,71.6933442 126.845181,70.3125928 125.851892,69.2542417 C124.684609,68.0068391 123.062914,67.4548762 121.475003,67.5713454 C121.508789,67.3569745 121.554399,67.1476674 121.561156,66.9282326 C121.608455,65.4748989 121.089851,64.0975234 120.096562,63.0374844 C119.106652,61.9774454 117.761996,61.3664038 116.310916,61.3174529 C114.869972,61.2634382 113.476327,61.7850179 112.417157,62.7775385 C111.934027,63.2282239 111.908688,63.98443 112.358033,64.4654987 C112.814135,64.9499432 113.569237,64.9735747 114.050678,64.5245773 C114.6453,63.9692384 115.407159,63.6670935 116.229832,63.7042286 C117.044058,63.732924 117.795781,64.0738919 118.35155,64.6680539 C118.909008,65.2605279 119.199562,66.0336137 119.169155,66.8455225 C119.143816,67.6540555 118.800895,68.4051978 118.21303,68.9571607 C118.199516,68.9706644 118.182623,68.9774163 118.174177,68.9909199 C117.691047,69.4399173 117.665708,70.1944356 118.116742,70.6788801 C118.468109,71.0569832 119.005296,71.1430692 119.454641,70.9523297 C119.486737,70.940514 119.508697,70.9151946 119.539104,70.9033788 C119.632014,70.85274 119.723234,70.810541 119.806008,70.7362708 C119.812765,70.7295189 119.821212,70.7244551 119.827969,70.7193912 C119.833037,70.7143273 119.838104,70.7126393 119.843172,70.7092634 C119.844861,70.7075754 119.846551,70.7058875 119.846551,70.7025116 C121.076337,69.5968976 122.97845,69.6694799 124.110259,70.8797474 C124.66096,71.4772853 124.953203,72.2486831 124.924485,73.060592 C124.899146,73.8606851 124.562982,74.6000116 123.985253,75.1519746 C122.402411,76.3369227 121.4598,78.2679491 121.635484,80.3542679 L106.283431,80.3542679 C108.668676,78.4570007 110.212665,75.5351416 110.212665,72.2554349 C110.212665,69.3183842 108.979501,66.6716626 107.009816,64.7862111 C104.913437,61.398475 105.952335,56.9321324 109.339314,54.8154303 C112.736429,52.6953523 117.233256,53.7300719 119.354974,57.1262478 C119.704652,57.6866506 120.442862,57.8554466 121.003698,57.5060388 C121.564535,57.1549431 121.73515,56.4189925 121.385472,55.8585897 C118.561019,51.3466721 112.592841,49.9726725 108.074054,52.7898781 C104.644843,54.9335875 103.031594,58.8901662 103.68534,62.6441896 C102.523125,62.1783126 101.254486,61.9133029 99.9267224,61.9048631 C99.9199653,61.9048631 99.9132082,61.9031751 99.9081404,61.9031751 C99.8980048,61.9031751 99.88618,61.9031751 99.8794229,61.9031751 C99.8709766,61.9031751 99.860841,61.9031751 99.8507054,61.9031751 C99.8439483,61.9031751 99.8388805,61.9048631 99.8321235,61.9048631 C95.8082911,61.9453741 92.5513857,65.2200169 92.5513857,69.2491778 C92.5513857,69.9091703 93.0868831,70.4425657 93.7473862,70.4425657 C94.4078893,70.4425657 94.9433868,69.9091703 94.9433868,69.2491778 C94.9433868,66.5197462 97.1597042,64.3017665 99.8844907,64.2933267 C104.264758,64.3135823 107.817285,67.8768662 107.817285,72.2554349 C107.817285,76.6458194 104.244487,80.2175431 99.8490161,80.2175431 C99.6564398,80.2175431 99.4790668,80.2732458 99.3185865,80.3542679 L98.7374789,80.3542679 C88.0697621,80.3627077 79.3886226,71.6916562 79.3886226,61.0304997 Z" id="Shape" fill="#F8FAFD" fill-rule="nonzero"></path>
                                <path d="M62.3723749,140 C62.2126497,140 62.0512607,139.968212 61.8948631,139.904636 C61.3241783,139.665391 61.0113831,139.043018 61.1627893,138.440722 L67.9011961,111.339064 L55.2479655,111.339064 C54.7987384,111.339064 54.3827873,111.0948 54.1615014,110.701634 C53.9402154,110.310142 53.9468707,109.826632 54.1781394,109.438485 L75.5546952,73.6085515 C75.8724818,73.0748501 76.5346759,72.8590273 77.1036969,73.0949267 C77.6743817,73.3324991 77.9855131,73.9548718 77.8357707,74.5588411 L71.0973639,101.662172 L83.7522583,101.662172 C84.2031492,101.662172 84.6174365,101.906436 84.8370586,102.299602 C85.0600084,102.691094 85.0533532,103.174604 84.8220844,103.562751 L63.442201,139.389339 C63.2109322,139.779158 62.7999726,140 62.3723749,140 Z M57.4508422,108.829497 L69.4984481,108.829497 C69.8827869,108.829497 70.2454962,109.00684 70.4817564,109.311334 C70.7180165,109.617501 70.8012068,110.014013 70.7080337,110.388775 L65.6151292,130.86852 L81.5477178,104.171739 L69.4967843,104.171739 C69.1124455,104.171739 68.7497362,103.994397 68.513476,103.689902 C68.2772159,103.383735 68.1940256,102.987223 68.2871987,102.612461 L73.3784394,82.1310432 L57.4508422,108.829497 Z" id="Shape" fill="#406FA6" fill-rule="nonzero"></path>
                            </g>
                        </g>
                    </g>
                </g>
            </g>
        </g>
    </g>
</svg>