<?xml version="1.0" encoding="UTF-8"?>
<svg width="113px" height="106px" viewBox="0 0 113 106" version="1.1" xmlns="http://www.w3.org/2000/svg" xmlns:xlink="http://www.w3.org/1999/xlink">
    <!-- Generator: Sketch 54.1 (76490) - https://sketchapp.com -->
    <title>Implement - Take Off Dude</title>
    <desc>Created with Sketch.</desc>
    <g id="TGP-DESKTOP-VERSION" stroke="none" stroke-width="1" fill="none" fill-rule="evenodd">
        <g id="Our-Process" transform="translate(-861.000000, -754.000000)">
            <g id="QUANTIFY" transform="translate(176.000000, 306.000000)">
                <g id="Group-3">
                    <g id="Group-4">
                        <g id="Implement---Take-Off-Dude" transform="translate(685.000000, 448.000000)">
                            <g>
                                <path d="M92.5,26 C87.2617,26 83,30.0374 83,35 C83,39.9626 87.2617,44 92.5,44 C97.7383,44 102,39.9626 102,35 C102,30.0374 97.7383,26 92.5,26 Z M92.5,40.4 C89.3574,40.4 86.8,37.9772 86.8,35 C86.8,32.0228 89.3574,29.6 92.5,29.6 C95.6426,29.6 98.2,32.0228 98.2,35 C98.2,37.9772 95.6426,40.4 92.5,40.4 Z" id="Shape" fill="#C0D2A3" fill-rule="nonzero"></path>
                                <path d="M110.136364,29.5454545 L106.192182,29.5509091 L106.068091,29.3163636 L108.874455,26.6418182 C109.991273,25.5781818 109.991273,23.8490909 108.874455,22.7854545 L104.823364,18.9290909 C103.706545,17.8636364 101.891,17.8636364 100.774182,18.9290909 L97.9048182,21.5854545 C97.8494545,21.5618182 97.7845455,21.5254545 97.7272727,21.5072727 L97.7272727,17.7272727 C97.7272727,16.2236364 96.4424545,15 94.8636364,15 L89.1363636,15 C87.5575455,15 86.2727273,16.2236364 86.2727273,17.7272727 L86.2784545,21.5181818 C86.2364545,21.5327273 86.0722727,21.5854545 86.0321818,21.6018182 L83.2258182,18.9290909 C82.109,17.8636364 80.2934545,17.8636364 79.1766364,18.9290909 L75.1255455,22.7854545 C74.0087273,23.8490909 74.0087273,25.5781818 75.1255455,26.6418182 L77.9414545,29.3254545 C77.9204545,29.3654545 77.8517273,29.5036364 77.8326364,29.5454545 L73.8636364,29.5454545 C72.2848182,29.5454545 71,30.7690909 71,32.2727273 L71,37.7272727 C71,39.2309091 72.2848182,40.4545455 73.8636364,40.4545455 L77.8822727,40.5490909 C77.9013636,40.5927273 77.9204545,40.6363636 77.9376364,40.6781818 L75.1236364,43.3581818 C74.0068182,44.4218182 74.0068182,46.1509091 75.1236364,47.2145455 L79.1747273,51.0709091 C80.2915455,52.1363636 82.1070909,52.1327273 83.2239091,51.0709091 L86.0932727,48.4145455 C86.1486364,48.4381818 86.2135455,48.4745455 86.2708182,48.4927273 L86.2708182,52.2727273 C86.2708182,53.7763636 87.5556364,55 89.1344545,55 L94.8617273,55 C96.4405455,55 97.7253636,53.7763636 97.7253636,52.2727273 L97.7196364,48.4818182 C97.7616364,48.4672727 97.9239091,48.4127273 97.9659091,48.3963636 L100.772273,51.0709091 C101.889091,52.1363636 103.704636,52.1363636 104.821455,51.0709091 L108.872545,47.2145455 C109.989364,46.1509091 109.989364,44.4218182 108.872545,43.3581818 L106.056636,40.6745455 C106.077636,40.6345455 106.146364,40.4963636 106.165455,40.4545455 L110.136364,40.4545455 C111.715182,40.4545455 113,39.2309091 113,37.7272727 L113,32.2727273 C113,30.7690909 111.715182,29.5454545 110.136364,29.5454545 Z M109.181818,36.8181818 L106.165455,36.8181818 C104.603818,36.8181818 103.196818,37.7436364 102.574455,39.1945455 C101.957818,40.6163636 102.270909,42.2090909 103.368636,43.2545455 L105.501091,45.2854545 L102.799727,47.8563636 L100.667273,45.8254545 C99.5695455,44.78 97.8952727,44.4854545 96.3813636,45.0781818 C94.8789091,45.6636364 93.9090909,47.0054545 93.9090909,48.4927273 L93.9090909,51.3636364 L90.0909091,51.3636364 L90.0909091,48.4927273 C90.0909091,47.0054545 89.1210909,45.6636364 87.5995455,45.0727273 C86.1066364,44.4872727 84.4304545,44.7818182 83.3327273,45.8254545 L81.2002727,47.8563636 L78.4989091,45.2854545 L81.5916364,42.34 C82.1891818,41.7709091 82.3228182,40.8927273 81.9180909,40.1854545 C81.731,39.8581818 81.563,39.52 81.4140909,39.1690909 C80.8012727,37.7418182 79.3942727,36.8181818 77.8345455,36.8181818 L74.8181818,36.8181818 L74.8181818,33.1818182 L77.8345455,33.1818182 C79.3961818,33.1818182 80.8031818,32.2563636 81.4255455,30.8054545 C82.0421818,29.3836364 81.7290909,27.7909091 80.6313636,26.7454545 L78.4989091,24.7145455 L81.2002727,22.1436364 L83.3327273,24.1727273 C84.4323636,25.22 86.1085455,25.5127273 87.6186364,24.9218182 C89.1210909,24.3363636 90.0909091,22.9945455 90.0909091,21.5072727 L90.0909091,18.6363636 L93.9090909,18.6363636 L93.9090909,21.5072727 C93.9090909,22.9945455 94.8789091,24.3363636 96.4004545,24.9272727 C97.8914545,25.5127273 99.5676364,25.2163636 100.667273,24.1727273 L102.799727,22.1436364 L105.501091,24.7145455 L103.368636,26.7454545 C102.270909,27.7909091 101.959727,29.3836364 102.584,30.8272727 C103.196818,32.2563636 104.603818,33.1818182 106.165455,33.1818182 L109.181818,33.1818182 L109.181818,36.8181818 Z" id="Shape" fill="#C0D2A3" fill-rule="nonzero"></path>
                                <path d="M20.5,44 C25.7383,44 30,39.9626 30,35 C30,30.0374 25.7383,26 20.5,26 C15.2617,26 11,30.0374 11,35 C11,39.9626 15.2617,44 20.5,44 Z M20.5,29.6 C23.6426,29.6 26.2,32.0228 26.2,35 C26.2,37.9772 23.6426,40.4 20.5,40.4 C17.3574,40.4 14.8,37.9772 14.8,35 C14.8,32.0228 17.3574,29.6 20.5,29.6 Z" id="Shape" fill="#C0D2A3" fill-rule="nonzero"></path>
                                <path d="M2.8635062,29.5454545 C1.28475978,29.5454545 0,30.7690909 0,32.2727273 L0,37.7272727 C0,39.2309091 1.28475978,40.4545455 2.8635062,40.4545455 L6.88195991,40.5490909 C6.90104995,40.5927273 6.92013999,40.6363636 6.93732103,40.6781818 L4.12344893,43.3581818 C3.00668151,44.4218182 3.00668151,46.1509091 4.12344893,47.2145455 L8.17435571,51.0709091 C9.29112313,52.1363636 11.1065861,52.1327273 12.2233535,51.0709091 L15.0925867,48.4145455 C15.1498568,48.4381818 15.214763,48.4745455 15.2720331,48.4927273 L15.2720331,52.2727273 C15.2720331,53.7763636 16.5567929,55 18.1355393,55 L23.8625517,55 C25.4412981,55 26.7260579,53.7763636 26.7260579,52.2727273 L26.7203309,48.4818182 C26.762329,48.4672727 26.9245943,48.4127273 26.9665924,48.3963636 L29.7728285,51.0709091 C30.8895959,52.1363636 32.7050589,52.1363636 33.8218263,51.0709091 L37.8727331,47.2145455 C38.9895005,46.1509091 38.9895005,44.4218182 37.8727331,43.3581818 L35.056952,40.6745455 C35.077951,40.6345455 35.1466752,40.4963636 35.1657652,40.4545455 L39.1364938,40.4545455 C40.7152402,40.4545455 42,39.2309091 42,37.7272727 L42,32.2727273 C42,30.7690909 40.7152402,29.5454545 39.1364938,29.5454545 L35.1924913,29.5509091 L35.068406,29.3163636 L37.8746421,26.6418182 C38.9914095,25.5781818 38.9914095,23.8490909 37.8746421,22.7854545 L33.8237353,18.9290909 C32.7069679,17.8636364 30.8915049,17.8636364 29.7747375,18.9290909 L26.9055043,21.5854545 C26.8501432,21.5618182 26.785237,21.5254545 26.7279669,21.5072727 L26.7279669,17.7272727 C26.7279669,16.2236364 25.4432071,15 23.8644607,15 L18.1374483,15 C16.5587019,15 15.2739421,16.2236364 15.2739421,17.7272727 L15.2796691,21.5181818 C15.237671,21.5327273 15.0734967,21.5854545 15.0334076,21.6018182 L12.2271715,18.9290909 C11.1104041,17.8636364 9.29494114,17.8636364 8.17817372,18.9290909 L4.12726694,22.7854545 C3.01049952,23.8490909 3.01049952,25.5781818 4.12726694,26.6418182 L6.94304804,29.3254545 C6.92013999,29.3654545 6.85141584,29.5036364 6.83423481,29.5454545 L2.8635062,29.5454545 Z M9.63092587,26.7454545 L7.49856825,24.7145455 L10.1998091,22.1436364 L12.3321667,24.1727273 C13.4317531,25.22 15.1097677,25.5127273 16.617881,24.9218182 C18.1202673,24.3363636 19.0900414,22.9945455 19.0900414,21.5072727 L19.0900414,18.6363636 L22.9080496,18.6363636 L22.9080496,21.5072727 C22.9080496,22.9945455 23.8778237,24.3363636 25.3993,24.9272727 C26.8902323,25.5127273 28.5682469,25.2163636 29.6659243,24.1727273 L31.7982819,22.1436364 L34.4995227,24.7145455 L32.3671651,26.7454545 C31.2694878,27.7909091 30.9583201,29.3836364 31.5825644,30.8272727 C32.1953548,32.2563636 33.6022908,33.1818182 35.1638562,33.1818182 L38.1800827,33.1818182 L38.1800827,36.8181818 L35.1638562,36.8181818 C33.6022908,36.8181818 32.1953548,37.7436364 31.5730194,39.1945455 C30.9564111,40.6163636 31.2694878,42.2090909 32.3671651,43.2545455 L34.4995227,45.2854545 L31.7982819,47.8563636 L29.6659243,45.8254545 C28.5663379,44.78 26.8940503,44.4854545 25.38021,45.0781818 C23.8778237,45.6636364 22.9080496,47.0054545 22.9080496,48.4927273 L22.9080496,51.3636364 L19.0900414,51.3636364 L19.0900414,48.4927273 C19.0900414,47.0054545 18.1202673,45.6636364 16.598791,45.0727273 C15.1059497,44.4872727 13.4298441,44.7818182 12.3321667,45.8254545 L10.1998091,47.8563636 L7.49856825,45.2854545 L10.5911549,42.34 C11.1886732,41.7709091 11.3223035,40.8927273 10.9175947,40.1854545 C10.7305122,39.8581818 10.5625199,39.52 10.4136176,39.1690909 C9.80082724,37.7418182 8.39389119,36.8181818 6.83423481,36.8181818 L3.81800827,36.8181818 L3.81800827,33.1818182 L6.83423481,33.1818182 C8.39580019,33.1818182 9.80273624,32.2563636 10.4250716,30.8054545 C11.0416799,29.3836364 10.7286032,27.7909091 9.63092587,26.7454545 Z" id="Shape" fill="#C0D2A3" fill-rule="nonzero"></path>
                                <path d="M37.030644,66.8125 C37.030644,72.6425312 40.0228691,77.8117187 44.6167261,81.0625 L43.7028538,81.0625 C41.5378244,81.0625 39.4180176,81.4490312 37.2435668,82.2701875 C33.1113566,83.834125 28.7586865,84.625 24.30615,84.625 L16.3036436,84.625 C15.263525,84.625 14.4193708,85.4212187 14.4193708,86.40625 L8.7684368,86.40625 C7.37595922,86.40625 6.10219084,87.1276562 5.44646391,88.2890312 C4.79073699,89.4504062 4.86045508,90.8504687 5.63489119,91.9495 L5.77055883,92.1400937 C7.17057349,94.1261875 9.51649308,95.3125 12.0433029,95.3125 L14.4193708,95.3125 C14.4193708,96.2975312 15.263525,97.09375 16.3036436,97.09375 L25.4197552,97.09375 C28.7115797,97.09375 31.9732559,96.6983125 35.1463712,95.9163437 L35.1463712,106 L38.9149167,106 L38.9149167,93.53125 C38.9149167,92.9594687 38.6247387,92.4215312 38.1329435,92.084875 C37.6392641,91.75 37.0061484,91.6555937 36.4352138,91.8408437 C32.8758225,92.9630312 29.169458,93.53125 25.4197552,93.53125 L18.1879163,93.53125 L18.1879163,88.1875 L24.30615,88.1875 C29.2410604,88.1875 34.0647987,87.3093437 38.8018604,85.5174062 C40.3695753,84.9260312 42.0164297,84.625 43.7009696,84.625 L52.5438616,84.625 L48.6038473,90.8326562 C48.2722153,91.3545625 48.2458355,92.0011562 48.5341292,92.5462187 L54.1869475,103.233719 C54.5072739,103.837562 55.1592322,104.21875 55.8733716,104.21875 C56.587511,104.21875 57.2394694,103.837562 57.5597957,103.233719 L63.212614,92.5462187 C63.5009078,92.0011562 63.4745279,91.3545625 63.1428959,90.8326562 L59.2009973,84.625 L68.0438894,84.625 C69.7284293,84.625 71.3771679,84.9260312 73.1031618,85.5779687 C77.6819446,87.3093437 82.5056829,88.1875 87.4405932,88.1875 L93.5588269,88.1875 L93.5588269,93.53125 L86.326988,93.53125 C82.5772852,93.53125 78.8709207,92.9630312 75.3115294,91.842625 C74.7387105,91.657375 74.1055949,91.75 73.6137997,92.0866562 C73.1220045,92.4215312 72.8318265,92.9594687 72.8318265,93.53125 L72.8318265,106 L76.600372,106 L76.600372,95.9163437 C79.7753716,96.6983125 83.0351635,97.09375 86.326988,97.09375 L95.4430997,97.09375 C96.4832182,97.09375 97.3273724,96.2975312 97.3273724,95.3125 L99.9559329,95.3125 C102.480858,95.3125 104.824894,94.1261875 106.228677,92.1383125 L106.364345,91.9477187 C107.138781,90.85225 107.210383,89.4521875 106.552772,88.2890312 C105.893276,87.1276562 104.621392,86.40625 103.22703,86.40625 L97.3273724,86.40625 C97.3273724,85.4212187 96.4832182,84.625 95.4430997,84.625 L87.4405932,84.625 C82.9880567,84.625 78.6353866,83.834125 74.3430132,82.209625 C72.3287257,81.4490312 70.2108031,81.0625 68.0438894,81.0625 L67.1300171,81.0625 C71.7238741,77.8117187 74.7160993,72.6425312 74.7160993,66.8125 C74.7160993,56.9906875 66.2632516,49 55.8733716,49 C45.4834916,49 37.030644,56.9906875 37.030644,66.8125 Z M12.0433029,91.75 C10.7808401,91.75 9.60882245,91.1568437 8.90598871,90.1593437 L8.7684368,89.96875 L14.4193708,89.96875 L14.4193708,91.75 L12.0433029,91.75 Z M103.22703,89.9705312 L103.091363,90.1629062 C102.390413,91.1568437 101.218396,91.75 99.9559329,91.75 L97.3273724,91.75 L97.3273724,89.96875 L103.22703,89.9705312 Z M55.8733716,98.454625 L52.3686243,91.828375 L55.8733716,86.3047187 L59.378119,91.828375 L55.8733716,98.454625 Z M55.8733716,81.0625 C47.5618445,81.0625 40.7991895,74.6695937 40.7991895,66.8125 C40.7991895,65.8488437 40.9028245,64.9065625 41.0969046,63.9963437 C45.4495747,61.1855312 50.5371112,59.6875 55.8733716,59.6875 C61.2096321,59.6875 66.2971685,61.1855312 70.6498386,63.9963437 C70.8439187,64.9065625 70.9475537,65.8488437 70.9475537,66.8125 C70.9475537,74.6695937 64.1848988,81.0625 55.8733716,81.0625 Z M55.8733716,52.5625 C60.9627924,52.5625 65.4605514,54.9654062 68.1927469,58.625875 C64.3544833,56.9924687 60.186472,56.125 55.8733716,56.125 C51.5602713,56.125 47.3922599,56.9924687 43.5539963,58.625875 C46.2861918,54.9654062 50.7839509,52.5625 55.8733716,52.5625 Z" id="Shape" fill="#F9F9F9" fill-rule="nonzero"></path>
                                <path d="M49.5,66.6666667 C48.4898333,66.6666667 47.6666667,65.92 47.6666667,65 L44,65 C44,67.7566667 46.4676667,70 49.5,70 C52.5323333,70 55,67.7566667 55,65 L51.3333333,65 C51.3333333,65.92 50.5101667,66.6666667 49.5,66.6666667 Z" id="Path" fill="#F8FAFD" fill-rule="nonzero"></path>
                                <path d="M66.3333333,65 C66.3333333,65.92 65.5101667,66.6666667 64.5,66.6666667 C63.4898333,66.6666667 62.6666667,65.92 62.6666667,65 L59,65 C59,67.7566667 61.4676667,70 64.5,70 C67.5323333,70 70,67.7566667 70,65 L66.3333333,65 Z" id="Path" fill="#F8FAFD" fill-rule="nonzero"></path>
                                <rect id="Rectangle" fill="#F8FAFD" fill-rule="nonzero" x="19" y="60" width="4" height="16"></rect>
                                <rect id="Rectangle" fill="#F8FAFD" fill-rule="nonzero" x="6" y="64" width="4" height="16"></rect>
                                <rect id="Rectangle" fill="#F8FAFD" fill-rule="nonzero" x="84" y="60" width="4" height="16"></rect>
                                <rect id="Rectangle" fill="#F8FAFD" fill-rule="nonzero" x="98" y="64" width="4" height="16"></rect>
                                <path d="M44,8.84210526 L66.5,8.84210526 L63.5,11.0526316 L65.75,14 L73.25,8.47368421 C73.7225,8.12552632 74,7.57842105 74,7 C74,6.42157895 73.7225,5.87447368 73.25,5.52631579 L65.75,0 L63.5,2.94736842 L66.5,5.15789474 L44,5.15789474 L44,8.84210526 Z" id="Path" fill="#F8FAFD" fill-rule="nonzero"></path>
                            </g>
                        </g>
                    </g>
                </g>
            </g>
        </g>
    </g>
</svg>