
<svg width="423px" height="852px" viewBox="0 0 423 852" version="1.1" xmlns="http://www.w3.org/2000/svg" xmlns:xlink="http://www.w3.org/1999/xlink">
    <defs>
        <linearGradient x1="50%" y1="0%" x2="50%" y2="100%" id="linearGradient-1">
            <stop stop-color="#454545" offset="0%"></stop>
            <stop stop-color="#999999" offset="22.6279115%"></stop>
            <stop stop-color="#FFFFFF" offset="100%"></stop>
        </linearGradient>
        <linearGradient x1="50%" y1="0%" x2="50%" y2="100%" id="linearGradient-2">
            <stop stop-color="#454545" offset="0%"></stop>
            <stop stop-color="#999999" offset="22.6279115%"></stop>
            <stop stop-color="#FFFFFF" offset="100%"></stop>
        </linearGradient>
        <linearGradient x1="50%" y1="26.9114283%" x2="50%" y2="-43.6051491%" id="linearGradient-3">
            <stop stop-color="#FFFFFF" stop-opacity="0" offset="0%"></stop>
            <stop stop-color="#FFFFFF" stop-opacity="0.55" offset="100%"></stop>
        </linearGradient>
        <linearGradient x1="100%" y1="50%" x2="30.0573656%" y2="50%" id="linearGradient-4">
            <stop stop-color="#000000" offset="0%"></stop>
            <stop stop-color="#BABABA" offset="22.2177934%"></stop>
            <stop stop-color="#000108" offset="54.6780492%"></stop>
            <stop stop-color="#060606" offset="100%"></stop>
        </linearGradient>
        <circle id="path-5" cx="8" cy="8" r="8"></circle>
        <filter x="-15.6%" y="-15.6%" width="131.2%" height="131.2%" filterUnits="objectBoundingBox" id="filter-6">
            <feGaussianBlur stdDeviation="2.5" in="SourceAlpha" result="shadowBlurInner1"></feGaussianBlur>
            <feOffset dx="0" dy="0" in="shadowBlurInner1" result="shadowOffsetInner1"></feOffset>
            <feComposite in="shadowOffsetInner1" in2="SourceAlpha" operator="arithmetic" k2="-1" k3="1" result="shadowInnerInner1"></feComposite>
            <feColorMatrix values="0 0 0 0 1   0 0 0 0 1   0 0 0 0 1  0 0 0 0.048997962 0" type="matrix" in="shadowInnerInner1" result="shadowMatrixInner1"></feColorMatrix>
            <feGaussianBlur stdDeviation="0.5" in="SourceAlpha" result="shadowBlurInner2"></feGaussianBlur>
            <feOffset dx="0" dy="1" in="shadowBlurInner2" result="shadowOffsetInner2"></feOffset>
            <feComposite in="shadowOffsetInner2" in2="SourceAlpha" operator="arithmetic" k2="-1" k3="1" result="shadowInnerInner2"></feComposite>
            <feColorMatrix values="0 0 0 0 0.992214073   0 0 0 0 0.992214073   0 0 0 0 0.992214073  0 0 0 0.160127944 0" type="matrix" in="shadowInnerInner2" result="shadowMatrixInner2"></feColorMatrix>
            <feGaussianBlur stdDeviation="0.5" in="SourceAlpha" result="shadowBlurInner3"></feGaussianBlur>
            <feOffset dx="0" dy="-1" in="shadowBlurInner3" result="shadowOffsetInner3"></feOffset>
            <feComposite in="shadowOffsetInner3" in2="SourceAlpha" operator="arithmetic" k2="-1" k3="1" result="shadowInnerInner3"></feComposite>
            <feColorMatrix values="0 0 0 0 1   0 0 0 0 1   0 0 0 0 1  0 0 0 0.438207654 0" type="matrix" in="shadowInnerInner3" result="shadowMatrixInner3"></feColorMatrix>
            <feMerge>
                <feMergeNode in="shadowMatrixInner1"></feMergeNode>
                <feMergeNode in="shadowMatrixInner2"></feMergeNode>
                <feMergeNode in="shadowMatrixInner3"></feMergeNode>
            </feMerge>
        </filter>
        <circle id="path-7" cx="6" cy="6" r="6"></circle>
        <circle id="path-8" cx="8" cy="8" r="8"></circle>
        <filter x="-15.6%" y="-15.6%" width="131.2%" height="131.2%" filterUnits="objectBoundingBox" id="filter-9">
            <feGaussianBlur stdDeviation="2.5" in="SourceAlpha" result="shadowBlurInner1"></feGaussianBlur>
            <feOffset dx="0" dy="0" in="shadowBlurInner1" result="shadowOffsetInner1"></feOffset>
            <feComposite in="shadowOffsetInner1" in2="SourceAlpha" operator="arithmetic" k2="-1" k3="1" result="shadowInnerInner1"></feComposite>
            <feColorMatrix values="0 0 0 0 1   0 0 0 0 1   0 0 0 0 1  0 0 0 0.048997962 0" type="matrix" in="shadowInnerInner1" result="shadowMatrixInner1"></feColorMatrix>
            <feGaussianBlur stdDeviation="0.5" in="SourceAlpha" result="shadowBlurInner2"></feGaussianBlur>
            <feOffset dx="0" dy="1" in="shadowBlurInner2" result="shadowOffsetInner2"></feOffset>
            <feComposite in="shadowOffsetInner2" in2="SourceAlpha" operator="arithmetic" k2="-1" k3="1" result="shadowInnerInner2"></feComposite>
            <feColorMatrix values="0 0 0 0 0.992214073   0 0 0 0 0.992214073   0 0 0 0 0.992214073  0 0 0 0.160127944 0" type="matrix" in="shadowInnerInner2" result="shadowMatrixInner2"></feColorMatrix>
            <feGaussianBlur stdDeviation="0.5" in="SourceAlpha" result="shadowBlurInner3"></feGaussianBlur>
            <feOffset dx="0" dy="-1" in="shadowBlurInner3" result="shadowOffsetInner3"></feOffset>
            <feComposite in="shadowOffsetInner3" in2="SourceAlpha" operator="arithmetic" k2="-1" k3="1" result="shadowInnerInner3"></feComposite>
            <feColorMatrix values="0 0 0 0 1   0 0 0 0 1   0 0 0 0 1  0 0 0 0.438207654 0" type="matrix" in="shadowInnerInner3" result="shadowMatrixInner3"></feColorMatrix>
            <feMerge>
                <feMergeNode in="shadowMatrixInner1"></feMergeNode>
                <feMergeNode in="shadowMatrixInner2"></feMergeNode>
                <feMergeNode in="shadowMatrixInner3"></feMergeNode>
            </feMerge>
        </filter>
        <circle id="path-10" cx="6" cy="6" r="6"></circle>
        <circle id="path-11" cx="5" cy="5" r="5"></circle>
        <filter x="-25.0%" y="-25.0%" width="150.0%" height="150.0%" filterUnits="objectBoundingBox" id="filter-12">
            <feGaussianBlur stdDeviation="2.5" in="SourceAlpha" result="shadowBlurInner1"></feGaussianBlur>
            <feOffset dx="0" dy="0" in="shadowBlurInner1" result="shadowOffsetInner1"></feOffset>
            <feComposite in="shadowOffsetInner1" in2="SourceAlpha" operator="arithmetic" k2="-1" k3="1" result="shadowInnerInner1"></feComposite>
            <feColorMatrix values="0 0 0 0 1   0 0 0 0 1   0 0 0 0 1  0 0 0 0.048997962 0" type="matrix" in="shadowInnerInner1" result="shadowMatrixInner1"></feColorMatrix>
            <feGaussianBlur stdDeviation="0.5" in="SourceAlpha" result="shadowBlurInner2"></feGaussianBlur>
            <feOffset dx="0" dy="1" in="shadowBlurInner2" result="shadowOffsetInner2"></feOffset>
            <feComposite in="shadowOffsetInner2" in2="SourceAlpha" operator="arithmetic" k2="-1" k3="1" result="shadowInnerInner2"></feComposite>
            <feColorMatrix values="0 0 0 0 0.992214073   0 0 0 0 0.992214073   0 0 0 0 0.992214073  0 0 0 0.160127944 0" type="matrix" in="shadowInnerInner2" result="shadowMatrixInner2"></feColorMatrix>
            <feGaussianBlur stdDeviation="0.5" in="SourceAlpha" result="shadowBlurInner3"></feGaussianBlur>
            <feOffset dx="0" dy="-1" in="shadowBlurInner3" result="shadowOffsetInner3"></feOffset>
            <feComposite in="shadowOffsetInner3" in2="SourceAlpha" operator="arithmetic" k2="-1" k3="1" result="shadowInnerInner3"></feComposite>
            <feColorMatrix values="0 0 0 0 1   0 0 0 0 1   0 0 0 0 1  0 0 0 0.438207654 0" type="matrix" in="shadowInnerInner3" result="shadowMatrixInner3"></feColorMatrix>
            <feMerge>
                <feMergeNode in="shadowMatrixInner1"></feMergeNode>
                <feMergeNode in="shadowMatrixInner2"></feMergeNode>
                <feMergeNode in="shadowMatrixInner3"></feMergeNode>
            </feMerge>
        </filter>
        <circle id="path-13" cx="8" cy="8" r="8"></circle>
        <filter x="-15.6%" y="-15.6%" width="131.2%" height="131.2%" filterUnits="objectBoundingBox" id="filter-14">
            <feGaussianBlur stdDeviation="2.5" in="SourceAlpha" result="shadowBlurInner1"></feGaussianBlur>
            <feOffset dx="0" dy="0" in="shadowBlurInner1" result="shadowOffsetInner1"></feOffset>
            <feComposite in="shadowOffsetInner1" in2="SourceAlpha" operator="arithmetic" k2="-1" k3="1" result="shadowInnerInner1"></feComposite>
            <feColorMatrix values="0 0 0 0 1   0 0 0 0 1   0 0 0 0 1  0 0 0 0.048997962 0" type="matrix" in="shadowInnerInner1" result="shadowMatrixInner1"></feColorMatrix>
            <feGaussianBlur stdDeviation="0.5" in="SourceAlpha" result="shadowBlurInner2"></feGaussianBlur>
            <feOffset dx="0" dy="1" in="shadowBlurInner2" result="shadowOffsetInner2"></feOffset>
            <feComposite in="shadowOffsetInner2" in2="SourceAlpha" operator="arithmetic" k2="-1" k3="1" result="shadowInnerInner2"></feComposite>
            <feColorMatrix values="0 0 0 0 0.992214073   0 0 0 0 0.992214073   0 0 0 0 0.992214073  0 0 0 0.160127944 0" type="matrix" in="shadowInnerInner2" result="shadowMatrixInner2"></feColorMatrix>
            <feGaussianBlur stdDeviation="0.5" in="SourceAlpha" result="shadowBlurInner3"></feGaussianBlur>
            <feOffset dx="0" dy="-1" in="shadowBlurInner3" result="shadowOffsetInner3"></feOffset>
            <feComposite in="shadowOffsetInner3" in2="SourceAlpha" operator="arithmetic" k2="-1" k3="1" result="shadowInnerInner3"></feComposite>
            <feColorMatrix values="0 0 0 0 1   0 0 0 0 1   0 0 0 0 1  0 0 0 0.438207654 0" type="matrix" in="shadowInnerInner3" result="shadowMatrixInner3"></feColorMatrix>
            <feMerge>
                <feMergeNode in="shadowMatrixInner1"></feMergeNode>
                <feMergeNode in="shadowMatrixInner2"></feMergeNode>
                <feMergeNode in="shadowMatrixInner3"></feMergeNode>
            </feMerge>
        </filter>
        <linearGradient x1="100%" y1="50%" x2="0%" y2="50%" id="linearGradient-15">
            <stop stop-color="#FFFFFF" stop-opacity="0" offset="0%"></stop>
            <stop stop-color="#FFFFFF" stop-opacity="0.55" offset="100%"></stop>
        </linearGradient>
        <linearGradient x1="100%" y1="50%" x2="0%" y2="50%" id="linearGradient-16">
            <stop stop-color="#FFFFFF" stop-opacity="0" offset="0%"></stop>
            <stop stop-color="#FFFFFF" stop-opacity="0.55" offset="100%"></stop>
        </linearGradient>
    </defs>
    <g id="Page-1" stroke="none" stroke-width="1" fill="none" fill-rule="evenodd">
        <g id="iPhone-X-Mockup">
            <g>
                <g id="phone">
                    <path d="M57.4888889,1 L365.511111,1 C395.052209,1 419,25.2553427 419,55.1758242 L419,796.824176 C419,826.744657 395.052209,851 365.511111,851 L57.4888889,851 C27.9477913,851 4,826.744657 4,796.824176 L4,55.1758242 C4,25.2553427 27.9477913,1 57.4888889,1 Z M101.832692,20 L54.9458128,20 C37.0439453,20 24,33.2322544 24,50.5143838 L24,789.500376 C24,812.034354 44.1552734,832 66.9458128,832 L356.054187,832 C378.007812,832 399,811.879271 399,789.500376 L399,52.5119237 C399,31.7980569 384.830078,20.1231808 368.054187,20 L319.268428,20 C318.806692,20.0821205 317.237128,20.1231808 316.559739,20.1231808 C312.02832,20.1231808 310.578149,24.0614045 310.578149,33.2322544 C310.578149,42.4031044 299.921875,50.1529901 292.128242,50.1529901 L260.453202,50.1529901 L143.175012,50.1529901 L129.582031,50.1529901 C125.877348,50.1529901 112.289529,45.8831632 111.185547,33.2322544 C110.081565,20.5813456 109.924636,20.1231808 103.541381,20.1231808 C102.863991,20.1231808 102.294428,20.0821205 101.832692,20 Z" id="Combined-Shape" fill="#000105"></path>
                    <g id="frame" transform="translate(4.000000, 0.000000)">
                        <path d="M362.862669,0 L52.1373309,0 C37.6303884,0.935420149 24.2512781,7.93542015 12,21 C19.878964,13.7272451 33.9319006,3.99513752 52.5112799,3.99513752 C250.905405,3.99513752 354.231218,3.99513752 362.48872,3.99513752 C381.068099,3.99513752 395.121036,13.7272451 403,21 C390.748722,7.93542015 377.369612,0.935420149 362.862669,0 Z" id="reflect-frame-top" fill-opacity="0.649999976" fill="url(#linearGradient-1)" opacity="0.595561594"></path>
                        <path d="M362.862669,832.108398 L52.1373309,832.108398 C37.0444336,832.764648 24.0317383,838.443848 13.8237305,849.87793 C21.7026945,843.297818 33.9319006,835.723047 52.5112799,835.723047 C250.905405,835.723047 354.231218,835.723047 362.48872,835.723047 C381.068099,835.723047 394.404727,844.419888 402.283691,851 C391.620605,838.710449 378.31543,832.726074 362.862669,832.108398 Z" id="reflect-frame-bottom-2" fill-opacity="0.649999976" fill="url(#linearGradient-2)" opacity="0.6953125" transform="translate(208.053711, 841.554199) scale(1, -1) translate(-208.053711, -841.554199) "></path>
                        <path d="M399.038672,849.233301 C390.20261,842.906031 379.375659,839.181865 367.678883,839.181865 L50.7876462,839.181865 C37.487023,839.181865 25.3111183,843.997357 15.9082736,851.98 C25.773567,841.107453 40.0164866,834.279717 55.8541093,834.279717 L361.76801,834.279717 C376.226385,834.279717 389.355717,839.970024 399.038672,849.233301 Z" id="reflect-frame-bottom" fill="url(#linearGradient-3)" opacity="0.602468297" transform="translate(207.473473, 843.129858) scale(1, -1) translate(-207.473473, -843.129858) "></path>
                        <path d="M406.775295,788.391083 L406.775295,59.6089171 C406.775295,40.0550654 399.979196,32.8265548 395.924969,28.1849666 C391.870741,23.5433784 391.698183,21.1759601 397.52341,24.6804634 C403.348637,28.1849666 415,38.3920246 415,59.6089171 L415,788.391083 C415,809.607975 403.348637,819.815033 397.52341,823.319537 C391.698183,826.82404 391.870741,824.456622 395.924969,819.815033 C399.979196,815.173445 406.775295,807.944935 406.775295,788.391083 Z" id="reflect-frame-right" fill="url(#linearGradient-4)" opacity="0.650000036"></path>
                        <path d="M13.7752949,788.391083 L13.7752949,59.6089171 C13.7752949,40.0550654 6.97919634,32.8265548 2.9249689,28.1849666 C-1.12925853,23.5433784 -1.3018175,21.1759601 4.52340983,24.6804634 C10.3486371,28.1849666 22,38.3920246 22,59.6089171 L22,788.391083 C22,809.607975 10.3486371,819.815033 4.52340983,823.319537 C-1.3018175,826.82404 -1.12925853,824.456622 2.9249689,819.815033 C6.97919634,815.173445 13.7752949,807.944935 13.7752949,788.391083 Z" id="reflect-frame-left" fill="url(#linearGradient-4)" opacity="0.650000036" transform="translate(11.000000, 424.000000) scale(-1, 1) translate(-11.000000, -424.000000) "></path>
                    </g>
                    <g id="controls" transform="translate(0.000000, 113.000000)" fill="#000000">
                        <path d="M2,0 L6,0 C7.1045695,-2.02906125e-16 8,0.8954305 8,2 L8,32 C8,33.1045695 7.1045695,34 6,34 L2,34 C0.8954305,34 1.3527075e-16,33.1045695 0,32 L0,2 C-1.3527075e-16,0.8954305 0.8954305,2.02906125e-16 2,0 Z" id="silent"></path>
                        <path d="M2,60 L6,60 C7.1045695,60 8,60.8954305 8,62 L8,122 C8,123.104569 7.1045695,124 6,124 L2,124 C0.8954305,124 1.3527075e-16,123.104569 0,122 L0,62 C-1.3527075e-16,60.8954305 0.8954305,60 2,60 Z" id="vol+"></path>
                        <path d="M417,40 L421,40 C422.104569,40 423,40.8954305 423,42 L423,118 C423,119.104569 422.104569,120 421,120 L417,120 C415.895431,120 415,119.104569 415,118 L415,42 C415,40.8954305 415.895431,40 417,40 Z" id="power"></path>
                        <path d="M2,140 L6,140 C7.1045695,140 8,140.895431 8,142 L8,202 C8,203.104569 7.1045695,204 6,204 L2,204 C0.8954305,204 1.3527075e-16,203.104569 0,202 L0,142 C-1.3527075e-16,140.895431 0.8954305,140 2,140 Z" id="vol-"></path>
                    </g>
                    <g id="f-cam-2" transform="translate(130.000000, 24.000000)">
                        <g id="oval-shade" opacity="0.49609375">
                            <use fill="#000000" fill-rule="evenodd" xlink:href="#path-5"></use>
                            <use fill="black" fill-opacity="1" filter="url(#filter-6)" xlink:href="#path-5"></use>
                        </g>
                        <circle id="oval" fill="#141414" cx="8" cy="8" r="5.71428571"></circle>
                        <g id="front-facing-camera" opacity="0.502038043" transform="translate(2.000000, 2.000000)">
                            <g>
                                <circle stroke="#192E65" stroke-width="2" stroke-linejoin="square" fill="#334B80" fill-rule="evenodd" cx="6" cy="6" r="5"></circle>
                                <use stroke="#272149" stroke-width="1" xlink:href="#path-7"></use>
                            </g>
                            <circle id="middle" fill="#14285E" cx="6" cy="6" r="1.63636364"></circle>
                            <circle id="glare" fill="#92B6D7" cx="4.36363636" cy="4.36363636" r="1.09090909"></circle>
                            <circle id="reflection" fill="#516C9D" cx="7.63636364" cy="7.63636364" r="1.09090909"></circle>
                        </g>
                    </g>
                    <g id="f-cam-1" transform="translate(161.000000, 24.000000)">
                        <g id="oval-shade" opacity="0.49609375">
                            <use fill="#000000" fill-rule="evenodd" xlink:href="#path-8"></use>
                            <use fill="black" fill-opacity="1" filter="url(#filter-9)" xlink:href="#path-8"></use>
                        </g>
                        <circle id="oval" fill="#141414" cx="8" cy="8" r="5.71428571"></circle>
                        <g id="front-facing-camera" opacity="0.498867754" transform="translate(2.000000, 2.000000)">
                            <g>
                                <circle stroke="#192E65" stroke-width="2" stroke-linejoin="square" fill="#334B80" fill-rule="evenodd" cx="6" cy="6" r="5"></circle>
                                <use stroke="#272149" stroke-width="1" xlink:href="#path-10"></use>
                            </g>
                            <circle id="middle" fill="#14285E" cx="6" cy="6" r="1.63636364"></circle>
                            <circle id="glare" fill="#92B6D7" cx="4.36363636" cy="4.36363636" r="1.09090909"></circle>
                            <circle id="reflection" fill="#516C9D" cx="7.63636364" cy="7.63636364" r="1.09090909"></circle>
                        </g>
                    </g>
                    <g id="proximity" transform="translate(246.000000, 27.000000)">
                        <g id="oval-shade" opacity="0.49609375">
                            <use fill="#000000" fill-rule="evenodd" xlink:href="#path-11"></use>
                            <use fill="black" fill-opacity="1" filter="url(#filter-12)" xlink:href="#path-11"></use>
                        </g>
                        <circle id="oval" fill="#141414" cx="5" cy="5" r="3.57142857"></circle>
                        <circle id="oval-innershade" fill="#141414" cx="6.07142857" cy="5.35714286" r="1.07142857"></circle>
                    </g>
                    <g id="sensor" transform="translate(275.000000, 24.000000)">
                        <circle id="oval" fill="#181819" cx="8" cy="8" r="8"></circle>
                        <g id="oval-shade" opacity="0.49609375">
                            <use fill="#000000" fill-rule="evenodd" xlink:href="#path-13"></use>
                            <use fill="black" fill-opacity="1" filter="url(#filter-14)" xlink:href="#path-13"></use>
                        </g>
                        <g id="iris-recognition-led" opacity="0.695029438" transform="translate(2.000000, 2.000000)">
                            <circle fill="#1E1939" cx="6" cy="6" r="6"></circle>
                            <circle id="gutter" fill="#342B64" cx="6" cy="6" r="3.81818182"></circle>
                            <circle id="reflection" fill="#51439F" cx="6" cy="6" r="1.63636364"></circle>
                            <circle id="glare" fill="#FFFFFF" opacity="0.340000004" cx="4.36363636" cy="4.36363636" r="1.09090909"></circle>
                        </g>
                    </g>
                    <g id="earpiece" transform="translate(211.500000, 32.500000) scale(-1, 1) translate(-211.500000, -32.500000) translate(189.000000, 29.000000)" fill="#181819">
                        <rect id="earpiece-hole" x="0" y="0" width="45" height="7" rx="3.5"></rect>
                    </g>
                </g>
                <g id="screen-reflect" transform="translate(23.000000, 21.000000)">
                    <g id="Group" transform="translate(1.000000, 0.000000)" opacity="0.300000012">
                        <path d="M361.93475,781.255076 L361.93475,19.6027152 C361.93475,12.5049806 358.553711,5.5698764 352,0 C357.05127,1.95076283 360.3152,2.16174013 363.808434,5.70163982 C370.711568,12.6973999 375,21.6903747 375,29.1706419 L375,768.68715 C375,777.938477 370.587891,786.47998 365.447754,793.262695 C361.955539,797.870879 356.994057,802.021282 352.66748,804.144043 C358.908691,799.190378 361.93475,788.352811 361.93475,781.255076 Z" id="reflect-glass-right" fill="url(#linearGradient-15)"></path>
                        <path d="M13.0652498,780.248865 C13.0652498,787.3466 15.7451172,799.070974 21.9863281,804.024638 C17.6597518,801.901877 14.6848004,798.712173 11.1915662,795.17253 C4.28843208,788.17677 0,778.161462 0,770.680938 L0,28.1644307 C0,20.6841635 4.28843208,11.6911887 11.1915662,4.69542864 C14.6848004,1.15552895 17.9487305,1.95076283 23,0 C16.4462891,5.5698764 13.0652498,11.4987694 13.0652498,18.596504 L13.0652498,780.248865 Z" id="reflect-glass-left" fill="url(#linearGradient-16)"></path>
                    </g>
                    <g id="status-bar-white" transform="translate(0.000000, 4.000000)">
                        <rect id="bounds" x="0" y="0" width="375" height="20"></rect>
                        <path d="M347.272727,9 L350,9 L345.090909,15 L346.727273,10.5 L346.090909,10.5 L346.090909,9 L347.173554,9 L348.363636,5 L344,10.5 L346.727273,10.5 L348.090909,10.5 L348.090909,9 L347.272727,9 Z" id="lightning" fill="#FFFFFF" fill-rule="evenodd"></path>
                        <g id="battery" stroke-width="1" fill-rule="evenodd" transform="translate(315.000000, 4.000000)">
                            <rect id="inside" fill="#4CD964" x="2" y="2.5" width="20" height="7.5" rx="1"></rect>
                            <path d="M25,4.56300874 C25.8626136,4.78503014 26.5,5.56808029 26.5,6.5 C26.5,7.43191971 25.8626136,8.21496986 25,8.43699126 L25,4.56300874 Z" id="side" fill="#FFFFFF"></path>
                            <path d="M2,0.5 L22,0.5 C23.1045695,0.5 24,1.3954305 24,2.5 L24,10 C24,11.1045695 23.1045695,12 22,12 L2,12 C0.8954305,12 1.3527075e-16,11.1045695 0,10 L0,2.5 C-1.3527075e-16,1.3954305 0.8954305,0.5 2,0.5 Z M2,1.5 C1.44771525,1.5 1,1.94771525 1,2.5 L1,10 C1,10.5522847 1.44771525,11 2,11 L22,11 C22.5522847,11 23,10.5522847 23,10 L23,2.5 C23,1.94771525 22.5522847,1.5 22,1.5 L2,1.5 Z" id="frame" fill="#FFFFFF"></path>
                        </g>
                        <path d="M48.7824856,8.28248558 C50.5016474,6.56332372 52.8766474,5.5 55.5,5.5 C58.1233526,5.5 60.4983526,6.56332372 62.2175144,8.28248558 L61.1568542,9.34314575 C59.709139,7.8954305 57.709139,7 55.5,7 C53.290861,7 51.290861,7.8954305 49.8431458,9.34314575 L48.7824856,8.28248558 Z M50.9038059,10.4038059 C52.0800746,9.22753728 53.7050746,8.5 55.5,8.5 C57.2949254,8.5 58.9199254,9.22753728 60.0961941,10.4038059 L59.0355339,11.4644661 C58.1307119,10.5596441 56.8807119,10 55.5,10 C54.1192881,10 52.8692881,10.5596441 51.9644661,11.4644661 L50.9038059,10.4038059 Z M53.0251263,12.5251263 C53.6585017,11.8917508 54.5335017,11.5 55.5,11.5 C56.4664983,11.5 57.3414983,11.8917508 57.9748737,12.5251263 L55.5,15 L53.0251263,12.5251263 Z" id="wifi" fill="#FFFFFF" fill-rule="evenodd"></path>
                        <g id="signal" stroke-width="1" fill-rule="evenodd" transform="translate(26.000000, 5.000000)" fill="#FFFFFF">
                            <rect id="4" x="13.5" y="0" width="3" height="10" rx="1"></rect>
                            <rect id="3" x="9" y="2" width="3" height="8" rx="1"></rect>
                            <rect id="2" x="4.5" y="4" width="3" height="6" rx="1"></rect>
                            <rect id="1" x="0" y="5" width="3" height="5" rx="1"></rect>
                        </g>
                    </g>
                </g>
            </g>
        </g>
    </g>
</svg>