
<svg width="473px" height="901px" viewBox="0 0 473 901" version="1.1" xmlns="http://www.w3.org/2000/svg" xmlns:xlink="http://www.w3.org/1999/xlink">
    <defs>
        <linearGradient x1="50%" y1="0%" x2="50%" y2="100%" id="linearGradient-2">
            <stop stop-color="#454545" offset="0%"></stop>
            <stop stop-color="#999999" offset="22.6279115%"></stop>
            <stop stop-color="#FFFFFF" offset="100%"></stop>
        </linearGradient>
        <linearGradient x1="50%" y1="0%" x2="50%" y2="100%" id="linearGradient-3">
            <stop stop-color="#454545" offset="0%"></stop>
            <stop stop-color="#999999" offset="22.6279115%"></stop>
            <stop stop-color="#FFFFFF" offset="100%"></stop>
        </linearGradient>
        <linearGradient x1="50%" y1="26.9114283%" x2="50%" y2="-43.6051491%" id="linearGradient-4">
            <stop stop-color="#FFFFFF" stop-opacity="0" offset="0%"></stop>
            <stop stop-color="#FFFFFF" stop-opacity="0.55" offset="100%"></stop>
        </linearGradient>
        <linearGradient x1="100%" y1="50%" x2="30.0573656%" y2="50%" id="linearGradient-5">
            <stop stop-color="#000000" offset="0%"></stop>
            <stop stop-color="#BABABA" offset="22.2177934%"></stop>
            <stop stop-color="#000108" offset="54.6780492%"></stop>
            <stop stop-color="#060606" offset="100%"></stop>
        </linearGradient>
    </defs>
    <g id="Page-1" stroke="none" stroke-width="1" fill="none" fill-rule="evenodd">
        <g id="iphonex_empty" fill-rule="nonzero">
            <path d="M57.4888889,1 L365.511111,1 C395.052209,1 419,25.2553427 419,55.1758242 L419,796.824176 C419,826.744657 395.052209,851 365.511111,851 L57.4888889,851 C27.9477913,851 4,826.744657 4,796.824176 L4,55.1758242 C4,25.2553427 27.9477913,1 57.4888889,1 Z M101.832692,20 L54.9458128,20 C37.0439453,20 24,33.2322544 24,50.5143838 L24,789.500376 C24,812.034354 44.1552734,832 66.9458128,832 L356.054187,832 C378.007812,832 399,811.879271 399,789.500376 L399,52.5119237 C399,31.7980569 384.830078,20.1231808 368.054187,20 L319.268428,20 C318.806692,20.0821205 317.237128,20.1231808 316.559739,20.1231808 C312.02832,20.1231808 310.578149,24.0614045 310.578149,33.2322544 C310.578149,42.4031044 299.921875,50.1529901 292.128242,50.1529901 L260.453202,50.1529901 L143.175012,50.1529901 L129.582031,50.1529901 C125.877348,50.1529901 112.289529,45.8831632 111.185547,33.2322544 C110.081565,20.5813456 109.924636,20.1231808 103.541381,20.1231808 C102.863991,20.1231808 102.294428,20.0821205 101.832692,20 Z" id="Combined-Shape" fill="#000105"></path>
            <g id="frame" transform="translate(4.000000, 0.000000)">
                <path d="M362.862669,0 L52.1373309,0 C37.6303884,0.935420149 24.2512781,7.93542015 12,21 C19.878964,13.7272451 33.9319006,3.99513752 52.5112799,3.99513752 C250.905405,3.99513752 354.231218,3.99513752 362.48872,3.99513752 C381.068099,3.99513752 395.121036,13.7272451 403,21 C390.748722,7.93542015 377.369612,0.935420149 362.862669,0 Z" id="reflect-frame-top" fill-opacity="0.649999976" fill="url(#linearGradient-2)" opacity="0.595561594"></path>
                <path d="M362.862669,832.108398 L52.1373309,832.108398 C37.0444336,832.764648 24.0317383,838.443848 13.8237305,849.87793 C21.7026945,843.297818 33.9319006,835.723047 52.5112799,835.723047 C250.905405,835.723047 354.231218,835.723047 362.48872,835.723047 C381.068099,835.723047 394.404727,844.419888 402.283691,851 C391.620605,838.710449 378.31543,832.726074 362.862669,832.108398 Z" id="reflect-frame-bottom-2" fill-opacity="0.649999976" fill="url(#linearGradient-3)" opacity="0.6953125" transform="translate(208.053711, 841.554199) scale(-1, 1) rotate(-180.000000) translate(-208.053711, -841.554199) "></path>
                <path d="M399.038672,849.233301 C390.20261,842.906031 379.375659,839.181865 367.678883,839.181865 L50.7876462,839.181865 C37.487023,839.181865 25.3111183,843.997357 15.9082736,851.98 C25.773567,841.107453 40.0164866,834.279717 55.8541093,834.279717 L361.76801,834.279717 C376.226385,834.279717 389.355717,839.970024 399.038672,849.233301 Z" id="reflect-frame-bottom" fill="url(#linearGradient-4)" opacity="0.602468297" transform="translate(207.473473, 843.129858) scale(-1, 1) rotate(-180.000000) translate(-207.473473, -843.129858) "></path>
                <path d="M406.775295,788.391083 L406.775295,59.6089171 C406.775295,40.0550654 399.979196,32.8265548 395.924969,28.1849666 C391.870741,23.5433784 391.698183,21.1759601 397.52341,24.6804634 C403.348637,28.1849666 415,38.3920246 415,59.6089171 L415,788.391083 C415,809.607975 403.348637,819.815033 397.52341,823.319537 C391.698183,826.82404 391.870741,824.456622 395.924969,819.815033 C399.979196,815.173445 406.775295,807.944935 406.775295,788.391083 Z" id="reflect-frame-right" fill="url(#linearGradient-5)" opacity="0.650000036"></path>
                <path d="M13.7752949,788.391083 L13.7752949,59.6089171 C13.7752949,40.0550654 6.97919634,32.8265548 2.9249689,28.1849666 C-1.12925853,23.5433784 -1.3018175,21.1759601 4.52340983,24.6804634 C10.3486371,28.1849666 22,38.3920246 22,59.6089171 L22,788.391083 C22,809.607975 10.3486371,819.815033 4.52340983,823.319537 C-1.3018175,826.82404 -1.12925853,824.456622 2.9249689,819.815033 C6.97919634,815.173445 13.7752949,807.944935 13.7752949,788.391083 Z" id="reflect-frame-left" fill="url(#linearGradient-5)" opacity="0.650000036" transform="translate(11.000000, 424.000000) scale(-1, 1) translate(-11.000000, -424.000000) "></path>
            </g>
            <g id="controls" transform="translate(0.000000, 113.000000)" fill="#000000">
                <path d="M2,0 L6,0 C7.1045695,-2.02906125e-16 8,0.8954305 8,2 L8,32 C8,33.1045695 7.1045695,34 6,34 L2,34 C0.8954305,34 1.3527075e-16,33.1045695 0,32 L0,2 C-1.3527075e-16,0.8954305 0.8954305,2.02906125e-16 2,0 Z" id="silent"></path>
                <path d="M2,60 L6,60 C7.1045695,60 8,60.8954305 8,62 L8,122 C8,123.104569 7.1045695,124 6,124 L2,124 C0.8954305,124 1.3527075e-16,123.104569 0,122 L0,62 C-1.3527075e-16,60.8954305 0.8954305,60 2,60 Z" id="vol+"></path>
                <path d="M417,40 L421,40 C422.104569,40 423,40.8954305 423,42 L423,118 C423,119.104569 422.104569,120 421,120 L417,120 C415.895431,120 415,119.104569 415,118 L415,42 C415,40.8954305 415.895431,40 417,40 Z" id="power"></path>
                <path d="M2,140 L6,140 C7.1045695,140 8,140.895431 8,142 L8,202 C8,203.104569 7.1045695,204 6,204 L2,204 C0.8954305,204 1.3527075e-16,203.104569 0,202 L0,142 C-1.3527075e-16,140.895431 0.8954305,140 2,140 Z" id="vol-"></path>
            </g>
        </g>
    </g>
</svg>