<?xml version="1.0" encoding="UTF-8"?>
<svg width="67px" height="67px" viewBox="0 0 67 67" version="1.1" xmlns="http://www.w3.org/2000/svg" xmlns:xlink="http://www.w3.org/1999/xlink">
    <!-- Generator: Sketch 54.1 (76490) - https://sketchapp.com -->
    <title>Digital Marketing</title>
    <desc>Created with Sketch.</desc>
    <g id="TGP-DESKTOP-VERSION" stroke="none" stroke-width="1" fill="none" fill-rule="evenodd">
        <g id="Services" transform="translate(-1009.000000, -555.000000)">
            <g id="Digital-Marketing" transform="translate(1009.000000, 555.000000)">
                <g>
                    <path d="M57.8680485,35.2925455 C57.6739727,34.9306136 57.2958595,34.7045455 56.884285,34.7045455 L45.7305036,34.7045455 C45.3992363,34.7045455 45.0858151,34.8515455 44.8738932,35.1043409 L39.6305006,41.3863636 L31.2305878,41.3863636 L31.2305878,23.5681818 C31.2305878,20.4978864 28.7287947,18 25.6536972,18 L5.57689068,18 C2.50179316,18 0,20.4978864 0,23.5681818 L0,61.4318182 C0,64.5021136 2.50179316,67 5.57689068,67 L25.6536972,67 C28.7287947,67 31.2305878,64.5021136 31.2305878,61.4318182 L31.2305878,43.6136364 L39.6305006,43.6136364 L44.8738932,49.8956591 C45.0858151,50.1484545 45.3992363,50.2954545 45.7305036,50.2954545 L56.884285,50.2954545 C57.2958595,50.2954545 57.6739727,50.0693864 57.8680485,49.7074545 C58.0621243,49.3455227 58.0409321,48.9056364 57.8122796,48.5648636 L53.763457,42.5 L57.8122796,36.43625 C58.0409321,36.0943636 58.0621243,35.6555909 57.8680485,35.2925455 Z M5.57689068,20.2272727 L25.6536972,20.2272727 C27.4985326,20.2272727 28.9998316,21.7262273 28.9998316,23.5681818 L28.9998316,24.6818182 L2.23075627,24.6818182 L2.23075627,23.5681818 C2.23075627,21.7262273 3.73205525,20.2272727 5.57689068,20.2272727 Z M25.6536972,64.7727273 L5.57689068,64.7727273 C3.73205525,64.7727273 2.23075627,63.2737727 2.23075627,61.4318182 L2.23075627,60.3181818 L28.9998316,60.3181818 L28.9998316,61.4318182 C28.9998316,63.2737727 27.4985326,64.7727273 25.6536972,64.7727273 Z M28.9998316,58.0909091 L2.23075627,58.0909091 L2.23075627,26.9090909 L28.9998316,26.9090909 L28.9998316,41.3863636 L26.712191,41.3863636 C26.1511558,35.7669545 21.3884912,31.3636364 15.6152939,31.3636364 C9.46509887,31.3636364 4.46151255,36.3594091 4.46151255,42.5 C4.46151255,48.6405909 9.46509887,53.6363636 15.6152939,53.6363636 C21.3896065,53.6363636 26.1511558,49.2330455 26.712191,43.6136364 L28.9998316,43.6136364 L28.9998316,58.0909091 Z M21.0795314,41.3863636 C20.5608806,38.8483864 18.3089321,36.9318182 15.6152939,36.9318182 C12.5401964,36.9318182 10.0384032,39.4297045 10.0384032,42.5 C10.0384032,45.5702955 12.5401964,48.0681818 15.6152939,48.0681818 C18.3078167,48.0681818 20.5608806,46.1516136 21.0795314,43.6136364 L24.4613579,43.6136364 C23.9092457,48.0013636 20.1571137,51.4090909 15.6152939,51.4090909 C10.695361,51.4090909 6.69226882,47.41225 6.69226882,42.5 C6.69226882,37.58775 10.695361,33.5909091 15.6152939,33.5909091 C20.1571137,33.5909091 23.9092457,36.9986364 24.4613579,41.3863636 L21.0795314,41.3863636 Z M18.7561988,43.6136364 C18.2944322,44.9065682 17.0675163,45.8409091 15.6152939,45.8409091 C13.7704585,45.8409091 12.2691595,44.3419545 12.2691595,42.5 C12.2691595,40.6580455 13.7704585,39.1590909 15.6152939,39.1590909 C17.0675163,39.1590909 18.2944322,40.0934318 18.7561988,41.3863636 L15.6152939,41.3863636 L15.6152939,43.6136364 L18.7561988,43.6136364 Z M51.4947778,41.8819318 C51.2449331,42.2561136 51.2449331,42.7427727 51.4947778,43.1169545 L54.7996432,48.0681818 L46.2525006,48.0681818 L41.6047199,42.5 L46.2525006,36.9318182 L54.7996432,36.9318182 L51.4947778,41.8819318 Z" id="Shape" fill="#F8FAFD" fill-rule="nonzero"></path>
                    <path d="M65,16.6666667 L65,5.55555556 C65,2.49222222 62.5166786,0 59.4642857,0 L39.5357143,0 C36.4833214,0 34,2.49222222 34,5.55555556 L34,16.6666667 C34,19.73 36.4833214,22.2222222 39.5357143,22.2222222 L45.0714286,22.2222222 L45.0714286,28.8888889 C45.0714286,29.3255556 45.3249643,29.72 45.7213214,29.9 C45.8674643,29.9677778 46.0224643,30 46.1785714,30 C46.4420714,30 46.70225,29.9055556 46.9081786,29.7255556 L55.4508929,22.2222222 L59.4642857,22.2222222 C62.5166786,22.2222222 65,19.73 65,16.6666667 Z M62.7857143,16.6666667 C62.7857143,18.5044444 61.2955,20 59.4642857,20 L55.0357143,20 C54.7677857,20 54.5087143,20.0977778 54.3061071,20.2744444 L47.2857143,26.44 L47.2857143,21.1111111 C47.2857143,20.8155556 47.1694643,20.5333333 46.9613214,20.3255556 C46.7531786,20.1177778 46.4719643,20 46.1785714,20 L39.5357143,20 C37.7045,20 36.2142857,18.5044444 36.2142857,16.6666667 L36.2142857,5.55555556 C36.2142857,3.71777778 37.7045,2.22222222 39.5357143,2.22222222 L59.4642857,2.22222222 C61.2955,2.22222222 62.7857143,3.71777778 62.7857143,5.55555556 L62.7857143,16.6666667 Z" id="Shape" fill="#FF0707" fill-rule="nonzero"></path>
                    <path d="M50.9042227,6.22142523 L49.5,7.63277717 L48.0957773,6.22142523 C46.4754368,4.59285826 43.8364104,4.59285826 42.2160699,6.22142523 C40.5946434,7.8499922 40.5946434,10.502417 42.2160699,12.1309839 L48.7321845,18.6801809 C48.9439582,18.8930298 49.2219791,19 49.5,19 C49.7780209,19 50.0560418,18.8930298 50.2678155,18.6801809 L56.7839301,12.1309839 C58.4053566,10.502417 58.4053566,7.8499922 56.7839301,6.22142523 C55.1635896,4.59285826 52.5245632,4.59285826 50.9042227,6.22142523 Z M55.2482991,10.5875565 L49.5,16.3650398 L43.7517009,10.5875565 C42.9773693,9.80929362 42.9773693,8.54311555 43.7517009,7.76485264 C44.1383237,7.37626696 44.6476667,7.18197412 45.1559236,7.18197412 C45.6641805,7.18197412 46.1735235,7.37626696 46.5601463,7.76485264 L48.7321845,9.94791829 C49.156818,10.3747076 49.843182,10.3747076 50.2678155,9.94791829 L52.4398537,7.76485264 C53.2141853,6.98658974 54.4739675,6.98658974 55.2482991,7.76485264 C56.0226307,8.54311555 56.0226307,9.80929362 55.2482991,10.5875565 Z" id="Shape" fill="#EC0D0D" fill-rule="nonzero"></path>
                    <rect id="Rectangle" fill="#FDF8F8" fill-rule="nonzero" x="60" y="35" width="7" height="2"></rect>
                    <rect id="Rectangle" fill="#FDF8F8" fill-rule="nonzero" x="60" y="42" width="7" height="2"></rect>
                    <rect id="Rectangle" fill="#FDF8F8" fill-rule="nonzero" x="60" y="48" width="7" height="2"></rect>
                </g>
            </g>
        </g>
    </g>
</svg>