<?xml version="1.0" encoding="UTF-8"?>
<svg width="78px" height="78px" viewBox="0 0 78 78" version="1.1" xmlns="http://www.w3.org/2000/svg" xmlns:xlink="http://www.w3.org/1999/xlink">
    <!-- Generator: Sketch 55.1 (78136) - https://sketchapp.com -->
    <title>Digital Marketing color</title>
    <desc>Created with Sketch.</desc>
    <g id="TGP-DESKTOP-" stroke="none" stroke-width="1" fill="none" fill-rule="evenodd">
        <g id="VSA" transform="translate(-1215.000000, -1025.000000)">
            <g id="Digital-Marketing-color" transform="translate(1215.000000, 1025.000000)">
                <g id="Digital-Marketing">
                    <path d="M67.3687729,41.086844 C67.1428339,40.6654905 66.7026424,40.4023066 66.223496,40.4023066 L53.2384967,40.4023066 C52.8528423,40.4023066 52.4879638,40.573441 52.2412488,40.8677402 L46.1370007,48.1811398 L36.3579978,48.1811398 L36.3579978,27.4375848 C36.3579978,23.863211 33.4454625,20.9552239 29.8654982,20.9552239 L6.4924996,20.9552239 C2.91253532,20.9552239 0,23.863211 0,27.4375848 L0,71.5176391 C0,75.0920129 2.91253532,78 6.4924996,78 L29.8654982,78 C33.4454625,78 36.3579978,75.0920129 36.3579978,71.5176391 L36.3579978,50.7740841 L46.1370007,50.7740841 L52.2412488,58.0874837 C52.4879638,58.3817829 52.8528423,58.5529172 53.2384967,58.5529172 L66.223496,58.5529172 C66.7026424,58.5529172 67.1428339,58.2897334 67.3687729,57.8683799 C67.5947119,57.4470265 67.5700404,56.9349199 67.3038479,56.5381995 L62.5902932,49.4776119 L67.3038479,42.4183209 C67.5700404,42.0203039 67.5947119,41.5094939 67.3687729,41.086844 Z M6.4924996,23.5481682 L29.8654982,23.5481682 C32.013217,23.5481682 33.7609979,25.2932198 33.7609979,27.4375848 L33.7609979,28.734057 L2.59699984,28.734057 L2.59699984,27.4375848 C2.59699984,25.2932198 4.34478073,23.5481682 6.4924996,23.5481682 Z M29.8654982,75.4070556 L6.4924996,75.4070556 C4.34478073,75.4070556 2.59699984,73.6620041 2.59699984,71.5176391 L2.59699984,70.2211669 L33.7609979,70.2211669 L33.7609979,71.5176391 C33.7609979,73.6620041 32.013217,75.4070556 29.8654982,75.4070556 Z M33.7609979,67.6282225 L2.59699984,67.6282225 L2.59699984,31.3270014 L33.7609979,31.3270014 L33.7609979,48.1811398 L31.0977746,48.1811398 C30.4446291,41.6391411 24.9000345,36.5128901 18.1789989,36.5128901 C11.0190703,36.5128901 5.19399968,42.3288643 5.19399968,49.4776119 C5.19399968,56.6263596 11.0190703,62.4423338 18.1789989,62.4423338 C24.901333,62.4423338 30.4446291,57.3160828 31.0977746,50.7740841 L33.7609979,50.7740841 L33.7609979,67.6282225 Z M24.54035,48.1811398 C23.9365475,45.2264796 21.3148762,42.995251 18.1789989,42.995251 C14.5990346,42.995251 11.6864993,45.9032381 11.6864993,49.4776119 C11.6864993,53.0519858 14.5990346,55.9599729 18.1789989,55.9599729 C21.3135777,55.9599729 23.9365475,53.7287442 24.54035,50.7740841 L28.4774018,50.7740841 C27.8346443,55.8821845 23.4664906,59.8493894 18.1789989,59.8493894 C12.4513157,59.8493894 7.79099952,55.1963507 7.79099952,49.4776119 C7.79099952,43.7588731 12.4513157,39.1058345 18.1789989,39.1058345 C23.4664906,39.1058345 27.8346443,43.0730393 28.4774018,48.1811398 L24.54035,48.1811398 Z M21.8355747,50.7740841 C21.2979957,52.2792883 19.8696458,53.3670285 18.1789989,53.3670285 C16.03128,53.3670285 14.2834991,51.6219769 14.2834991,49.4776119 C14.2834991,47.3332469 16.03128,45.5881954 18.1789989,45.5881954 C19.8696458,45.5881954 21.2979957,46.6759355 21.8355747,48.1811398 L18.1789989,48.1811398 L18.1789989,50.7740841 L21.8355747,50.7740841 Z M59.9491443,48.7580699 C59.6582804,49.1936845 59.6582804,49.7602429 59.9491443,50.1958575 L63.7965996,55.9599729 L53.8461947,55.9599729 L48.4353455,49.4776119 L53.8461947,42.995251 L63.7965996,42.995251 L59.9491443,48.7580699 Z" id="Shape" fill="#2A4261" fill-rule="nonzero"></path>
                    <path d="M75.6716418,19.4029851 L75.6716418,6.46766169 C75.6716418,2.90139303 72.7806109,0 69.2270789,0 L46.0266525,0 C42.4731205,0 39.5820896,2.90139303 39.5820896,6.46766169 L39.5820896,19.4029851 C39.5820896,22.9692537 42.4731205,25.8706468 46.0266525,25.8706468 L52.4712154,25.8706468 L52.4712154,33.6318408 C52.4712154,34.140199 52.7663763,34.599403 53.227807,34.8089552 C53.3979435,34.8878607 53.5783913,34.9253731 53.7601279,34.9253731 C54.0668891,34.9253731 54.3697836,34.8154229 54.6095213,34.6058706 L64.5547708,25.8706468 L69.2270789,25.8706468 C72.7806109,25.8706468 75.6716418,22.9692537 75.6716418,19.4029851 Z M73.0938166,19.4029851 C73.0938166,21.5424876 71.3589403,23.2835821 69.2270789,23.2835821 L64.0714286,23.2835821 C63.7595117,23.2835821 63.4579062,23.3974129 63.2220352,23.6030846 L55.0490405,30.7808955 L55.0490405,24.5771144 C55.0490405,24.2330348 54.9137047,23.9044776 54.6713891,23.6625871 C54.4290736,23.4206965 54.1016898,23.2835821 53.7601279,23.2835821 L46.0266525,23.2835821 C43.894791,23.2835821 42.1599147,21.5424876 42.1599147,19.4029851 L42.1599147,6.46766169 C42.1599147,4.3281592 43.894791,2.58706468 46.0266525,2.58706468 L69.2270789,2.58706468 C71.3589403,2.58706468 73.0938166,4.3281592 73.0938166,6.46766169 L73.0938166,19.4029851 Z" id="Shape" fill="#FF0707" fill-rule="nonzero"></path>
                    <path d="M59.2616324,7.24285325 L57.6268657,8.88591969 L55.9920989,7.24285325 C54.1057324,5.34690961 51.033433,5.34690961 49.1470664,7.24285325 C47.2594356,9.13879689 47.2594356,12.2266944 49.1470664,14.122638 L56.7329909,21.7470763 C56.9795335,21.9948705 57.3031996,22.119403 57.6268657,22.119403 C57.9505318,22.119403 58.2741979,21.9948705 58.5207404,21.7470763 L66.1066649,14.122638 C67.9942958,12.2266944 67.9942958,9.13879689 66.1066649,7.24285325 C64.2202984,5.34690961 61.1479989,5.34690961 59.2616324,7.24285325 Z M64.3189154,12.3258121 L57.6268657,19.0518373 L50.934816,12.3258121 C50.0333553,11.4197747 50.0333553,9.94571661 50.934816,9.0396792 C51.3849142,8.58729586 51.9778806,8.36110419 52.5695827,8.36110419 C53.1612848,8.36110419 53.7542512,8.58729586 54.2043494,9.0396792 L56.7329909,11.5811586 C57.2273403,12.0780178 58.026391,12.0780178 58.5207404,11.5811586 L61.0493819,9.0396792 C61.9508426,8.13364179 63.4174547,8.13364179 64.3189154,9.0396792 C65.2203761,9.94571661 65.2203761,11.4197747 64.3189154,12.3258121 Z" id="Shape" fill="#EC0D0D" fill-rule="nonzero"></path>
                    <rect id="Rectangle" fill="#333333" fill-rule="nonzero" x="69.8507463" y="40.7462687" width="8.14925373" height="2.32835821"></rect>
                    <rect id="Rectangle" fill="#333333" fill-rule="nonzero" x="69.8507463" y="48.8955224" width="8.14925373" height="2.32835821"></rect>
                    <rect id="Rectangle" fill="#333333" fill-rule="nonzero" x="69.8507463" y="55.880597" width="8.14925373" height="2.32835821"></rect>
                </g>
            </g>
        </g>
    </g>
</svg>