<?xml version="1.0" encoding="UTF-8"?>
<svg width="118px" height="118px" viewBox="0 0 118 118" version="1.1" xmlns="http://www.w3.org/2000/svg" xmlns:xlink="http://www.w3.org/1999/xlink">
    <!-- Generator: Sketch 54.1 (76490) - https://sketchapp.com -->
    <title>Optimise - Tunning Screen</title>
    <desc>Created with Sketch.</desc>
    <g id="TGP-DESKTOP-VERSION" stroke="none" stroke-width="1" fill="none" fill-rule="evenodd">
        <g id="Our-Process" transform="translate(-626.000000, -779.000000)">
            <g id="QUANTIFY" transform="translate(176.000000, 306.000000)">
                <g id="Group-3">
                    <g id="Group-4">
                        <g id="Optimise---Tunning-Screen" transform="translate(450.000000, 473.000000)">
                            <g>
                                <path d="M114.193548,98.9677419 L114.193548,39.9677419 C114.193548,34.7205484 109.924613,30.4516129 104.677419,30.4516129 L91.2577742,30.4516129 C90.2642903,13.4976774 76.1975484,0 59,0 C41.8024516,0 27.7357097,13.4976774 26.7422258,30.4516129 L13.3225806,30.4516129 C8.0753871,30.4516129 3.80645161,34.7205484 3.80645161,39.9677419 L3.80645161,98.9677419 L0,98.9677419 L0,108.483871 C0,113.731065 4.26893548,118 9.51612903,118 L108.483871,118 C113.731065,118 118,113.731065 118,108.483871 L118,98.9677419 L114.193548,98.9677419 Z M110.387097,39.9677419 L110.387097,98.9677419 L106.580645,98.9677419 L106.580645,41.8709677 C106.580645,39.7717097 104.873452,38.0645161 102.774194,38.0645161 L90.8200323,38.0645161 C91.0427097,36.8198065 91.1835484,35.5484516 91.2596774,34.2580645 L104.677419,34.2580645 C107.825355,34.2580645 110.387097,36.8198065 110.387097,39.9677419 Z M41.8709677,102.774194 L76.1290323,102.774194 L76.1290323,104.677419 C76.1290323,105.728 75.2744839,106.580645 74.2258065,106.580645 L43.7741935,106.580645 C42.7255161,106.580645 41.8709677,105.728 41.8709677,104.677419 L41.8709677,102.774194 Z M15.2258065,98.9677419 L15.2258065,41.8709677 L28.0782903,41.8709677 C32.1511935,55.0812581 44.4707742,64.7096774 59,64.7096774 C73.5292258,64.7096774 85.8488065,55.0812581 89.9217097,41.8709677 L102.774194,41.8709677 L102.774194,98.9677419 L15.2258065,98.9677419 Z M85.6775161,42.4305161 L76.877,34.2580645 L87.4513226,34.2580645 C87.261,37.1186129 86.6519677,39.8592581 85.6775161,42.4305161 Z M71.2815161,34.2580645 L84.016,46.0847097 C83.1062581,47.7348065 82.0366452,49.2802258 80.8319032,50.7114516 L63.1147742,34.2580645 L71.2815161,34.2580645 Z M73.6453226,56.8150968 L60.9032258,44.9827419 L60.9032258,37.4002903 L78.1769032,53.4406774 C76.7837419,54.7082258 75.2687742,55.8387419 73.6453226,56.8150968 Z M70.0520323,58.6745484 C67.2086129,59.8735806 64.1234839,60.593 60.9032258,60.8080645 L60.9032258,50.1804516 L70.0520323,58.6745484 Z M87.4513226,30.4516129 L60.9032258,30.4516129 L60.9032258,3.90351613 C75.124129,4.84751613 86.5073226,16.2307097 87.4513226,30.4516129 Z M57.0967742,3.90351613 L57.0967742,60.8080645 C42.2420968,59.8221935 30.4516129,47.4550323 30.4516129,32.3567419 C30.4516129,17.2584516 42.2420968,4.8893871 57.0967742,3.90351613 Z M7.61290323,39.9677419 C7.61290323,36.8198065 10.1746452,34.2580645 13.3225806,34.2580645 L26.7422258,34.2580645 C26.8183548,35.5484516 26.9591935,36.8198065 27.181871,38.0645161 L15.2258065,38.0645161 C13.1265484,38.0645161 11.4193548,39.7717097 11.4193548,41.8709677 L11.4193548,98.9677419 L7.61290323,98.9677419 L7.61290323,39.9677419 Z M114.193548,108.483871 C114.193548,111.631806 111.631806,114.193548 108.483871,114.193548 L9.51612903,114.193548 C6.36819355,114.193548 3.80645161,111.631806 3.80645161,108.483871 L3.80645161,102.774194 L38.0645161,102.774194 L38.0645161,104.677419 C38.0645161,107.825355 40.6262581,110.387097 43.7741935,110.387097 L74.2258065,110.387097 C77.3737419,110.387097 79.9354839,107.825355 79.9354839,104.677419 L79.9354839,102.774194 L114.193548,102.774194 L114.193548,108.483871 Z" id="Shape" fill="#FAF8F8" fill-rule="nonzero"></path>
                                <rect id="Rectangle" fill="#FAF8F8" fill-rule="nonzero" x="11.4193548" y="106.580645" width="3.80645161" height="3.80645161"></rect>
                                <rect id="Rectangle" fill="#FAF8F8" fill-rule="nonzero" x="19.0322581" y="106.580645" width="3.80645161" height="3.80645161"></rect>
                                <rect id="Rectangle" fill="#FAF8F8" fill-rule="nonzero" x="26.6451613" y="106.580645" width="3.80645161" height="3.80645161"></rect>
                                <polygon id="Path" fill="#FFF831" fill-rule="nonzero" points="26.6451613 68.516129 22.8387097 68.516129 22.8387097 76.1290323 19.0322581 76.1290323 19.0322581 79.9354839 22.8387097 79.9354839 22.8387097 95.1612903 26.6451613 95.1612903 26.6451613 79.9354839 30.4516129 79.9354839 30.4516129 76.1290323 26.6451613 76.1290323"></polygon>
                                <polygon id="Path" fill="#FFF831" fill-rule="nonzero" points="57.0967742 68.516129 53.2903226 68.516129 53.2903226 83.7419355 49.483871 83.7419355 49.483871 87.5483871 53.2903226 87.5483871 53.2903226 95.1612903 57.0967742 95.1612903 57.0967742 87.5483871 60.9032258 87.5483871 60.9032258 83.7419355 57.0967742 83.7419355"></polygon>
                                <polygon id="Path" fill="#FFF831" fill-rule="nonzero" points="41.8709677 68.516129 38.0645161 68.516129 38.0645161 91.3548387 34.2580645 91.3548387 34.2580645 95.1612903 45.6774194 95.1612903 45.6774194 91.3548387 41.8709677 91.3548387"></polygon>
                                <path d="M93.2580645,79.9354839 C92.3787742,79.9354839 91.5565806,80.1505484 90.8124194,80.5083548 L85.0741935,74.770129 C85.4300968,74.0240645 85.6451613,73.201871 85.6451613,72.3225806 C85.6451613,69.1746452 83.0834194,66.6129032 79.9354839,66.6129032 C76.7875484,66.6129032 74.2258065,69.1746452 74.2258065,72.3225806 C74.2258065,73.767129 74.7834516,75.0746452 75.6703548,76.0814516 L71.3614516,83.839 C71.053129,83.7857097 70.7429032,83.7419355 70.4193548,83.7419355 C67.2714194,83.7419355 64.7096774,86.3036774 64.7096774,89.4516129 C64.7096774,92.5995484 67.2714194,95.1612903 70.4193548,95.1612903 C73.5672903,95.1612903 76.1290323,92.5995484 76.1290323,89.4516129 C76.1290323,88.0070645 75.5713871,86.6995484 74.6844839,85.6927419 L78.9933871,77.9351935 C79.3017097,77.9884839 79.6119355,78.0322581 79.9354839,78.0322581 C80.8147742,78.0322581 81.6369677,77.8171935 82.381129,77.4593871 L88.1193548,83.1976129 C87.7634516,83.9436774 87.5483871,84.765871 87.5483871,85.6451613 C87.5483871,88.7930968 90.110129,91.3548387 93.2580645,91.3548387 C96.406,91.3548387 98.9677419,88.7930968 98.9677419,85.6451613 C98.9677419,82.4972258 96.406,79.9354839 93.2580645,79.9354839 Z M70.4193548,91.3548387 C69.3706774,91.3548387 68.516129,90.5021935 68.516129,89.4516129 C68.516129,88.4010323 69.3706774,87.5483871 70.4193548,87.5483871 C71.4680323,87.5483871 72.3225806,88.4010323 72.3225806,89.4516129 C72.3225806,90.5021935 71.4680323,91.3548387 70.4193548,91.3548387 Z M78.0322581,72.3225806 C78.0322581,71.272 78.8868065,70.4193548 79.9354839,70.4193548 C80.9841613,70.4193548 81.8387097,71.272 81.8387097,72.3225806 C81.8387097,73.3731613 80.9841613,74.2258065 79.9354839,74.2258065 C78.8868065,74.2258065 78.0322581,73.3731613 78.0322581,72.3225806 Z M93.2580645,87.5483871 C92.2093871,87.5483871 91.3548387,86.6957419 91.3548387,85.6451613 C91.3548387,84.5945806 92.2093871,83.7419355 93.2580645,83.7419355 C94.3067419,83.7419355 95.1612903,84.5945806 95.1612903,85.6451613 C95.1612903,86.6957419 94.3067419,87.5483871 93.2580645,87.5483871 Z" id="Shape" fill="#FFF831" fill-rule="nonzero"></path>
                            </g>
                        </g>
                    </g>
                </g>
            </g>
        </g>
    </g>
</svg>