<?xml version="1.0" encoding="UTF-8"?>
<svg width="94px" height="114px" viewBox="0 0 94 114" version="1.1" xmlns="http://www.w3.org/2000/svg" xmlns:xlink="http://www.w3.org/1999/xlink">
    <!-- Generator: Sketch 55 (78076) - https://sketchapp.com -->
    <title>Pisces Constellation</title>
    <desc>Created with Sketch.</desc>
    <g id="TGP-DESKTOP-VERSION" stroke="none" stroke-width="1" fill="none" fill-rule="evenodd" opacity="0.80078125">
        <g id="Our-Process" transform="translate(-1243.000000, -296.000000)" fill="#3986B5">
            <g id="Pisces-Constellation" transform="translate(1275.531250, 358.234375) rotate(-138.000000) translate(-1275.531250, -358.234375) translate(1225.531250, 307.734375)">
                <g>
                    <path d="M88.0115298,70.3716042 L89.7175488,77.8755453 L96.6368849,74.5288641 C96.9798207,74.3618779 97.3937685,74.5062514 97.5600404,74.8523998 C97.6795483,75.1011396 97.6379803,75.3846682 97.4786364,75.5864432 L92.6896591,81.6170792 L99.6089952,84.9637603 C99.951931,85.1307465 100.097419,85.5447331 99.931147,85.8908815 C99.8116391,86.1378819 99.5656952,86.2839947 99.3093594,86.2839947 L99.3093594,86.2857342 L91.6296757,86.2857342 L93.3391588,93.8053302 C93.4222947,94.1793096 93.1884749,94.5498102 92.8160951,94.6350427 C92.5493672,94.6959231 92.2843714,94.5915567 92.1232955,94.3897818 L92.1232955,94.3897818 L87.3360502,88.3608852 L82.5488049,94.3897818 C82.3115211,94.6907048 81.8767893,94.7394091 81.5771535,94.5011059 C81.3519936,94.3219437 81.2688577,94.0297179 81.3416016,93.768802 L83.0424246,86.2857342 L75.362741,86.2857342 C74.9799692,86.2857342 74.6699414,85.9743746 74.6699414,85.5899585 C74.6699414,85.2959932 74.8518013,85.0437745 75.1081372,84.9428871 L81.9824412,81.6188186 L77.193464,75.5881826 C76.9561801,75.2872596 77.0046761,74.8506604 77.3043119,74.6123572 C77.5260078,74.4349344 77.8221796,74.41754 78.0559995,74.5410402 L84.9545515,77.8772847 L86.6623026,70.3594282 C86.7454385,69.9854487 87.1160863,69.7506244 87.4884661,69.8341175 C87.7621219,69.8967373 87.9613018,70.1124278 88.0132618,70.3716042 L88.0115298,70.3716042 Z M16.8921864,91.4344745 L17.9400458,90.5247477 L18.8458813,91.5771085 L17.7980218,92.4868352 L16.8921864,91.4344745 Z M15.0805154,89.3280135 L16.1283748,88.4182867 L17.0342103,89.4706475 L15.9863509,90.3803743 L15.0805154,89.3280135 Z M41.1505645,86.8284392 L40.7660608,85.4925499 L42.096236,85.1063944 L42.4807398,86.4422837 L41.1505645,86.8284392 Z M38.488482,87.6024897 L38.1039783,86.2666004 L39.4341535,85.8804448 L39.8186573,87.2163342 L38.488482,87.6024897 Z M77.229836,81.6536074 L77.165752,80.2637954 L78.5496192,80.1994362 L78.6137032,81.5892481 L77.229836,81.6536074 Z M60.6199654,82.4154818 L60.5558815,81.0256698 L61.9397487,80.9613106 L62.0038326,82.3511225 L60.6199654,82.4154818 Z M63.3876998,82.2885027 L63.3236159,80.8986907 L64.7074831,80.8343315 L64.7715671,82.2241435 L63.3876998,82.2885027 Z M66.1554343,82.1615237 L66.0913503,80.7717117 L67.4752175,80.7073524 L67.5393015,82.0971644 L66.1554343,82.1615237 Z M68.9231687,82.0345446 L68.8590847,80.6447326 L70.2429519,80.5803734 L70.3070359,81.9701853 L68.9231687,82.0345446 Z M71.6909031,81.9075655 L71.6268191,80.5177535 L73.0106864,80.4533943 L73.0747703,81.8432063 L71.6909031,81.9075655 Z M74.4586375,81.7805865 L74.3945536,80.3907745 L75.7784208,80.3264152 L75.8425047,81.7162272 L74.4586375,81.7805865 Z M48.3037205,41.3142711 L47.2004371,42.1544202 L46.3638816,41.0463974 L47.4671649,40.2062483 L48.3037205,41.3142711 Z M53.3282496,47.9658869 L52.2249662,48.806036 L51.3884107,47.6980132 L52.4916941,46.8578641 L53.3282496,47.9658869 Z M51.6534065,45.7481018 L50.5501232,46.588251 L49.7135676,45.4802281 L50.816851,44.640079 L51.6534065,45.7481018 Z M49.9785635,43.5303167 L48.8752801,44.3704659 L48.0387246,43.2624431 L49.142008,42.4222939 L49.9785635,43.5303167 Z M23.5673106,9.75562424 L24.8022259,15.1896325 L29.816363,12.7648542 C30.1592988,12.597868 30.5732466,12.7422415 30.7395185,13.0883899 C30.8590264,13.3371297 30.8174584,13.6206583 30.6581145,13.8224333 L27.1871885,18.1936442 L32.2013256,20.6184225 C32.5442614,20.7854087 32.6897494,21.1993953 32.5234775,21.5455437 C32.4039695,21.792544 32.1580257,21.9386569 31.9016898,21.9386569 L31.9016898,21.9403964 L26.336777,21.9403964 L27.5751563,27.3900596 C27.6582922,27.7640391 27.4244724,28.1345397 27.0520926,28.2197722 C26.7853647,28.2806526 26.5203689,28.1762862 26.359293,27.9745112 L26.359293,27.9745112 L22.8900989,23.6050398 L19.4209049,27.9745112 C19.1836211,28.2754342 18.7488893,28.3241385 18.4492535,28.0858354 C18.2240936,27.9066731 18.1409577,27.6144473 18.2137016,27.3535314 L19.4434209,21.9403964 L13.8785081,21.9403964 C13.4957363,21.9403964 13.1857085,21.6290368 13.1857085,21.2446207 C13.1857085,20.9506554 13.3675684,20.6984367 13.6239042,20.5975493 L18.5930094,18.1936442 L15.1220834,13.8224333 C14.8847995,13.5215103 14.9332955,13.084911 15.2329313,12.8466078 C15.4546272,12.669185 15.750799,12.6517906 15.9846189,12.7752908 L20.977972,15.1896325 L22.2163513,9.74170872 C22.2994873,9.36772928 22.6701351,9.13290497 23.0425149,9.21639806 C23.3161707,9.27901787 23.5153506,9.49470834 23.5673106,9.7538848 L23.5673106,9.75562424 Z M25.1174497,16.5777051 L25.2733296,17.266523 L25.9089732,17.5744038 L27.6877362,15.334006 L25.1174497,16.5777051 Z M24.2220062,18.8702861 L24.0765183,18.228433 L22.8900989,17.654418 L21.7036796,18.228433 L21.4109718,19.515618 L22.2302073,20.5471055 L23.5465266,20.5471055 L24.3657621,19.515618 L24.2185422,18.8702861 L24.2220062,18.8702861 Z M23.5257426,15.8071335 L22.8900989,13.0118546 L22.2544553,15.8071335 L22.8900989,16.1150142 L23.5257426,15.8071335 Z M25.8639412,19.860027 L26.0198212,20.5471055 L28.8706915,20.5471055 L26.303869,19.3051459 L25.8639412,19.8582876 L25.8639412,19.860027 Z M25.5539134,24.730457 L24.9200018,21.9386569 L24.2133462,21.9386569 L23.7751504,22.4900592 L25.5539134,24.730457 Z M22.0067794,22.4900592 L21.5685837,21.9386569 L20.8619281,21.9386569 L20.2280165,24.730457 L22.0067794,22.4900592 Z M19.9179886,19.860027 L19.4780609,19.3068853 L16.9112384,20.548845 L19.7621087,20.548845 L19.9179886,19.8617664 L19.9179886,19.860027 Z M18.0941937,15.3357454 L19.8729567,17.5761432 L20.5086003,17.2682625 L20.6644802,16.5794445 L18.0941937,15.3357454 Z M56.2224199,10.4461816 L54.1821251,12.368262 L54.7155808,15.1704987 C54.7865928,15.547957 54.5406489,15.9114998 54.1665371,15.9828169 C54.0019972,16.0141268 53.8391893,15.9845563 53.7023614,15.9097604 L51.2134788,14.5338639 L48.7921442,15.8732322 L49.9629755,18.3745459 L52.7809379,18.7311309 C53.1602457,18.7780958 53.4304375,19.1242442 53.3836736,19.5051814 C53.3611576,19.689562 53.2693616,19.8478509 53.1377297,19.9574356 L51.0974349,21.879516 L51.6308906,24.6817527 C51.7019025,25.059211 51.4559587,25.4227538 51.0818469,25.4940708 C50.917307,25.5253807 50.7544991,25.4958103 50.6176711,25.4210144 L48.1287886,24.0451179 L45.639906,25.4210144 C45.3056302,25.6053949 44.8847544,25.4818948 44.7011625,25.146183 C44.6197586,24.9983306 44.5989746,24.8348233 44.6284185,24.6817527 L45.1618742,21.879516 L43.1458274,19.9817878 L41.1367085,21.8742977 L41.6701642,24.6765344 C41.7411762,25.0539927 41.4952323,25.4175355 41.1211205,25.4888525 C40.9565806,25.5201624 40.7937727,25.490592 40.6569448,25.4157961 L38.1680622,24.0398996 L35.6791797,25.4157961 C35.3449038,25.6001766 34.9240281,25.4766764 34.7404362,25.1409647 C34.6590322,24.9931123 34.6382482,24.829605 34.6676922,24.6765344 L35.2011479,21.8742977 L33.1279451,19.9226468 C32.8490933,19.6599915 32.8369693,19.2199134 33.0985011,18.9416031 C33.2145451,18.8181029 33.363497,18.7467859 33.5176449,18.727652 L33.5176449,18.7259126 L36.3356073,18.3693275 L37.5099026,15.8593167 L35.095496,14.5251667 L32.6066134,15.9010632 C32.2723376,16.0854438 31.8514618,15.9619436 31.6678699,15.6262318 C31.586466,15.4783795 31.565682,15.3148722 31.595126,15.1618015 L32.1285817,12.3595648 L30.0553789,10.407914 C29.776527,10.1452586 29.764403,9.7051805 30.0259349,9.42687021 C30.1419788,9.30337002 30.2909307,9.23205301 30.4450786,9.21291918 L30.4450786,9.21117974 L33.263041,8.85459469 L34.4702443,6.27500624 C34.6313202,5.92885782 35.041804,5.77926604 35.3882038,5.9410339 C35.5406197,6.01235091 35.6549317,6.13237222 35.7207476,6.27500624 L36.9279509,8.85459469 L39.6714374,9.20074311 L40.1893051,6.48373895 L38.1161023,4.53208808 C37.8372504,4.26943275 37.8251264,3.82935461 38.0866583,3.55104433 C38.2027022,3.42754414 38.3516541,3.35622713 38.505802,3.3370933 L38.505802,3.33535386 L41.3237644,2.9787688 L42.5309677,0.399180354 C42.6920437,0.0530319375 43.1025274,-0.0965598405 43.4489272,0.0652080124 C43.6013431,0.136525023 43.7156551,0.256546333 43.781471,0.399180354 L44.9886743,2.9787688 L47.8066367,3.33535386 C48.1859445,3.38231872 48.4561364,3.72846713 48.4093724,4.10940434 C48.3868564,4.2937849 48.2950605,4.45207387 48.1634285,4.56165855 L46.1231337,6.48373895 L46.6427334,9.2094403 L49.3775598,8.86329189 L50.5847632,6.28370343 C50.7458391,5.93755502 51.1563228,5.78796324 51.5027226,5.94973109 C51.6551385,6.0210481 51.7694505,6.14106941 51.8352664,6.28370343 L53.0424697,8.86329189 L55.8604321,9.21987694 C56.2397399,9.2668418 56.5099318,9.61299021 56.4631678,9.99392742 C56.4406518,10.178308 56.3488559,10.336597 56.2172239,10.4461816 L56.2224199,10.4461816 Z M47.7373568,15.520126 C47.6992528,15.405323 47.6923248,15.2853017 47.7148408,15.1704987 L48.2482965,12.368262 L46.1750937,10.4166112 C46.0832977,10.3296392 46.0209458,10.2252728 45.9880378,10.1122093 C45.8667978,10.1122093 45.7524859,10.0826388 45.650298,10.0252373 L43.1614154,8.64934085 L40.6725328,10.0252373 C40.5634169,10.0861177 40.4439089,10.1139487 40.327865,10.1104698 C40.286297,10.2409278 40.2100891,10.3522519 40.1096331,10.435745 L38.0693383,12.3578254 L38.602794,15.1600621 C38.627042,15.2853017 38.614918,15.4070625 38.576814,15.520126 C38.6738059,15.591443 38.7500139,15.6836333 38.7985099,15.7897391 L40.0057132,18.3693275 L42.8236756,18.7259126 C42.9501115,18.7415675 43.0644234,18.7902718 43.1579514,18.8615889 C43.2549433,18.7902718 43.3675233,18.7467859 43.4818352,18.7328704 L43.4818352,18.7311309 L46.2997976,18.3745459 L47.5070009,15.7949574 C47.5606929,15.6801544 47.6403648,15.5879641 47.7373568,15.520126 Z M52.9576018,11.6168243 L54.2340851,10.4148717 L52.5003541,10.1957024 L52.5003541,10.1939629 C52.2717302,10.1661319 52.0638903,10.0234979 51.9582384,9.79911022 L51.2134788,8.20752328 L50.4929672,9.74692704 C50.4063673,9.98349078 50.1933314,10.1643925 49.9266035,10.1957024 L48.1928725,10.4148717 L49.4485718,11.5976904 C49.6286997,11.75424 49.7222276,12.0012403 49.6754637,12.253459 L49.3463839,13.9789828 L50.872275,13.1353548 C51.0731869,13.0222912 51.3277907,13.0118546 51.5442906,13.1318759 L53.0771097,13.9789828 L52.7480299,12.253459 L52.7480299,12.253459 C52.7047299,12.0273319 52.7740099,11.7855499 52.9541378,11.6168243 L52.9576018,11.6168243 Z M48.4647964,22.6413904 L49.9976155,23.4884973 L49.6685357,21.7629736 L49.6685357,21.7629736 C49.6252357,21.5368465 49.6945157,21.2950644 49.8746436,21.1263388 L51.1511268,19.9243863 L49.4173958,19.7052169 L49.4173958,19.7034775 C49.1887719,19.6756464 48.9809321,19.5330124 48.8752801,19.3086248 L48.1305205,17.7170378 L47.410009,19.2564416 C47.323409,19.4930053 47.1103731,19.673907 46.8436453,19.7052169 L45.1099143,19.9243863 L46.3656136,21.107205 C46.5457415,21.2637545 46.6392694,21.5107549 46.5925054,21.7629736 L46.2634256,23.4884973 L47.7893167,22.6448693 C47.9902286,22.5318057 48.2448325,22.5213691 48.4613324,22.6413904 L48.4647964,22.6413904 Z M36.6369751,21.7577553 L36.3078953,23.483279 L37.8337864,22.639651 C38.0346983,22.5265874 38.2893022,22.5161508 38.505802,22.6361721 L40.0386212,23.483279 L39.7095414,21.7577553 L39.7095414,21.7577553 C39.6662414,21.5316282 39.7355213,21.2898461 39.9156492,21.1211205 L41.1921325,19.9191679 L39.4584015,19.6999986 L39.4584015,19.6982592 C39.2297776,19.6704281 39.0219377,19.5277941 38.9162858,19.3034064 L38.1715262,17.7118195 L37.4510146,19.2512233 C37.3644147,19.487787 37.1513788,19.6686887 36.884651,19.6999986 L35.15092,19.9191679 L36.4066192,21.1019867 C36.5867471,21.2585362 36.6802751,21.5055366 36.6335111,21.7577553 L36.6369751,21.7577553 Z M33.8155487,10.1870052 L32.0818177,10.4061745 L33.337517,11.5889932 C33.5176449,11.7455428 33.6111728,11.9925431 33.5644089,12.2447618 L33.235329,13.9702856 L34.7612202,13.1266576 C34.9621321,13.013594 35.2167359,13.0031574 35.4332358,13.1231787 L36.9660549,13.9702856 L36.6369751,12.2447618 L36.6369751,12.2447618 C36.5936751,12.0186347 36.6629551,11.7768527 36.843083,11.6081271 L38.1195663,10.4061745 L36.3858352,10.1870052 L36.3858352,10.1852657 C36.1572114,10.1574347 35.9493715,10.0148007 35.8437196,9.79041302 L35.09896,8.19882608 L34.3784484,9.73822984 C34.2918484,9.97479358 34.0788126,10.1556953 33.8120847,10.1870052 L33.8155487,10.1870052 Z M43.906175,3.91632658 L43.1614154,2.32473964 L42.4409038,3.8641434 C42.3543038,4.10070714 42.141268,4.28160882 41.8745401,4.31291873 L40.1408091,4.53208808 L41.3965084,5.71490679 C41.5766363,5.87145633 41.6701642,6.1184567 41.6234003,6.3706754 L41.2943204,8.09619916 L42.8202116,7.25257111 C43.0211235,7.13950756 43.2757273,7.12907092 43.4922272,7.24909223 L45.0250463,8.09619916 L44.6959665,6.3706754 L44.6959665,6.3706754 C44.6526665,6.14454829 44.7219465,5.90276623 44.9020744,5.73404062 L46.1785577,4.53208808 L44.4448267,4.31291873 L44.4448267,4.31117929 C44.2162028,4.28334826 44.0083629,4.14071424 43.902711,3.91632658 L43.906175,3.91632658 Z M44.3270507,29.5800137 L45.534254,32.1596021 L48.3522164,32.5161872 C48.7315242,32.5631521 49.0017161,32.9093005 48.9549521,33.2902377 C48.9324361,33.4746182 48.8406401,33.6329072 48.7090082,33.7424919 L46.6687134,35.6645723 L47.2021691,38.466809 C47.273181,38.8442673 47.0272372,39.2078101 46.6531254,39.2791271 C46.4885855,39.310437 46.3257776,39.2808666 46.1889497,39.2060707 L43.7000671,37.8301742 L41.2111845,39.2060707 C40.8769087,39.3904512 40.4560329,39.266951 40.272441,38.9312393 C40.1910371,38.7833869 40.1702531,38.6198796 40.1996971,38.466809 L40.7331528,35.6645723 L38.65995,33.7129214 C38.3810981,33.4502661 38.3689741,33.010188 38.630506,32.7318777 C38.7465499,32.6083775 38.8955018,32.5370605 39.0496497,32.5179266 L39.0496497,32.5161872 L41.8676121,32.1596021 L43.0748154,29.5800137 C43.2358913,29.2338653 43.6463751,29.0842735 43.9927749,29.2460414 C44.1451908,29.3173584 44.2595028,29.4373797 44.3253187,29.5800137 L44.3270507,29.5800137 Z M44.4465587,33.0954205 L43.7017991,31.5038335 L42.9812875,33.0432373 C42.8946875,33.279801 42.6816517,33.4607027 42.4149238,33.4920126 L40.6811928,33.711182 L41.9368921,34.8940007 C42.11702,35.0505502 42.2105479,35.2975506 42.163784,35.5497693 L41.8347041,37.2752931 L43.3605953,36.431665 C43.5615072,36.3186015 43.816111,36.3081648 44.0326109,36.4281861 L45.56543,37.2752931 L45.2363502,35.5497693 L45.2363502,35.5497693 C45.1930502,35.3236422 45.2623302,35.0818601 45.4424581,34.9131345 L46.7189414,33.711182 L44.9852103,33.4920126 L44.9852103,33.4902732 C44.7565865,33.4624422 44.5487466,33.3198081 44.4430947,33.0954205 L44.4465587,33.0954205 Z M56.4250638,47.2527168 L57.6322671,49.8323052 L60.4502295,50.1888903 C60.8295373,50.2358551 61.0997292,50.5820036 61.0529652,50.9629408 C61.0304492,51.1473213 60.9386532,51.3056103 60.8070213,51.415195 L58.7667265,53.3372754 L59.3001822,56.139512 C59.3711941,56.5169704 59.1252503,56.8805132 58.7511385,56.9518302 C58.5865986,56.9831401 58.4237907,56.9535696 58.2869628,56.8787737 L55.7980802,55.5028773 L53.3091976,56.8787737 C52.9749218,57.0631543 52.554046,56.9396541 52.3704541,56.6039423 C52.2890502,56.45609 52.2682662,56.2925827 52.2977102,56.139512 L52.8311659,53.3372754 L50.7579631,51.3856245 C50.4791112,51.1229692 50.4669872,50.682891 50.7285191,50.4045807 C50.844563,50.2810806 50.9935149,50.2097635 51.1476628,50.1906297 L51.1476628,50.1888903 L53.9656252,49.8323052 L55.1728285,47.2527168 C55.3339044,46.9065684 55.7443882,46.7569766 56.090788,46.9187444 C56.2432039,46.9900614 56.3575159,47.1100827 56.4233318,47.2527168 L56.4250638,47.2527168 Z M56.5445718,50.7681236 L55.7998122,49.1765366 L55.0793006,50.7159404 C54.9927006,50.9525041 54.7796648,51.1334058 54.5129369,51.1647157 L52.7792059,51.3838851 L54.0349052,52.5667038 C54.2150331,52.7232533 54.308561,52.9702537 54.2617971,53.2224724 L53.9327172,54.9479961 L55.4586084,54.1043681 C55.6595203,53.9913045 55.9141241,53.9808679 56.130624,54.1008892 L57.6634431,54.9479961 L57.3343633,53.2224724 L57.3343633,53.2224724 C57.2910633,52.9963453 57.3603433,52.7545632 57.5404712,52.5858376 L58.8169545,51.3838851 L57.0832234,51.1647157 L57.0832234,51.1629763 C56.8545996,51.1351452 56.6467597,50.9925112 56.5411078,50.7681236 L56.5445718,50.7681236 Z M63.3911638,57.9293951 L64.5983672,60.5089835 L67.4163296,60.8655686 C67.7956373,60.9125334 68.0658292,61.2586818 68.0190652,61.639619 C67.9965492,61.8239996 67.9047533,61.9822886 67.7731213,62.0918733 L65.7328265,64.0139537 L66.2662822,66.8161903 C66.3372942,67.1936487 66.0913503,67.5571915 65.7172385,67.6285085 C65.5526986,67.6598184 65.3898907,67.6302479 65.2530628,67.555452 L62.7641802,66.1795556 L60.2752976,67.555452 C59.9410218,67.7398326 59.5201461,67.6163324 59.3365542,67.2806206 C59.2551502,67.1327683 59.2343662,66.969261 59.2638102,66.8161903 L59.7972659,64.0139537 L57.7240631,62.0623028 C57.4452112,61.7996475 57.4330872,61.3595693 57.6946191,61.081259 C57.810663,60.9577588 57.9596149,60.8864418 58.1137629,60.867308 L58.1137629,60.8655686 L60.9317252,60.5089835 L62.1389286,57.9293951 C62.3000045,57.5832466 62.7104882,57.4336549 63.056888,57.5954227 C63.209304,57.6667397 63.3236159,57.786761 63.3894318,57.9293951 L63.3911638,57.9293951 Z M63.5106718,61.4448018 L62.7659122,59.8532149 L62.0454006,61.3926187 C61.9588007,61.6291824 61.7457648,61.8100841 61.4790369,61.841394 L59.7453059,62.0605634 L61.0010052,63.2433821 C61.1811331,63.3999316 61.2746611,63.646932 61.2278971,63.8991507 L60.8988173,65.6246744 L62.4247084,64.7810464 C62.6256203,64.6679828 62.8802241,64.6575462 63.096724,64.7775675 L64.6295431,65.6246744 L64.3004633,63.8991507 L64.3004633,63.8991507 C64.2571634,63.6730236 64.3264433,63.4312415 64.5065712,63.2625159 L65.7830545,62.0605634 L64.0493235,61.841394 L64.0493235,61.8396546 C63.8206996,61.8118235 63.6128597,61.6691895 63.5072078,61.4448018 L63.5106718,61.4448018 Z M73.0193464,66.4369926 L74.2265497,69.016581 L77.0445121,69.3731661 C77.4238198,69.4201309 77.6940117,69.7662794 77.6472477,70.1472166 C77.6247317,70.3315971 77.5329358,70.4898861 77.4013039,70.5994708 L75.361009,72.5215512 L75.8944647,75.3237879 C75.9654767,75.7012462 75.7195328,76.064789 75.345421,76.136106 C75.1808811,76.1674159 75.0180732,76.1378454 74.8812453,76.0630495 L72.3923627,74.6871531 L69.9034801,76.0630495 C69.5692043,76.2474301 69.1483286,76.1239299 68.9647367,75.7882181 C68.8833327,75.6403658 68.8625487,75.4768585 68.8919927,75.3237879 L69.4254484,72.5215512 L67.3522456,70.5699003 C67.0733937,70.307245 67.0612698,69.8671668 67.3228016,69.5888566 C67.4388455,69.4653564 67.5877975,69.3940394 67.7419454,69.3749055 L67.7419454,69.3731661 L70.5599078,69.016581 L71.7671111,66.4369926 C71.928187,66.0908442 72.3386707,65.9412524 72.6850705,66.1030202 C72.8374865,66.1743372 72.9517984,66.2943586 73.0176144,66.4369926 L73.0193464,66.4369926 Z M73.1388543,69.9523994 L72.3940947,68.3608124 L71.6735831,69.9002162 C71.5869832,70.1367799 71.3739473,70.3176816 71.1072194,70.3489915 L69.3734884,70.5681609 L70.6291877,71.7509796 C70.8093156,71.9075291 70.9028436,72.1545295 70.8560796,72.4067482 L70.5269998,74.1322719 L72.0528909,73.2886439 C72.2538028,73.1755803 72.5084066,73.1651437 72.7249065,73.285165 L74.2577256,74.1322719 L73.9286458,72.4067482 L73.9286458,72.4067482 C73.8853459,72.1806211 73.9546258,71.938839 74.1347537,71.7701134 L75.411237,70.5681609 L73.677506,70.3489915 L73.677506,70.3472521 C73.4488821,70.319421 73.2410422,70.176787 73.1353903,69.9523994 L73.1388543,69.9523994 Z M32.7850093,83.9253151 L33.9922126,86.5049035 L36.810175,86.8614886 C37.1894828,86.9084535 37.4596746,87.2546019 37.4129107,87.6355391 C37.3903947,87.8199196 37.2985987,87.9782086 37.1669668,88.0877933 L35.126672,90.0098737 L35.6601277,92.8121104 C35.7311396,93.1895687 35.4851958,93.5531115 35.111084,93.6244285 C34.9465441,93.6557384 34.7837362,93.6261679 34.6469082,93.5513721 L32.1580257,92.1754756 L29.6691431,93.5513721 C29.3348673,93.7357526 28.9139915,93.6122524 28.7303996,93.2765407 C28.6489957,93.1286883 28.6282117,92.965181 28.6576557,92.8121104 L29.1911114,90.0098737 L27.1179085,88.0582228 C26.8390567,87.7955675 26.8269327,87.3554893 27.0884646,87.0771791 C27.2045085,86.9536789 27.3534604,86.8823619 27.5076083,86.863228 L27.5076083,86.8614886 L30.3255707,86.5049035 L31.532774,83.9253151 C31.6938499,83.5791667 32.1043337,83.4295749 32.4507335,83.5913427 C32.6031494,83.6626598 32.7174613,83.7826811 32.7832773,83.9253151 L32.7850093,83.9253151 Z M32.9045172,87.4407219 L32.1597577,85.8491349 L31.4392461,87.3885387 C31.3526461,87.6251024 31.1396102,87.8060041 30.8728824,87.837314 L29.1391514,88.0564834 L30.3948507,89.2393021 C30.5749786,89.3958516 30.6685065,89.642852 30.6217425,89.8950707 L30.2926627,91.6205945 L31.8185539,90.7769664 C32.0194657,90.6639029 32.2740696,90.6534662 32.4905695,90.7734875 L34.0233886,91.6205945 L33.6943088,89.8950707 L33.6943088,89.8950707 C33.6510088,89.6689436 33.7202888,89.4271615 33.9004167,89.2584359 L35.1768999,88.0564834 L33.4431689,87.837314 L33.4431689,87.8355746 C33.2145451,87.8077436 33.0067052,87.6651095 32.9010532,87.4407219 L32.9045172,87.4407219 Z M22.7030431,91.2883616 L23.9102464,93.86795 L26.7282088,94.2245351 C27.1075165,94.2714999 27.3777084,94.6176483 27.3309444,94.9985855 C27.3084284,95.1829661 27.2166325,95.3412551 27.0850006,95.4508397 L25.0447057,97.3729202 L25.5781614,100.175157 C25.6491734,100.552615 25.4032295,100.916158 25.0291177,100.987475 C24.8645778,101.018785 24.7017699,100.989214 24.564942,100.914419 L22.0760594,99.5385221 L19.5871768,100.914419 C19.252901,101.098799 18.8320253,100.975299 18.6484334,100.639587 C18.5670294,100.491735 18.5462454,100.328227 18.5756894,100.175157 L19.1091451,97.3729202 L17.0359423,95.4212693 C16.7570904,95.158614 16.7449664,94.7185358 17.0064983,94.4402255 C17.1225422,94.3167253 17.2714941,94.2454083 17.4256421,94.2262745 L17.4256421,94.2245351 L20.2436045,93.86795 L21.4508078,91.2883616 C21.6118837,90.9422131 22.0223674,90.7926214 22.3687672,90.9543892 C22.5211832,91.0257062 22.6354951,91.1457275 22.7013111,91.2883616 L22.7030431,91.2883616 Z M22.822551,94.8037683 L22.0777914,93.2121814 L21.3572798,94.7515852 C21.2706799,94.9881489 21.057644,95.1690506 20.7909161,95.2003605 L19.0571851,95.4195298 L20.3128844,96.6023486 C20.4930123,96.7588981 20.5865403,97.0058985 20.5397763,97.2581172 L20.2106965,98.9836409 L21.7365876,98.1400129 C21.9374995,98.0269493 22.1921033,98.0165127 22.4086032,98.136534 L23.9414223,98.9836409 L23.6123425,97.2581172 L23.6123425,97.2581172 C23.5690426,97.0319901 23.6383225,96.790208 23.8184504,96.6214824 L25.0949337,95.4195298 L23.3612027,95.2003605 L23.3612027,95.1986211 C23.1325788,95.17079 22.9247389,95.028156 22.819087,94.8037683 L22.822551,94.8037683 Z M10.3816021,74.0609549 L11.6165174,79.4949632 L16.6306545,77.0701849 C16.9735903,76.9031987 17.3875381,77.0475722 17.55381,77.3937206 C17.6733179,77.6424604 17.6317499,77.925989 17.472406,78.127764 L14.00148,82.4989749 L19.0156172,84.9237532 C19.358553,85.0907394 19.5040409,85.504726 19.337769,85.8508744 C19.218261,86.0978747 18.9723172,86.2439876 18.7159813,86.2439876 L18.7159813,86.2457271 L13.1510685,86.2457271 L14.3894478,91.6953903 C14.4725837,92.0693698 14.2387639,92.4398704 13.8663841,92.5251029 C13.5996562,92.5859833 13.3346604,92.4816169 13.1735845,92.2798419 L13.1735845,92.2798419 L9.70439047,87.9103705 L6.23519644,92.2798419 C5.99791258,92.5807649 5.56318083,92.6294692 5.263545,92.3911661 C5.03838513,92.2120038 4.95524917,91.919778 5.02799313,91.6588621 L6.25771243,86.2457271 L0.692799605,86.2457271 C0.310027823,86.2457271 0,85.9343675 0,85.5499514 C0,85.2559861 0.181859896,85.0037674 0.43819575,84.90288 L5.40730092,82.4989749 L1.9363749,78.127764 C1.69909103,77.826841 1.747587,77.3902417 2.04722283,77.1519385 C2.26891871,76.9745157 2.56509054,76.9571213 2.7989104,77.0806215 L7.79226356,79.4949632 L9.03064285,74.0470394 C9.1137788,73.67306 9.48442659,73.4382357 9.85680638,73.5217288 C10.1304622,73.5843486 10.3296421,73.800039 10.3816021,74.0592155 L10.3816021,74.0609549 Z M11.9317412,80.8830358 L12.0876211,81.5718537 L12.7232647,81.8797345 L14.5020277,79.6393367 L11.9317412,80.8830358 Z M11.0362977,83.1756168 L10.8908098,82.5337637 L9.70439047,81.9597487 L8.51797114,82.5337637 L8.22526331,83.8209487 L9.04449884,84.8524362 L10.3608181,84.8524362 L11.1800536,83.8209487 L11.0328337,83.1756168 L11.0362977,83.1756168 Z M10.3400341,80.1124642 L9.70439047,77.3171853 L9.06874683,80.1124642 L9.70439047,80.4203449 L10.3400341,80.1124642 Z M12.6782328,84.1653577 L12.8341127,84.8524362 L15.6849831,84.8524362 L13.1181605,83.6104766 L12.6782328,84.1636183 L12.6782328,84.1653577 Z M12.3682049,89.0357877 L11.7342933,86.2439876 L11.0276377,86.2439876 L10.589442,86.7953899 L12.3682049,89.0357877 Z M8.82107097,86.7953899 L8.38287522,86.2439876 L7.67621962,86.2439876 L7.04230798,89.0357877 L8.82107097,86.7953899 Z M6.73228016,84.1653577 L6.29235241,83.612216 L3.72552988,84.8541757 L6.57640025,84.8541757 L6.73228016,84.1670971 L6.73228016,84.1653577 Z M4.9084852,79.6410761 L6.68724819,81.8814739 L7.32289182,81.5735932 L7.47877173,80.8847752 L4.9084852,79.6410761 Z M53.8720973,74.0609549 L55.1070126,79.4949632 L60.1211497,77.0701849 C60.4640855,76.9031987 60.8780333,77.0475722 61.0443052,77.3937206 C61.1638131,77.6424604 61.1222451,77.925989 60.9629012,78.127764 L57.4919752,82.4989749 L62.5061124,84.9237532 C62.8490482,85.0907394 62.9945361,85.504726 62.8282642,85.8508744 C62.7087562,86.0978747 62.4628124,86.2439876 62.2064765,86.2439876 L62.2064765,86.2457271 L56.6415637,86.2457271 L57.879943,91.6953903 C57.9630789,92.0693698 57.7292591,92.4398704 57.3568793,92.5251029 C57.0901514,92.5859833 56.8251556,92.4816169 56.6640797,92.2798419 L56.6640797,92.2798419 L53.1948857,87.9103705 L49.7256916,92.2798419 C49.4884078,92.5807649 49.053676,92.6294692 48.7540402,92.3911661 C48.5288803,92.2120038 48.4457444,91.919778 48.5184883,91.6588621 L49.7482076,86.2457271 L44.1832948,86.2457271 C43.800523,86.2457271 43.4904952,85.9343675 43.4904952,85.5499514 C43.4904952,85.2559861 43.6723551,85.0037674 43.9286909,84.90288 L48.8977961,82.4989749 L45.4268701,78.127764 C45.1895862,77.826841 45.2380822,77.3902417 45.537718,77.1519385 C45.7594139,76.9745157 46.0555857,76.9571213 46.2894056,77.0806215 L51.2827588,79.4949632 L52.521138,74.0470394 C52.604274,73.67306 52.9749218,73.4382357 53.3473016,73.5217288 C53.6209574,73.5843486 53.8201373,73.800039 53.8720973,74.0592155 L53.8720973,74.0609549 Z M55.4222364,80.8830358 L55.5781163,81.5718537 L56.2137599,81.8797345 L57.9925229,79.6393367 L55.4222364,80.8830358 Z M54.5267929,83.1756168 L54.381305,82.5337637 L53.1948857,81.9597487 L52.0084663,82.5337637 L51.7157585,83.8209487 L52.534994,84.8524362 L53.8513133,84.8524362 L54.6705488,83.8209487 L54.5233289,83.1756168 L54.5267929,83.1756168 Z M53.8305293,80.1124642 L53.1948857,77.3171853 L52.559242,80.1124642 L53.1948857,80.4203449 L53.8305293,80.1124642 Z M56.168728,84.1653577 L56.3246079,84.8524362 L59.1754783,84.8524362 L56.6086557,83.6104766 L56.168728,84.1636183 L56.168728,84.1653577 Z M55.8587001,89.0357877 L55.2247885,86.2439876 L54.5181329,86.2439876 L54.0799372,86.7953899 L55.8587001,89.0357877 Z M52.3115662,86.7953899 L51.8733704,86.2439876 L51.1667148,86.2439876 L50.5328032,89.0357877 L52.3115662,86.7953899 Z M50.2227754,84.1653577 L49.7828476,83.612216 L47.2160251,84.8541757 L50.0668954,84.8541757 L50.2227754,84.1670971 L50.2227754,84.1653577 Z M48.3989804,79.6410761 L50.1777434,81.8814739 L50.813387,81.5735932 L50.9692669,80.8847752 L48.3989804,79.6410761 Z M90.0345047,79.2636178 L90.3081605,80.4638309 L91.4131759,80.9978388 L94.5099901,77.0980159 L90.0345047,79.2618784 L90.0345047,79.2636178 Z M89.3278491,82.3859113 L89.1096172,81.4257408 L87.3377822,80.5681973 L85.5659472,81.4257408 L85.1277514,83.3495607 L86.3540068,84.8924433 L88.3215576,84.8924433 L89.5478129,83.3495607 L89.3278491,82.3859113 Z M88.4427976,78.4930462 L87.3377822,73.6278346 L86.2327668,78.4930462 L87.3377822,79.0270541 L88.4427976,78.4930462 Z M91.0425281,83.6939697 L91.3144519,84.8924433 L96.2783611,84.8924433 L91.8063396,82.7303203 L91.0407961,83.6939697 L91.0425281,83.6939697 Z M91.3196479,91.1457275 L90.2146325,86.2839947 L88.9866452,86.2839947 L88.2228337,87.2459047 L91.3196479,91.1457275 Z M86.4544627,87.2459047 L85.6906511,86.2839947 L84.4626638,86.2839947 L83.3576485,91.1457275 L86.4544627,87.2459047 Z M83.6347683,83.6939697 L82.8692247,82.7303203 L78.3972033,84.8924433 L83.3611125,84.8924433 L83.6330363,83.6939697 L83.6347683,83.6939697 Z M80.1673063,77.0980159 L83.2641205,80.9978388 L84.3691359,80.4638309 L84.6427917,79.2636178 L80.1673063,77.0997554 L80.1673063,77.0980159 Z" fill-rule="nonzero"></path>
                </g>
            </g>
        </g>
    </g>
</svg>