<?xml version="1.0" encoding="UTF-8"?>
<svg width="68px" height="102px" viewBox="0 0 68 102" version="1.1" xmlns="http://www.w3.org/2000/svg" xmlns:xlink="http://www.w3.org/1999/xlink">
    <!-- Generator: Sketch 54.1 (76490) - https://sketchapp.com -->
    <title>Quantity - Results Screen</title>
    <desc>Created with Sketch.</desc>
    <g id="TGP-DESKTOP-VERSION" stroke="none" stroke-width="1" fill="none" fill-rule="evenodd">
        <g id="Our-Process" transform="translate(-427.000000, -707.000000)">
            <g id="QUANTIFY" transform="translate(176.000000, 306.000000)">
                <g id="Group-3">
                    <g id="Group-4">
                        <g id="Quantity---Results-Screen" transform="translate(251.000000, 401.000000)">
                            <g>
                                <path d="M29.9432793,6.18102896 L38.438991,6.18102896 C39.1471712,6.18102896 39.7218018,5.67754002 39.7218018,5.05967035 C39.7218018,4.44286966 39.1471712,3.93938072 38.438991,3.93938072 L29.9432793,3.93938072 C29.2350991,3.93938072 28.6592432,4.44286966 28.6592432,5.05967035 C28.6604685,5.67860899 29.2350991,6.18102896 29.9432793,6.18102896 Z" id="Path"></path>
                                <path d="M18.8035315,15.6553868 C15.2748829,15.6553868 12.4127568,18.152521 12.4127568,21.2311795 L18.8035315,21.2311795 L18.8035315,15.6553868 Z" id="Path"></path>
                                <ellipse id="Oval" cx="34.1899099" cy="95.2419169" rx="3.67322523" ry="3.20479802"></ellipse>
                                <path d="M7.43344144,88.7521475 L60.9451532,88.7521475 L60.9451532,9.9459718 L7.43344144,9.9459718 L7.43344144,88.7521475 Z M12.4666667,64.7963357 C12.1713874,64.7963357 11.9312432,64.5868159 11.9312432,64.3281231 L11.9312432,59.0772999 C11.9312432,58.8196761 12.1713874,58.6090873 12.4666667,58.6090873 L14.6108108,58.6090873 C14.9060901,58.6090873 15.145009,58.8186071 15.145009,59.0772999 L15.145009,64.3281231 C15.145009,64.585747 14.9060901,64.7963357 14.6108108,64.7963357 L12.4666667,64.7963357 Z M19.2727928,81.6103011 L19.2727928,83.1410785 L17.5881081,83.1410785 L17.5881081,81.7300267 C16.4474234,81.6861986 15.3422703,81.4018502 14.6941261,81.0907774 L15.205045,79.3536871 C15.9193514,79.6936223 16.924036,80.0068331 18.0291892,80.0068331 C19.0191712,80.0068331 19.6832432,79.6647599 19.6832432,79.0864425 C19.6832432,78.5209527 19.1392432,78.1639139 17.8625586,77.7940473 C16.0394234,77.2595579 14.797045,76.5155488 14.797045,75.0745655 C14.797045,73.7543769 15.8544144,72.7270884 17.6750991,72.4309813 L17.6750991,71.0199295 L19.3438559,71.0199295 L19.3438559,72.3272904 C20.4661622,72.3550838 21.2331532,72.5795694 21.8286126,72.8179516 L21.3189189,74.4951791 C20.8925405,74.3177287 20.0936937,73.9756555 18.866018,73.9756555 C17.7596396,73.9756555 17.4018739,74.4053849 17.4018739,74.8233556 C17.4018739,75.2969131 17.9985586,75.6250896 19.4639279,76.0847504 C21.488,76.7101029 22.2892973,77.5278716 22.2892973,78.8769226 C22.2868468,80.1981803 21.2319279,81.3270217 19.2727928,81.6103011 Z M17.4129009,64.3291921 L17.4129009,56.1108841 C17.4129009,55.8521913 17.653045,55.6426715 17.9495495,55.6426715 L20.0924685,55.6426715 C20.3877477,55.6426715 20.6278919,55.8511223 20.6278919,56.1108841 L20.6278919,64.3291921 C20.6278919,64.5868159 20.3877477,64.7974047 20.0924685,64.7974047 L17.9495495,64.7974047 C17.653045,64.7963357 17.4129009,64.5868159 17.4129009,64.3291921 Z M26.1095495,64.3291921 C26.1095495,64.5868159 25.8694054,64.7974047 25.5741261,64.7974047 L23.429982,64.7974047 C23.1334775,64.7974047 22.8933333,64.5878849 22.8933333,64.3291921 L22.8933333,53.1423304 C22.8933333,52.8847066 23.1334775,52.6741178 23.429982,52.6741178 L25.5741261,52.6741178 C25.8681802,52.6741178 26.1095495,52.8836376 26.1095495,53.1423304 L26.1095495,64.3291921 Z M32.0616937,14.8974809 L55.7857297,14.8974809 C56.4461261,14.8974809 56.9803243,15.3635556 56.9803243,15.9397351 C56.9803243,16.5148457 56.4461261,16.9819893 55.7857297,16.9819893 L32.0616937,16.9819893 C31.4025225,16.9819893 30.8670991,16.5148457 30.8670991,15.9397351 C30.8683243,15.3624867 31.4025225,14.8974809 32.0616937,14.8974809 Z M32.0616937,20.1878563 L55.7857297,20.1878563 C56.4461261,20.1878563 56.9803243,20.655 56.9803243,21.2301105 C56.9803243,21.80629 56.4461261,22.2723647 55.7857297,22.2723647 L32.0616937,22.2723647 C31.4025225,22.2723647 30.8670991,21.80629 30.8670991,21.2301105 C30.8683243,20.653931 31.4025225,20.1878563 32.0616937,20.1878563 Z M32.0616937,25.4782317 L55.7857297,25.4782317 C56.4461261,25.4782317 56.9803243,25.9464444 56.9803243,26.5204859 C56.9803243,27.0966654 56.4461261,27.5638091 55.7857297,27.5638091 L32.0616937,27.5638091 C31.4025225,27.5638091 30.8670991,27.0966654 30.8670991,26.5204859 C30.8683243,25.9464444 31.4025225,25.4782317 32.0616937,25.4782317 Z M32.0616937,33.7040225 L55.7857297,33.7040225 C56.4461261,33.7040225 56.9803243,34.1711662 56.9803243,34.7462767 C56.9803243,35.3224562 56.4461261,35.7885309 55.7857297,35.7885309 L32.0616937,35.7885309 C31.4025225,35.7885309 30.8670991,35.3224562 30.8670991,34.7462767 C30.8683243,34.1711662 31.4025225,33.7040225 32.0616937,33.7040225 Z M32.0616937,38.9954668 L55.7857297,38.9954668 C56.4461261,38.9954668 56.9803243,39.4636795 56.9803243,40.037721 C56.9803243,40.6139005 56.4461261,41.0810442 55.7857297,41.0810442 L32.0616937,41.0810442 C31.4025225,41.0810442 30.8670991,40.6139005 30.8670991,40.037721 C30.8683243,39.4626105 31.4025225,38.9954668 32.0616937,38.9954668 Z M32.0616937,44.2869112 L55.7857297,44.2869112 C56.4461261,44.2869112 56.9803243,44.7540549 56.9803243,45.3291654 C56.9803243,45.9042759 56.4461261,46.3724886 55.7857297,46.3724886 L32.0616937,46.3724886 C31.4025225,46.3724886 30.8670991,45.9042759 30.8670991,45.3291654 C30.8670991,44.7540549 31.4025225,44.2869112 32.0616937,44.2869112 Z M32.0616937,52.2176639 L55.7857297,52.2176639 C56.4461261,52.2176639 56.9803243,52.6837386 56.9803243,53.2599181 C56.9803243,53.8350286 56.4461261,54.3021723 55.7857297,54.3021723 L32.0616937,54.3021723 C31.4025225,54.3021723 30.8670991,53.8350286 30.8670991,53.2599181 C30.8683243,52.6826696 31.4025225,52.2176639 32.0616937,52.2176639 Z M32.0616937,57.5080393 L55.7857297,57.5080393 C56.4461261,57.5080393 56.9803243,57.9751829 56.9803243,58.5502934 C56.9803243,59.1264729 56.4461261,59.5925476 55.7857297,59.5925476 L32.0616937,59.5925476 C31.4025225,59.5925476 30.8670991,59.1264729 30.8670991,58.5502934 C30.8683243,57.9741139 31.4025225,57.5080393 32.0616937,57.5080393 Z M32.0616937,62.7984146 L55.7857297,62.7984146 C56.4461261,62.7984146 56.9803243,63.2666273 56.9803243,63.8406688 C56.9803243,64.4168483 56.4461261,64.883992 55.7857297,64.883992 L32.0616937,64.883992 C31.4025225,64.883992 30.8670991,64.4168483 30.8670991,63.8406688 C30.8683243,63.2666273 31.4025225,62.7984146 32.0616937,62.7984146 Z M32.0616937,71.245484 L55.7857297,71.245484 C56.4461261,71.245484 56.9803243,71.7136966 56.9803243,72.2877382 C56.9803243,72.8639177 56.4461261,73.3310614 55.7857297,73.3310614 L32.0616937,73.3310614 C31.4025225,73.3310614 30.8670991,72.8639177 30.8670991,72.2877382 C30.8683243,71.7136966 31.4025225,71.245484 32.0616937,71.245484 Z M32.0616937,76.5379973 L55.7857297,76.5379973 C56.4461261,76.5379973 56.9803243,77.005141 56.9803243,77.5802515 C56.9803243,78.155362 56.4461261,78.6235747 55.7857297,78.6235747 L32.0616937,78.6235747 C31.4025225,78.6235747 30.8670991,78.155362 30.8670991,77.5802515 C30.8670991,77.005141 31.4025225,76.5379973 32.0616937,76.5379973 Z M32.0616937,81.8294417 L55.7857297,81.8294417 C56.4461261,81.8294417 56.9803243,82.2955164 56.9803243,82.8716959 C56.9803243,83.4468064 56.4461261,83.9139501 55.7857297,83.9139501 L32.0616937,83.9139501 C31.4025225,83.9139501 30.8670991,83.4468064 30.8670991,82.8716959 C30.8683243,82.2944474 31.4025225,81.8294417 32.0616937,81.8294417 Z M18.8035315,15.1690015 C22.6397117,15.1690015 25.7505586,17.8831383 25.7505586,21.2301105 C25.7505586,24.5781517 22.6397117,27.2922885 18.8035315,27.2922885 C14.9673514,27.2922885 11.8565045,24.5781517 11.8565045,21.2301105 C11.8565045,17.8842073 14.9673514,15.1690015 18.8035315,15.1690015 Z M12.7901261,41.94371 C12.9445045,41.94371 13.0866306,41.9800553 13.2250811,42.0196075 L15.1866667,40.3092416 C15.1401081,40.188447 15.0984505,40.0644455 15.0984505,39.9297542 C15.0984505,39.2605736 15.7208649,38.7186014 16.4878559,38.7186014 C17.2548468,38.7186014 17.8772613,39.2605736 17.8772613,39.9297542 C17.8772613,39.940444 17.8711351,39.9500648 17.8699099,39.9596856 L20.3215856,41.0831822 C20.5507027,40.939939 20.8141261,40.8383861 21.1155315,40.8383861 C21.2699099,40.8383861 21.412036,40.8747313 21.5504865,40.9142835 L23.5108468,39.2039177 C23.4642883,39.0831231 23.4226306,38.9591216 23.4226306,38.8244303 C23.4226306,38.1552496 24.0462703,37.6122085 24.812036,37.6122085 C25.5802523,37.6122085 26.2002162,38.1552496 26.2002162,38.8244303 C26.2002162,39.4946799 25.5802523,40.0366521 24.812036,40.0366521 C24.6576577,40.0366521 24.5155315,40.0003068 24.3770811,39.9607546 L22.4154955,41.6711204 C22.4620541,41.791915 22.5037117,41.9159165 22.5037117,42.0506079 C22.5037117,42.7197885 21.8825225,43.2617607 21.1143063,43.2617607 C20.3485405,43.2617607 19.7249009,42.7197885 19.7249009,42.0506079 C19.7249009,42.0399181 19.731027,42.0302973 19.7322523,42.0206764 L17.2793514,40.8961109 C17.0514595,41.039354 16.788036,41.140907 16.4866306,41.140907 C16.3334775,41.140907 16.1913514,41.1045617 16.0529009,41.0650095 L14.0913153,42.7764444 C14.1378739,42.8972389 14.1795315,43.0212405 14.1795315,43.1548628 C14.1795315,43.8251124 13.5571171,44.3681536 12.7889009,44.3681536 C12.0219099,44.3681536 11.4007207,43.8251124 11.4007207,43.1548628 C11.4031712,42.4856822 12.0231351,41.94371 12.7901261,41.94371 Z" id="Shape"></path>
                                <path d="M59.5716757,0.176575838 L8.81059459,0.176575838 C4.24785586,0.176575838 0.552576577,3.40275343 0.552576577,7.381492 L0.552576577,94.5246322 C0.552576577,98.5055088 4.24908108,101.72741 8.81059459,101.72741 L59.5716757,101.72741 C64.1331892,101.72741 67.8296937,98.5023018 67.8296937,94.5246322 L67.8296937,7.381492 C67.8296937,3.40382241 64.1331892,0.176575838 59.5716757,0.176575838 Z M29.9432793,3.9404497 L38.438991,3.9404497 C39.1471712,3.9404497 39.7218018,4.44393864 39.7218018,5.06073933 C39.7218018,5.67860899 39.1471712,6.18209794 38.438991,6.18209794 L29.9432793,6.18209794 C29.2350991,6.18209794 28.6592432,5.67860899 28.6592432,5.06073933 C28.6604685,4.44286966 29.2350991,3.9404497 29.9432793,3.9404497 Z M34.1899099,98.4467149 C32.1621622,98.4467149 30.5154595,97.0089386 30.5154595,95.239779 C30.5154595,93.4716883 32.1621622,92.0371189 34.1899099,92.0371189 C36.2176577,92.0371189 37.8668108,93.4716883 37.8668108,95.239779 C37.8668108,97.0089386 36.2188829,98.4467149 34.1899099,98.4467149 Z M60.9451532,88.7521475 L7.43344144,88.7521475 L7.43344144,9.9459718 L60.9451532,9.9459718 L60.9451532,88.7521475 L60.9451532,88.7521475 Z" id="Shape" fill="#F9F9F9" fill-rule="nonzero"></path>
                                <path d="M18.8035315,27.2922885 C22.6397117,27.2922885 25.7505586,24.5781517 25.7505586,21.2301105 C25.7505586,17.8831383 22.6397117,15.1690015 18.8035315,15.1690015 C14.9673514,15.1690015 11.8565045,17.8831383 11.8565045,21.2301105 C11.8565045,24.5781517 14.9673514,27.2922885 18.8035315,27.2922885 Z M18.8035315,15.6553868 L18.8035315,21.2311795 L12.4127568,21.2311795 C12.4127568,18.152521 15.2748829,15.6553868 18.8035315,15.6553868 Z" id="Shape" fill="#25B794" fill-rule="nonzero"></path>
                                <path d="M32.0616937,16.9809204 L55.7857297,16.9809204 C56.4461261,16.9809204 56.9803243,16.5137767 56.9803243,15.9386662 C56.9803243,15.3624867 56.4461261,14.896412 55.7857297,14.896412 L32.0616937,14.896412 C31.4025225,14.896412 30.8670991,15.3624867 30.8670991,15.9386662 C30.8683243,16.5137767 31.4025225,16.9809204 32.0616937,16.9809204 Z" id="Path" fill="#F9F9F9" fill-rule="nonzero"></path>
                                <path d="M32.0616937,22.2712957 L55.7857297,22.2712957 C56.4461261,22.2712957 56.9803243,21.805221 56.9803243,21.2290415 C56.9803243,20.653931 56.4461261,20.1867873 55.7857297,20.1867873 L32.0616937,20.1867873 C31.4025225,20.1867873 30.8670991,20.653931 30.8670991,21.2290415 C30.8683243,21.805221 31.4025225,22.2712957 32.0616937,22.2712957 Z" id="Path" fill="#F9F9F9" fill-rule="nonzero"></path>
                                <path d="M32.0616937,27.5627401 L55.7857297,27.5627401 C56.4461261,27.5627401 56.9803243,27.0955964 56.9803243,26.5194169 C56.9803243,25.9453754 56.4461261,25.4771627 55.7857297,25.4771627 L32.0616937,25.4771627 C31.4025225,25.4771627 30.8670991,25.9453754 30.8670991,26.5194169 C30.8683243,27.0966654 31.4025225,27.5627401 32.0616937,27.5627401 Z" id="Path" fill="#F9F9F9" fill-rule="nonzero"></path>
                                <path d="M12.7901261,44.3681536 C13.5583423,44.3681536 14.1807568,43.8251124 14.1807568,43.1548628 C14.1807568,43.0201715 14.1390991,42.8972389 14.0925405,42.7764444 L16.0541261,41.0650095 C16.1925766,41.1045617 16.3347027,41.140907 16.4878559,41.140907 C16.7892613,41.140907 17.0539099,41.039354 17.2805766,40.8961109 L19.7334775,42.0206764 C19.7334775,42.0313662 19.7261261,42.040987 19.7261261,42.0506079 C19.7261261,42.7197885 20.3497658,43.2617607 21.1155315,43.2617607 C21.8825225,43.2617607 22.5049369,42.7197885 22.5049369,42.0506079 C22.5049369,41.9159165 22.4632793,41.791915 22.4167207,41.6711204 L24.3783063,39.9607546 C24.5167568,40.0003068 24.6588829,40.0366521 24.8132613,40.0366521 C25.5814775,40.0366521 26.2014414,39.4946799 26.2014414,38.8244303 C26.2014414,38.1552496 25.5814775,37.6122085 24.8132613,37.6122085 C24.0474955,37.6122085 23.4238559,38.1552496 23.4238559,38.8244303 C23.4238559,38.9591216 23.4655135,39.0831231 23.5120721,39.2039177 L21.5517117,40.9142835 C21.4132613,40.8747313 21.2711351,40.8383861 21.1167568,40.8383861 C20.8153514,40.8383861 20.5507027,40.939939 20.3228108,41.0831822 L17.8711351,39.9596856 C17.8711351,39.9489958 17.8784865,39.939375 17.8784865,39.9297542 C17.8784865,39.2605736 17.2572973,38.7186014 16.4890811,38.7186014 C15.7220901,38.7186014 15.0996757,39.2605736 15.0996757,39.9297542 C15.0996757,40.0644455 15.1413333,40.188447 15.1878919,40.3092416 L13.2263063,42.0196075 C13.0878559,41.9800553 12.9457297,41.94371 12.7913514,41.94371 C12.0243604,41.94371 11.4031712,42.4856822 11.4031712,43.1548628 C11.4031712,43.8251124 12.0231351,44.3681536 12.7901261,44.3681536 Z" id="Path" fill="#FFAB46" fill-rule="nonzero"></path>
                                <path d="M32.0616937,35.7885309 L55.7857297,35.7885309 C56.4461261,35.7885309 56.9803243,35.3224562 56.9803243,34.7462767 C56.9803243,34.1711662 56.4461261,33.7040225 55.7857297,33.7040225 L32.0616937,33.7040225 C31.4025225,33.7040225 30.8670991,34.1711662 30.8670991,34.7462767 C30.8683243,35.3224562 31.4025225,35.7885309 32.0616937,35.7885309 Z" id="Path" fill="#F9F9F9" fill-rule="nonzero"></path>
                                <path d="M32.0616937,41.0799752 L55.7857297,41.0799752 C56.4461261,41.0799752 56.9803243,40.6128316 56.9803243,40.0366521 C56.9803243,39.4626105 56.4461261,38.9943979 55.7857297,38.9943979 L32.0616937,38.9943979 C31.4025225,38.9943979 30.8670991,39.4626105 30.8670991,40.0366521 C30.8683243,40.6128316 31.4025225,41.0799752 32.0616937,41.0799752 Z" id="Path" fill="#F9F9F9" fill-rule="nonzero"></path>
                                <path d="M32.0616937,46.3714196 L55.7857297,46.3714196 C56.4461261,46.3714196 56.9803243,45.9032069 56.9803243,45.3280964 C56.9803243,44.7529859 56.4461261,44.2858422 55.7857297,44.2858422 L32.0616937,44.2858422 C31.4025225,44.2858422 30.8670991,44.7529859 30.8670991,45.3280964 C30.8670991,45.9032069 31.4025225,46.3714196 32.0616937,46.3714196 Z" id="Path" fill="#F9F9F9" fill-rule="nonzero"></path>
                                <path d="M15.145009,64.3291921 L15.145009,59.0783689 C15.145009,58.820745 14.9060901,58.6101562 14.6108108,58.6101562 L12.4666667,58.6101562 C12.1713874,58.6101562 11.9312432,58.8196761 11.9312432,59.0783689 L11.9312432,64.3291921 C11.9312432,64.5868159 12.1713874,64.7974047 12.4666667,64.7974047 L14.6108108,64.7974047 C14.9060901,64.7963357 15.145009,64.5868159 15.145009,64.3291921 Z" id="Path" fill="#8981CF" fill-rule="nonzero"></path>
                                <path d="M20.0912432,64.7963357 C20.3865225,64.7963357 20.6266667,64.5868159 20.6266667,64.3281231 L20.6266667,56.1098152 C20.6266667,55.8511223 20.3865225,55.6416025 20.0912432,55.6416025 L17.9495495,55.6416025 C17.653045,55.6416025 17.4129009,55.8500534 17.4129009,56.1098152 L17.4129009,64.3281231 C17.4129009,64.585747 17.653045,64.7963357 17.9495495,64.7963357 L20.0912432,64.7963357 Z" id="Path" fill="#8981CF" fill-rule="nonzero"></path>
                                <path d="M25.5753514,52.6741178 L23.4312072,52.6741178 C23.1347027,52.6741178 22.8945586,52.8836376 22.8945586,53.1423304 L22.8945586,64.3291921 C22.8945586,64.5868159 23.1347027,64.7974047 23.4312072,64.7974047 L25.5753514,64.7974047 C25.8694054,64.7974047 26.1107748,64.5878849 26.1107748,64.3291921 L26.1107748,53.1423304 C26.1095495,52.8847066 25.8694054,52.6741178 25.5753514,52.6741178 Z" id="Path" fill="#8981CF" fill-rule="nonzero"></path>
                                <path d="M32.0616937,54.3011033 L55.7857297,54.3011033 C56.4461261,54.3011033 56.9803243,53.8339596 56.9803243,53.2588491 C56.9803243,52.6826696 56.4461261,52.2165949 55.7857297,52.2165949 L32.0616937,52.2165949 C31.4025225,52.2165949 30.8670991,52.6826696 30.8670991,53.2588491 C30.8683243,53.8339596 31.4025225,54.3011033 32.0616937,54.3011033 Z" id="Path" fill="#F9F9F9" fill-rule="nonzero"></path>
                                <path d="M32.0616937,59.5914787 L55.7857297,59.5914787 C56.4461261,59.5914787 56.9803243,59.125404 56.9803243,58.5492245 C56.9803243,57.9741139 56.4461261,57.5069703 55.7857297,57.5069703 L32.0616937,57.5069703 C31.4025225,57.5069703 30.8670991,57.9741139 30.8670991,58.5492245 C30.8683243,59.1264729 31.4025225,59.5914787 32.0616937,59.5914787 Z" id="Path" fill="#F9F9F9" fill-rule="nonzero"></path>
                                <path d="M32.0616937,64.882923 L55.7857297,64.882923 C56.4461261,64.882923 56.9803243,64.4157793 56.9803243,63.8395998 C56.9803243,63.2655583 56.4461261,62.7973457 55.7857297,62.7973457 L32.0616937,62.7973457 C31.4025225,62.7973457 30.8670991,63.2655583 30.8670991,63.8395998 C30.8683243,64.4168483 31.4025225,64.882923 32.0616937,64.882923 Z" id="Path" fill="#F9F9F9" fill-rule="nonzero"></path>
                                <path d="M32.0616937,73.3310614 L55.7857297,73.3310614 C56.4461261,73.3310614 56.9803243,72.8639177 56.9803243,72.2877382 C56.9803243,71.7136966 56.4461261,71.245484 55.7857297,71.245484 L32.0616937,71.245484 C31.4025225,71.245484 30.8670991,71.7136966 30.8670991,72.2877382 C30.8683243,72.8639177 31.4025225,73.3310614 32.0616937,73.3310614 Z" id="Path" fill="#F9F9F9" fill-rule="nonzero"></path>
                                <path d="M32.0616937,78.6225057 L55.7857297,78.6225057 C56.4461261,78.6225057 56.9803243,78.1542931 56.9803243,77.5791825 C56.9803243,77.004072 56.4461261,76.5369284 55.7857297,76.5369284 L32.0616937,76.5369284 C31.4025225,76.5369284 30.8670991,77.004072 30.8670991,77.5791825 C30.8670991,78.1542931 31.4025225,78.6225057 32.0616937,78.6225057 Z" id="Path" fill="#F9F9F9" fill-rule="nonzero"></path>
                                <path d="M32.0616937,83.9128811 L55.7857297,83.9128811 C56.4461261,83.9128811 56.9803243,83.4457374 56.9803243,82.8706269 C56.9803243,82.2944474 56.4461261,81.8283727 55.7857297,81.8283727 L32.0616937,81.8283727 C31.4025225,81.8283727 30.8670991,82.2944474 30.8670991,82.8706269 C30.8683243,83.4468064 31.4025225,83.9128811 32.0616937,83.9128811 Z" id="Path" fill="#F9F9F9" fill-rule="nonzero"></path>
                                <path d="M19.4614775,76.0836814 C17.9961081,75.6240206 17.3994234,75.2969131 17.3994234,74.8222866 C17.3994234,74.4043159 17.7571892,73.9745865 18.8635676,73.9745865 C20.090018,73.9745865 20.8900901,74.3166597 21.3164685,74.4941101 L21.8261622,72.8168826 C21.2319279,72.5785004 20.4637117,72.3540149 19.3414054,72.3262214 L19.3414054,71.0188605 L17.6726486,71.0188605 L17.6726486,72.4299123 C15.851964,72.7249505 14.7945946,73.7522389 14.7945946,75.0734966 C14.7945946,76.5144798 16.036973,77.2584889 17.8601081,77.7929783 C19.1367928,78.1628449 19.6807928,78.5198838 19.6807928,79.0853735 C19.6807928,79.6636909 19.0167207,80.0057641 18.0267387,80.0057641 C16.9215856,80.0057641 15.9169009,79.6925534 15.2025946,79.3526181 L14.6916757,81.0897085 C15.3398198,81.4007812 16.444973,81.6851296 17.5856577,81.7289577 L17.5856577,83.1400095 L19.2703423,83.1400095 L19.2703423,81.6092321 C21.2294775,81.3259527 22.2843964,80.1981803 22.2843964,78.8747847 C22.2868468,77.5257336 21.4855495,76.7090339 19.4614775,76.0836814 Z" id="Path" fill="#88D068" fill-rule="nonzero"></path>
                            </g>
                        </g>
                    </g>
                </g>
            </g>
        </g>
    </g>
</svg>