<?xml version="1.0" encoding="UTF-8"?>
<svg width="106px" height="104px" viewBox="0 0 106 104" version="1.1" xmlns="http://www.w3.org/2000/svg" xmlns:xlink="http://www.w3.org/1999/xlink">
    <!-- Generator: Sketch 54.1 (76490) - https://sketchapp.com -->
    <title>Research - Magnifying Heart</title>
    <desc>Created with Sketch.</desc>
    <g id="TGP-DESKTOP-VERSION" stroke="none" stroke-width="1" fill="none" fill-rule="evenodd">
        <g id="Our-Process" transform="translate(-438.000000, -306.000000)">
            <g id="QUANTIFY" transform="translate(176.000000, 306.000000)">
                <g id="Group-3">
                    <g id="Group-4">
                        <g id="Research---Magnifying-Heart" transform="translate(262.000000, 0.000000)">
                            <g>
                                <path d="M53.2027156,6.70967742 C38.3593505,6.70967742 26.2820807,18.7501935 26.2820807,33.5483871 C26.2820807,48.3465806 38.3593505,60.3870968 53.2027156,60.3870968 C68.0460807,60.3870968 80.1233505,48.3465806 80.1233505,33.5483871 C80.1233505,18.7501935 68.0460807,6.70967742 53.2027156,6.70967742 Z M53.2027156,57.0322581 C40.2135093,57.0322581 29.6471601,46.4980645 29.6471601,33.5483871 C29.6471601,20.5987097 40.2135093,10.0645161 53.2027156,10.0645161 C66.191922,10.0645161 76.7582712,20.5987097 76.7582712,33.5483871 C76.7582712,46.4980645 66.191922,57.0322581 53.2027156,57.0322581 Z" id="Shape" fill="#F8FAFD" fill-rule="nonzero"></path>
                                <path d="M77.7442394,0 L84.4743982,6.70967742 L79.0583029,12.1092903 C72.8800172,4.71690323 63.585668,0 53.2027156,0 C34.647668,0 19.551922,15.0498065 19.551922,33.5483871 C19.551922,43.8997419 24.2832236,53.1658065 31.6981759,59.3252903 L29.6471601,61.3700645 L24.599541,56.3378065 L0.347414037,80.516129 L14.5043029,94.6299355 L26.2820807,82.888 L33.0122394,89.5976774 L43.1074775,79.5331613 L43.1074775,93.9354839 C43.1074775,99.4860645 47.6351918,104 53.2027156,104 C58.7702394,104 63.2979537,99.4860645 63.2979537,93.9354839 L63.2979537,73.8064516 L66.6630331,73.8064516 L66.6630331,70.4516129 L63.2979537,70.4516129 L63.2979537,65.5501935 C76.1676998,61.5059355 85.6925569,49.9384516 86.7273188,36.0477419 L99.4725569,23.3412903 L105.361446,29.2122581 L105.361446,0 L77.7442394,0 Z M33.0122394,84.8539355 L26.2820807,78.1442581 L14.5043029,89.8861935 L5.10563626,80.516129 L24.599541,61.0815484 L29.6471601,66.1138065 L34.4104299,61.3650323 C37.0654775,63.1531613 39.9897315,64.5705806 43.1074775,65.5501935 L43.1074775,70.4516129 L39.7423982,70.4516129 L39.7423982,73.8064516 L43.1074775,73.8064516 L43.1074775,74.7894194 L33.0122394,84.8539355 Z M59.9328744,93.9354839 C59.9328744,97.635871 56.9143982,100.645161 53.2027156,100.645161 C49.4910331,100.645161 46.4725569,97.635871 46.4725569,93.9354839 L46.4725569,73.8064516 L59.9328744,73.8064516 L59.9328744,93.9354839 Z M59.9328744,70.4516129 L46.4725569,70.4516129 L46.4725569,66.4207742 C48.6480807,66.8619355 50.8976363,67.0967742 53.2027156,67.0967742 C55.507795,67.0967742 57.7573505,66.8619355 59.9328744,66.4207742 L59.9328744,70.4516129 Z M53.2027156,63.7419355 C36.5035093,63.7419355 22.9170013,50.1967742 22.9170013,33.5483871 C22.9170013,16.9 36.5035093,3.35483871 53.2027156,3.35483871 C69.901922,3.35483871 83.4884299,16.9 83.4884299,33.5483871 C83.4884299,50.1967742 69.901922,63.7419355 53.2027156,63.7419355 Z M101.996366,21.112 L99.4725569,18.595871 L86.7390966,31.2905806 C86.3302394,25.2216774 84.3330648,19.5788387 81.1042712,14.8132903 L89.2326204,6.70967742 L85.867541,3.35483871 L101.996366,3.35483871 L101.996366,21.112 Z" id="Shape" fill="#F8FAFD" fill-rule="nonzero"></path>
                                <path d="M53.2027156,22.8045161 C49.2790331,19.2500645 43.1831918,19.3590968 39.3941124,23.1366452 C35.4906204,27.0282581 35.4906204,33.3588387 39.3941124,37.2504516 L53.2027156,51.0170323 L67.0113188,37.2504516 C70.9148109,33.3588387 70.9148109,27.0282581 67.0113188,23.1366452 C63.2222394,19.3574194 57.1263982,19.2500645 53.2027156,22.8045161 Z M64.6322077,34.8785806 L53.2027156,46.2732903 L41.7732236,34.8785806 C39.1821124,32.2953548 39.1821124,28.0917419 41.7732236,25.5085161 C43.0687791,24.2169032 44.7715093,23.5710968 46.4725569,23.5710968 C48.1736045,23.5710968 49.8763347,24.2169032 51.1718902,25.5085161 L53.2027156,27.5331613 L55.233541,25.5085161 C57.8246521,22.9252903 62.0410966,22.9252903 64.6322077,25.5085161 C67.2233188,28.0917419 67.2233188,32.2953548 64.6322077,34.8785806 Z" id="Shape" fill="#CE2C4E" fill-rule="nonzero"></path>
                                <path d="M88.536049,58.7096774 C79.2585251,58.7096774 71.7106521,66.2345806 71.7106521,75.483871 C71.7106521,84.7331613 79.2585251,92.2580645 88.536049,92.2580645 C97.8135728,92.2580645 105.361446,84.7331613 105.361446,75.483871 C105.361446,66.2345806 97.8135728,58.7096774 88.536049,58.7096774 Z M88.536049,88.9032258 C81.1143664,88.9032258 75.0757315,82.8829677 75.0757315,75.483871 C75.0757315,68.0847742 81.1143664,62.0645161 88.536049,62.0645161 C95.9577315,62.0645161 101.996366,68.0847742 101.996366,75.483871 C101.996366,82.8829677 95.9577315,88.9032258 88.536049,88.9032258 Z" id="Shape" fill="#F8FAFD" fill-rule="nonzero"></path>
                                <path d="M86.8535093,70.4516129 L90.2185886,70.4516129 C91.145668,70.4516129 91.9011283,71.2047742 91.9011283,72.1290323 L95.2662077,72.1290323 C95.2662077,69.3545806 93.0015093,67.0967742 90.2185886,67.0967742 L90.2185886,63.7419355 L86.8535093,63.7419355 L86.8535093,67.0967742 C84.0705886,67.0967742 81.8058902,69.3545806 81.8058902,72.1290323 C81.8058902,74.9034839 84.0705886,77.1612903 86.8535093,77.1612903 L90.2185886,77.1612903 C91.145668,77.1612903 91.9011283,77.9144516 91.9011283,78.8387097 C91.9011283,79.7629677 91.145668,80.516129 90.2185886,80.516129 L86.8535093,80.516129 C85.9264299,80.516129 85.1709696,79.7629677 85.1709696,78.8387097 L81.8058902,78.8387097 C81.8058902,81.6131613 84.0705886,83.8709677 86.8535093,83.8709677 L86.8535093,87.2258065 L90.2185886,87.2258065 L90.2185886,83.8709677 C93.0015093,83.8709677 95.2662077,81.6131613 95.2662077,78.8387097 C95.2662077,76.0642581 93.0015093,73.8064516 90.2185886,73.8064516 L86.8535093,73.8064516 C85.9264299,73.8064516 85.1709696,73.0532903 85.1709696,72.1290323 C85.1709696,71.2047742 85.9264299,70.4516129 86.8535093,70.4516129 Z" id="Path" fill="#F8FAFD" fill-rule="nonzero"></path>
                            </g>
                        </g>
                    </g>
                </g>
            </g>
        </g>
    </g>
</svg>