<?xml version="1.0" encoding="UTF-8"?>
<svg width="104px" height="106px" viewBox="0 0 104 106" version="1.1" xmlns="http://www.w3.org/2000/svg" xmlns:xlink="http://www.w3.org/1999/xlink">
    <!-- Generator: Sketch 54.1 (76490) - https://sketchapp.com -->
    <title>Twinkle Stars</title>
    <desc>Created with Sketch.</desc>
    <g id="TGP-DESKTOP-VERSION" stroke="none" stroke-width="1" fill="none" fill-rule="evenodd">
        <g id="Our-Process" transform="translate(-158.000000, -575.000000)" fill="#FFA3A3">
            <g id="Group-2" transform="translate(158.000000, 572.616548)">
                <g id="Twinkle-Stars" transform="translate(0.000000, 2.383452)">
                    <g id="Shape">
                        <path d="M103.96528,82.2177427 C104.098753,81.7074308 103.831806,81.1971188 103.431385,80.9419629 L99.4271788,78.1352471 L99.5606524,73.2872836 C99.5606524,72.7769716 99.2937053,72.3942377 98.8932846,72.1390817 C98.492864,71.8839257 97.9589698,72.0115037 97.4250756,72.2666597 L93.2873955,75.0733754 L88.4823476,73.4148616 C87.9484534,73.2872836 87.4145592,73.4148616 87.1476121,73.6700175 C86.7471915,74.0527515 86.6137179,74.5630635 86.7471915,74.9457974 L88.3488741,79.538605 L85.2789824,83.3659446 C85.0120353,83.7486786 84.8785618,84.2589905 85.1455089,84.7693025 C85.412456,85.1520365 85.8128766,85.5347704 86.3467708,85.5347704 L91.4187658,85.5347704 L94.2217103,89.489688 C94.4886574,89.872422 94.8890781,90 95.2894987,90 C95.2894987,90 95.4229723,90 95.4229723,90 C95.9568665,89.872422 96.3572872,89.617266 96.4907607,89.1069541 L98.0924433,84.5141465 L102.897491,83.1107887 C103.564859,82.9832107 103.96528,82.6004767 103.96528,82.2177427 Z M96.7577078,82.2177427 C96.3572872,82.3453207 95.9568665,82.6004767 95.823393,82.9832107 L94.8890781,85.7899264 L93.2873955,83.4935226 C93.0204484,83.1107887 92.6200277,82.9832107 92.2196071,82.9832107 L89.1497154,82.9832107 L91.0183451,80.6868069 C91.2852922,80.3040729 91.4187658,79.921339 91.2852922,79.538605 L90.3509774,76.7318893 L93.1539219,77.7525132 C93.5543426,77.8800911 94.0882368,77.8800911 94.3551839,77.6249352 L96.7577078,75.9664213 L96.6242343,78.900715 C96.6242343,79.283449 96.7577078,79.666183 97.1581285,79.921339 L99.5606524,81.5798528 L96.7577078,82.2177427 Z" fill-rule="nonzero"></path>
                        <path d="M14.1010566,12.806115 C14.3705408,13.1861554 14.774767,13.5661957 15.3137354,13.5661957 L20.4339349,13.5661957 L23.2635189,17.4932795 C23.5330031,17.8733199 23.9372294,18 24.3414556,18 C24.3414556,18 24.4761977,18 24.4761977,18 C25.0151661,17.8733199 25.4193924,17.6199596 25.5541345,17.1132391 L27.1710396,12.5527548 L32.0217549,11.1592734 C32.5607233,11.0325933 32.8302075,10.6525529 32.9649496,10.1458325 C33.0996917,9.63911198 32.8302075,9.13239149 32.4259812,8.87903125 L28.3837184,6.09206857 L28.5184605,1.27822395 C28.5184605,0.771503469 28.2489763,0.391463104 27.8447501,0.138102861 C27.4405238,-0.115257382 26.9015554,0.0114227394 26.362587,0.264782983 L22.1855822,3.05174566 L17.3348668,1.40490408 C16.7958984,1.27822395 16.2569301,1.40490408 15.9874459,1.65826432 C15.5832196,2.03830468 15.4484775,2.54502517 15.5832196,2.92506554 L17.2001247,7.48554991 L14.1010566,11.2859536 C13.9663145,11.9193542 13.9663145,12.4260747 14.1010566,12.806115 Z M20.1644508,7.61223003 L19.2212561,4.82526736 L22.0508401,5.83870833 C22.4550663,5.96538845 22.9940347,5.96538845 23.2635189,5.71202821 L25.6888766,4.06518663 L25.5541345,6.97882942 C25.5541345,7.35886979 25.6888766,7.73891015 26.0931028,7.9922704 L28.5184605,9.63911198 L25.5541345,10.3991927 C25.1499082,10.5258728 24.7456819,10.7792331 24.6109398,11.1592734 L23.9372294,13.9462361 L22.1855822,11.5393138 C21.916098,11.1592734 21.5118717,11.0325933 21.1076454,11.0325933 L18.0085773,11.0325933 L19.8949666,8.75235113 C20.1644508,8.37231076 20.2991928,7.9922704 20.1644508,7.61223003 Z" fill-rule="nonzero"></path>
                        <path d="M9.84507042,41.3148148 C9.28169014,41.4444444 9,41.962963 9,42.3518519 C9,42.8703704 9.14084507,43.2592593 9.70422535,43.5185185 L12.8028169,45.3333333 L12.943662,48.7037037 C12.943662,49.2222222 13.2253521,49.6111111 13.7887324,49.8703704 C13.9295775,50 14.2112676,50 14.3521127,50 C14.6338028,50 15.056338,49.8703704 15.1971831,49.7407407 L18.0140845,47.537037 L21.5352113,48.4444444 C22.0985915,48.5740741 22.6619718,48.4444444 22.943662,48.0555556 C23.2253521,47.6666667 23.3661972,47.1481481 23.2253521,46.7592593 L21.8169014,43.6481481 L23.7887324,40.7962963 C24.0704225,40.4074074 24.0704225,39.8888889 23.7887324,39.3703704 C23.5070423,38.9814815 23.084507,38.7222222 22.5211268,38.7222222 L18.8591549,39.1111111 L16.6056338,36.5185185 C16.3239437,36.1296296 15.7605634,36 15.1971831,36 C14.6338028,36.1296296 14.2112676,36.5185185 14.0704225,36.9074074 L13.2253521,40.1481481 L9.84507042,41.3148148 Z M14.915493,42.3518519 C15.3380282,42.2222222 15.6197183,41.8333333 15.7605634,41.4444444 L16.1830986,40.0185185 L17.1690141,41.0555556 C17.4507042,41.4444444 17.8732394,41.5740741 18.4366197,41.5740741 L19.9859155,41.4444444 L19.1408451,42.6111111 C18.8591549,43 18.8591549,43.3888889 19,43.7777778 L19.5633803,45.0740741 L18.1549296,44.6851852 C17.7323944,44.5555556 17.1690141,44.6851852 16.8873239,44.9444444 L15.6197183,46.1111111 L15.6197183,44.6851852 C15.6197183,44.2962963 15.3380282,43.9074074 14.915493,43.6481481 L13.6478873,42.8703704 L14.915493,42.3518519 Z" fill-rule="nonzero"></path>
                        <path d="M25.1581353,101.051868 C25.2950844,101.546681 25.7059319,101.794088 26.2537285,101.917791 L29.8144066,102.412605 L31.3208473,105.25778 C31.5947456,105.62889 32.005593,106 32.5533897,106 L32.5533897,106 C33.1011863,106 33.5120338,105.752593 33.7859321,105.25778 L35.2923728,102.412605 L38.8530508,101.917791 C39.4008474,101.794088 39.8116949,101.546681 39.9486441,101.051868 C40.0855932,100.557055 39.9486441,100.062242 39.5377966,99.8148354 L36.9357626,97.5881761 L37.4835593,94.4955938 C37.6205084,94.0007807 37.3466101,93.5059675 36.9357626,93.2585609 C36.5249152,93.0111543 35.9771186,92.887451 35.4293219,93.1348576 L32.2794914,94.6192971 L29.1296608,93.1348576 C28.7188133,92.887451 28.1710167,93.0111543 27.6232201,93.2585609 C27.2123726,93.5059675 26.9384743,94.0007807 27.0754234,94.4955938 L27.6232201,97.5881761 L25.1581353,99.8148354 C25.0211861,100.185945 24.884237,100.680758 25.1581353,101.051868 Z M30.3622032,98.9489123 C30.6361015,98.7015058 30.7730506,98.2066926 30.7730506,97.8355827 L30.4991523,96.4748465 L31.8686439,97.093363 C32.2794914,97.3407695 32.6903388,97.3407695 33.1011863,97.093363 L34.4706778,96.4748465 L34.1967795,97.8355827 C34.0598304,98.2066926 34.3337287,98.7015058 34.607627,98.9489123 L35.7032202,99.9385387 L34.1967795,100.185945 C33.7859321,100.185945 33.3750846,100.557055 33.1011863,100.804462 L32.4164405,102.041495 L31.7316947,100.804462 C31.5947456,100.433352 31.1838981,100.185945 30.6361015,100.185945 L29.1296608,99.9385387 L30.3622032,98.9489123 Z" fill-rule="nonzero"></path>
                        <path d="M5.5,72 C2.51428571,72 0,74.0571429 0,76.5 C0,78.9428571 2.51428571,81 5.5,81 C8.48571429,81 11,78.9428571 11,76.5 C11,74.0571429 8.48571429,72 5.5,72 Z M5.5,78.4285714 C4.24285714,78.4285714 3.14285714,77.5285714 3.14285714,76.5 C3.14285714,75.4714286 4.24285714,74.5714286 5.5,74.5714286 C6.75714286,74.5714286 7.85714286,75.4714286 7.85714286,76.5 C7.85714286,77.5285714 6.75714286,78.4285714 5.5,78.4285714 Z" fill-rule="nonzero"></path>
                        <path d="M92,11.5 C92,9.05714286 89.4857143,7 86.5,7 C83.5142857,7 81,9.05714286 81,11.5 C81,13.9428571 83.5142857,16 86.5,16 C89.4857143,16 92,13.9428571 92,11.5 Z M84.1428571,11.5 C84.1428571,10.4714286 85.2428571,9.57142857 86.5,9.57142857 C87.7571429,9.57142857 88.8571429,10.4714286 88.8571429,11.5 C88.8571429,12.5285714 87.7571429,13.4285714 86.5,13.4285714 C85.2428571,13.4285714 84.1428571,12.5285714 84.1428571,11.5 Z" fill-rule="nonzero"></path>
                        <path d="M67,97.5 C67,99.9428571 69.5142857,102 72.5,102 C75.4857143,102 78,99.9428571 78,97.5 C78,95.0571429 75.4857143,93 72.5,93 C69.5142857,93 67,95.0571429 67,97.5 Z M74.8571429,97.5 C74.8571429,98.5285714 73.7571429,99.4285714 72.5,99.4285714 C71.2428571,99.4285714 70.1428571,98.5285714 70.1428571,97.5 C70.1428571,96.4714286 71.2428571,95.5714286 72.5,95.5714286 C73.9142857,95.5714286 74.8571429,96.4714286 74.8571429,97.5 Z" fill-rule="nonzero"></path>
                    </g>
                </g>
            </g>
        </g>
    </g>
</svg>