<?xml version="1.0" encoding="UTF-8"?>
<svg width="76px" height="72px" viewBox="0 0 76 72" version="1.1" xmlns="http://www.w3.org/2000/svg" xmlns:xlink="http://www.w3.org/1999/xlink">
    <!-- Generator: Sketch 54.1 (76490) - https://sketchapp.com -->
    <title>Success Rocket </title>
    <desc>Created with Sketch.</desc>
    <g id="TGP-DESKTOP-VERSION" stroke="none" stroke-width="1" fill="none" fill-rule="evenodd">
        <g id="Our-Process" transform="translate(-185.000000, -592.000000)">
            <g id="Group-2" transform="translate(158.000000, 572.616548)">
                <g id="Success-Rocket-" transform="translate(12.405212, 8.000000)">
                    <g id="Success-Rocket" transform="translate(51.500000, 45.500000) rotate(-28.000000) translate(-51.500000, -45.500000) translate(9.000000, 17.000000)">
                        <path d="M75.508373,24.5951781 C75.4078246,23.7615912 75.3551565,23.0380163 75.4106974,22.6918809 C75.5533803,21.8019464 75.3886726,20.1455054 72.7725005,18.8602431 L72.5110748,18.1751277 C73.0798911,18.1187801 73.5711416,18.019501 73.8277793,17.9586813 C74.0652649,17.9542093 74.5316177,17.8996505 75.5064578,17.6706824 C76.5397117,17.4265094 76.8662544,16.8308346 76.9687179,16.4972209 C77.168857,15.8469874 76.8997705,15.0804809 76.2486003,14.4445578 C75.2459897,13.4705491 74.1409155,14.4007319 73.7779839,14.706619 C73.7320189,14.7450785 73.6898844,14.7826435 73.6506227,14.8148422 C73.3853666,14.796954 72.8309143,14.7370288 72.2247514,14.6645819 C72.0993054,14.0349196 71.9298096,13.4508721 71.7516954,12.8981289 L71.5735812,12.3373359 C71.3514172,11.6164442 70.8774036,10.9814156 70.5977835,10.6513795 L70.6245964,10.4018401 C70.9425206,10.2319028 71.2365048,10.0217173 71.4835665,9.75607854 C72.0657893,9.12999393 72.3540278,8.32860564 72.2917836,7.50127955 C72.16538,5.80727348 70.6131051,4.50054547 68.7409908,4.61681832 C66.9110109,4.7366688 65.5272742,6.22496135 65.6546355,7.93238352 C65.7398622,9.07543513 66.4954111,10.0333446 67.5382411,10.5046968 L67.5439867,10.5816158 C66.920587,11.3212901 65.1720034,13.7487095 65.7992336,17.0580139 C66.0788537,18.5319959 66.0252279,19.3092352 65.9534077,19.7689602 C65.0580486,19.3906262 64.1387495,19.0221307 63.1935951,18.6670513 C63.1955103,18.650952 63.1945527,18.6276974 63.1974255,18.6133869 C63.3401084,17.7234524 63.1763582,16.0679058 60.5592285,14.7817491 L60.2978029,14.0966337 C60.8656616,14.0402861 61.3578697,13.9410069 61.6135497,13.8810817 C61.8519929,13.8766097 62.3183457,13.8211565 63.2931858,13.591294 C64.3264398,13.3480154 64.6529825,12.7523406 64.755446,12.4178325 C64.9555851,11.7684933 64.6874562,11.0019869 64.036286,10.3651694 C63.0336754,9.38847744 61.9276436,10.3213435 61.564712,10.628125 C61.518747,10.6665844 61.4766125,10.7041495 61.4373507,10.7363482 C61.1720946,10.71846 60.6176423,10.6585348 60.0114795,10.5860878 C59.8860335,9.95732002 59.7174953,9.37506134 59.5393811,8.82500129 L59.3593517,8.25884192 C59.1371877,7.53795022 58.6622165,6.90292154 58.3835539,6.57199111 L58.4103668,6.32334608 C58.7273335,6.15340883 59.0222753,5.94322328 59.269337,5.67758453 C59.8525173,5.05149992 60.1397983,4.25011162 60.0775541,3.42278553 C59.9521081,1.72877947 58.3864268,0.412212979 56.5277188,0.538324307 C54.697739,0.658174789 53.3130447,2.14646734 53.4413635,3.85478391 C53.5265902,4.99694112 54.2821392,5.95485057 55.3259268,6.42620284 L55.3316724,6.5031218 C54.7082727,7.24279605 52.9596891,9.67021551 53.5869192,12.9795199 C53.9058011,14.6565322 53.7928039,15.4328771 53.7114077,15.8639811 C49.9537725,15.0572264 45.9730158,14.5599363 41.8342545,14.5599363 C41.4148243,14.5599363 40.9982668,14.5849797 40.5807518,14.5948181 C39.5589891,12.45182 33.9129603,3.06860053 14.7551496,6.81437529 L12.9069753,7.17571555 L22.7128327,12.4267766 L13.9373564,14.3998375 L17.517835,14.9230654 C17.5657152,14.9302206 21.867269,15.5813486 24.7630612,17.4774906 C22.9397846,18.1214633 21.1433209,18.870976 19.3755853,19.7260287 L18.987756,19.9138541 L18.987756,22.025548 L0.990560413,31.2379358 L18.987756,40.4449572 L18.987756,42.5566511 L19.3755853,42.7444765 C21.1433209,43.5995292 22.9407422,44.3490419 24.7621036,44.9930146 C21.8701418,46.8846846 17.5657152,47.541179 17.517835,47.5474398 L13.9459749,48.0724565 L22.7137903,50.0437286 L12.9079329,55.2947897 L14.7561072,55.6561299 C17.8865123,56.2687984 20.6530281,56.5299651 23.100662,56.5299651 C35.6232398,56.5299651 39.7227393,49.6770219 40.582667,47.8756871 C41.0011396,47.8855255 41.4157819,47.9105689 41.8352121,47.9105689 C65.1576394,47.9105689 83.6173573,32.3380559 83.7811075,32.1976341 L84.9905604,31.2388302 L83.8012172,30.2934425 C83.7265241,30.2299396 80.6660241,27.6486822 75.508373,24.5951781 Z M18.987756,38.9155219 L3.98019778,31.2379358 L18.987756,23.5594553 L18.987756,38.9155219 Z M77.0606479,27.153181 C76.736978,27.0753676 76.3520214,27.052113 75.8885415,27.0959389 C75.8464069,26.856238 75.8033148,26.6004377 75.7602226,26.3410598 C76.2112538,26.6174314 76.6488785,26.889331 77.0606479,27.153181 Z M67.0881675,7.84025964 C67.0153897,6.8698285 67.8025396,6.02461428 68.8415391,5.95663938 L68.974646,5.95216735 C69.9628925,5.95216735 70.7902617,6.67484787 70.8592092,7.59519224 C70.8936829,8.0656501 70.7308903,8.52000864 70.3995596,8.87687687 C70.0682289,9.23195628 69.6085793,9.44661386 69.1039224,9.4788125 C68.0687533,9.53247689 67.1599878,8.80442994 67.0881675,7.84025964 Z M68.7400332,11.3373894 C68.7802525,11.2917746 68.808023,11.2613648 68.8099382,11.259576 L69.0186957,11.0467072 L69.0014588,10.824 C69.0464662,10.8231056 69.0914736,10.8213168 69.1364809,10.819528 L69.1067952,11.0985828 L69.3222559,11.3195012 C69.3289592,11.3257621 69.9676805,11.9858341 70.1917597,12.7103035 L70.3354002,13.1628732 L70.0682289,13.294351 L69.6947636,13.4785987 L69.4333379,13.6082877 L69.5022854,13.7308214 L70.6877982,15.8255216 L70.7442968,15.8335713 L71.0507298,15.8738196 C71.9460889,15.9909868 73.5041094,16.1931227 73.867041,16.1600297 C74.2232694,16.1394583 74.4732039,15.927484 74.73846,15.7047767 C74.8648636,15.5974479 75.1282045,15.3765295 75.2096008,15.3747407 C75.513161,15.6707893 75.6299886,15.9838316 75.5859388,16.127831 C75.5562531,16.2226381 75.3944182,16.3138676 75.1521446,16.3702152 C74.2740224,16.5768231 73.9244972,16.611705 73.8277793,16.6170714 L73.7243581,16.5973945 L73.5577351,16.6385372 C72.8950737,16.8057912 71.8800142,16.9336914 71.1934127,16.8424619 C70.9444359,16.8093688 70.7366359,16.7494436 70.6083171,16.6483757 C69.689018,15.9292728 68.5820286,14.5134271 68.571495,14.5000111 L67.9902298,14.8935499 L67.4089646,15.2870888 C67.45876,15.3505917 68.6299088,16.851406 69.6880604,17.6778376 C70.036628,17.9497372 70.4943623,18.0892647 70.9760368,18.1590284 L71.6118853,19.8226246 L71.8761838,19.9424751 C72.754306,20.3395916 74.1954989,21.2009052 73.987699,22.4942171 C73.9407764,22.7875824 73.9455645,23.2213696 73.9790806,23.7159765 C74.0145119,24.2338379 74.0825017,24.8178854 74.1619828,25.3885168 C74.3314786,26.6102762 74.5498121,27.756011 74.5938619,27.9805071 L74.7231383,28.64684 C74.702071,28.6539952 74.6800462,28.6611505 74.6589789,28.6674113 C74.4310693,27.8141474 74.1141026,26.4260284 73.8392705,25.1989026 C73.7664927,24.8751274 73.6965876,24.5585075 73.6314706,24.2705086 C73.5625232,23.9619383 73.5002789,23.6802002 73.4399499,23.4154559 C73.3087583,22.830514 73.2024643,22.3663169 73.1450081,22.1534482 C72.8922009,21.2125324 71.44622,20.9182727 69.095304,20.5453051 C68.3828471,20.4326099 67.6464502,20.3154426 67.3352292,20.201853 C67.4319471,19.6920413 67.5813332,18.7636472 67.2145712,16.8263626 C66.6610765,13.9007586 68.3790167,11.7497108 68.7400332,11.3373894 Z M54.8748956,3.76444885 C54.8021178,2.79401771 55.5892676,1.94880349 56.6292248,1.88082859 L56.7623316,1.87635655 C57.7505782,1.87635655 58.5779474,2.59903707 58.6468948,3.51938144 C58.6823262,3.98983931 58.518576,4.44419785 58.1872453,4.80106608 C57.8559146,5.15614549 57.396265,5.37080307 56.8916081,5.40300171 C55.8487781,5.46650457 54.9476735,4.72683033 54.8748956,3.76444885 Z M56.5277188,7.26068418 C56.5679382,7.21506944 56.5957087,7.18465962 56.5976239,7.1828708 L56.807339,6.97000204 L56.7901021,6.7472948 C56.8341519,6.74640039 56.8782016,6.74461158 56.923209,6.74282277 L56.8935233,7.02277203 L57.1128144,7.24458486 C57.11856,7.2508457 57.758239,7.91181217 57.980403,8.63359828 L58.1240435,9.08616801 L57.8568722,9.21764578 L57.4834069,9.40189353 L57.2219812,9.53158249 L57.2909286,9.65411619 L58.4773991,11.7488164 L58.5338977,11.7568661 L58.8403307,11.7971144 C59.7347321,11.9142816 61.2984983,12.1155231 61.6575995,12.0833245 C62.0128703,12.0618587 62.2628047,11.8498843 62.5271032,11.6271771 C62.6535069,11.5207427 62.9168478,11.2989299 62.998244,11.2962467 C63.3018043,11.5940841 63.4186319,11.9071264 63.3745821,12.0502314 C63.3448964,12.1450385 63.1830615,12.2371624 62.9407878,12.29351 C62.0636233,12.5001179 61.7150557,12.5349998 61.6173801,12.5403662 L61.513959,12.5197949 L61.347336,12.5627264 C60.6856322,12.729086 59.6705727,12.8578806 58.9839712,12.7657567 C58.7359519,12.7326636 58.528152,12.6727384 58.3988756,12.5716705 C57.4786189,11.8525676 56.3725871,10.4367219 56.3620535,10.4224114 L55.7855763,10.8141615 L55.1995231,11.211278 C55.2493185,11.2747809 56.4204673,12.7747008 57.4776613,13.6020268 C57.8271865,13.8739264 58.2839632,14.0134539 58.7665953,14.0823232 L59.4024438,15.7468138 L59.6667423,15.8666643 C60.4816627,16.2360542 61.764851,17.0097159 61.7811303,18.1527675 C61.7820879,18.2413138 61.7935791,18.325388 61.7782575,18.4184063 C61.7332501,18.7001444 61.7361229,19.1124658 61.7658086,19.5829237 C61.8692298,21.2125324 62.3193033,23.571977 62.3834627,23.9046963 L62.5127392,24.5719236 C62.4907143,24.5790788 62.469647,24.5862341 62.4476222,24.5924949 C62.1603412,23.5156294 61.7294197,21.5828168 61.4229867,20.2072194 C61.3588273,19.9165373 61.2984983,19.6473209 61.2419997,19.3950983 C61.1041048,18.7815354 60.9930228,18.296767 60.934609,18.0776374 C60.9106689,17.9864079 60.864704,17.9068057 60.8177814,17.8272035 C60.3830295,17.0848461 59.0079113,16.80758 56.8849049,16.4703888 C56.1714904,16.3576935 55.4350935,16.2405263 55.1238725,16.1269366 C55.2205904,15.6171249 55.3699765,14.6887308 55.0032145,12.7514462 C54.4478046,9.82494785 56.1667024,7.67479442 56.5277188,7.26068418 Z M20.698993,14.2638877 L26.564313,12.9455324 L16.9471035,7.79553931 C32.6211536,5.32608274 37.7414582,12.212119 39.0351802,14.6413273 C34.7154319,14.873873 30.4876135,15.6609508 26.3794955,16.961418 C24.7218843,15.6314354 22.4858807,14.7745939 20.698993,14.2638877 Z M16.9471035,54.6785435 L26.5633554,49.5285504 L20.6980354,48.2101951 C22.4849231,47.699489 24.7218843,46.8426475 26.3794955,45.5126649 C30.4876135,46.813132 34.7154319,47.6002098 39.0351802,47.8327555 C37.7424158,50.2619638 32.6240264,57.1515777 16.9471035,54.6785435 Z M41.8352121,46.568959 C34.3955924,46.568959 27.1944159,44.9447167 20.4241609,41.7391635 L20.4241609,41.179265 L20.4241609,21.2948179 L20.4241609,20.7349193 C27.1944159,17.5293661 34.3955924,15.9051238 41.8352121,15.9051238 C48.2463659,15.9051238 54.2792664,17.1170447 59.6504631,18.8575599 C59.7443082,19.2564653 59.8707118,19.8279911 60.0162675,20.4791191 C60.456765,22.456652 61.0054717,24.9180589 61.2793462,25.668466 L61.5082134,26.2945506 L62.1823661,26.0897315 C65.9859662,24.9332638 65.9658565,24.6551034 65.92851,24.1515525 C65.9036123,23.8233053 65.7302861,23.5290455 65.4401323,23.3224376 C65.0494302,23.0442771 64.4691226,22.9441036 63.6771847,23.0192337 C63.517265,22.1221439 63.3496844,21.0345455 63.2548817,20.1356669 C66.5701042,21.4164571 69.5674024,22.8537685 72.16538,24.2651421 C72.1864473,24.3581604 72.2055993,24.4467066 72.2276242,24.544197 C72.6690793,26.526202 73.2187436,28.9929753 73.4935757,29.7442768 L73.7224429,30.3703614 L74.395638,30.1655423 C78.1982805,29.009969 78.1781709,28.732703 78.1417819,28.2282577 C78.1293331,28.0592148 78.0757073,27.9000105 77.9885654,27.756011 C80.7215651,29.5627123 82.4126924,30.934732 82.7775393,31.2379358 C81.6686347,32.160069 63.9711689,46.568959 41.8352121,46.568959 Z" id="Shape" fill="#F8A8A2" fill-rule="nonzero"></path>
                        <path d="M49.1721124,24.8162661 C45.3119129,24.8162661 42.1711936,27.9571916 42.1711936,31.8167256 C42.1711936,35.6762595 45.310994,38.8162661 49.1721124,38.8162661 C53.0313931,38.8162661 56.1711936,35.6762595 56.1711936,31.8167256 C56.1711936,27.9571916 53.0313931,24.8162661 49.1721124,24.8162661 Z M49.1721124,37.43878 C46.0718236,37.43878 43.5495081,34.9172178 43.5495081,31.8176445 C43.5495081,28.7171522 46.0718236,26.19559 49.1721124,26.19559 C52.2714824,26.19559 54.792879,28.7171522 54.792879,31.8176445 C54.792879,34.9172178 52.2705635,37.43878 49.1721124,37.43878 Z" id="Shape" fill="#F2A6A6" fill-rule="nonzero"></path>
                    </g>
                </g>
            </g>
        </g>
    </g>
</svg>