<?xml version="1.0" encoding="UTF-8"?>
<svg width="59px" height="60px" viewBox="0 0 59 60" version="1.1" xmlns="http://www.w3.org/2000/svg" xmlns:xlink="http://www.w3.org/1999/xlink">
    <!-- Generator: Sketch 55 (78076) - https://sketchapp.com -->
    <title>Our Porcess - Satelite </title>
    <desc>Created with Sketch.</desc>
    <g id="TGP-DESKTOP-VERSION" stroke="none" stroke-width="1" fill="none" fill-rule="evenodd">
        <g id="Our-Process" transform="translate(-132.000000, -171.000000)" fill="#5F3468">
            <g id="Our-Porcess---Satelite-" transform="translate(132.000000, 168.000000)">
                <g id="Satelite" transform="translate(0.000000, 3.548872)">
                    <path d="M41.6084021,32.9021917 C41.1743989,32.4691471 40.4719864,32.4691471 40.0379832,32.9021917 L35.7033995,37.2366651 L34.1377186,35.6719716 L44.2773325,28.0562613 C44.5336597,27.8620071 44.6957002,27.5675463 44.7177321,27.2465531 C44.7409484,26.92556 44.6224977,26.6116737 44.3948356,26.3823591 L43.7026099,25.690151 C44.1875469,25.7595613 44.676985,25.807651 45.174004,25.807651 C50.0683855,25.807651 53.695108,22.3809604 53.8476724,22.2357436 C54.0632527,22.0294078 54.1854937,21.7444228 54.1890473,21.4464085 C54.1918901,21.1474466 54.074387,20.8596188 53.8633079,20.6478344 L48.7839065,15.5692728 C49.2382833,14.9362885 49.4770798,14.172775 49.4436767,13.3557231 C49.4038773,12.3747396 48.9893,11.4420828 48.2748055,10.726659 C47.5316461,9.9825708 46.5193667,9.55426408 45.4966636,9.55426408 L45.4938208,9.55426408 C44.7340783,9.55426408 44.0214791,9.78926423 43.4282781,10.2149651 L38.350535,5.13640351 C38.1394559,4.92627738 37.858254,4.85497189 37.5538358,4.81162005 C37.255814,4.81541037 36.9708217,4.93835904 36.7644806,5.15298619 C36.7043077,5.21600034 32.5260789,9.7049295 33.3211198,15.3089249 L32.6168121,14.6046351 C32.3891499,14.3769787 32.0707545,14.2658748 31.7533067,14.283642 C31.4323054,14.3059101 31.1368895,14.4660514 30.943578,14.7240304 L23.327674,24.8633864 L21.7610455,23.2967977 L26.0946816,18.9632719 C26.5286848,18.5292797 26.5286848,17.8249899 26.0946816,17.3909977 L12.1340862,3.43075731 C11.7000829,2.99676511 10.9967229,2.99676511 10.5636672,3.43075731 L0.324791724,13.6674773 C0.116555455,13.8757083 0,14.1587982 0,14.4530221 C0,14.7481937 0.116555455,15.0312836 0.324791724,15.2395145 L14.2872823,29.1997549 C14.5047578,29.4162773 14.7878549,29.5245384 15.0728472,29.5245384 C15.3568919,29.5245384 15.6409365,29.4162773 15.8577013,29.1997549 L20.1922849,24.8652815 L21.9820745,26.6559731 L13.4209342,38.0539539 C13.3967702,38.085461 13.3884787,38.1233642 13.3690528,38.1584247 C13.0073045,38.1444479 12.6647451,38.1326032 12.4539029,38.1269177 C11.2767402,38.1269177 10.3857543,38.9108042 10.3357682,39.9972061 C10.3116042,40.5560421 10.5328701,43.0510235 10.6013345,43.8024554 C10.6245509,44.0616189 10.7382635,44.3039628 10.9223358,44.4863722 L14.5118648,48.077705 C14.6949895,48.2601144 14.9375765,48.3747717 15.1957989,48.3970399 C15.495716,48.4247566 18.148774,48.668285 18.8770087,48.668285 C18.8945394,48.668285 18.9871678,48.6663898 19.0046985,48.6644947 C20.1077111,48.6145098 20.9110436,47.6688237 20.8721917,46.4677645 C20.866743,46.2872503 20.8556086,45.9736009 20.8435267,45.6331823 C20.8778774,45.6128093 20.914834,45.6035704 20.9472895,45.5794071 L32.343428,37.0206166 L34.1322699,38.8075179 L29.7995815,43.1400961 C29.3655782,43.5740883 29.3655782,44.2783781 29.7995815,44.7104751 L43.7601769,58.674269 C43.9684132,58.8843951 44.2505626,59 44.5457417,59 C44.8390255,59 45.1223595,58.8843951 45.3305958,58.6761641 L55.5692344,48.43518 C56.0032377,48.0021354 56.0032377,47.2968981 55.5692344,46.8638535 L41.6084021,32.9021917 Z M15.0728472,26.8438311 L2.68077546,14.453259 L11.3489951,5.78525976 L23.7391716,18.1770163 L19.4081415,22.5076994 L19.4062463,22.5095946 C19.4052987,22.5095946 19.4052987,22.5114898 19.4052987,22.5114898 L15.0728472,26.8438311 Z M45.4942946,11.7751576 L45.4952422,11.7751576 C45.9339835,11.7751576 46.3734355,11.9658583 46.7029652,12.2951428 C47.0223082,12.6144776 47.2082758,13.0243065 47.2248588,13.4452695 C47.2312552,13.6191506 47.1990366,13.7802395 47.149998,13.9346952 L45.0688198,11.8545175 C45.2036167,11.8111657 45.3433885,11.7751576 45.4942946,11.7751576 Z M37.6459904,7.57216105 L51.4241718,21.3490445 C50.2240297,22.2234251 47.9123465,23.5865207 45.174004,23.5865207 C42.8012003,23.5865207 40.5591661,22.5463134 38.5064161,20.4929049 C33.1114621,15.1009308 36.1077901,9.66157766 37.6459904,7.57216105 Z M15.798239,46.2230517 L12.7767995,43.2016889 C12.6777747,42.0847275 12.5851463,40.8891169 12.5602716,40.3497063 C12.9997236,40.3653414 13.899238,40.3996912 14.4379516,40.4210118 L18.5808821,44.5619418 C18.600308,45.0809794 18.6308682,45.9435152 18.6429502,46.439574 C18.0414577,46.4118572 16.7735618,46.3099922 15.798239,46.2230517 Z M20.3834643,43.2249047 L15.7750227,38.6165803 L31.9518301,17.080428 L36.9296008,22.0590197 C36.931496,22.0599673 36.9333912,22.0637576 36.9359972,22.0654159 C36.9397876,22.0692062 36.9433411,22.0727596 36.9471315,22.0756024 L41.9201643,27.0485087 L20.3834643,43.2249047 Z M44.5457417,56.3188189 L32.1546176,43.9254041 L36.4863584,39.594721 C36.487306,39.594721 36.4882536,39.5928258 36.4892012,39.5928258 C36.4892012,39.5928258 36.4901489,39.5918782 36.4910965,39.5918782 L40.8237849,35.2593 L53.2139614,47.6491614 L44.5457417,56.3188189 Z" id="Shape" fill-rule="nonzero"></path>
                    <path d="M52.3370045,13.5258265 C52.3370045,14.1399305 52.835303,14.6390977 53.4504571,14.6390977 C54.0646612,14.6390977 54.5639098,14.1399305 54.5639098,13.5258265 C54.5639098,8.51396862 50.4863169,4.43609023 45.4743549,4.43609023 C44.8592008,4.43609023 44.3609023,4.93596991 44.3609023,5.54936148 C44.3609023,6.16536523 44.8592008,6.66263273 45.4743549,6.66263273 C49.2586214,6.66239525 52.3370045,9.74098921 52.3370045,13.5258265 Z" id="Path" fill-rule="nonzero"></path>
                    <path d="M54.9081786,4.0925292 C52.2701207,1.45352744 48.7582946,0 45.0234842,0 C44.412342,0 43.9172932,0.495048792 43.9172932,1.10619101 C43.9172932,1.71827708 44.412342,2.21238202 45.0234842,2.21238202 C48.1674452,2.21238202 51.1226363,3.43655415 53.3439849,5.65507119 C55.5643896,7.87830747 56.7876179,10.8316109 56.7876179,13.9765158 C56.7876179,14.5867141 57.2826667,15.0827068 57.8938089,15.0827068 C58.5049511,15.0827068 58.9999999,14.5867141 58.9999999,13.9765158 C59.0004718,10.2414694 57.5469444,6.72964326 54.9081786,4.0925292 Z" id="Path" fill-rule="nonzero"></path>
                    <path d="M39.0557748,39.0887575 L37.7229002,47.0339265 C37.6194081,47.6494482 38.0246341,48.2319655 38.6283381,48.3382062 C38.6911895,48.3485653 38.7547498,48.3533835 38.816656,48.3533835 C39.3464033,48.3533835 39.8144807,47.9657614 39.9066312,47.4150441 L41.2395058,39.469875 C41.3429979,38.8543533 40.9377719,38.271836 40.3340679,38.1655953 C39.73887,38.0648955 39.1592669,38.4741994 39.0557748,39.0887575 Z" id="Path" fill-rule="nonzero"></path>
                    <path d="M44.8386879,52.7735682 C44.9015435,52.7839309 44.9651079,52.7894737 45.0270183,52.7894737 C45.556801,52.7894737 46.0249097,52.4017185 46.1170664,51.850089 L47.4500299,43.9038783 C47.553529,43.2881451 47.1482759,42.7054278 46.5454767,42.6001146 C45.9474036,42.5058869 45.3694158,42.9088246 45.2661531,43.5226298 L43.9331895,51.4698046 C43.8306357,52.0852967 44.2349435,52.668014 44.8386879,52.7735682 Z" id="Path" fill-rule="nonzero"></path>
                    <path d="M11.0567478,8.88692917 C10.4612692,8.7881497 9.88162286,9.19555477 9.77741412,9.8091921 L8.44444016,17.7549161 C8.34188553,18.3714445 8.74714175,18.9530387 9.3499456,19.0592869 C9.41280167,19.0696467 9.47636664,19.075188 9.5382775,19.075188 C10.0680644,19.075188 10.5361766,18.6865751 10.6292792,18.1360603 L11.961308,10.1903363 C12.0648078,9.57477156 11.6595516,8.99221363 11.0567478,8.88692917 Z" id="Path" fill-rule="nonzero"></path>
                    <path d="M17.2665957,13.3230683 C16.6704083,13.224308 16.0914709,13.629707 15.9872621,14.2461159 L14.6552334,22.1922259 C14.5517335,22.8076712 14.9569897,23.3901162 15.5597936,23.4953802 C15.6235949,23.5067015 15.6862146,23.5112782 15.7481255,23.5112782 C16.2779124,23.5112782 16.7460246,23.1237042 16.8391272,22.5730553 L18.1721012,14.6269453 C18.2746558,14.0110182 17.8693996,13.4295367 17.2665957,13.3230683 Z" id="Path" fill-rule="nonzero"></path>
                </g>
            </g>
        </g>
    </g>
</svg>