<?xml version="1.0" encoding="UTF-8"?>
<svg width="56px" height="56px" viewBox="0 0 56 56" version="1.1" xmlns="http://www.w3.org/2000/svg" xmlns:xlink="http://www.w3.org/1999/xlink">
    <!-- Generator: Sketch 54.1 (76490) - https://sketchapp.com -->
    <title>Space Cadet</title>
    <desc>Created with Sketch.</desc>
    <g id="TGP-DESKTOP-VERSION" stroke="none" stroke-width="1" fill="none" fill-rule="evenodd">
        <g id="Our-Process" transform="translate(-673.000000, -164.000000)">
            <g id="Space-Cadet" transform="translate(673.000000, 164.000000)">
                <g id="Astronaut">
                    <g id="Group" fill-rule="nonzero">
                        <path d="M48.6314625,5.72837945 L48.286166,7.71383399 C48.1998419,8.05913043 48.3724901,8.31810277 48.6314625,8.49075099 C48.8904348,8.66339921 49.2357312,8.66339921 49.4947036,8.5770751 L51.3075099,7.71383399 L53.1203162,8.66339921 C53.3792885,8.83604743 53.724585,8.74972332 53.9835573,8.5770751 C54.2425296,8.40442688 54.3288538,8.05913043 54.3288538,7.8001581 L53.8972332,5.72837945 L55.3647431,4.34719368 C55.6237154,4.17454545 55.7100395,3.82924901 55.6237154,3.48395257 C55.4510672,3.22498024 55.1920949,2.96600791 54.9331225,2.96600791 L52.947668,2.70703557 L52.0844269,0.894229249 C51.9117787,0.548932806 51.5664822,0.376284585 51.3075099,0.376284585 C50.9622134,0.376284585 50.7032411,0.548932806 50.5305929,0.807905138 L49.6673518,2.62071146 L47.5955731,2.96600791 C47.3366008,2.96600791 47.0776285,3.22498024 46.9913043,3.48395257 C46.9049802,3.82924901 46.9913043,4.08822134 47.1639526,4.34719368 L48.6314625,5.72837945 Z M50.2716206,4.26086957 C50.5305929,4.26086957 50.7895652,4.08822134 50.8758893,3.82924901 L51.3075099,3.13865613 L51.6528063,3.82924901 C51.7391304,4.08822134 51.9981028,4.26086957 52.2570751,4.26086957 L53.0339921,4.34719368 L52.5160474,4.86513834 C52.2570751,5.03778656 52.170751,5.383083 52.170751,5.64205534 L52.2570751,6.41897233 L51.5664822,6.07367589 C51.3075099,5.98735178 51.0485375,5.98735178 50.7895652,6.07367589 L50.0989723,6.41897233 L50.1852964,5.64205534 C50.2716206,5.383083 50.0989723,5.12411067 49.9263241,4.86513834 L49.5810277,4.34719368 L50.2716206,4.26086957 Z" id="Shape" fill="#65B56E"></path>
                        <path d="M44.1426087,16.6052174 L43.7973123,18.5906719 C43.7109881,18.9359684 43.8836364,19.1949407 44.1426087,19.3675889 C44.401581,19.5402372 44.7468775,19.5402372 45.0058498,19.453913 L46.8186561,18.5043478 L48.6314625,19.453913 C48.8904348,19.6265613 49.2357312,19.5402372 49.4947036,19.3675889 C49.7536759,19.1949407 49.84,18.8496443 49.84,18.5906719 L49.4947036,16.6052174 L50.9622134,15.2240316 C51.2211858,14.9650593 51.3075099,14.706087 51.1348617,14.3607905 C51.0485375,14.0154941 50.7895652,13.8428458 50.4442688,13.7565217 L48.4588142,13.4975494 L47.5955731,11.6847431 C47.3366008,11.0804743 46.3870356,11.0804743 46.1280632,11.6847431 L45.2648221,13.4975494 L43.2793676,13.7565217 C42.9340711,13.8428458 42.6750988,14.0154941 42.5887747,14.3607905 C42.5024506,14.706087 42.5887747,14.9650593 42.7614229,15.2240316 L44.1426087,16.6052174 Z M45.8690909,15.0513834 C46.1280632,15.0513834 46.3870356,14.8787352 46.4733597,14.6197628 L46.8186561,13.92917 L47.1639526,14.6197628 C47.2502767,14.8787352 47.509249,15.0513834 47.7682213,15.0513834 L48.5451383,15.1377075 L48.0271937,15.6556522 C47.8545455,15.8283004 47.7682213,16.0872727 47.7682213,16.4325692 L47.8545455,17.2094862 L47.1639526,16.8641897 C47.0776285,16.7778656 46.9049802,16.7778656 46.8186561,16.7778656 C46.732332,16.7778656 46.5596838,16.7778656 46.3870356,16.8641897 L45.6964427,17.2094862 L45.7827668,16.4325692 C45.8690909,16.1735968 45.6964427,15.9146245 45.5237945,15.6556522 L45.0058498,15.1377075 L45.8690909,15.0513834 Z" id="Shape" fill="#65B56E"></path>
                        <path d="M8.49075099,11.6847431 L7.62750988,13.4975494 L5.55573123,13.7565217 C5.21043478,13.8428458 4.95146245,14.0154941 4.86513834,14.3607905 C4.77881423,14.706087 4.86513834,14.9650593 5.03778656,15.2240316 L6.50529644,16.6052174 L6.16,18.5906719 C6.07367589,18.9359684 6.24632411,19.1949407 6.50529644,19.3675889 C6.76426877,19.5402372 7.10956522,19.5402372 7.36853755,19.453913 L9.18134387,18.5043478 L10.9941502,19.453913 C11.2531225,19.6265613 11.598419,19.5402372 11.8573913,19.3675889 C12.1163636,19.1949407 12.2026877,18.8496443 12.2026877,18.5906719 L11.8573913,16.6052174 L13.3249012,15.2240316 C13.5838735,14.9650593 13.6701976,14.706087 13.4975494,14.3607905 C13.4112253,14.0154941 13.152253,13.8428458 12.8069565,13.7565217 L10.821502,13.4975494 L9.95826087,11.6847431 C9.69928854,11.0804743 8.74972332,11.0804743 8.49075099,11.6847431 Z M8.83604743,14.6197628 L9.18134387,13.92917 L9.52664032,14.6197628 C9.61296443,14.8787352 9.87193676,15.0513834 10.1309091,15.0513834 L10.9078261,15.1377075 L10.3898814,15.6556522 C10.2172332,15.8283004 10.1309091,16.0872727 10.1309091,16.4325692 L10.2172332,17.2094862 L9.52664032,16.8641897 C9.26766798,16.7778656 9.00869565,16.7778656 8.74972332,16.8641897 L8.14545455,17.2094862 L8.23177866,16.4325692 C8.31810277,16.1735968 8.14545455,15.9146245 7.97280632,15.6556522 L7.45486166,15.1377075 L8.23177866,15.0513834 C8.49075099,15.0513834 8.74972332,14.8787352 8.83604743,14.6197628 Z" id="Shape" fill="#65B56E"></path>
                        <path d="M2.1027668,5.72837945 L1.75747036,7.71383399 C1.67114625,8.05913043 1.84379447,8.40442688 2.1027668,8.5770751 C2.36173913,8.74972332 2.70703557,8.74972332 2.96600791,8.66339921 L4.69249012,7.71383399 L6.50529644,8.66339921 C6.76426877,8.83604743 7.10956522,8.74972332 7.36853755,8.5770751 C7.62750988,8.40442688 7.71383399,8.05913043 7.71383399,7.8001581 L7.36853755,5.72837945 L8.83604743,4.34719368 C9.09501976,4.08822134 9.18134387,3.82924901 9.00869565,3.48395257 C8.92237154,3.22498024 8.66339921,2.96600791 8.31810277,2.96600791 L6.33264822,2.62071146 L5.46940711,0.807905138 C5.21043478,0.203636364 4.26086957,0.203636364 4.00189723,0.807905138 L3.13865613,2.62071146 L1.06687747,2.96600791 C0.807905138,2.96600791 0.548932806,3.22498024 0.376284585,3.48395257 C0.289960474,3.82924901 0.376284585,4.17454545 0.635256917,4.34719368 L2.1027668,5.72837945 Z M3.7429249,4.26086957 C4.00189723,4.26086957 4.26086957,4.08822134 4.34719368,3.82924901 L4.69249012,3.13865613 L5.03778656,3.82924901 C5.12411067,4.08822134 5.383083,4.26086957 5.64205534,4.26086957 L6.41897233,4.34719368 L5.90102767,4.86513834 C5.72837945,5.03778656 5.64205534,5.383083 5.64205534,5.64205534 L5.72837945,6.41897233 L5.12411067,5.98735178 C4.95146245,5.98735178 4.86513834,5.90102767 4.69249012,5.90102767 C4.5198419,5.90102767 4.43351779,5.90102767 4.26086957,5.98735178 L3.65660079,6.33264822 L3.82924901,5.64205534 C3.82924901,5.383083 3.7429249,5.03778656 3.57027668,4.86513834 L3.05233202,4.34719368 L3.7429249,4.26086957 Z" id="Shape" fill="#65B56E"></path>
                        <path d="M1.75747036,55.3647431 C4.08822134,53.0339921 9.44031621,51.2211858 16.3462451,50.1852964 C16.4325692,50.5305929 16.7778656,50.7032411 17.1231621,50.7032411 L26.2735178,50.7032411 C26.7051383,50.7032411 27.0504348,50.3579447 27.1367589,50.0126482 L28,43.2793676 L28.8632411,50.0126482 C28.9495652,50.4442688 29.2948617,50.7032411 29.7264822,50.7032411 L38.8768379,50.7032411 C39.2221344,50.7032411 39.5674308,50.5305929 39.6537549,50.1852964 C46.1280632,51.2211858 51.2211858,52.947668 54.3288538,55.4510672 C54.6741502,55.7100395 55.1920949,55.7100395 55.5373913,55.278419 C55.7963636,54.9331225 55.7963636,54.4151779 55.3647431,54.0698814 C51.9117787,51.393834 46.5596838,49.4947036 39.6537549,48.4588142 C39.3947826,46.732332 37.9272727,45.3511462 36.1144664,45.3511462 L36.1144664,33.8700395 L36.2871146,33.8700395 C38.1862451,33.8700395 39.7400791,32.3162055 39.7400791,30.5033992 L39.7400791,19.8855336 C39.7400791,17.2958103 38.0999209,14.9650593 35.6828458,14.1881423 C35.6828458,14.1881423 35.6828458,14.1881423 35.6828458,14.1881423 C35.6828458,14.1881423 35.6828458,14.1881423 35.5965217,14.1881423 C35.5965217,14.1881423 35.5965217,14.1881423 35.5101976,14.1881423 C36.3734387,12.8069565 36.8913834,11.1667984 36.8913834,9.35399209 C36.8913834,4.34719368 32.9204743,0.376284585 28,0.376284585 C23.0795257,0.376284585 19.1086166,4.34719368 19.1086166,9.26766798 C19.1086166,10.9941502 19.6265613,12.7206324 20.4898024,14.1018182 C20.4898024,14.1018182 20.4898024,14.1018182 20.4034783,14.1018182 C20.4034783,14.1018182 20.4034783,14.1018182 20.3171542,14.1018182 C20.3171542,14.1018182 20.3171542,14.1018182 20.3171542,14.1018182 C17.9000791,14.9650593 16.2599209,17.2094862 16.2599209,19.7992095 L16.2599209,30.4170751 C16.2599209,32.3162055 17.8137549,33.7837154 19.7128854,33.7837154 L19.8855336,33.7837154 L19.8855336,45.3511462 C18.0727273,45.3511462 16.6052174,46.732332 16.3462451,48.4588142 C8.83604743,49.5810277 3.31130435,51.5664822 0.635256917,54.1562055 C0.289960474,54.501502 0.289960474,55.0194466 0.635256917,55.3647431 C0.98055336,55.7100395 1.49849802,55.7100395 1.75747036,55.3647431 Z M28,14.5334387 C30.6760474,14.5334387 33.0067984,13.7565217 34.4743083,12.4616601 C33.2657708,14.8787352 30.8486957,16.5188933 28,16.5188933 C25.1513043,16.5188933 22.7342292,14.8787352 21.5256917,12.4616601 C22.9932016,13.7565217 25.3239526,14.5334387 28,14.5334387 Z M21.6120158,9.26766798 C21.6120158,7.28221344 24.5470356,5.64205534 28,5.64205534 C31.4529644,5.64205534 34.3879842,7.28221344 34.3879842,9.26766798 C34.3879842,11.1667984 31.4529644,12.8069565 28,12.8069565 C24.5470356,12.8069565 21.6120158,11.2531225 21.6120158,9.26766798 Z M21.6120158,15.7419763 L21.8709881,15.7419763 C23.5111462,17.2958103 25.5829249,18.2453755 28,18.2453755 C30.4170751,18.2453755 32.4888538,17.2958103 34.1290119,15.7419763 L34.3879842,15.7419763 L34.3879842,29.2948617 L21.6120158,29.2948617 L21.6120158,15.7419763 Z M38.0135968,48.9767589 L38.0135968,48.9767589 L30.5033992,49.063083 L28.8632411,36.546087 L28.8632411,30.9350198 L34.4743083,30.9350198 L34.4743083,46.3007115 C34.4743083,46.732332 34.8196047,47.1639526 35.3375494,47.1639526 L36.2007905,47.1639526 C37.1503557,47.0776285 38.0135968,47.9408696 38.0135968,48.9767589 Z M38.0135968,19.8855336 L38.0135968,30.5033992 C38.0135968,31.4529644 37.2366798,32.2298814 36.2871146,32.2298814 L36.1144664,32.2298814 C36.1144664,28.1726482 36.1144664,20.3171542 36.1144664,16.2599209 C37.2366798,17.0368379 38.0135968,18.4180237 38.0135968,19.8855336 Z M28,2.01644269 C30.8486957,2.01644269 33.2657708,3.65660079 34.4743083,6.07367589 C33.0067984,4.77881423 30.6760474,4.00189723 28,4.00189723 C25.3239526,4.00189723 22.9932016,4.77881423 21.5256917,6.07367589 C22.7342292,3.7429249 25.1513043,2.01644269 28,2.01644269 Z M19.7992095,32.2298814 C18.8496443,32.2298814 18.0727273,31.4529644 18.0727273,30.5033992 L18.0727273,19.8855336 C18.0727273,18.4180237 18.7633202,17.1231621 19.9718577,16.2599209 C19.9718577,20.3171542 19.9718577,28.1726482 19.9718577,32.2298814 L19.7992095,32.2298814 L19.7992095,32.2298814 Z M17.9864032,48.9767589 C17.9864032,47.9408696 18.8496443,47.0776285 19.8855336,47.0776285 L20.7487747,47.0776285 C21.1803953,47.0776285 21.6120158,46.732332 21.6120158,46.2143874 L21.6120158,30.9350198 L27.1367589,30.9350198 L27.1367589,36.546087 L25.5829249,48.9767589 L17.9864032,48.9767589 L17.9864032,48.9767589 Z" id="Shape" fill="#FFFFFF"></path>
                    </g>
                </g>
            </g>
        </g>
    </g>
</svg>