<?xml version="1.0" encoding="UTF-8"?>
<svg width="1408px" height="371px" viewBox="0 0 1408 371" version="1.1" xmlns="http://www.w3.org/2000/svg" xmlns:xlink="http://www.w3.org/1999/xlink">
    <!-- Generator: Sketch 55 (78076) - https://sketchapp.com -->
    <title>Sparkles</title>
    <desc>Created with Sketch.</desc>
    <g id="TGP-DESKTOP-VERSION" stroke="none" stroke-width="1" fill="none" fill-rule="evenodd">
        <g id="Our-Process" fill="#26405F">
            <g id="Sparkles" transform="translate(-86.000000, -5.000000)">
                <g id="Group" transform="translate(1371.000000, 170.000000)" fill-rule="nonzero">
                    <path d="M103.915086,42.8695652 C88.456663,49.0507583 87.2675535,48.0537917 89.8439574,31.5041456 C87.4657384,48.0537917 86.0784441,48.4525784 72.9982401,38.0841254 C85.8802592,48.4525784 85.6820743,49.8483316 70.4218362,56.0295248 C85.8802592,49.8483316 87.0693686,50.8452983 84.4929648,67.3949444 C86.8711837,50.8452983 88.2584781,50.4465116 101.338682,60.8149646 C88.456663,50.4465116 88.6548479,49.0507583 103.915086,42.8695652 Z" id="Path"></path>
                    <path d="M92.0239914,5.78240647 C85.0875195,8.57391304 84.6911497,8.17512639 85.6820743,0.797573306 C84.4929648,8.17512639 83.8984101,8.37451972 78.1510477,3.78847321 C83.8984101,8.37451972 83.8984101,9.17209302 76.9619382,11.7642063 C83.8984101,8.9726997 84.2947799,9.37148635 83.3038553,16.7490394 C84.4929648,9.37148635 85.0875195,9.17209302 90.8348819,13.7581395 C84.8893346,9.17209302 85.0875195,8.57391304 92.0239914,5.78240647 Z" id="Path"></path>
                    <path d="M19.0919447,118.240243 C12.1554728,121.031749 11.759103,120.632963 12.7500276,113.25541 C11.5609181,120.632963 10.9663634,120.832356 5.21900101,116.246309 C10.9663634,120.832356 10.9663634,121.629929 4.02989155,124.222042 C10.9663634,121.430536 11.3627332,121.829323 10.3718087,129.206876 C11.5609181,121.829323 12.1554728,121.629929 17.9028352,126.215976 C12.1554728,121.629929 12.1554728,121.031749 19.0919447,118.240243 Z" id="Path"></path>
                    <path d="M42.8741338,158.916481 C35.937662,161.707988 35.5412922,161.309201 36.5322167,153.931648 C35.3431073,161.309201 34.7485525,161.508595 29.0011901,156.922548 C34.7485525,161.508595 34.7485525,162.306168 27.8120807,164.898281 C34.7485525,162.106775 35.1449223,162.505561 34.1539978,169.883114 C35.3431073,162.505561 35.937662,162.306168 41.6850244,166.892214 C35.937662,162.306168 35.937662,161.707988 42.8741338,158.916481 Z" id="Path"></path>
                    <path d="M42.0813942,73.1773509 C22.857458,81.1530839 21.4701636,79.956724 24.2447523,59.219818 C21.4701636,79.956724 19.6864994,80.5549039 3.43533683,67.793731 C19.8846843,80.5549039 19.4883145,82.3494439 0.462563184,90.3251769 C19.6864994,82.3494439 21.0737938,83.5458038 18.299205,104.28271 C21.0737938,83.7451972 22.659273,82.9476239 39.1086205,95.7087968 C22.659273,82.9476239 22.857458,81.1530839 42.0813942,73.1773509 Z" id="Path"></path>
                    <path d="M41.2886545,107.473003 C46.837832,125.219009 44.8559829,129.007482 27.217526,134.590495 C44.8559829,129.007482 48.6214962,131.001416 54.1706737,148.747422 C48.6214962,131.200809 50.6033453,127.212942 68.2418022,121.829323 C50.6033453,127.212942 46.837832,125.219009 41.2886545,107.473003 Z" id="Path"></path>
                    <path d="M46.837832,3.98786653 C45.2523527,22.5314459 41.8832093,25.3229525 23.4520127,23.7278059 C41.8832093,25.3229525 44.657798,28.712639 43.0723187,47.2562184 C44.657798,28.712639 48.0269415,25.9211325 66.458138,27.5162791 C48.0269415,25.7217391 45.2523527,22.3320526 46.837832,3.98786653 Z" id="Path"></path>
                    <path d="M100.347758,120.832356 C94.0058405,123.225076 92.6185461,122.626896 90.2403272,116.246309 C92.6185461,122.626896 92.0239914,124.022649 85.6820743,126.415369 C92.0239914,124.022649 93.4112857,124.620829 95.7895046,131.001416 C93.4112857,124.820222 94.0058405,123.225076 100.347758,120.832356 Z" id="Path"></path>
                    <path d="M70.0254664,78.9597573 C63.6835493,81.3524772 62.2962549,80.7542973 59.918036,74.3737108 C62.2962549,80.7542973 61.7017002,82.1500506 55.3597831,84.5427705 C61.7017002,82.1500506 63.0889946,82.7482305 65.4672135,89.128817 C63.2871795,82.7482305 63.8817342,81.3524772 70.0254664,78.9597573 Z" id="Path"></path>
                    <path d="M77.3583081,151.937715 C79.736527,158.318301 79.1419722,159.714055 72.8000551,162.106775 C79.1419722,159.714055 80.5292666,160.312235 82.9074855,166.692821 C80.5292666,160.312235 81.1238213,158.916481 87.4657384,156.523761 C81.3220062,158.916481 79.9347119,158.318301 77.3583081,151.937715 Z" id="Path"></path>
                </g>
                <g id="noun_sparkles_893931" transform="translate(1115.000000, 5.000000)" fill-rule="nonzero">
                    <g id="Group" transform="translate(0.000000, 4.000000)">
                        <path d="M134.15081,55.8195753 C122.716702,69.0463903 121.053559,68.6264914 115.648344,52.0404853 C121.261452,68.6264914 120.221987,69.8861881 103.174771,66.3170475 C120.221987,69.8861881 120.637773,71.3558342 109.203665,84.3726997 C120.637773,71.1458847 122.093023,71.5657836 127.706131,88.1517897 C122.093023,71.5657836 123.132488,70.306087 140.179704,73.8752275 C123.132488,70.5160364 122.508809,69.0463903 134.15081,55.8195753 Z" id="Path"></path>
                        <path d="M108.579986,16.1391304 C92.3643411,22.6475632 91.1169838,21.597816 93.8195913,4.17201213 C91.3248767,21.597816 89.8696265,22.0177149 76.1486963,11.1003438 C89.6617336,22.0177149 89.4538407,23.487361 73.4460888,29.9957937 C89.6617336,23.487361 90.9090909,24.5371082 88.2064834,41.962912 C90.701198,24.5371082 92.1564482,24.1172093 105.877378,35.0345804 C92.3643411,24.1172093 92.572234,22.6475632 108.579986,16.1391304 Z" id="Path"></path>
                        <path d="M167.829457,5.85160768 C160.761099,8.7908999 160.137421,8.37100101 161.384778,0.392922144 C160.137421,8.16105157 159.513742,8.37100101 153.484848,3.5421638 C159.513742,8.37100101 159.513742,9.21079879 152.237491,11.9401416 C159.513742,9.00084934 159.929528,9.42074823 158.890063,17.1888777 C160.137421,9.42074823 160.761099,9.21079879 166.789993,14.039636 C160.553206,9.42074823 160.761099,8.7908999 167.829457,5.85160768 Z" id="Path"></path>
                        <path d="M19.6018323,95.5000202 C12.3255814,98.4393124 11.9097956,98.0194135 12.94926,90.2512841 C11.7019027,98.0194135 11.0782241,98.229363 5.04933051,93.4005258 C11.0782241,98.229363 11.0782241,99.0691608 3.80197322,101.798504 C11.0782241,98.8592113 11.4940099,99.2791102 10.4545455,107.04724 C11.7019027,99.2791102 12.3255814,99.0691608 18.354475,103.897998 C12.3255814,99.0691608 12.3255814,98.4393124 19.6018323,95.5000202 Z" id="Path"></path>
                        <path d="M44.5489782,138.329707 C37.2727273,141.268999 36.8569415,140.8491 37.8964059,133.080971 C36.6490486,140.8491 36.02537,141.05905 29.9964764,136.230212 C36.02537,141.05905 36.02537,141.898847 28.7491191,144.62819 C36.02537,141.688898 36.4411557,142.108797 35.4016913,149.876926 C36.6490486,142.108797 37.2727273,141.898847 43.3016209,146.727685 C37.2727273,141.898847 37.2727273,141.268999 44.5489782,138.329707 Z" id="Path"></path>
                        <path d="M179.679352,81.0135086 C172.403101,83.9528008 171.987315,83.5329019 173.026779,75.7647725 C171.779422,83.5329019 171.155743,83.7428514 165.12685,78.9140142 C171.155743,83.7428514 171.155743,84.5826491 163.879493,87.3119919 C171.155743,84.3726997 171.571529,84.7925986 170.532065,92.560728 C171.779422,84.7925986 172.403101,84.5826491 178.431994,89.4114863 C172.403101,84.5826491 172.403101,83.9528008 179.679352,81.0135086 Z" id="Path"></path>
                        <path d="M43.7174066,48.0514459 C23.551797,56.4494237 22.0965469,55.189727 25.0070472,33.3549848 C22.0965469,55.189727 20.2255109,55.8195753 3.17829457,42.3828109 C20.4334038,55.8195753 20.017618,57.7091203 0.059901339,66.1070981 C20.2255109,57.7091203 21.6807611,58.968817 18.7702607,80.8035592 C21.6807611,59.1787664 23.3439042,58.3389687 40.5990134,71.7757331 C23.3439042,58.3389687 23.551797,56.4494237 43.7174066,48.0514459 Z" id="Path"></path>
                        <path d="M159.513742,108.096987 C142.258633,118.17456 137.684989,117.124813 127.706131,99.6990091 C137.684989,117.124813 136.645525,121.743701 119.390416,131.821274 C136.645525,121.743701 141.219168,122.793448 151.198027,140.219252 C141.219168,122.793448 142.258633,118.17456 159.513742,108.096987 Z" id="Path"></path>
                        <path d="M42.8858351,84.1627503 C48.7068358,102.848251 46.627907,106.83729 28.1254405,112.715875 C46.627907,106.83729 50.5778717,108.936785 56.3988724,127.622285 C50.5778717,109.146734 52.6568006,104.947745 71.1592671,99.2791102 C52.6568006,104.947745 48.7068358,102.848251 42.8858351,84.1627503 Z" id="Path"></path>
                        <path d="M104.837914,98.229363 C98.1853418,100.748756 96.7300916,100.118908 94.235377,93.4005258 C96.7300916,100.118908 96.106413,101.588554 89.4538407,104.107947 C96.106413,101.588554 97.5616631,102.218402 100.056378,108.936785 C97.5616631,102.428352 98.1853418,100.748756 104.837914,98.229363 Z" id="Path"></path>
                        <path d="M73.030303,54.1399798 C66.3777308,56.6593731 64.9224806,56.0295248 62.427766,49.3111426 C64.9224806,56.0295248 64.298802,57.4991709 57.6462297,60.0185642 C64.298802,57.4991709 65.7540521,58.1290192 68.2487667,64.8474014 C65.961945,58.1290192 66.5856237,56.6593731 73.030303,54.1399798 Z" id="Path"></path>
                        <path d="M133.735025,27.6863498 C127.082452,30.2057432 125.627202,29.5758948 123.132488,22.8575126 C125.627202,29.5758948 125.003524,31.045541 118.350951,33.5649343 C125.003524,31.045541 126.458774,31.6753893 128.953488,38.3937715 C126.458774,31.8853387 127.082452,30.2057432 133.735025,27.6863498 Z" id="Path"></path>
                        <path d="M159.929528,42.3828109 C162.424242,49.1011931 161.800564,50.5708392 155.147992,53.0902326 C161.800564,50.5708392 163.255814,51.2006876 165.750529,57.9190698 C163.255814,51.2006876 163.879493,49.7310415 170.532065,47.2116481 C163.879493,49.7310415 162.424242,49.1011931 159.929528,42.3828109 Z" id="Path"></path>
                        <path d="M80.7223397,130.981476 C83.2170543,137.699858 82.5933756,139.169505 75.9408034,141.688898 C82.5933756,139.169505 84.0486258,139.799353 86.5433404,146.517735 C84.0486258,139.799353 84.6723044,138.329707 91.3248767,135.810313 C84.8801973,138.329707 83.4249471,137.699858 80.7223397,130.981476 Z" id="Path"></path>
                    </g>
                    <g transform="translate(198.000000, 0.000000)" id="Group">
                        <g>
                            <path d="M152.160077,58.71818 C139.231969,73.6445298 137.351516,73.1706775 131.240047,54.4535086 C137.586573,73.1706775 136.41129,74.5922346 117.136656,70.5644894 C136.41129,74.5922346 136.881403,76.2507179 123.953295,90.9401416 C136.881403,76.0137917 138.526799,76.4876441 144.873325,95.2048129 C138.526799,76.4876441 139.702082,75.066087 158.976716,79.0938322 C139.702082,75.3030131 138.996912,73.6445298 152.160077,58.71818 Z" id="Path"></path>
                            <path d="M123.248125,13.9391304 C104.913717,21.2838423 103.503377,20.0992113 106.559112,0.434337715 C103.738434,20.0992113 102.093038,20.5730637 86.579308,8.25290192 C101.857982,20.5730637 101.622925,22.231547 83.5235732,29.5762588 C101.857982,22.231547 103.268321,23.416178 100.212586,43.0810516 C103.033264,23.416178 104.67866,22.9423256 120.19239,35.2624874 C104.913717,22.9423256 105.148773,21.2838423 123.248125,13.9391304 Z" id="Path"></path>
                            <path d="M22.6439344,103.49723 C14.4169562,106.814196 13.9468431,106.340344 15.1221257,97.5740748 C13.7117866,106.340344 13.006617,106.57727 6.18997794,101.127968 C13.006617,106.57727 13.006617,107.524975 4.77963882,110.605015 C13.006617,107.288049 13.4767301,107.761901 12.3014475,116.52817 C13.7117866,107.761901 14.4169562,107.524975 21.2335953,112.974277 C14.4169562,107.524975 14.4169562,106.814196 22.6439344,103.49723 Z" id="Path"></path>
                            <path d="M50.8507168,151.830172 C42.6237386,155.147139 42.1536256,154.673286 43.3289082,145.907017 C41.9185691,154.673286 41.2133995,154.910212 34.3967604,149.46091 C41.2133995,154.910212 41.2133995,155.857917 32.9864213,158.937958 C41.2133995,155.620991 41.6835125,156.094843 40.5082299,164.861112 C41.9185691,156.094843 42.6237386,155.857917 49.4403777,161.307219 C42.6237386,155.857917 42.6237386,155.147139 50.8507168,151.830172 Z" id="Path"></path>
                            <path d="M49.9104908,49.951911 C27.1100083,59.4289585 25.4646126,58.0074014 28.7554039,33.3670779 C25.4646126,58.0074014 23.3491039,58.71818 4.07446926,43.5549039 C23.5841605,58.71818 23.1140474,60.8505157 0.54862145,70.3275632 C23.3491039,60.8505157 24.9944996,62.2720728 21.7037083,86.9123964 C24.9944996,62.508999 26.8749518,61.5612942 46.384643,76.7245703 C26.8749518,61.5612942 27.1100083,59.4289585 49.9104908,49.951911 Z" id="Path"></path>
                            <path d="M180.836973,117.712801 C161.327281,129.085258 156.156038,127.900627 144.873325,108.235753 C156.156038,127.900627 154.980755,133.113003 135.471064,144.48546 C154.980755,133.113003 160.151999,134.297634 171.434712,153.962508 C160.151999,134.297634 161.327281,129.085258 180.836973,117.712801 Z" id="Path"></path>
                            <path d="M48.9702647,90.7032154 C55.5518473,111.789646 53.2012821,116.291244 32.2812517,122.925177 C53.2012821,116.291244 57.6673559,118.660506 64.2489385,139.746936 C57.6673559,118.897432 60.0179211,114.158908 80.9379515,107.761901 C60.0179211,114.158908 55.5518473,111.789646 48.9702647,90.7032154 Z" id="Path"></path>
                            <path d="M119.017108,106.57727 C111.495299,109.420384 109.849904,108.709606 107.029225,101.127968 C109.849904,108.709606 109.144734,110.368089 101.622925,113.211203 C109.144734,110.368089 110.79013,111.078868 113.610808,118.660506 C110.79013,111.315794 111.495299,109.420384 119.017108,106.57727 Z" id="Path"></path>
                            <path d="M83.0534602,56.8227705 C75.5316515,59.6658847 73.8862559,58.9551062 71.0655776,51.3734681 C73.8862559,58.9551062 73.1810863,60.6135895 65.6592776,63.4567037 C73.1810863,60.6135895 74.8264819,61.324368 77.6471602,68.9060061 C75.0615385,61.324368 75.766708,59.6658847 83.0534602,56.8227705 Z" id="Path"></path>
                            <path d="M151.689964,26.9700708 C144.168156,29.813185 142.52276,29.1024065 139.702082,21.5207685 C142.52276,29.1024065 141.81759,30.7608898 134.295782,33.604004 C141.81759,30.7608898 143.462986,31.4716684 146.283664,39.0533064 C143.462986,31.7085945 144.168156,29.813185 151.689964,26.9700708 Z" id="Path"></path>
                            <path d="M91.7505514,143.537755 C94.5712297,151.119393 93.8660601,152.777877 86.3442514,155.620991 C93.8660601,152.777877 95.5114557,153.488655 98.332134,161.070293 C95.5114557,153.488655 96.2166253,151.830172 103.738434,148.987058 C96.4516818,151.830172 94.8062862,151.119393 91.7505514,143.537755 Z" id="Path"></path>
                        </g>
                    </g>
                </g>
                <g id="noun_sparkles_893931" transform="translate(97.000000, 21.000000)" fill-rule="nonzero">
                    <g id="Group">
                        <path d="M91.6392611,99.5084191 C78.0824983,115.166434 76.1106055,114.669354 69.701954,95.0347005 C76.3570921,114.669354 75.1246591,116.160594 54.9127582,111.935415 C75.1246591,116.160594 75.6176323,117.900373 62.0608695,133.309849 C75.6176323,117.651833 77.3430385,118.148913 83.9981766,137.783567 C77.3430385,118.148913 78.5754714,116.657674 98.7873724,120.882852 C78.5754714,116.906214 77.8360117,115.166434 91.6392611,99.5084191 Z" id="Path"></path>
                        <path d="M61.3214097,52.5343738 C42.0954551,60.2391114 40.6165355,58.9964118 43.8208613,38.3675983 C40.8630221,58.9964118 39.137616,59.4934917 22.8695006,46.5694157 C38.8911294,59.4934917 38.6446428,61.2332711 19.6651748,68.9380087 C38.8911294,61.2332711 40.370049,62.4759707 37.1657232,83.1047843 C40.1235624,62.4759707 41.8489685,61.9788909 58.1170839,74.9029668 C42.0954551,61.9788909 42.3419417,60.2391114 61.3214097,52.5343738 Z" id="Path"></path>
                        <path d="M46.5322139,6.30594834 C37.905183,9.78550725 37.4122098,9.2884274 38.6446428,0.0924502865 C37.1657232,9.2884274 36.4262634,9.53696732 29.2781521,3.82054912 C36.4262634,9.53696732 36.4262634,10.531127 27.7992325,13.762146 C36.4262634,10.2825871 36.9192366,10.7796669 35.6868036,19.9756441 C37.1657232,10.7796669 37.905183,10.531127 45.0532943,16.2475452 C37.6586964,10.531127 37.905183,9.78550725 46.5322139,6.30594834 Z" id="Path"></path>
                        <path d="M131.57009,40.3559177 C123.189545,43.8354766 122.450086,43.3383967 123.929005,33.8938797 C122.450086,43.0898568 121.710626,43.3383967 114.562515,37.6219785 C121.710626,43.3383967 121.710626,44.3325564 113.083595,47.5635754 C121.710626,44.0840165 122.203599,44.5810963 120.971166,53.7770734 C122.450086,44.5810963 123.189545,44.3325564 130.337657,50.0489746 C122.943059,44.5810963 123.189545,43.8354766 131.57009,40.3559177 Z" id="Path"></path>
                        <path d="M145.619826,129.33321 C136.992795,132.812769 136.499822,132.315689 137.732255,123.119712 C136.253335,132.315689 135.513875,132.564229 128.365764,126.847811 C135.513875,132.564229 135.513875,133.558388 126.886844,136.789407 C135.513875,133.309849 136.006848,133.806928 134.774416,143.002905 C136.253335,133.806928 136.992795,133.558388 144.140906,139.274807 C136.992795,133.558388 136.992795,132.812769 145.619826,129.33321 Z" id="Path"></path>
                        <path d="M90.1603415,2.32930958 C81.0403374,15.9990053 77.3430385,16.4960851 64.0327622,6.05740842 C77.3430385,16.4960851 78.0824983,20.4727239 68.9624942,34.1424196 C78.0824983,20.4727239 81.7797972,19.9756441 95.0900734,30.4143208 C81.7797972,19.9756441 81.0403374,15.9990053 90.1603415,2.32930958 Z" id="Path"></path>
                        <path d="M56.8846509,149.713483 C48.9970798,152.695962 47.2716737,151.950343 44.3138345,143.997065 C47.2716737,151.950343 46.5322139,153.690122 38.6446428,156.672601 C46.5322139,153.690122 48.25762,154.435742 51.2154592,162.389019 C48.25762,154.684282 48.9970798,152.695962 56.8846509,149.713483 Z" id="Path"></path>
                        <path d="M19.1722016,97.5200997 C11.2846305,100.502579 9.55922436,99.756959 6.6013852,91.8036815 C9.55922436,99.756959 8.81976457,101.496738 0.932193473,104.479218 C8.81976457,101.496738 10.5451707,102.242358 13.5030099,110.195636 C10.7916573,102.242358 11.5311171,100.502579 19.1722016,97.5200997 Z" id="Path"></path>
                        <path d="M91.1462879,66.2040696 C83.2587168,69.1865486 81.5333106,68.4409288 78.5754714,60.4876513 C81.5333106,68.4409288 80.7938508,70.1807083 72.9062797,73.1631874 C80.7938508,70.1807083 82.519257,70.9263281 85.4770962,78.8796056 C82.519257,71.174868 83.2587168,69.1865486 91.1462879,66.2040696 Z" id="Path"></path>
                        <path d="M122.203599,83.6018641 C125.161438,91.5551416 124.421978,93.2949211 116.534407,96.2774001 C124.421978,93.2949211 126.147385,94.0405408 129.105224,101.993818 C126.147385,94.0405408 126.886844,92.3007614 134.774416,89.3182823 C126.886844,92.3007614 125.161438,91.5551416 122.203599,83.6018641 Z" id="Path"></path>
                    </g>
                </g>
                <g id="noun_sparkles_893931" transform="translate(922.000000, 0.000000)" fill-rule="nonzero">
                    <g id="Group">
                        <path d="M149.195571,86.5058038 C136.525699,100.619333 134.682809,100.171284 128.693415,82.473367 C134.91317,100.171284 133.761364,101.51543 114.871737,97.7070172 C133.761364,101.51543 134.222086,103.0836 121.552214,116.973104 C134.222086,102.859575 135.834615,103.307624 142.054371,121.005541 C135.834615,103.307624 136.986422,101.963478 155.876049,105.771891 C136.986422,102.187503 136.295338,100.619333 149.195571,86.5058038 Z" id="Path"></path>
                        <path d="M120.861131,44.1652174 C102.892949,51.1099697 101.510781,49.9898483 104.505478,31.3958342 C101.741142,49.9898483 100.128613,50.4378969 84.9247669,38.788635 C99.8982517,50.4378969 99.6678904,52.0060667 81.9300699,58.950819 C99.8982517,52.0060667 101.28042,53.1261881 98.2857226,71.7202022 C101.050058,53.1261881 102.662587,52.6781395 117.866434,64.3274014 C102.892949,52.6781395 103.12331,51.1099697 120.861131,44.1652174 Z" id="Path"></path>
                        <path d="M186.514103,33.1880283 C178.681818,36.324368 177.990734,35.8763195 179.372902,27.3633974 C177.990734,35.6522952 177.29965,35.8763195 170.619172,30.7237614 C177.29965,35.8763195 177.29965,36.7724166 169.237005,39.6847321 C177.29965,36.5483923 177.760373,36.9964408 176.608566,45.2853387 C177.990734,36.9964408 178.681818,36.7724166 185.362296,41.9249747 C178.451457,36.9964408 178.681818,36.324368 186.514103,33.1880283 Z" id="Path"></path>
                        <path d="M22.2664918,128.84639 C14.2038462,131.98273 13.7431235,131.534681 14.8949301,123.245784 C13.5127622,131.534681 12.8216783,131.758706 6.14120047,126.606148 C12.8216783,131.758706 12.8216783,132.654803 4.75903263,135.567118 C12.8216783,132.430779 13.2824009,132.878827 12.1305944,141.167725 C13.5127622,132.878827 14.2038462,132.654803 20.884324,137.807361 C14.2038462,132.654803 14.2038462,131.98273 22.2664918,128.84639 Z" id="Path"></path>
                        <path d="M49.9098485,174.547341 C41.8472028,177.68368 41.3864802,177.235632 42.5382867,168.946734 C41.1561189,177.235632 40.465035,177.459656 33.7845571,172.307098 C40.465035,177.459656 40.465035,178.355753 32.4023893,181.268069 C40.465035,178.131729 40.9257576,178.579778 39.773951,186.868675 C41.1561189,178.579778 41.8472028,178.355753 48.5276807,183.508311 C41.8472028,178.355753 41.8472028,177.68368 49.9098485,174.547341 Z" id="Path"></path>
                        <path d="M199.644697,113.388716 C191.582051,116.525056 191.121329,116.077007 192.273135,107.788109 C190.890967,116.077007 190.199883,116.301031 183.519406,111.148473 C190.199883,116.301031 190.199883,117.197128 182.137238,120.109444 C190.199883,116.973104 190.660606,117.421153 189.5088,125.710051 C190.890967,117.421153 191.582051,117.197128 198.262529,122.349687 C191.582051,117.197128 191.582051,116.525056 199.644697,113.388716 Z" id="Path"></path>
                        <path d="M48.9884033,78.216906 C26.6433566,87.1778766 25.0308275,85.833731 28.2558858,62.5352073 C25.0308275,85.833731 22.9575758,86.5058038 4.06794872,72.1682508 C23.1879371,86.5058038 22.7272145,88.5220222 0.612529138,97.4829929 C22.9575758,88.5220222 24.5701049,89.8661678 21.3450466,113.164692 C24.5701049,90.0901921 26.4129953,89.194095 45.5329837,103.531648 C26.4129953,89.194095 26.6433566,87.1778766 48.9884033,78.216906 Z" id="Path"></path>
                        <path d="M177.29965,142.287846 C158.179662,153.041011 153.111713,151.92089 142.054371,133.326876 C153.111713,151.92089 151.959907,156.849424 132.839918,167.602588 C151.959907,156.849424 157.027855,157.969545 168.085198,176.563559 C157.027855,157.969545 158.179662,153.041011 177.29965,142.287846 Z" id="Path"></path>
                        <path d="M48.066958,116.74908 C54.5170746,136.68724 52.2134615,140.943701 31.7113054,147.21638 C52.2134615,140.943701 56.5903263,143.183943 63.0404429,163.122103 C56.5903263,143.407968 58.8939394,138.927482 79.3960956,132.878827 C58.8939394,138.927482 54.5170746,136.68724 48.066958,116.74908 Z" id="Path"></path>
                        <path d="M54.5170746,0.480485339 C52.6741841,21.3147422 48.758042,24.4510819 27.3344406,22.6588878 C48.758042,24.4510819 51.9831002,28.2594944 50.1402098,49.0937513 C51.9831002,28.2594944 55.8992424,25.1231547 77.3228438,26.9153488 C55.8992424,24.8991304 52.6741841,21.0907179 54.5170746,0.480485339 Z" id="Path"></path>
                        <path d="M116.714627,131.758706 C109.343065,134.446997 107.730536,133.774924 104.9662,126.606148 C107.730536,133.774924 107.039452,135.343094 99.6678904,138.031385 C107.039452,135.343094 108.651981,136.015167 111.416317,143.183943 C108.651981,136.239191 109.343065,134.446997 116.714627,131.758706 Z" id="Path"></path>
                        <path d="M81.4693473,84.7136097 C74.0977855,87.4019009 72.4852564,86.7298281 69.7209207,79.5610516 C72.4852564,86.7298281 71.7941725,88.297998 64.4226107,90.9862892 C71.7941725,88.297998 73.4067016,88.9700708 76.1710373,96.1388473 C73.6370629,88.9700708 74.3281469,87.4019009 81.4693473,84.7136097 Z" id="Path"></path>
                        <path d="M148.734848,56.4865521 C141.363287,59.1748433 139.750758,58.5027705 136.986422,51.3339939 C139.750758,58.5027705 139.059674,60.0709403 131.688112,62.7592315 C139.059674,60.0709403 140.672203,60.7430131 143.436538,67.9117897 C140.672203,60.9670374 141.363287,59.1748433 148.734848,56.4865521 Z" id="Path"></path>
                        <path d="M177.760373,72.1682508 C180.524709,79.3370273 179.833625,80.9051972 172.462063,83.5934884 C179.833625,80.9051972 181.446154,81.57727 184.21049,88.7460465 C181.446154,81.57727 182.137238,80.0091001 189.5088,77.3208089 C182.137238,80.0091001 180.524709,79.3370273 177.760373,72.1682508 Z" id="Path"></path>
                        <path d="M89.9927156,166.706491 C92.7570513,173.875268 92.0659674,175.443438 84.6944056,178.131729 C92.0659674,175.443438 93.6784965,176.115511 96.4428322,183.284287 C93.6784965,176.115511 94.3695804,174.547341 101.741142,171.85905 C94.5999417,174.547341 92.9874126,173.875268 89.9927156,166.706491 Z" id="Path"></path>
                    </g>
                </g>
                <g id="noun_sparkles_893931" transform="translate(277.000000, 18.000000)" fill-rule="nonzero">
                    <g id="Group">
                        <path d="M149.195571,34.6103943 C136.525699,48.4283519 134.682809,47.9896866 128.693415,30.6624065 C134.91317,47.9896866 133.761364,49.3056825 114.871737,45.5770273 C133.761364,49.3056825 134.222086,50.8410111 121.552214,64.439636 C134.222086,50.6216785 135.834615,51.0603438 142.054371,68.3876239 C135.834615,51.0603438 136.986422,49.7443478 155.876049,53.473003 C136.986422,49.9636805 136.295338,48.4283519 149.195571,34.6103943 Z" id="Path"></path>
                        <path d="M22.2664918,76.0642669 C14.2038462,79.1349242 13.7431235,78.6962588 14.8949301,70.5809505 C13.5127622,78.6962588 12.8216783,78.9155915 6.14120047,73.8709403 C12.8216783,78.9155915 12.8216783,79.7929221 4.75903263,82.6442467 C12.8216783,79.5735895 13.2824009,80.0122548 12.1305944,88.1275632 C13.5127622,80.0122548 14.2038462,79.7929221 20.884324,84.8375733 C14.2038462,79.7929221 14.2038462,79.1349242 22.2664918,76.0642669 Z" id="Path"></path>
                        <path d="M49.9098485,120.808129 C41.8472028,123.878787 41.3864802,123.440121 42.5382867,115.324813 C41.1561189,123.440121 40.465035,123.659454 33.7845571,118.614803 C40.465035,123.659454 40.465035,124.536785 32.4023893,127.388109 C40.465035,124.317452 40.9257576,124.756117 39.773951,132.871426 C41.1561189,124.756117 41.8472028,124.536785 48.5276807,129.581436 C41.8472028,124.536785 41.8472028,123.878787 49.9098485,120.808129 Z" id="Path"></path>
                        <path d="M199.644697,60.9303134 C191.582051,64.0009707 191.121329,63.5623054 192.273135,55.446997 C190.890967,63.5623054 190.199883,63.781638 183.519406,58.7369869 C190.199883,63.781638 190.199883,64.6589687 182.137238,67.5102932 C190.199883,64.439636 190.660606,64.8783013 189.5088,72.9936097 C190.890967,64.8783013 191.582051,64.6589687 198.262529,69.7036198 C191.582051,64.6589687 191.582051,64.0009707 199.644697,60.9303134 Z" id="Path"></path>
                        <path d="M48.9884033,26.4950859 C26.6433566,35.2683923 25.0308275,33.9523964 28.2558858,11.1417998 C25.0308275,33.9523964 22.9575758,34.6103943 4.06794872,20.5731041 C23.1879371,34.6103943 22.7272145,36.5843883 0.612529138,45.3576946 C22.9575758,36.5843883 24.5701049,37.9003842 21.3450466,60.7109808 C24.5701049,38.1197169 26.4129953,37.2423862 45.5329837,51.2796764 C26.4129953,37.2423862 26.6433566,35.2683923 48.9884033,26.4950859 Z" id="Path"></path>
                        <path d="M177.29965,89.2242265 C158.179662,99.7521941 153.111713,98.6555308 142.054371,80.4509201 C153.111713,98.6555308 151.959907,103.480849 132.839918,114.008817 C151.959907,103.480849 157.027855,104.577513 168.085198,122.782123 C157.027855,104.577513 158.179662,99.7521941 177.29965,89.2242265 Z" id="Path"></path>
                        <path d="M48.066958,64.2203033 C54.5170746,83.74091 52.2134615,87.9082305 31.7113054,94.049545 C52.2134615,87.9082305 56.5903263,90.1015571 63.0404429,109.622164 C56.5903263,90.3208898 58.8939394,85.9342366 79.3960956,80.0122548 C58.8939394,85.9342366 54.5170746,83.74091 48.066958,64.2203033 Z" id="Path"></path>
                        <path d="M116.714627,78.9155915 C109.343065,81.5475834 107.730536,80.8895854 104.9662,73.8709403 C107.730536,80.8895854 107.039452,82.4249141 99.6678904,85.056906 C107.039452,82.4249141 108.651981,83.082912 111.416317,90.1015571 C108.651981,83.3022447 109.343065,81.5475834 116.714627,78.9155915 Z" id="Path"></path>
                        <path d="M81.4693473,32.8557331 C74.0977855,35.487725 72.4852564,34.829727 69.7209207,27.8110819 C72.4852564,34.829727 71.7941725,36.3650556 64.4226107,38.9970475 C71.7941725,36.3650556 73.4067016,37.0230536 76.1710373,44.0416987 C73.6370629,37.0230536 74.3281469,35.487725 81.4693473,32.8557331 Z" id="Path"></path>
                        <path d="M148.734848,5.219818 C141.363287,7.85180991 139.750758,7.19381193 136.986422,0.175166835 C139.750758,7.19381193 139.059674,8.72914055 131.688112,11.3611325 C139.059674,8.72914055 140.672203,9.38713852 143.436538,16.4057836 C140.672203,9.60647118 141.363287,7.85180991 148.734848,5.219818 Z" id="Path"></path>
                        <path d="M177.760373,20.5731041 C180.524709,27.5917492 179.833625,29.1270779 172.462063,31.7590698 C179.833625,29.1270779 181.446154,29.7850758 184.21049,36.8037209 C181.446154,29.7850758 182.137238,28.2497472 189.5088,25.6177553 C182.137238,28.2497472 180.524709,27.5917492 177.760373,20.5731041 Z" id="Path"></path>
                        <path d="M89.9927156,113.131486 C92.7570513,120.150131 92.0659674,121.68546 84.6944056,124.317452 C92.0659674,121.68546 93.6784965,122.343458 96.4428322,129.362103 C93.6784965,122.343458 94.3695804,120.808129 101.741142,118.176138 C94.5999417,120.808129 92.9874126,120.150131 89.9927156,113.131486 Z" id="Path"></path>
                    </g>
                    <g transform="translate(37.000000, 4.000000)" id="Group">
                        <g>
                            <path d="M298.195571,44.6103943 C285.525699,58.4283519 283.682809,57.9896866 277.693415,40.6624065 C283.91317,57.9896866 282.761364,59.3056825 263.871737,55.5770273 C282.761364,59.3056825 283.222086,60.8410111 270.552214,74.439636 C283.222086,60.6216785 284.834615,61.0603438 291.054371,78.3876239 C284.834615,61.0603438 285.986422,59.7443478 304.876049,63.473003 C285.986422,59.9636805 285.295338,58.4283519 298.195571,44.6103943 Z" id="Path"></path>
                            <path d="M181.266492,76.0642669 C173.203846,79.1349242 172.743124,78.6962588 173.89493,70.5809505 C172.512762,78.6962588 171.821678,78.9155915 165.1412,73.8709403 C171.821678,78.9155915 171.821678,79.7929221 163.759033,82.6442467 C171.821678,79.5735895 172.282401,80.0122548 171.130594,88.1275632 C172.512762,80.0122548 173.203846,79.7929221 179.884324,84.8375733 C173.203846,79.7929221 173.203846,79.1349242 181.266492,76.0642669 Z" id="Path"></path>
                            <path d="M178.909848,140.808129 C170.847203,143.878787 170.38648,143.440121 171.538287,135.324813 C170.156119,143.440121 169.465035,143.659454 162.784557,138.614803 C169.465035,143.659454 169.465035,144.536785 161.402389,147.388109 C169.465035,144.317452 169.925758,144.756117 168.773951,152.871426 C170.156119,144.756117 170.847203,144.536785 177.527681,149.581436 C170.847203,144.536785 170.847203,143.878787 178.909848,140.808129 Z" id="Path"></path>
                            <path d="M207.988403,26.4950859 C185.643357,35.2683923 184.030828,33.9523964 187.255886,11.1417998 C184.030828,33.9523964 181.957576,34.6103943 163.067949,20.5731041 C182.187937,34.6103943 181.727214,36.5843883 159.612529,45.3576946 C181.957576,36.5843883 183.570105,37.9003842 180.345047,60.7109808 C183.570105,38.1197169 185.412995,37.2423862 204.532984,51.2796764 C185.412995,37.2423862 185.643357,35.2683923 207.988403,26.4950859 Z" id="Path"></path>
                            <path d="M336.29965,89.2242265 C317.179662,99.7521941 312.111713,98.6555308 301.054371,80.4509201 C312.111713,98.6555308 310.959907,103.480849 291.839918,114.008817 C310.959907,103.480849 316.027855,104.577513 327.085198,122.782123 C316.027855,104.577513 317.179662,99.7521941 336.29965,89.2242265 Z" id="Path"></path>
                            <path d="M17.066958,164.220303 C23.5170746,183.74091 21.2134615,187.908231 0.711305361,194.049545 C21.2134615,187.908231 25.5903263,190.101557 32.0404429,209.622164 C25.5903263,190.32089 27.8939394,185.934237 48.3960956,180.012255 C27.8939394,185.934237 23.5170746,183.74091 17.066958,164.220303 Z" id="Path"></path>
                            <path d="M275.714627,78.9155915 C268.343065,81.5475834 266.730536,80.8895854 263.9662,73.8709403 C266.730536,80.8895854 266.039452,82.4249141 258.66789,85.056906 C266.039452,82.4249141 267.651981,83.082912 270.416317,90.1015571 C267.651981,83.3022447 268.343065,81.5475834 275.714627,78.9155915 Z" id="Path"></path>
                            <path d="M230.469347,72.8557331 C223.097786,75.487725 221.485256,74.829727 218.720921,67.8110819 C221.485256,74.829727 220.794172,76.3650556 213.422611,78.9970475 C220.794172,76.3650556 222.406702,77.0230536 225.171037,84.0416987 C222.637063,77.0230536 223.328147,75.487725 230.469347,72.8557331 Z" id="Path"></path>
                            <path d="M307.734848,5.219818 C300.363287,7.85180991 298.750758,7.19381193 295.986422,0.175166835 C298.750758,7.19381193 298.059674,8.72914055 290.688112,11.3611325 C298.059674,8.72914055 299.672203,9.38713852 302.436538,16.4057836 C299.672203,9.60647118 300.363287,7.85180991 307.734848,5.219818 Z" id="Path"></path>
                            <path d="M336.760373,20.5731041 C339.524709,27.5917492 338.833625,29.1270779 331.462063,31.7590698 C338.833625,29.1270779 340.446154,29.7850758 343.21049,36.8037209 C340.446154,29.7850758 341.137238,28.2497472 348.5088,25.6177553 C341.137238,28.2497472 339.524709,27.5917492 336.760373,20.5731041 Z" id="Path"></path>
                            <path d="M248.992716,113.131486 C251.757051,120.150131 251.065967,121.68546 243.694406,124.317452 C251.065967,121.68546 252.678497,122.343458 255.442832,129.362103 C252.678497,122.343458 253.36958,120.808129 260.741142,118.176138 C253.599942,120.808129 251.987413,120.150131 248.992716,113.131486 Z" id="Path"></path>
                        </g>
                    </g>
                </g>
                <g transform="translate(0.000000, 151.000000)" id="Group">
                    <g>
                        <g transform="translate(0.000000, 0.198454)" fill-rule="nonzero">
                            <path d="M173.806831,108.014311 C159.044932,125.00569 156.897746,124.466281 149.919394,103.159631 C157.166144,124.466281 155.824154,126.084508 133.815504,121.499532 C155.824154,126.084508 156.36095,127.972439 141.599051,144.694114 C156.36095,127.702734 158.239737,128.242143 165.486488,149.548794 C158.239737,128.242143 159.581728,126.623917 181.590378,131.208892 C159.581728,126.893621 158.776533,125.00569 173.806831,108.014311 Z" id="Path"></path>
                            <path d="M140.793856,57.0401725 C119.858799,65.40101 118.24841,64.0524878 121.737586,41.6670197 C118.516808,64.0524878 116.638021,64.5918966 98.9237416,50.567266 C116.369623,64.5918966 116.101224,66.4798277 95.4345654,74.8406652 C116.369623,66.4798277 117.980012,67.8283499 114.490835,90.2138179 C117.711613,67.8283499 119.590401,67.288941 137.30468,81.3135716 C119.858799,67.288941 120.127197,65.40101 140.793856,57.0401725 Z" id="Path"></path>
                            <path d="M124.689966,6.87514762 C115.29603,10.6510097 114.759234,10.1116008 116.101224,0.132536747 C114.490835,10.1116008 113.685641,10.3813053 105.902094,4.17810327 C113.685641,10.3813053 113.685641,11.460123 104.291705,14.9662807 C113.685641,11.1904186 114.222437,11.7298274 112.880446,21.7088915 C114.490835,11.7298274 115.29603,11.460123 123.079577,17.663325 C115.027632,11.460123 115.29603,10.6510097 124.689966,6.87514762 Z" id="Path"></path>
                            <path d="M217.287334,43.8246552 C208.161797,47.6005173 207.356602,47.0611084 208.966991,36.8123399 C207.356602,46.791404 206.551408,47.0611084 198.767861,40.8579064 C206.551408,47.0611084 206.551408,48.1399261 197.157472,51.6460838 C206.551408,47.8702217 207.088204,48.4096306 205.746213,58.3886946 C207.356602,48.4096306 208.161797,48.1399261 215.945343,54.3431281 C207.893398,48.4096306 208.161797,47.6005173 217.287334,43.8246552 Z" id="Path"></path>
                            <path d="M25.9194396,158.988449 C16.5255037,162.764311 15.9887073,162.224902 17.3306982,152.245838 C15.7203092,162.224902 14.9151146,162.494606 7.13156774,156.291404 C14.9151146,162.494606 14.9151146,163.573424 5.52117872,167.079582 C14.9151146,163.30372 15.451911,163.843129 14.1099201,173.822193 C15.7203092,163.843129 16.5255037,163.573424 24.3090506,169.776626 C16.5255037,163.573424 16.5255037,162.764311 25.9194396,158.988449 Z" id="Path"></path>
                            <path d="M58.1272199,214.008153 C48.733284,217.784016 48.1964876,217.244607 49.5384785,207.265543 C47.9280895,217.244607 47.122895,217.514311 39.3393481,211.311109 C47.122895,217.514311 47.122895,218.593129 37.728959,222.099287 C47.122895,218.323424 47.6596913,218.862833 46.3177005,228.841897 C47.9280895,218.862833 48.733284,218.593129 56.5168309,224.796331 C48.733284,218.593129 48.733284,217.784016 58.1272199,214.008153 Z" id="Path"></path>
                            <path d="M232.58603,140.378843 C223.192094,144.154705 222.655298,143.615296 223.997289,133.636232 C222.3869,143.615296 221.581705,143.885 213.798158,137.681798 C221.581705,143.885 221.581705,144.963818 212.187769,148.469976 C221.581705,144.694114 222.118501,145.233523 220.77651,155.212587 C222.3869,145.233523 223.192094,144.963818 230.975641,151.16702 C223.192094,144.963818 223.192094,144.154705 232.58603,140.378843 Z" id="Path"></path>
                            <path d="M57.0536272,98.0352466 C31.0190048,108.823424 29.1402176,107.205197 32.897792,79.1559361 C29.1402176,107.205197 26.7246341,108.014311 4.71598421,90.7532268 C26.9930323,108.014311 26.4562359,110.441651 0.690011675,121.229828 C26.7246341,110.441651 28.6034213,112.059877 24.8458469,140.109138 C28.6034213,112.329582 30.7506066,111.250764 53.0276547,128.511848 C30.7506066,111.250764 31.0190048,108.823424 57.0536272,98.0352466 Z" id="Path"></path>
                            <path d="M206.551408,175.170715 C184.274359,188.116528 178.3696,186.768006 165.486488,164.382537 C178.3696,186.768006 177.027609,192.701503 154.750561,205.647316 C177.027609,192.701503 182.932369,194.050025 195.815481,216.435493 C182.932369,194.050025 184.274359,188.116528 206.551408,175.170715 Z" id="Path"></path>
                            <path d="M172.196442,2.55987666 C162.26571,17.3936206 158.239737,17.9330294 143.746236,6.60544318 C158.239737,17.9330294 159.044932,22.2483004 149.114199,37.0820443 C159.044932,22.2483004 163.070904,21.7088915 177.564405,33.0364778 C163.070904,21.7088915 162.26571,17.3936206 172.196442,2.55987666 Z" id="Path"></path>
                            <path d="M55.9800345,144.424409 C63.4951833,168.428104 60.8112016,173.552488 36.9237645,181.104212 C60.8112016,173.552488 65.9107668,176.249533 73.4259156,200.253227 C65.9107668,176.519237 68.5947485,171.125148 92.4821856,163.843129 C68.5947485,171.125148 63.4951833,168.428104 55.9800345,144.424409 Z" id="Path"></path>
                            <path d="M63.4951833,4.4478077 C61.3479979,29.5303201 56.7852291,33.3061822 31.8241993,31.1485467 C56.7852291,33.3061822 60.5428034,37.8911576 58.3956181,62.97367 C60.5428034,37.8911576 65.1055723,34.1152955 90.066602,36.272931 C65.1055723,33.8455911 61.3479979,29.2606157 63.4951833,4.4478077 Z" id="Path"></path>
                            <path d="M135.962689,162.494606 C127.373948,165.73106 125.49516,164.921946 122.274382,156.291404 C125.49516,164.921946 124.689966,166.809877 116.101224,170.046331 C124.689966,166.809877 126.568753,167.618991 129.789531,176.249533 C126.568753,167.888695 127.373948,165.73106 135.962689,162.494606 Z" id="Path"></path>
                            <path d="M94.8977691,105.856675 C86.3090277,109.093128 84.4302405,108.284015 81.2094625,99.6534732 C84.4302405,108.284015 83.625046,110.171946 75.0363046,113.408399 C83.625046,110.171946 85.5038332,110.981059 88.7246112,119.611601 C85.7722313,110.981059 86.5774258,109.093128 94.8977691,105.856675 Z" id="Path"></path>
                            <path d="M173.270035,71.8739164 C164.681293,75.1103696 162.802506,74.3012563 159.581728,65.6707144 C162.802506,74.3012563 161.997311,76.1891873 153.40857,79.4256406 C161.997311,76.1891873 163.876099,76.9983006 167.096877,85.6288426 C163.876099,77.2680051 164.681293,75.1103696 173.270035,71.8739164 Z" id="Path"></path>
                            <path d="M207.088204,90.7532268 C210.308982,99.3837687 209.503787,101.2717 200.915046,104.508153 C209.503787,101.2717 211.382575,102.080813 214.603353,110.711355 C211.382575,102.080813 212.187769,100.192882 220.77651,96.9564288 C212.187769,100.192882 210.308982,99.3837687 207.088204,90.7532268 Z" id="Path"></path>
                            <path d="M104.828501,204.568498 C108.049279,213.19904 107.244085,215.086971 98.6553435,218.323424 C107.244085,215.086971 109.122872,215.896085 112.34365,224.526626 C109.122872,215.896085 109.928067,214.008153 118.516808,210.7717 C110.196465,214.008153 108.317678,213.19904 104.828501,204.568498 Z" id="Path"></path>
                        </g>
                    </g>
                </g>
                <g id="Moon" transform="translate(232.037925, 85.353388)">
                    <g transform="translate(1.000000, 1.000000)" id="Path">
                        <path d="M53.3520579,12.0374541 C40.8267948,6.90835728 26.536709,12.958828 21.43449,25.5548774 C16.332271,38.1502314 22.3500956,52.5194909 34.8760501,57.6492831 C40.7984415,60.076147 47.4296665,60.076147 53.3527494,57.6492831 C43.6849503,64.5745374 30.7143323,64.5745374 21.0465332,57.6492831 C8.51988714,48.6789266 5.59810952,31.1957713 14.5197315,18.601808 C23.4399705,6.00575862 40.8261033,3.0684884 53.3520579,12.0374541 Z" fill-rule="nonzero" transform="translate(31.352749, 34.843224) rotate(-22.000000) translate(-31.352749, -34.843224) "></path>
                    </g>
                </g>
                <g id="Behind-the-planet" transform="translate(781.366746, 80.730630) rotate(179.000000) translate(-781.366746, -80.730630) translate(670.866746, 17.730630)" fill-rule="nonzero">
                    <path d="M180.195571,23.6103943 C167.525699,37.4283519 165.682809,36.9896866 159.693415,19.6624065 C165.91317,36.9896866 164.761364,38.3056825 145.871737,34.5770273 C164.761364,38.3056825 165.222086,39.8410111 152.552214,53.439636 C165.222086,39.6216785 166.834615,40.0603438 173.054371,57.3876239 C166.834615,40.0603438 167.986422,38.7443478 186.876049,42.473003 C167.986422,38.9636805 167.295338,37.4283519 180.195571,23.6103943 Z" id="Path"></path>
                    <path d="M53.2664918,65.0642669 C45.2038462,68.1349242 44.7431235,67.6962588 45.8949301,59.5809505 C44.5127622,67.6962588 43.8216783,67.9155915 37.1412005,62.8709403 C43.8216783,67.9155915 43.8216783,68.7929221 35.7590326,71.6442467 C43.8216783,68.5735895 44.2824009,69.0122548 43.1305944,77.1275632 C44.5127622,69.0122548 45.2038462,68.7929221 51.884324,73.8375733 C45.2038462,68.7929221 45.2038462,68.1349242 53.2664918,65.0642669 Z" id="Path"></path>
                    <path d="M80.9098485,109.808129 C72.8472028,112.878787 72.3864802,112.440121 73.5382867,104.324813 C72.1561189,112.440121 71.465035,112.659454 64.7845571,107.614803 C71.465035,112.659454 71.465035,113.536785 63.4023893,116.388109 C71.465035,113.317452 71.9257576,113.756117 70.773951,121.871426 C72.1561189,113.756117 72.8472028,113.536785 79.5276807,118.581436 C72.8472028,113.536785 72.8472028,112.878787 80.9098485,109.808129 Z" id="Path"></path>
                    <path d="M79.9884033,15.4950859 C57.6433566,24.2683923 56.0308275,22.9523964 59.2558858,0.141799798 C56.0308275,22.9523964 53.9575758,23.6103943 35.0679487,9.57310415 C54.1879371,23.6103943 53.7272145,25.5843883 31.6125291,34.3576946 C53.9575758,25.5843883 55.5701049,26.9003842 52.3450466,49.7109808 C55.5701049,27.1197169 57.4129953,26.2423862 76.5329837,40.2796764 C57.4129953,26.2423862 57.6433566,24.2683923 79.9884033,15.4950859 Z" id="Path"></path>
                    <path d="M208.29965,78.2242265 C189.179662,88.7521941 184.111713,87.6555308 173.054371,69.4509201 C184.111713,87.6555308 182.959907,92.4808493 163.839918,103.008817 C182.959907,92.4808493 188.027855,93.5775126 199.085198,111.782123 C188.027855,93.5775126 189.179662,88.7521941 208.29965,78.2242265 Z" id="Path"></path>
                    <path d="M99.0639119,53.5693515 C105.514028,73.0899581 103.210415,77.2572787 82.7082593,83.3985931 C103.210415,77.2572787 107.58728,79.4506053 114.037397,98.9712119 C107.58728,79.6699379 109.890893,75.2832847 130.393049,69.3613029 C109.890893,75.2832847 105.514028,73.0899581 99.0639119,53.5693515 Z" id="Path"></path>
                    <path d="M17.7344267,65.6467787 C10.3628649,68.2787706 8.75033576,67.6207726 5.9860001,60.6021275 C8.75033576,67.6207726 8.05925184,69.1561012 0.687690073,71.7880931 C8.05925184,69.1561012 9.67178098,69.8140992 12.4361166,76.8327443 C9.67178098,70.0334319 10.3628649,68.2787706 17.7344267,65.6467787 Z" id="Path"></path>
                    <path d="M22.4830548,20.2850165 C15.111493,22.9170084 13.4989638,22.2590104 10.7346282,15.2403653 C13.4989638,22.2590104 12.8078799,23.794339 5.43631816,26.4263309 C12.8078799,23.794339 14.4204091,24.452337 17.1847447,31.4709821 C14.6507704,24.452337 15.3418543,22.9170084 22.4830548,20.2850165 Z" id="Path"></path>
                    <path d="M157.643606,113.852493 C150.272044,116.484485 148.659515,115.826487 145.895179,108.807842 C148.659515,115.826487 147.968431,117.361816 140.596869,119.993808 C147.968431,117.361816 149.58096,118.019814 152.345296,125.038459 C149.58096,118.239146 150.272044,116.484485 157.643606,113.852493 Z" id="Path"></path>
                    <path d="M208.760373,9.57310415 C211.524709,16.5917492 210.833625,18.1270779 203.462063,20.7590698 C210.833625,18.1270779 212.446154,18.7850758 215.21049,25.8037209 C212.446154,18.7850758 213.137238,17.2497472 220.5088,14.6177553 C213.137238,17.2497472 211.524709,16.5917492 208.760373,9.57310415 Z" id="Path"></path>
                    <path d="M11.0094692,100.211722 C13.7738048,107.230367 13.0827209,108.765695 5.71115913,111.397687 C13.0827209,108.765695 14.69525,109.423693 17.4595857,116.442338 C14.69525,109.423693 15.386334,107.888365 22.7578957,105.256373 C15.6166953,107.888365 14.0041661,107.230367 11.0094692,100.211722 Z" id="Path"></path>
                </g>
            </g>
        </g>
    </g>
</svg>