<?xml version="1.0" encoding="UTF-8"?>
<svg width="324px" height="63px" viewBox="0 0 324 63" version="1.1" xmlns="http://www.w3.org/2000/svg" xmlns:xlink="http://www.w3.org/1999/xlink">
    <!-- Generator: Sketch 55.1 (78136) - https://sketchapp.com -->
    <title>Group</title>
    <desc>Created with Sketch.</desc>
    <g id="Page-1" stroke="none" stroke-width="1" fill="none" fill-rule="evenodd">
        <g id="Group" fill="#26405F" fill-rule="nonzero">
            <path d="M17.5074592,5.8439636 C9.44481352,8.91462083 8.98409091,8.47595551 10.1358974,0.360647118 C8.7537296,8.47595551 8.06264569,8.69528817 1.38216783,3.65063701 C8.06264569,8.69528817 8.06264569,9.57261881 0,12.4239434 C8.06264569,9.35328615 8.5233683,9.79195147 7.37156177,17.9072599 C8.7537296,9.79195147 9.44481352,9.57261881 16.1252914,14.61727 C9.44481352,9.57261881 9.44481352,8.91462083 17.5074592,5.8439636 Z" id="Path"></path>
            <path d="M45.1508159,50.5878261 C37.0881702,53.6584833 36.6274476,53.219818 37.7792541,45.1045096 C36.3970862,53.219818 35.7060023,53.4391507 29.0255245,48.3944995 C35.7060023,53.4391507 35.7060023,54.3164813 27.6433566,57.1678059 C35.7060023,54.0971486 36.1667249,54.535814 35.0149184,62.6511223 C36.3970862,54.535814 37.0881702,54.3164813 43.768648,59.3611325 C37.0881702,54.3164813 37.0881702,53.6584833 45.1508159,50.5878261 Z" id="Path"></path>
            <path d="M111.955594,8.69528817 C104.584033,11.3272801 102.971503,10.6692821 100.207168,3.65063701 C102.971503,10.6692821 102.28042,12.2046107 94.9088578,14.8366026 C102.28042,12.2046107 103.892949,12.8626087 106.657284,19.8812538 C103.892949,13.0819414 104.584033,11.3272801 111.955594,8.69528817 Z" id="Path"></path>
            <path d="M85.233683,42.911183 C87.9980186,49.9298281 87.3069347,51.4651567 79.935373,54.0971486 C87.3069347,51.4651567 88.9194639,52.1231547 91.6837995,59.1417998 C88.9194639,52.1231547 89.6105478,50.5878261 96.9821096,47.9558342 C89.8409091,50.5878261 88.22838,49.9298281 85.233683,42.911183 Z" id="Path"></path>
            <path d="M208.240008,41.0324484 C200.352437,44.0149274 198.627031,43.2693077 195.669192,35.3160302 C198.627031,43.2693077 197.887571,45.0090871 190,47.9915662 C197.887571,45.0090871 199.612977,45.7547069 202.570816,53.7079844 C199.859464,45.7547069 200.598924,44.0149274 208.240008,41.0324484 Z" id="Path"></path>
            <path d="M280.214094,9.71641821 C272.326523,12.6988973 270.601117,11.9532775 267.643278,4 C270.601117,11.9532775 269.861657,13.693057 261.974086,16.675536 C269.861657,13.693057 271.587064,14.4386767 274.544903,22.3919542 C271.587064,14.6872166 272.326523,12.6988973 280.214094,9.71641821 Z" id="Path"></path>
            <path d="M311.271406,27.1142128 C314.229245,35.0674903 313.489785,36.8072697 305.602214,39.7897488 C313.489785,36.8072697 315.215191,37.5528895 318.17303,45.506167 C315.215191,37.5528895 315.954651,35.81311 323.842222,32.830631 C315.954651,35.81311 314.229245,35.0674903 311.271406,27.1142128 Z" id="Path"></path>
        </g>
    </g>
</svg>