<?xml version="1.0" encoding="UTF-8"?>
<svg width="94px" height="96px" viewBox="0 0 94 96" version="1.1" xmlns="http://www.w3.org/2000/svg" xmlns:xlink="http://www.w3.org/1999/xlink">
    <!-- Generator: Sketch 54.1 (76490) - https://sketchapp.com -->
    <title>Group</title>
    <desc>Created with Sketch.</desc>
    <g id="TGP-DESKTOP-VERSION" stroke="none" stroke-width="1" fill="none" fill-rule="evenodd">
        <g id="Our-Process" transform="translate(-901.000000, -438.000000)" fill-rule="nonzero">
            <g id="QUANTIFY" transform="translate(176.000000, 306.000000)">
                <g id="Group-3">
                    <g id="Group-4">
                        <g id="Group" transform="translate(725.000000, 131.000000)">
                            <g id="Strategy--Chess" transform="translate(4.095700, 0.998700)" fill="#F8FAFD">
                                <path d="M89.7754,84.9121 C89.7754,83.4458 88.582,82.2524 87.1157,82.2524 L81.104,82.2524 L81.104,74.8003 L78.8264,74.8003 C73.9954,64.634 71.9653,55.0628 72.782,46.3237 L81.8355,46.3237 L81.8355,32.7237 L73.8672,32.7237 L73.8672,37.3609 L70.25,37.3609 L70.25,32.7237 L60.6724,32.7237 L60.6724,37.3609 L57.0557,37.3609 L57.0557,32.7237 L49.0874,32.7237 L49.0874,46.3238 L58.141,46.3238 C58.9581,55.0625 56.928,64.6341 52.0966,74.8004 L49.8189,74.8004 L49.8189,82.2525 L48.1163,82.2525 L48.1163,78.8746 L44.2144,78.8746 C37.9716,64.6543 35.3803,51.2648 36.4994,39.0479 L40.9068,39.0479 L40.9068,31.3057 L34.8921,31.3057 L42.3878,17.6714 L37.1383,17.6714 L37.1383,14.2525 C37.1383,12.9712 36.0958,11.9293 34.8146,11.9293 L30.1963,11.9293 L30.1963,8.4078 L33.4732,8.4078 L33.4732,2.606 L30.1963,2.606 L30.1963,-1.98951966e-13 L24.3945,-1.98951966e-13 L24.3945,2.606 L21.1181,2.606 L21.1181,8.4078 L24.3945,8.4078 L24.3945,11.9293 L20.1699,11.9293 C18.8886,11.9293 17.8467,12.9713 17.8467,14.2525 L17.8467,17.6714 L12.5972,17.6714 L20.0929,31.3057 L14.0782,31.3057 L14.0782,39.0479 L18.4856,39.0479 C19.6047,51.2648 17.0134,64.6543 10.7706,78.8746 L6.8687,78.8746 L6.8687,85.9713 L2.6543,85.9713 C1.1909,85.9713 -7.10542736e-15,87.1622 -7.10542736e-15,88.6256 L-7.10542736e-15,96.0001 C7.6722,96.0003 82.792,96.0024 89.7754,96.0025 L89.7754,84.9121 Z M51.0874,34.7237 L55.0557,34.7237 L55.0557,39.3609 L62.6724,39.3609 L62.6724,34.7237 L68.25,34.7237 L68.25,39.3609 L75.8672,39.3609 L75.8672,34.7237 L79.8355,34.7237 L79.8355,44.3238 C79.9387,44.3236 71.5356,44.3224 51.0874,44.3238 L51.0874,34.7237 L51.0874,34.7237 Z M60.1588,46.3238 L70.764,46.3238 C69.9817,55.1267 71.946,64.6925 76.6113,74.8004 L54.3115,74.8004 C58.9773,64.693 60.9411,55.1261 60.1588,46.3238 Z M51.8189,76.8003 L79.1041,76.8003 L79.1041,82.2524 L51.8189,82.2524 L51.8189,76.8003 Z M23.1182,6.4078 L23.1182,4.606 L26.3946,4.606 L26.3946,2 L28.1964,2 L28.1964,4.606 L31.4733,4.606 L31.4733,6.4078 L28.1963,6.4078 L28.1963,11.9293 L26.3945,11.9293 L26.3945,6.4078 L23.1182,6.4078 Z M19.8467,14.2525 C19.8467,14.0743 19.9917,13.9293 20.1699,13.9293 C39.9429,13.9295 15.0287,13.9321 34.8144,13.9293 C34.9931,13.9293 35.1381,14.0743 35.1381,14.2525 L35.1381,17.6714 L19.8467,17.6714 L19.8467,14.2525 Z M15.979,19.6714 C24.4116,19.6714 30.6045,19.6714 39.0059,19.6714 L32.6099,31.3057 L22.375,31.3057 L15.979,19.6714 Z M16.0781,37.0479 L16.0781,33.3057 C22.7571,33.3057 28.7489,33.3057 38.9067,33.3057 L38.9067,37.0479 C36.1453,37.0479 24.3601,37.0479 16.0781,37.0479 Z M20.5049,39.0479 L34.48,39.0479 C33.3931,51.3243 35.9292,64.7085 42.0264,78.8746 L12.9585,78.8746 C19.0557,64.7085 21.5918,51.3243 20.5049,39.0479 Z M8.8687,80.8745 C13.6136,80.8745 42.6914,80.8745 46.1163,80.8745 L46.1163,85.9712 L8.8687,85.9712 L8.8687,80.8745 Z M2,88.6255 C2,88.2647 2.2935,87.9712 2.6543,87.9712 C12.0903,87.9712 42.8731,87.9712 52.3301,87.9712 C52.6909,87.9712 52.9844,88.2647 52.9844,88.6255 L52.9844,94 L2,94 L2,88.6255 Z M87.7754,94.0025 L54.9844,94.0025 L54.9844,88.6255 C54.9844,87.1621 53.7935,85.9712 52.3301,85.9712 L48.1162,85.9712 L48.1162,84.2524 C75.5974,84.2548 74.2767,84.2562 87.1157,84.2524 C87.4858,84.2524 87.7754,84.542 87.7754,84.9121 L87.7754,94.0025 Z"></path>
                            </g>
                            <path d="M65.6895,59.5764 L67.6612,59.9104 C67.7755,59.2366 67.877,58.5657 67.9659,57.8977 L65.9835,57.634 C65.8975,58.2785 65.7998,58.926 65.6895,59.5764 Z" id="Path" fill="#8FF8E4"></path>
                            <path d="M64.8975,63.4265 L66.8418,63.8943 C67.0015,63.2307 67.1494,62.5691 67.2856,61.9109 L65.3266,61.5066 C65.1953,62.1433 65.0522,62.7834 64.8975,63.4265 Z" id="Path" fill="#8FF8E4"></path>
                            <path d="M63.8555,67.2233 L65.7666,67.8112 C65.9678,67.1589 66.1572,66.509 66.3345,65.861 L64.4058,65.3327 C64.2334,65.9602 64.0498,66.5905 63.8555,67.2233 Z" id="Path" fill="#8FF8E4"></path>
                            <path d="M23.2837,68.2443 L25.2026,68.8078 C25.3935,68.1579 25.5766,67.5095 25.7519,66.8635 L23.8222,66.3391 C23.6499,66.9724 23.4707,67.6071 23.2837,68.2443 Z" id="Path" fill="#8FF8E4"></path>
                            <path d="M24.3198,64.424 L26.2612,64.9064 C26.4243,64.2482 26.58,63.5924 26.7275,62.9391 L24.7763,62.4987 C24.6318,63.1384 24.48,63.7805 24.3198,64.424 Z" id="Path" fill="#8FF8E4"></path>
                            <path d="M22.0923,72.0217 L23.9878,72.6594 C24.2036,72.0183 24.4121,71.3786 24.6138,70.7405 L22.7066,70.138 C22.5088,70.7644 22.3042,71.3923 22.0923,72.0217 Z" id="Path" fill="#8FF8E4"></path>
                            <path d="M25.1885,60.5661 L27.1494,60.9606 C27.2832,60.296 27.4087,59.633 27.5259,58.9723 L25.5562,58.6237 C25.4419,59.2688 25.3193,59.9162 25.1885,60.5661 Z" id="Path" fill="#8FF8E4"></path>
                            <rect id="Rectangle" fill="#8FF8E4" x="39.8188" y="75.9841" width="2" height="2"></rect>
                            <rect id="Rectangle" fill="#8FF8E4" x="35.8188" y="75.9841" width="2" height="2"></rect>
                            <rect id="Rectangle" fill="#8FF8E4" x="31.8188" y="75.9841" width="2" height="2"></rect>
                            <rect id="Rectangle" fill="#8FF8E4" x="49.0083" y="4.447" width="2" height="2"></rect>
                            <rect id="Rectangle" fill="#8FF8E4" x="53.0083" y="4.447" width="2" height="2"></rect>
                            <rect id="Rectangle" fill="#8FF8E4" x="45.0083" y="4.447" width="2" height="2"></rect>
                            <rect id="Rectangle" fill="#8FF8E4" x="80.04" y="21.4113" width="2" height="2"></rect>
                            <rect id="Rectangle" fill="#8FF8E4" x="76.04" y="21.4113" width="2" height="2"></rect>
                            <rect id="Rectangle" fill="#8FF8E4" x="72.04" y="21.4113" width="2" height="2"></rect>
                            <polygon id="Path" fill="#8FF8E4" points="61.9551 10.7365 61.9551 13.09 59.6016 13.09 59.6016 15.09 61.9551 15.09 61.9551 17.444 63.9551 17.444 63.9551 15.09 66.3086 15.09 66.3086 13.09 63.9551 13.09 63.9551 10.7365"></polygon>
                            <rect id="Rectangle" fill="#8FF8E4" x="15.3867" y="6.9641" width="2" height="2"></rect>
                            <rect id="Rectangle" fill="#8FF8E4" x="11.3867" y="6.9641" width="2" height="2"></rect>
                            <rect id="Rectangle" fill="#8FF8E4" x="7.4521" y="6.9641" width="1.9346" height="2"></rect>
                            <rect id="Rectangle" fill="#8FF8E4" x="74.9966" y="4.447" width="1.9346" height="2"></rect>
                            <rect id="Rectangle" fill="#8FF8E4" x="78.9312" y="4.447" width="2" height="2"></rect>
                            <rect id="Rectangle" fill="#8FF8E4" x="82.9312" y="4.447" width="2" height="2"></rect>
                            <polygon id="Path" fill="#8FF8E4" points="3.2944 21.0202 1.1367 21.0202 1.1367 23.0202 3.2944 23.0202 3.2944 25.1779 5.2944 25.1779 5.2944 23.0202 7.4521 23.0202 7.4521 21.0202 5.2944 21.0202 5.2944 18.8625 3.2944 18.8625"></polygon>
                            <rect id="Rectangle" fill="#8FF8E4" x="0.1289" y="39.009" width="1.9341" height="2"></rect>
                            <rect id="Rectangle" fill="#8FF8E4" x="8.063" y="39.009" width="2" height="2"></rect>
                            <rect id="Rectangle" fill="#8FF8E4" x="4.063" y="39.009" width="2" height="2"></rect>
                            <rect id="Rectangle" fill="#8FF8E4" x="6.2441" y="67.486" width="2" height="2"></rect>
                            <rect id="Rectangle" fill="#8FF8E4" x="10.2441" y="67.486" width="2" height="2"></rect>
                            <rect id="Rectangle" fill="#8FF8E4" x="2.3101" y="67.486" width="1.9341" height="2"></rect>
                            <rect id="Rectangle" fill="#8FF8E4" x="90.6372" y="58.9601" width="2" height="2"></rect>
                            <rect id="Rectangle" fill="#8FF8E4" x="82.7031" y="58.9601" width="1.9341" height="2"></rect>
                            <rect id="Rectangle" fill="#8FF8E4" x="86.6372" y="58.9601" width="2" height="2"></rect>
                            <rect id="Rectangle" fill="#8FF8E4" x="49.2988" y="56.4118" width="2" height="2"></rect>
                            <rect id="Rectangle" fill="#8FF8E4" x="45.3643" y="56.4118" width="1.9346" height="2"></rect>
                            <rect id="Rectangle" fill="#8FF8E4" x="53.2988" y="56.4118" width="2" height="2"></rect>
                            <polygon id="Path" fill="#8FF8E4" points="11.2441 51.8791 8.5742 51.8791 8.5742 53.8791 11.2441 53.8791 11.2441 56.5495 13.2441 56.5495 13.2441 53.8791 15.9146 53.8791 15.9146 51.8791 13.2441 51.8791 13.2441 49.2092 11.2441 49.2092"></polygon>
                        </g>
                    </g>
                </g>
            </g>
        </g>
    </g>
</svg>