<?xml version="1.0" encoding="UTF-8"?>
<svg width="165px" height="174px" viewBox="0 0 165 174" version="1.1" xmlns="http://www.w3.org/2000/svg" xmlns:xlink="http://www.w3.org/1999/xlink">
    <!-- Generator: Sketch 55 (78076) - https://sketchapp.com -->
    <title>Universe</title>
    <desc>Created with Sketch.</desc>
    <g id="TGP-DESKTOP-VERSION" stroke="none" stroke-width="1" fill="none" fill-rule="evenodd">
        <g id="Our-Process" transform="translate(-1085.000000, -159.000000)">
            <g id="Universe" transform="translate(1084.000000, 154.000000)">
                <g id="Planets">
                    <g>
                        <path d="M109.333845,64.8723689 C104.930379,69.0982615 98.4560694,70.1884883 92.9345772,67.6338869 C90.7262143,68.0616066 88.5936768,68.4085644 86.5834851,68.6569298 C94.0589479,75.1806345 105.127123,74.9337533 112.271375,68.0839484 C114.536849,65.9158102 116.24854,63.2148828 117.258243,60.2150229 C115.396211,61.0290884 113.394866,61.8226367 111.281979,62.5834063 C110.708778,63.4106966 110.056188,64.1774583 109.333845,64.8723689 L109.333845,64.8723689 Z" id="Path" fill="#63B16C" fill-rule="nonzero" opacity="0.3929734" transform="translate(101.920864, 66.802620) rotate(20.000000) translate(-101.920864, -66.802620) "></path>
                        <path d="M81.6658126,65.4715591 C84.263008,65.6828941 86.8743207,65.6422173 89.4638077,65.3500886 C89.5333216,65.3434005 89.6050637,65.3350513 89.6749006,65.328157 C95.7234539,64.6753367 101.707481,63.5147519 107.564744,61.8584734 C110.95885,60.923309 114.318921,59.8566093 117.621705,58.6323172 C120.94318,57.433985 124.181903,56.0140095 127.316404,54.3818045 C133.617923,51.0268274 136.18502,48.1013943 135.395652,45.1743109 C134.606349,42.2467606 130.92859,41.0393732 123.812505,41.3839595 C122.829138,41.4310798 121.784922,41.5188821 120.71076,41.6280188 C120.313438,41.095613 119.889097,40.5842797 119.439434,40.0960658 C114.303348,34.5325655 106.428191,32.4903312 99.2686588,34.8652556 C92.1091263,37.24018 86.9729135,43.5984808 86.1131878,51.1508819 C85.1195624,51.6133993 84.1698326,52.0796189 83.2881636,52.5490523 C76.9866452,55.9040294 74.4196235,58.8294625 75.2089804,61.7565459 C75.779505,63.8741262 77.8631906,65.0900257 81.6658126,65.4715591 Z M86.1419062,55.9736676 C86.2195577,56.5841905 86.3158095,57.1929328 86.4501012,57.7958122 C87.8044069,57.6802372 89.2349218,57.5124389 90.7298701,57.2949689 C88.6299555,49.2991713 93.2630688,41.0794219 101.148982,38.8100997 C109.034896,36.5407776 117.270461,41.0573193 119.669418,48.9670617 C121.087841,48.3268552 122.387989,47.6833336 123.569863,47.0364969 C123.426443,46.6176907 123.247545,46.2093509 123.075795,45.7988939 C124.757001,45.6672988 126.445127,45.651048 128.128516,45.7502536 C129.155508,45.7318659 130.173509,45.9460867 131.107541,46.3771383 C130.319982,47.2996409 129.395562,48.0935844 128.367133,48.7307545 C126.475704,49.9390615 124.501059,51.009441 122.458296,51.9337088 C117.279458,54.2780298 111.920226,56.193763 106.433565,57.6619754 C100.972759,59.2097766 95.3963267,60.3075913 89.7592797,60.9445891 C87.5276171,61.1972318 85.2808413,61.2878079 83.0363074,61.2156178 C82.9717879,61.2125669 82.9164071,61.207008 82.85347,61.2035554 C81.743808,61.2199957 80.6414064,61.0205365 79.6065936,60.6160932 C79.5709863,60.5984611 79.5443131,60.5794501 79.5126454,60.5612208 C80.0987132,59.5725194 82.357809,57.8968278 86.1418954,55.9736785 L86.1419062,55.9736676 Z" id="Shape" fill="#63B16C" fill-rule="nonzero" opacity="0.3929734" transform="translate(105.302317, 49.746970) rotate(20.000000) translate(-105.302317, -49.746970) "></path>
                        <path d="M142.331856,113.87024 C145.450371,113.856081 148.503625,112.954277 151.150497,111.265581 C159.321726,105.914513 162.276791,95.140046 158.021045,86.2148657 C155.268959,80.5214725 149.615849,76.9050316 143.412334,76.8692951 L143.412142,76.8692951 C140.293536,76.8835105 137.240199,77.7853325 134.593213,79.4740198 C126.422019,84.8250828 123.466958,95.5995057 127.722666,104.524669 C130.474915,110.21814 136.1282,113.834574 142.331856,113.87024 L142.331856,113.87024 Z M130.16649,93.8561214 L137.164676,95.9438038 C138.296675,96.2799082 139.480412,95.61265 139.808627,94.4534409 C140.136842,93.2942317 139.485246,92.0820406 138.353247,91.7459362 L131.352589,89.6574899 C131.962444,88.2612248 132.777469,86.96881 133.769334,85.8251686 L146.700009,89.682732 C147.832008,90.0188363 149.015745,89.3515781 149.34396,88.192369 C149.672175,87.03316 149.020579,85.8209689 147.88858,85.4848644 L138.012544,82.5385695 C139.693163,81.693065 141.539336,81.2494225 143.411801,81.2411071 C148.016304,81.2643379 152.20869,83.9623225 154.226375,88.2007613 C155.53703,90.8841474 156.00868,93.9158395 155.577167,96.8834464 L146.533664,94.1858727 C145.401665,93.8497503 144.217914,94.5169938 143.889681,95.6762029 C143.561448,96.835412 144.21303,98.0476177 145.345029,98.3837403 L154.391026,101.082122 C153.23804,103.746808 151.332053,105.996749 148.91879,107.541878 C146.943793,108.809185 144.662551,109.486778 142.331877,109.498373 C138.13917,109.475759 134.261137,107.216895 132.099259,103.538111 L140.922866,106.17001 C142.054865,106.506132 143.238617,105.838889 143.566849,104.67968 C143.895082,103.52047 143.243501,102.308265 142.111502,101.972142 L130.207082,98.421336 C129.966436,96.9106088 129.952747,95.3710855 130.16649,93.8561214 L130.16649,93.8561214 Z" id="Shape" fill="#FFE364" fill-rule="nonzero" opacity="0.3929734" transform="translate(142.871867, 95.369768) rotate(20.000000) translate(-142.871867, -95.369768) "></path>
                        <path d="M33.6208409,67.2384935 C33.8905856,69.0919117 35.3200996,70.5598482 37.1608311,70.8736314 L39.8294322,71.3262612 L40.222951,73.9996108 C40.4911053,75.8504028 41.9179242,77.3168147 43.7558113,77.6305047 C45.5936983,77.9441948 47.4236424,77.0336464 48.2868253,75.3759507 L49.5404979,72.9736284 L52.2155346,73.4273809 C54.0566968,73.7348662 55.8859732,72.8187534 56.7475448,71.1577224 C57.6091164,69.4966914 57.3072477,67.4681024 55.9996688,66.1319176 L54.1166739,64.2044328 L55.2944107,61.9475457 C56.0454457,60.6220218 56.0456989,58.9978131 55.2950773,57.6720535 C54.5444557,56.3462939 53.153744,55.5146532 51.6342318,55.4828807 L51.5524415,55.4820926 C51.4298064,55.4820926 51.3071497,55.4873863 51.1844714,55.4979738 C50.6201299,55.5459551 50.0709517,55.7061368 49.5689415,55.9691837 L47.2150715,57.1398133 L45.3180109,55.1980883 C44.0118566,53.8631161 41.9970576,53.5243944 40.3284318,54.3592559 C38.659806,55.1941174 37.7173828,57.0124225 37.9945537,58.8622248 L38.3872223,61.5297768 L35.9695559,62.732158 C34.2966994,63.565739 33.3486614,65.3846815 33.6208409,67.2384935 Z M43.1007414,64.0109329 L42.249477,58.2289426 L46.3295197,62.4052173 L51.5537652,59.807225 L48.8510813,64.986346 L52.931124,69.1626855 L47.1807089,68.1872508 L44.4780249,73.3663609 L43.6267605,67.5843706 L37.8763453,66.6088712 L43.1007414,64.0109329 Z" id="Shape" fill="#406FA6" fill-rule="nonzero" opacity="0.3929734" transform="translate(45.404492, 65.798670) rotate(20.000000) translate(-45.404492, -65.798670) "></path>
                        <path d="M146.585634,61.7040138 C146.82587,61.7039784 147.065679,61.6837231 147.302538,61.6434611 L149.977686,61.1897311 L151.231381,63.5918692 C152.094755,65.2492107 153.924602,66.1594857 155.762367,65.8458522 C157.600133,65.5322187 159.026952,64.0661603 159.295396,62.2156624 L159.688921,59.5424458 L162.357569,59.0898386 C164.197915,58.7737839 165.626709,57.3060142 165.897903,55.4529296 C166.169097,53.5998449 165.221133,51.7820693 163.548994,50.9487594 L161.131178,49.7465784 L161.499155,47.2473228 C161.731436,46.003215 161.40939,44.7194453 160.617755,43.7338015 C159.826121,42.7481577 158.644174,42.1593467 157.382912,42.1222974 C157.345245,42.1213042 157.307772,42.1208508 157.270126,42.1208508 C157.206016,42.1208508 157.141778,42.1222974 157.077732,42.125169 C156.17383,42.1643404 155.305605,42.4900883 154.597938,43.0555589 C154.458099,43.1670541 154.325287,43.2871414 154.200268,43.4151293 L152.303239,45.356747 L149.871196,44.1475056 C148.197906,43.319879 146.183658,43.6671556 144.881864,45.0077166 C143.58007,46.3482776 143.286814,48.3772217 144.155463,50.033451 L145.401473,52.4210257 L143.518446,54.3484147 C142.303479,55.5905517 141.948766,57.4420485 142.618196,59.0474575 C143.287625,60.6528664 144.850858,61.6996127 146.585634,61.7040678 L146.585634,61.7040138 Z M147.96433,48.024026 L153.188699,50.6219214 L157.268813,46.4457896 L156.417534,52.2274923 L161.641967,54.8253877 L155.891452,55.8007739 L155.040172,61.5824765 L152.337538,56.4036024 L146.587022,57.3789886 L150.667136,53.2029216 L147.96433,48.024026 Z" id="Shape" fill="#406FA6" fill-rule="nonzero" opacity="0.3929734" transform="translate(154.113955, 54.014012) rotate(20.000000) translate(-154.113955, -54.014012) "></path>
                        <path d="M10.7791942,157.410976 C11.9753337,157.409546 12.9438602,156.441421 12.9425202,155.248547 L12.9991471,150.923797 C13.1306428,147.325095 13.5817419,143.7451 14.3471488,140.225839 C25.923364,144.122604 50.3222989,146.599004 77.8425715,146.599004 C79.0400876,146.599004 80.0108663,145.630876 80.0108663,144.436629 C80.0108663,143.242383 79.0400876,142.274254 77.8425715,142.274254 C50.8286385,142.274254 26.202417,139.780582 15.4020897,136.014422 C15.9681268,134.076352 16.6264888,132.178169 17.3771757,130.319873 C29.9447985,133.703077 52.8577099,135.787097 77.8426148,135.787097 C102.82752,135.787097 125.740453,133.703077 138.308054,130.319873 C140.958041,136.881624 142.439634,143.854179 142.68618,150.923851 L142.742742,150.923851 L142.742742,155.248601 C142.74101,156.020536 143.152966,156.734573 143.823024,157.12104 C144.493083,157.507507 145.319129,157.507507 145.989187,157.12104 C146.659245,156.734573 147.071201,156.020536 147.06947,155.248601 C147.06947,155.248601 147.031744,150.524173 146.978354,150.336188 C145.479589,114.647124 115.060415,86.0520105 77.842604,86.0520105 C40.6000027,86.0520105 10.1474118,114.680926 8.68616729,150.403208 C8.64454425,150.570703 8.6158682,155.248547 8.6158682,155.248547 C8.61452821,156.441421 9.58305475,157.409546 10.7791942,157.410976 Z M77.8426148,90.3768034 C94.2151054,90.3212582 110.019453,96.3590951 122.164293,107.3093 C107.458808,109.085267 92.6552397,109.929977 77.842604,109.83835 C63.0299899,109.929975 48.2264429,109.085265 33.5209803,107.3093 C45.6658016,96.3591005 61.4701305,90.3212633 77.842604,90.3768034 L77.8426148,90.3768034 Z M22.3186037,120.659606 C35.5044558,123.364065 56.1323114,124.975115 77.842604,124.975115 C79.0401201,124.975115 80.0108988,124.006987 80.0108988,122.81274 C80.0108988,121.618493 79.0401201,120.650365 77.842604,120.650365 C57.3608783,120.650365 37.8983161,119.212542 24.9460184,116.774025 C26.400966,114.804512 27.9690343,112.920659 29.6423523,111.131921 C42.6824318,113.086393 59.7610063,114.163197 77.842604,114.163197 C95.9242016,114.163197 113.002755,113.086393 126.042856,111.131921 C130.264949,115.652254 133.793748,120.77023 136.51481,126.319868 C124.182203,129.50658 102.053905,131.462315 77.8426148,131.462315 C53.6313246,131.462315 31.5030805,129.506537 19.1704735,126.319825 C20.1202096,124.379655 21.1710208,122.490336 22.3186037,120.659606 L22.3186037,120.659606 Z" id="Shape" fill="#D3AEFF" fill-rule="nonzero" opacity="0.25155785" transform="translate(77.842671, 121.731493) rotate(20.000000) translate(-77.842671, -121.731493) "></path>
                        <path d="M47.9858769,38.8863173 C51.6582295,41.8037016 56.3755221,42.9920245 60.9594627,42.1544649 C65.5434033,41.3169054 69.5611541,38.5325499 72.0091558,34.4968786 C77.1127793,26.0639099 75.1961277,15.0728191 67.5535734,8.94621969 C64.6569615,6.66743217 61.1028587,5.42644807 57.4429736,5.41590713 L57.441478,5.41590713 C51.7777267,5.45015284 46.5266245,8.43969978 43.5303799,13.3357455 C38.426667,21.7686504 40.3432929,32.7597668 47.9858769,38.8863173 L47.9858769,38.8863173 Z M54.6104438,24.4624331 C54.4140983,23.2767872 53.3118374,22.4774015 52.1477302,22.6764149 L44.9375105,23.9214921 C44.8943948,22.3617657 45.091266,20.8047791 45.5209731,19.3070885 L58.4953409,17.1672337 C59.6604257,16.9735205 60.4514917,15.8553817 60.263341,14.6682394 C60.0751902,13.4810971 58.9788891,12.673347 57.8131531,12.8629513 L47.9880135,14.48338 C50.269254,11.5271869 53.7505563,9.79357684 57.4418732,9.77557107 C60.1690952,9.79020527 62.8156225,10.7196683 64.9722207,12.4202366 C67.3054749,14.2517246 69.0251147,16.7738932 69.8951267,19.6405855 L60.5793711,21.2198998 C59.4826211,21.4072421 58.7093684,22.418865 58.7999195,23.5479021 C58.8904707,24.6769392 59.8146623,25.5472993 60.9267202,25.5508228 C61.0448355,25.5506075 61.1627392,25.5406354 61.279272,25.5210045 L70.6032858,23.9402537 C70.6896134,26.8377213 69.9257562,29.6955934 68.4093556,32.1485569 C66.7286465,34.9639261 64.0091708,36.9745482 60.8605257,37.7297222 C57.7118806,38.4848962 54.3974337,37.921456 51.660151,36.1657022 L60.2925435,34.4792488 C61.4503534,34.2504152 62.2080998,33.1104221 61.9867645,31.9303747 C61.7654292,30.7503273 60.6484732,29.9751974 59.4893983,30.1972865 L47.7596561,32.488812 C46.8371143,31.1902355 46.1258296,29.7488319 45.6531053,28.2199306 L52.86012,26.9754519 C54.0243022,26.7731993 54.8076075,25.6485589 54.6104224,24.4624331 L54.6104438,24.4624331 Z" id="Shape" fill="#CE2C4E" fill-rule="nonzero" opacity="0.416062128" transform="translate(57.769731, 23.916380) rotate(20.000000) translate(-57.769731, -23.916380) "></path>
                    </g>
                </g>
            </g>
        </g>
    </g>
</svg>